<?xml version="1.0" encoding="us-ascii" standalone="no"?><svg xmlns="http://www.w3.org/2000/svg" xmlns:xlink="http://www.w3.org/1999/xlink" contentStyleType="text/css" height="1092px" preserveAspectRatio="none" style="width:874px;height:1092px;background:#FFFFFF;" version="1.1" viewBox="0 0 874 1092" width="874px" zoomAndPan="magnify"><defs/><g><!--class Continent--><g id="elem_Continent"><rect codeLine="5" fill="#F1F1F1" height="241.7031" id="Continent" rx="2.5" ry="2.5" style="stroke:#181818;stroke-width:0.5;" width="93" x="774" y="835"/><ellipse cx="789" cy="851" fill="#ADD1B2" rx="11" ry="11" style="stroke:#181818;stroke-width:1.0;"/><path d="M787.8594,851.7969 L787.8594,854.2969 L792.1875,854.2969 L792.1875,853.375 Q792.1875,852.7656 792.4219,852.5 Q792.6719,852.2344 793.0469,852.2344 Q793.4219,852.2344 793.6563,852.5 Q793.8906,852.7656 793.8906,853.375 L793.8906,856 L785.8906,856 Q785.2656,856 785,855.7656 Q784.75,855.5313 784.75,855.1406 Q784.75,854.7656 785.0156,854.5313 Q785.2813,854.2969 785.8906,854.2969 L786.1563,854.2969 L786.1563,847.6406 L785.8906,847.6406 Q785.2656,847.6406 785,847.4063 Q784.75,847.1719 784.75,846.7813 Q784.75,846.4063 785,846.1719 Q785.2656,845.9375 785.8906,845.9375 L793.5156,845.9375 L793.5156,848.5313 Q793.5156,849.1406 793.2813,849.4063 Q793.0625,849.6563 792.6719,849.6563 Q792.2969,849.6563 792.0625,849.4063 Q791.8281,849.1406 791.8281,848.5313 L791.8281,847.6406 L787.8594,847.6406 L787.8594,850.0938 L789.3438,850.0938 Q789.3438,849.4375 789.4688,849.25 Q789.7344,848.8438 790.2031,848.8438 Q790.5781,848.8438 790.8125,849.1094 Q791.0469,849.3594 791.0469,849.9688 L791.0469,851.9375 Q791.0469,852.4844 790.9219,852.6719 Q790.6563,853.0625 790.2031,853.0625 Q789.7344,853.0625 789.4688,852.6563 Q789.3438,852.4688 789.3438,851.7969 L787.8594,851.7969 Z " fill="#000000"/><text fill="#000000" font-family="sans-serif" font-size="14" lengthAdjust="spacing" textLength="61" x="803" y="856.7285">Continent</text><line style="stroke:#181818;stroke-width:0.5;" x1="775" x2="866" y1="867" y2="867"/><text fill="#000000" font-family="sans-serif" font-size="14" lengthAdjust="spacing" text-decoration="underline" textLength="11" x="780" y="885.5332">id</text><text fill="#000000" font-family="sans-serif" font-size="14" lengthAdjust="spacing" textLength="35" x="780" y="903.1426">name</text><text fill="#000000" font-family="sans-serif" font-size="14" lengthAdjust="spacing" textLength="31" x="780" y="920.752">code</text><text fill="#000000" font-family="sans-serif" font-size="14" lengthAdjust="spacing" textLength="66" x="780" y="938.3613">population</text><text fill="#000000" font-family="sans-serif" font-size="14" lengthAdjust="spacing" textLength="68" x="780" y="955.9707">created_at</text><text fill="#000000" font-family="sans-serif" font-size="14" lengthAdjust="spacing" textLength="71" x="780" y="973.5801">created_by</text><text fill="#000000" font-family="sans-serif" font-size="14" lengthAdjust="spacing" textLength="72" x="780" y="991.1895">updated_at</text><text fill="#000000" font-family="sans-serif" font-size="14" lengthAdjust="spacing" textLength="75" x="780" y="1008.7988">updated_by</text><text fill="#000000" font-family="sans-serif" font-size="14" lengthAdjust="spacing" textLength="67" x="780" y="1026.4082">deleted_at</text><text fill="#000000" font-family="sans-serif" font-size="14" lengthAdjust="spacing" textLength="70" x="780" y="1044.0176">deleted_by</text><text fill="#000000" font-family="sans-serif" font-size="14" lengthAdjust="spacing" textLength="65" x="780" y="1061.627">is_deleted</text><line style="stroke:#181818;stroke-width:0.5;" x1="775" x2="866" y1="1068.7031" y2="1068.7031"/></g><!--class Country--><g id="elem_Country"><rect codeLine="19" fill="#F1F1F1" height="259.3125" id="Country" rx="2.5" ry="2.5" style="stroke:#181818;stroke-width:0.5;" width="87" x="563" y="826.5"/><ellipse cx="580.25" cy="842.5" fill="#ADD1B2" rx="11" ry="11" style="stroke:#181818;stroke-width:1.0;"/><path d="M579.1094,843.2969 L579.1094,845.7969 L583.4375,845.7969 L583.4375,844.875 Q583.4375,844.2656 583.6719,844 Q583.9219,843.7344 584.2969,843.7344 Q584.6719,843.7344 584.9063,844 Q585.1406,844.2656 585.1406,844.875 L585.1406,847.5 L577.1406,847.5 Q576.5156,847.5 576.25,847.2656 Q576,847.0313 576,846.6406 Q576,846.2656 576.2656,846.0313 Q576.5313,845.7969 577.1406,845.7969 L577.4063,845.7969 L577.4063,839.1406 L577.1406,839.1406 Q576.5156,839.1406 576.25,838.9063 Q576,838.6719 576,838.2813 Q576,837.9063 576.25,837.6719 Q576.5156,837.4375 577.1406,837.4375 L584.7656,837.4375 L584.7656,840.0313 Q584.7656,840.6406 584.5313,840.9063 Q584.3125,841.1563 583.9219,841.1563 Q583.5469,841.1563 583.3125,840.9063 Q583.0781,840.6406 583.0781,840.0313 L583.0781,839.1406 L579.1094,839.1406 L579.1094,841.5938 L580.5938,841.5938 Q580.5938,840.9375 580.7188,840.75 Q580.9844,840.3438 581.4531,840.3438 Q581.8281,840.3438 582.0625,840.6094 Q582.2969,840.8594 582.2969,841.4688 L582.2969,843.4375 Q582.2969,843.9844 582.1719,844.1719 Q581.9063,844.5625 581.4531,844.5625 Q580.9844,844.5625 580.7188,844.1563 Q580.5938,843.9688 580.5938,843.2969 L579.1094,843.2969 Z " fill="#000000"/><text fill="#000000" font-family="sans-serif" font-size="14" lengthAdjust="spacing" textLength="50" x="594.75" y="848.2285">Country</text><line style="stroke:#181818;stroke-width:0.5;" x1="564" x2="649" y1="858.5" y2="858.5"/><text fill="#000000" font-family="sans-serif" font-size="14" lengthAdjust="spacing" text-decoration="underline" textLength="11" x="569" y="877.0332">id</text><text fill="#000000" font-family="sans-serif" font-size="14" lengthAdjust="spacing" textLength="35" x="569" y="894.6426">name</text><text fill="#000000" font-family="sans-serif" font-size="14" lengthAdjust="spacing" textLength="26" x="569" y="912.252">iso2</text><text fill="#000000" font-family="sans-serif" font-size="14" lengthAdjust="spacing" textLength="26" x="569" y="929.8613">iso3</text><text fill="#000000" font-family="sans-serif" font-size="14" lengthAdjust="spacing" textLength="66" x="569" y="947.4707">population</text><text fill="#000000" font-family="sans-serif" font-size="14" lengthAdjust="spacing" textLength="68" x="569" y="965.0801">created_at</text><text fill="#000000" font-family="sans-serif" font-size="14" lengthAdjust="spacing" textLength="71" x="569" y="982.6895">created_by</text><text fill="#000000" font-family="sans-serif" font-size="14" lengthAdjust="spacing" textLength="72" x="569" y="1000.2988">updated_at</text><text fill="#000000" font-family="sans-serif" font-size="14" lengthAdjust="spacing" textLength="75" x="569" y="1017.9082">updated_by</text><text fill="#000000" font-family="sans-serif" font-size="14" lengthAdjust="spacing" textLength="67" x="569" y="1035.5176">deleted_at</text><text fill="#000000" font-family="sans-serif" font-size="14" lengthAdjust="spacing" textLength="70" x="569" y="1053.127">deleted_by</text><text fill="#000000" font-family="sans-serif" font-size="14" lengthAdjust="spacing" textLength="65" x="569" y="1070.7363">is_deleted</text><line style="stroke:#181818;stroke-width:0.5;" x1="564" x2="649" y1="1077.8125" y2="1077.8125"/></g><!--class User--><g id="elem_User"><rect codeLine="34" fill="#F1F1F1" height="312.1406" id="User" rx="2.5" ry="2.5" style="stroke:#181818;stroke-width:0.5;" width="87" x="36" y="7"/><ellipse cx="62.7" cy="23" fill="#ADD1B2" rx="11" ry="11" style="stroke:#181818;stroke-width:1.0;"/><path d="M61.5594,23.7969 L61.5594,26.2969 L65.8875,26.2969 L65.8875,25.375 Q65.8875,24.7656 66.1219,24.5 Q66.3719,24.2344 66.7469,24.2344 Q67.1219,24.2344 67.3563,24.5 Q67.5906,24.7656 67.5906,25.375 L67.5906,28 L59.5906,28 Q58.9656,28 58.7,27.7656 Q58.45,27.5313 58.45,27.1406 Q58.45,26.7656 58.7156,26.5313 Q58.9813,26.2969 59.5906,26.2969 L59.8563,26.2969 L59.8563,19.6406 L59.5906,19.6406 Q58.9656,19.6406 58.7,19.4063 Q58.45,19.1719 58.45,18.7813 Q58.45,18.4063 58.7,18.1719 Q58.9656,17.9375 59.5906,17.9375 L67.2156,17.9375 L67.2156,20.5313 Q67.2156,21.1406 66.9813,21.4063 Q66.7625,21.6563 66.3719,21.6563 Q65.9969,21.6563 65.7625,21.4063 Q65.5281,21.1406 65.5281,20.5313 L65.5281,19.6406 L61.5594,19.6406 L61.5594,22.0938 L63.0438,22.0938 Q63.0438,21.4375 63.1688,21.25 Q63.4344,20.8438 63.9031,20.8438 Q64.2781,20.8438 64.5125,21.1094 Q64.7469,21.3594 64.7469,21.9688 L64.7469,23.9375 Q64.7469,24.4844 64.6219,24.6719 Q64.3563,25.0625 63.9031,25.0625 Q63.4344,25.0625 63.1688,24.6563 Q63.0438,24.4688 63.0438,23.7969 L61.5594,23.7969 Z " fill="#000000"/><text fill="#000000" font-family="sans-serif" font-size="14" lengthAdjust="spacing" textLength="29" x="79.3" y="28.7285">User</text><line style="stroke:#181818;stroke-width:0.5;" x1="37" x2="122" y1="39" y2="39"/><text fill="#000000" font-family="sans-serif" font-size="14" lengthAdjust="spacing" text-decoration="underline" textLength="11" x="42" y="57.5332">id</text><text fill="#000000" font-family="sans-serif" font-size="14" lengthAdjust="spacing" textLength="58" x="42" y="75.1426">firstname</text><text fill="#000000" font-family="sans-serif" font-size="14" lengthAdjust="spacing" textLength="57" x="42" y="92.752">lastname</text><text fill="#000000" font-family="sans-serif" font-size="14" lengthAdjust="spacing" textLength="63" x="42" y="110.3613">username</text><text fill="#000000" font-family="sans-serif" font-size="14" lengthAdjust="spacing" textLength="33" x="42" y="127.9707">email</text><text fill="#000000" font-family="sans-serif" font-size="14" lengthAdjust="spacing" textLength="60" x="42" y="145.5801">password</text><text fill="#000000" font-family="sans-serif" font-size="14" lengthAdjust="spacing" textLength="45" x="42" y="163.1895">gender</text><text fill="#000000" font-family="sans-serif" font-size="14" lengthAdjust="spacing" textLength="56" x="42" y="180.7988">birthdate</text><text fill="#000000" font-family="sans-serif" font-size="14" lengthAdjust="spacing" textLength="68" x="42" y="198.4082">created_at</text><text fill="#000000" font-family="sans-serif" font-size="14" lengthAdjust="spacing" textLength="71" x="42" y="216.0176">created_by</text><text fill="#000000" font-family="sans-serif" font-size="14" lengthAdjust="spacing" textLength="72" x="42" y="233.627">updated_at</text><text fill="#000000" font-family="sans-serif" font-size="14" lengthAdjust="spacing" textLength="75" x="42" y="251.2363">updated_by</text><text fill="#000000" font-family="sans-serif" font-size="14" lengthAdjust="spacing" textLength="67" x="42" y="268.8457">deleted_at</text><text fill="#000000" font-family="sans-serif" font-size="14" lengthAdjust="spacing" textLength="70" x="42" y="286.4551">deleted_by</text><text fill="#000000" font-family="sans-serif" font-size="14" lengthAdjust="spacing" textLength="65" x="42" y="304.0645">is_deleted</text><line style="stroke:#181818;stroke-width:0.5;" x1="37" x2="122" y1="311.1406" y2="311.1406"/></g><!--class Role--><g id="elem_Role"><rect codeLine="52" fill="#F1F1F1" height="224.0938" id="Role" rx="2.5" ry="2.5" style="stroke:#181818;stroke-width:0.5;" width="87" x="318.5" y="51"/><ellipse cx="345.2" cy="67" fill="#ADD1B2" rx="11" ry="11" style="stroke:#181818;stroke-width:1.0;"/><path d="M344.0594,67.7969 L344.0594,70.2969 L348.3875,70.2969 L348.3875,69.375 Q348.3875,68.7656 348.6219,68.5 Q348.8719,68.2344 349.2469,68.2344 Q349.6219,68.2344 349.8563,68.5 Q350.0906,68.7656 350.0906,69.375 L350.0906,72 L342.0906,72 Q341.4656,72 341.2,71.7656 Q340.95,71.5313 340.95,71.1406 Q340.95,70.7656 341.2156,70.5313 Q341.4813,70.2969 342.0906,70.2969 L342.3563,70.2969 L342.3563,63.6406 L342.0906,63.6406 Q341.4656,63.6406 341.2,63.4063 Q340.95,63.1719 340.95,62.7813 Q340.95,62.4063 341.2,62.1719 Q341.4656,61.9375 342.0906,61.9375 L349.7156,61.9375 L349.7156,64.5313 Q349.7156,65.1406 349.4813,65.4063 Q349.2625,65.6563 348.8719,65.6563 Q348.4969,65.6563 348.2625,65.4063 Q348.0281,65.1406 348.0281,64.5313 L348.0281,63.6406 L344.0594,63.6406 L344.0594,66.0938 L345.5438,66.0938 Q345.5438,65.4375 345.6688,65.25 Q345.9344,64.8438 346.4031,64.8438 Q346.7781,64.8438 347.0125,65.1094 Q347.2469,65.3594 347.2469,65.9688 L347.2469,67.9375 Q347.2469,68.4844 347.1219,68.6719 Q346.8563,69.0625 346.4031,69.0625 Q345.9344,69.0625 345.6688,68.6563 Q345.5438,68.4688 345.5438,67.7969 L344.0594,67.7969 Z " fill="#000000"/><text fill="#000000" font-family="sans-serif" font-size="14" lengthAdjust="spacing" textLength="29" x="361.8" y="72.7285">Role</text><line style="stroke:#181818;stroke-width:0.5;" x1="319.5" x2="404.5" y1="83" y2="83"/><text fill="#000000" font-family="sans-serif" font-size="14" lengthAdjust="spacing" text-decoration="underline" textLength="11" x="324.5" y="101.5332">id</text><text fill="#000000" font-family="sans-serif" font-size="14" lengthAdjust="spacing" textLength="35" x="324.5" y="119.1426">name</text><text fill="#000000" font-family="sans-serif" font-size="14" lengthAdjust="spacing" textLength="69" x="324.5" y="136.752">description</text><text fill="#000000" font-family="sans-serif" font-size="14" lengthAdjust="spacing" textLength="68" x="324.5" y="154.3613">created_at</text><text fill="#000000" font-family="sans-serif" font-size="14" lengthAdjust="spacing" textLength="71" x="324.5" y="171.9707">created_by</text><text fill="#000000" font-family="sans-serif" font-size="14" lengthAdjust="spacing" textLength="72" x="324.5" y="189.5801">updated_at</text><text fill="#000000" font-family="sans-serif" font-size="14" lengthAdjust="spacing" textLength="75" x="324.5" y="207.1895">updated_by</text><text fill="#000000" font-family="sans-serif" font-size="14" lengthAdjust="spacing" textLength="67" x="324.5" y="224.7988">deleted_at</text><text fill="#000000" font-family="sans-serif" font-size="14" lengthAdjust="spacing" textLength="70" x="324.5" y="242.4082">deleted_by</text><text fill="#000000" font-family="sans-serif" font-size="14" lengthAdjust="spacing" textLength="65" x="324.5" y="260.0176">is_deleted</text><line style="stroke:#181818;stroke-width:0.5;" x1="319.5" x2="404.5" y1="267.0938" y2="267.0938"/></g><!--class Epidemic--><g id="elem_Epidemic"><rect codeLine="65" fill="#F1F1F1" height="347.3594" id="Epidemic" rx="2.5" ry="2.5" style="stroke:#181818;stroke-width:0.5;" width="134" x="295" y="321.5"/><ellipse cx="330.25" cy="337.5" fill="#ADD1B2" rx="11" ry="11" style="stroke:#181818;stroke-width:1.0;"/><path d="M329.1094,338.2969 L329.1094,340.7969 L333.4375,340.7969 L333.4375,339.875 Q333.4375,339.2656 333.6719,339 Q333.9219,338.7344 334.2969,338.7344 Q334.6719,338.7344 334.9063,339 Q335.1406,339.2656 335.1406,339.875 L335.1406,342.5 L327.1406,342.5 Q326.5156,342.5 326.25,342.2656 Q326,342.0313 326,341.6406 Q326,341.2656 326.2656,341.0313 Q326.5313,340.7969 327.1406,340.7969 L327.4063,340.7969 L327.4063,334.1406 L327.1406,334.1406 Q326.5156,334.1406 326.25,333.9063 Q326,333.6719 326,333.2813 Q326,332.9063 326.25,332.6719 Q326.5156,332.4375 327.1406,332.4375 L334.7656,332.4375 L334.7656,335.0313 Q334.7656,335.6406 334.5313,335.9063 Q334.3125,336.1563 333.9219,336.1563 Q333.5469,336.1563 333.3125,335.9063 Q333.0781,335.6406 333.0781,335.0313 L333.0781,334.1406 L329.1094,334.1406 L329.1094,336.5938 L330.5938,336.5938 Q330.5938,335.9375 330.7188,335.75 Q330.9844,335.3438 331.4531,335.3438 Q331.8281,335.3438 332.0625,335.6094 Q332.2969,335.8594 332.2969,336.4688 L332.2969,338.4375 Q332.2969,338.9844 332.1719,339.1719 Q331.9063,339.5625 331.4531,339.5625 Q330.9844,339.5625 330.7188,339.1563 Q330.5938,338.9688 330.5938,338.2969 L329.1094,338.2969 Z " fill="#000000"/><text fill="#000000" font-family="sans-serif" font-size="14" lengthAdjust="spacing" textLength="57" x="348.75" y="343.2285">Epidemic</text><line style="stroke:#181818;stroke-width:0.5;" x1="296" x2="428" y1="353.5" y2="353.5"/><text fill="#000000" font-family="sans-serif" font-size="14" lengthAdjust="spacing" text-decoration="underline" textLength="11" x="301" y="372.0332">id</text><text fill="#000000" font-family="sans-serif" font-size="14" lengthAdjust="spacing" textLength="35" x="301" y="389.6426">name</text><text fill="#000000" font-family="sans-serif" font-size="14" lengthAdjust="spacing" textLength="64" x="301" y="407.252">start_date</text><text fill="#000000" font-family="sans-serif" font-size="14" lengthAdjust="spacing" textLength="60" x="301" y="424.8613">end_date</text><text fill="#000000" font-family="sans-serif" font-size="14" lengthAdjust="spacing" textLength="27" x="301" y="442.4707">type</text><text fill="#000000" font-family="sans-serif" font-size="14" lengthAdjust="spacing" textLength="103" x="301" y="460.0801">pathogen_name</text><text fill="#000000" font-family="sans-serif" font-size="14" lengthAdjust="spacing" textLength="69" x="301" y="477.6895">description</text><text fill="#000000" font-family="sans-serif" font-size="14" lengthAdjust="spacing" textLength="122" x="301" y="495.2988">transmission_mode</text><text fill="#000000" font-family="sans-serif" font-size="14" lengthAdjust="spacing" textLength="63" x="301" y="512.9082">symptoms</text><text fill="#000000" font-family="sans-serif" font-size="14" lengthAdjust="spacing" textLength="113" x="301" y="530.5176">reproduction_rate</text><text fill="#000000" font-family="sans-serif" font-size="14" lengthAdjust="spacing" textLength="68" x="301" y="548.127">created_at</text><text fill="#000000" font-family="sans-serif" font-size="14" lengthAdjust="spacing" textLength="71" x="301" y="565.7363">created_by</text><text fill="#000000" font-family="sans-serif" font-size="14" lengthAdjust="spacing" textLength="72" x="301" y="583.3457">updated_at</text><text fill="#000000" font-family="sans-serif" font-size="14" lengthAdjust="spacing" textLength="75" x="301" y="600.9551">updated_by</text><text fill="#000000" font-family="sans-serif" font-size="14" lengthAdjust="spacing" textLength="67" x="301" y="618.5645">deleted_at</text><text fill="#000000" font-family="sans-serif" font-size="14" lengthAdjust="spacing" textLength="70" x="301" y="636.1738">deleted_by</text><text fill="#000000" font-family="sans-serif" font-size="14" lengthAdjust="spacing" textLength="65" x="301" y="653.7832">is_deleted</text><line style="stroke:#181818;stroke-width:0.5;" x1="296" x2="428" y1="660.8594" y2="660.8594"/></g><!--class Vaccine--><g id="elem_Vaccine"><rect codeLine="85" fill="#F1F1F1" height="294.5313" id="Vaccine" rx="2.5" ry="2.5" style="stroke:#181818;stroke-width:0.5;" width="145" x="7" y="358.5"/><ellipse cx="50.35" cy="374.5" fill="#ADD1B2" rx="11" ry="11" style="stroke:#181818;stroke-width:1.0;"/><path d="M49.2094,375.2969 L49.2094,377.7969 L53.5375,377.7969 L53.5375,376.875 Q53.5375,376.2656 53.7719,376 Q54.0219,375.7344 54.3969,375.7344 Q54.7719,375.7344 55.0063,376 Q55.2406,376.2656 55.2406,376.875 L55.2406,379.5 L47.2406,379.5 Q46.6156,379.5 46.35,379.2656 Q46.1,379.0313 46.1,378.6406 Q46.1,378.2656 46.3656,378.0313 Q46.6313,377.7969 47.2406,377.7969 L47.5063,377.7969 L47.5063,371.1406 L47.2406,371.1406 Q46.6156,371.1406 46.35,370.9063 Q46.1,370.6719 46.1,370.2813 Q46.1,369.9063 46.35,369.6719 Q46.6156,369.4375 47.2406,369.4375 L54.8656,369.4375 L54.8656,372.0313 Q54.8656,372.6406 54.6313,372.9063 Q54.4125,373.1563 54.0219,373.1563 Q53.6469,373.1563 53.4125,372.9063 Q53.1781,372.6406 53.1781,372.0313 L53.1781,371.1406 L49.2094,371.1406 L49.2094,373.5938 L50.6938,373.5938 Q50.6938,372.9375 50.8188,372.75 Q51.0844,372.3438 51.5531,372.3438 Q51.9281,372.3438 52.1625,372.6094 Q52.3969,372.8594 52.3969,373.4688 L52.3969,375.4375 Q52.3969,375.9844 52.2719,376.1719 Q52.0063,376.5625 51.5531,376.5625 Q51.0844,376.5625 50.8188,376.1563 Q50.6938,375.9688 50.6938,375.2969 L49.2094,375.2969 Z " fill="#000000"/><text fill="#000000" font-family="sans-serif" font-size="14" lengthAdjust="spacing" textLength="50" x="70.65" y="380.2285">Vaccine</text><line style="stroke:#181818;stroke-width:0.5;" x1="8" x2="151" y1="390.5" y2="390.5"/><text fill="#000000" font-family="sans-serif" font-size="14" lengthAdjust="spacing" text-decoration="underline" textLength="11" x="13" y="409.0332">id</text><text fill="#000000" font-family="sans-serif" font-size="14" lengthAdjust="spacing" textLength="35" x="13" y="426.6426">name</text><text fill="#000000" font-family="sans-serif" font-size="14" lengthAdjust="spacing" textLength="64" x="13" y="444.252">laboratory</text><text fill="#000000" font-family="sans-serif" font-size="14" lengthAdjust="spacing" textLength="69" x="13" y="461.8613">technology</text><text fill="#000000" font-family="sans-serif" font-size="14" lengthAdjust="spacing" textLength="31" x="13" y="479.4707">dose</text><text fill="#000000" font-family="sans-serif" font-size="14" lengthAdjust="spacing" textLength="48" x="13" y="497.0801">efficacy</text><text fill="#000000" font-family="sans-serif" font-size="14" lengthAdjust="spacing" textLength="133" x="13" y="514.6895">storage_temperature</text><text fill="#000000" font-family="sans-serif" font-size="14" lengthAdjust="spacing" textLength="68" x="13" y="532.2988">created_at</text><text fill="#000000" font-family="sans-serif" font-size="14" lengthAdjust="spacing" textLength="71" x="13" y="549.9082">created_by</text><text fill="#000000" font-family="sans-serif" font-size="14" lengthAdjust="spacing" textLength="72" x="13" y="567.5176">updated_at</text><text fill="#000000" font-family="sans-serif" font-size="14" lengthAdjust="spacing" textLength="75" x="13" y="585.127">updated_by</text><text fill="#000000" font-family="sans-serif" font-size="14" lengthAdjust="spacing" textLength="67" x="13" y="602.7363">deleted_at</text><text fill="#000000" font-family="sans-serif" font-size="14" lengthAdjust="spacing" textLength="70" x="13" y="620.3457">deleted_by</text><text fill="#000000" font-family="sans-serif" font-size="14" lengthAdjust="spacing" textLength="65" x="13" y="637.9551">is_deleted</text><line style="stroke:#181818;stroke-width:0.5;" x1="8" x2="151" y1="645.0313" y2="645.0313"/></g><!--class DailyWise--><g id="elem_DailyWise"><rect codeLine="102" fill="#F1F1F1" height="259.3125" id="DailyWise" rx="2.5" ry="2.5" style="stroke:#181818;stroke-width:0.5;" width="94" x="315" y="703.5"/><ellipse cx="330" cy="719.5" fill="#ADD1B2" rx="11" ry="11" style="stroke:#181818;stroke-width:1.0;"/><path d="M328.8594,720.2969 L328.8594,722.7969 L333.1875,722.7969 L333.1875,721.875 Q333.1875,721.2656 333.4219,721 Q333.6719,720.7344 334.0469,720.7344 Q334.4219,720.7344 334.6563,721 Q334.8906,721.2656 334.8906,721.875 L334.8906,724.5 L326.8906,724.5 Q326.2656,724.5 326,724.2656 Q325.75,724.0313 325.75,723.6406 Q325.75,723.2656 326.0156,723.0313 Q326.2813,722.7969 326.8906,722.7969 L327.1563,722.7969 L327.1563,716.1406 L326.8906,716.1406 Q326.2656,716.1406 326,715.9063 Q325.75,715.6719 325.75,715.2813 Q325.75,714.9063 326,714.6719 Q326.2656,714.4375 326.8906,714.4375 L334.5156,714.4375 L334.5156,717.0313 Q334.5156,717.6406 334.2813,717.9063 Q334.0625,718.1563 333.6719,718.1563 Q333.2969,718.1563 333.0625,717.9063 Q332.8281,717.6406 332.8281,717.0313 L332.8281,716.1406 L328.8594,716.1406 L328.8594,718.5938 L330.3438,718.5938 Q330.3438,717.9375 330.4688,717.75 Q330.7344,717.3438 331.2031,717.3438 Q331.5781,717.3438 331.8125,717.6094 Q332.0469,717.8594 332.0469,718.4688 L332.0469,720.4375 Q332.0469,720.9844 331.9219,721.1719 Q331.6563,721.5625 331.2031,721.5625 Q330.7344,721.5625 330.4688,721.1563 Q330.3438,720.9688 330.3438,720.2969 L328.8594,720.2969 Z " fill="#000000"/><text fill="#000000" font-family="sans-serif" font-size="14" lengthAdjust="spacing" textLength="62" x="344" y="725.2285">DailyWise</text><line style="stroke:#181818;stroke-width:0.5;" x1="316" x2="408" y1="735.5" y2="735.5"/><text fill="#000000" font-family="sans-serif" font-size="14" lengthAdjust="spacing" text-decoration="underline" textLength="11" x="321" y="754.0332">id</text><text fill="#000000" font-family="sans-serif" font-size="14" lengthAdjust="spacing" textLength="28" x="321" y="771.6426">date</text><text fill="#000000" font-family="sans-serif" font-size="14" lengthAdjust="spacing" textLength="54" x="321" y="789.252">province</text><text fill="#000000" font-family="sans-serif" font-size="14" lengthAdjust="spacing" textLength="46" x="321" y="806.8613">latitude</text><text fill="#000000" font-family="sans-serif" font-size="14" lengthAdjust="spacing" textLength="58" x="321" y="824.4707">longitude</text><text fill="#000000" font-family="sans-serif" font-size="14" lengthAdjust="spacing" textLength="68" x="321" y="842.0801">created_at</text><text fill="#000000" font-family="sans-serif" font-size="14" lengthAdjust="spacing" textLength="71" x="321" y="859.6895">created_by</text><text fill="#000000" font-family="sans-serif" font-size="14" lengthAdjust="spacing" textLength="72" x="321" y="877.2988">updated_at</text><text fill="#000000" font-family="sans-serif" font-size="14" lengthAdjust="spacing" textLength="75" x="321" y="894.9082">updated_by</text><text fill="#000000" font-family="sans-serif" font-size="14" lengthAdjust="spacing" textLength="67" x="321" y="912.5176">deleted_at</text><text fill="#000000" font-family="sans-serif" font-size="14" lengthAdjust="spacing" textLength="70" x="321" y="930.127">deleted_by</text><text fill="#000000" font-family="sans-serif" font-size="14" lengthAdjust="spacing" textLength="65" x="321" y="947.7363">is_deleted</text><line style="stroke:#181818;stroke-width:0.5;" x1="316" x2="408" y1="954.8125" y2="954.8125"/></g><!--class Statistic--><g id="elem_Statistic"><rect codeLine="117" fill="#F1F1F1" height="259.3125" id="Statistic" rx="2.5" ry="2.5" style="stroke:#181818;stroke-width:0.5;" width="96" x="31.5" y="703.5"/><ellipse cx="53.25" cy="719.5" fill="#ADD1B2" rx="11" ry="11" style="stroke:#181818;stroke-width:1.0;"/><path d="M52.1094,720.2969 L52.1094,722.7969 L56.4375,722.7969 L56.4375,721.875 Q56.4375,721.2656 56.6719,721 Q56.9219,720.7344 57.2969,720.7344 Q57.6719,720.7344 57.9063,721 Q58.1406,721.2656 58.1406,721.875 L58.1406,724.5 L50.1406,724.5 Q49.5156,724.5 49.25,724.2656 Q49,724.0313 49,723.6406 Q49,723.2656 49.2656,723.0313 Q49.5313,722.7969 50.1406,722.7969 L50.4063,722.7969 L50.4063,716.1406 L50.1406,716.1406 Q49.5156,716.1406 49.25,715.9063 Q49,715.6719 49,715.2813 Q49,714.9063 49.25,714.6719 Q49.5156,714.4375 50.1406,714.4375 L57.7656,714.4375 L57.7656,717.0313 Q57.7656,717.6406 57.5313,717.9063 Q57.3125,718.1563 56.9219,718.1563 Q56.5469,718.1563 56.3125,717.9063 Q56.0781,717.6406 56.0781,717.0313 L56.0781,716.1406 L52.1094,716.1406 L52.1094,718.5938 L53.5938,718.5938 Q53.5938,717.9375 53.7188,717.75 Q53.9844,717.3438 54.4531,717.3438 Q54.8281,717.3438 55.0625,717.6094 Q55.2969,717.8594 55.2969,718.4688 L55.2969,720.4375 Q55.2969,720.9844 55.1719,721.1719 Q54.9063,721.5625 54.4531,721.5625 Q53.9844,721.5625 53.7188,721.1563 Q53.5938,720.9688 53.5938,720.2969 L52.1094,720.2969 Z " fill="#000000"/><text fill="#000000" font-family="sans-serif" font-size="14" lengthAdjust="spacing" textLength="49" x="68.75" y="725.2285">Statistic</text><line style="stroke:#181818;stroke-width:0.5;" x1="32.5" x2="126.5" y1="735.5" y2="735.5"/><text fill="#000000" font-family="sans-serif" font-size="14" lengthAdjust="spacing" text-decoration="underline" textLength="11" x="37.5" y="754.0332">id</text><text fill="#000000" font-family="sans-serif" font-size="14" lengthAdjust="spacing" textLength="30" x="37.5" y="771.6426">label</text><text fill="#000000" font-family="sans-serif" font-size="14" lengthAdjust="spacing" textLength="34" x="37.5" y="789.252">value</text><text fill="#000000" font-family="sans-serif" font-size="14" lengthAdjust="spacing" textLength="81" x="37.5" y="806.8613">published_at</text><text fill="#000000" font-family="sans-serif" font-size="14" lengthAdjust="spacing" textLength="84" x="37.5" y="824.4707">published_by</text><text fill="#000000" font-family="sans-serif" font-size="14" lengthAdjust="spacing" textLength="68" x="37.5" y="842.0801">created_at</text><text fill="#000000" font-family="sans-serif" font-size="14" lengthAdjust="spacing" textLength="71" x="37.5" y="859.6895">created_by</text><text fill="#000000" font-family="sans-serif" font-size="14" lengthAdjust="spacing" textLength="72" x="37.5" y="877.2988">updated_at</text><text fill="#000000" font-family="sans-serif" font-size="14" lengthAdjust="spacing" textLength="75" x="37.5" y="894.9082">updated_by</text><text fill="#000000" font-family="sans-serif" font-size="14" lengthAdjust="spacing" textLength="67" x="37.5" y="912.5176">deleted_at</text><text fill="#000000" font-family="sans-serif" font-size="14" lengthAdjust="spacing" textLength="70" x="37.5" y="930.127">deleted_by</text><text fill="#000000" font-family="sans-serif" font-size="14" lengthAdjust="spacing" textLength="65" x="37.5" y="947.7363">is_deleted</text><line style="stroke:#181818;stroke-width:0.5;" x1="32.5" x2="126.5" y1="954.8125" y2="954.8125"/></g><!--link Country to Continent--><g id="link_Country_Continent"><path codeLine="133" d="M650.15,956 C686.06,956 737.29,956 773.99,956 " fill="none" id="Country-Continent" style="stroke:#181818;stroke-width:1.0;"/><polygon fill="#000000" points="690,947.1758,680.9549,944.2369,680.9549,950.1147,690,947.1758" style="stroke:#000000;stroke-width:1.0;"/><text fill="#000000" font-family="sans-serif" font-size="13" lengthAdjust="spacing" textLength="49" x="694" y="952.4951">contains</text><text fill="#000000" font-family="sans-serif" font-size="13" lengthAdjust="spacing" textLength="22" x="657.8352" y="970.6229">1..1</text><text fill="#000000" font-family="sans-serif" font-size="13" lengthAdjust="spacing" textLength="22" x="743.9027" y="970.6657">0..n</text></g><!--link DailyWise to Country--><g id="link_DailyWise_Country"><path codeLine="134" d="M409.18,856.42 C453.43,878.87 519.67,912.47 562.74,934.31 " fill="none" id="DailyWise-Country" style="stroke:#181818;stroke-width:1.0;"/><polygon fill="#000000" points="468.4592,876.4376,461.7219,869.7249,459.063,874.967,468.4592,876.4376" style="stroke:#000000;stroke-width:1.0;"/><text fill="#000000" font-family="sans-serif" font-size="13" lengthAdjust="spacing" textLength="59" x="473" y="879.4951">located_in</text><text fill="#000000" font-family="sans-serif" font-size="13" lengthAdjust="spacing" textLength="22" x="416.9979" y="874.1398">1..1</text><text fill="#000000" font-family="sans-serif" font-size="13" lengthAdjust="spacing" textLength="22" x="533.0394" y="945.8827">0..n</text></g><!--link Statistic to DailyWise--><g id="link_Statistic_DailyWise"><path codeLine="135" d="M127.77,833 C179.91,833 263.28,833 314.94,833 " fill="none" id="Statistic-DailyWise" style="stroke:#181818;stroke-width:1.0;"/><polygon fill="#000000" points="197.5,824.1758,188.4549,821.2369,188.4549,827.1147,197.5,824.1758" style="stroke:#000000;stroke-width:1.0;"/><text fill="#000000" font-family="sans-serif" font-size="13" lengthAdjust="spacing" textLength="57" x="201.5" y="829.4951">related_to</text><text fill="#000000" font-family="sans-serif" font-size="13" lengthAdjust="spacing" textLength="22" x="135.364" y="847.5226">1..1</text><text fill="#000000" font-family="sans-serif" font-size="13" lengthAdjust="spacing" textLength="22" x="285.1382" y="847.5727">0..n</text></g><!--link Statistic to Country--><g id="link_Statistic_Country"><path codeLine="136" d="M127.67,884.37 C167.76,923.96 229.17,975.61 295,998 C387.06,1029.31 501.94,996.42 562.89,973.72 " fill="none" id="Statistic-Country" style="stroke:#181818;stroke-width:1.0;"/><polygon fill="#000000" points="353.8978,990.1813,345.6286,985.4834,344.4465,991.2412,353.8978,990.1813" style="stroke:#000000;stroke-width:1.0;"/><text fill="#000000" font-family="sans-serif" font-size="13" lengthAdjust="spacing" textLength="21" x="358" y="994.4951">has</text><text fill="#000000" font-family="sans-serif" font-size="13" lengthAdjust="spacing" textLength="22" x="135.621" y="905.8456">0..1</text><text fill="#000000" font-family="sans-serif" font-size="13" lengthAdjust="spacing" textLength="22" x="532.8692" y="990.9956">0..n</text></g><!--link Vaccine to Epidemic--><g id="link_Vaccine_Epidemic"><path codeLine="137" d="M152.01,503.2 C196,501.47 251.97,499.28 294.92,497.59 " fill="none" id="Vaccine-Epidemic" style="stroke:#181818;stroke-width:1.0;"/><polygon fill="#000000" points="201.4962,488.9797,192.3427,486.3978,192.5733,492.2711,201.4962,488.9797" style="stroke:#000000;stroke-width:1.0;"/><text fill="#000000" font-family="sans-serif" font-size="13" lengthAdjust="spacing" textLength="49" x="205.5" y="494.4951">used_for</text><text fill="#000000" font-family="sans-serif" font-size="13" lengthAdjust="spacing" textLength="22" x="159.9695" y="517.2298">1..1</text><text fill="#000000" font-family="sans-serif" font-size="13" lengthAdjust="spacing" textLength="22" x="264.868" y="512.1768">0..n</text></g><!--link Statistic to Epidemic--><g id="link_Statistic_Epidemic"><path codeLine="138" d="M127.86,809.23 C168.64,786.77 226.8,749.76 265,704 C275.94,690.9 285.9,676.34 294.91,661.18 " fill="none" id="Statistic-Epidemic" style="stroke:#181818;stroke-width:1.0;"/><polygon fill="#000000" points="190.7419,691.8595,182.0234,695.6593,185.922,700.0582,190.7419,691.8595" style="stroke:#000000;stroke-width:1.0;"/><text fill="#000000" font-family="sans-serif" font-size="13" lengthAdjust="spacing" textLength="68" x="196" y="700.4951">correlate_to</text><text fill="#000000" font-family="sans-serif" font-size="13" lengthAdjust="spacing" textLength="22" x="135.4655" y="820.7071">1..1</text><text fill="#000000" font-family="sans-serif" font-size="13" lengthAdjust="spacing" textLength="22" x="265.9551" y="690.1877">0..n</text></g><!--link Vaccine to DailyWise--><g id="link_Vaccine_DailyWise"><path codeLine="139" d="M152.26,564.88 C188.32,596.38 231.37,637.05 265,678 C282.98,699.89 300.12,725.42 314.81,749.37 " fill="none" id="Vaccine-DailyWise" style="stroke:#181818;stroke-width:1.0;"/><polygon fill="#000000" points="201.8054,587.9273,198.031,579.1978,193.6207,583.0836,201.8054,587.9273" style="stroke:#000000;stroke-width:1.0;"/><text fill="#000000" font-family="sans-serif" font-size="13" lengthAdjust="spacing" textLength="45" x="207.5" y="589.4951">used_in</text><text fill="#000000" font-family="sans-serif" font-size="13" lengthAdjust="spacing" textLength="22" x="159.9816" y="584.5784">0..n</text><text fill="#000000" font-family="sans-serif" font-size="13" lengthAdjust="spacing" textLength="22" x="284.9907" y="752.705">0..n</text></g><!--link User to Role--><g id="link_User_Role"><path codeLine="140" d="M123.1,163 C175.98,163 265.61,163 318.46,163 " fill="none" id="User-Role" style="stroke:#181818;stroke-width:1.0;"/><polygon fill="#000000" points="210,154.1758,200.9549,151.2369,200.9549,157.1147,210,154.1758" style="stroke:#000000;stroke-width:1.0;"/><text fill="#000000" font-family="sans-serif" font-size="13" lengthAdjust="spacing" textLength="32" x="214" y="159.4951">group</text><text fill="#000000" font-family="sans-serif" font-size="13" lengthAdjust="spacing" textLength="22" x="131.1194" y="177.6856">0..n</text><text fill="#000000" font-family="sans-serif" font-size="13" lengthAdjust="spacing" textLength="22" x="288.4494" y="177.6891">0..n</text></g><!--SRC=[nLN1Rjim3BtxAuHSUchGRhSS1WnRVs35jgF1I8nDL9O4YSvW5FsWVST-R9GSnnbYxxRi9D8KoST7YhPuOCLUHMfQLeOYQYRlglH2Ba24JWNGBz3WCmyMLJQ3QonMrPrwSapywsUgC0k3-kJbTAAerqgfryJ0fDyK6T4ST2Y7zYOVmOVUGaaato82ewc1BvJz84eVp6oPb68nQF5icPHYeLIVzEgjcf7rZkEmZekIVpSUx_y3lAy9umAs0yN49u0Mpc8ljqyYTa0s0uQKVlYOdHfq1gC8UuhSPaotgU6Bb_5OvTTWqf72xIXz2cIm8xqEIRv5hay42McJo4Ce8mhSUY6pNgo08xZKKKgYrjqur6de0likYHWnH6_wyfJgUBCUV0EjvG6krsnXxmMEZpa4eswTjxufcNmgF1mEf44FXH-vsc3Ds0KKfpxUg8hFCjF3TqfBTPnw9EmUoUcn977gImEiTyqatm3dSmQMU776X6ZC3_C8jY-0-xsbr4x1PxM4_vTWxzJ7bBociiwIWYDgfI4QSc37xJqjnytZTlkuKVVtQlEmtRhDnJxVoU9s32G1FbHpVnOynb0xwOKkMCc9nypKbSSSR2UlnXOV-HtzuVEmcgM536WQ-wlWvoMmoqlJr0SV_uxcma7xEE8PuPnpZ1UN2oX9IiLber_TBJjofvhe-o2NVWC0]--></g></svg>