<?xml version="1.0" encoding="us-ascii" standalone="no"?><svg xmlns="http://www.w3.org/2000/svg" xmlns:xlink="http://www.w3.org/1999/xlink" contentStyleType="text/css" height="1170px" preserveAspectRatio="none" style="width:872px;height:1170px;background:#FFFFFF;" version="1.1" viewBox="0 0 872 1170" width="872px" zoomAndPan="magnify"><defs/><g><!--class Continent--><g id="elem_Continent"><rect codeLine="5" fill="#F1F1F1" height="241.7031" id="Continent" rx="2.5" ry="2.5" style="stroke:#181818;stroke-width:0.5;" width="93" x="772" y="267"/><ellipse cx="787" cy="283" fill="#ADD1B2" rx="11" ry="11" style="stroke:#181818;stroke-width:1.0;"/><path d="M785.8594,283.7969 L785.8594,286.2969 L790.1875,286.2969 L790.1875,285.375 Q790.1875,284.7656 790.4219,284.5 Q790.6719,284.2344 791.0469,284.2344 Q791.4219,284.2344 791.6563,284.5 Q791.8906,284.7656 791.8906,285.375 L791.8906,288 L783.8906,288 Q783.2656,288 783,287.7656 Q782.75,287.5313 782.75,287.1406 Q782.75,286.7656 783.0156,286.5313 Q783.2813,286.2969 783.8906,286.2969 L784.1563,286.2969 L784.1563,279.6406 L783.8906,279.6406 Q783.2656,279.6406 783,279.4063 Q782.75,279.1719 782.75,278.7813 Q782.75,278.4063 783,278.1719 Q783.2656,277.9375 783.8906,277.9375 L791.5156,277.9375 L791.5156,280.5313 Q791.5156,281.1406 791.2813,281.4063 Q791.0625,281.6563 790.6719,281.6563 Q790.2969,281.6563 790.0625,281.4063 Q789.8281,281.1406 789.8281,280.5313 L789.8281,279.6406 L785.8594,279.6406 L785.8594,282.0938 L787.3438,282.0938 Q787.3438,281.4375 787.4688,281.25 Q787.7344,280.8438 788.2031,280.8438 Q788.5781,280.8438 788.8125,281.1094 Q789.0469,281.3594 789.0469,281.9688 L789.0469,283.9375 Q789.0469,284.4844 788.9219,284.6719 Q788.6563,285.0625 788.2031,285.0625 Q787.7344,285.0625 787.4688,284.6563 Q787.3438,284.4688 787.3438,283.7969 L785.8594,283.7969 Z " fill="#000000"/><text fill="#000000" font-family="sans-serif" font-size="14" lengthAdjust="spacing" textLength="61" x="801" y="288.7285">Continent</text><line style="stroke:#181818;stroke-width:0.5;" x1="773" x2="864" y1="299" y2="299"/><text fill="#000000" font-family="sans-serif" font-size="14" lengthAdjust="spacing" text-decoration="underline" textLength="11" x="778" y="317.5332">id</text><text fill="#000000" font-family="sans-serif" font-size="14" lengthAdjust="spacing" textLength="35" x="778" y="335.1426">name</text><text fill="#000000" font-family="sans-serif" font-size="14" lengthAdjust="spacing" textLength="31" x="778" y="352.752">code</text><text fill="#000000" font-family="sans-serif" font-size="14" lengthAdjust="spacing" textLength="66" x="778" y="370.3613">population</text><text fill="#000000" font-family="sans-serif" font-size="14" lengthAdjust="spacing" textLength="68" x="778" y="387.9707">created_at</text><text fill="#000000" font-family="sans-serif" font-size="14" lengthAdjust="spacing" textLength="71" x="778" y="405.5801">created_by</text><text fill="#000000" font-family="sans-serif" font-size="14" lengthAdjust="spacing" textLength="72" x="778" y="423.1895">updated_at</text><text fill="#000000" font-family="sans-serif" font-size="14" lengthAdjust="spacing" textLength="75" x="778" y="440.7988">updated_by</text><text fill="#000000" font-family="sans-serif" font-size="14" lengthAdjust="spacing" textLength="67" x="778" y="458.4082">deleted_at</text><text fill="#000000" font-family="sans-serif" font-size="14" lengthAdjust="spacing" textLength="70" x="778" y="476.0176">deleted_by</text><text fill="#000000" font-family="sans-serif" font-size="14" lengthAdjust="spacing" textLength="65" x="778" y="493.627">is_deleted</text><line style="stroke:#181818;stroke-width:0.5;" x1="773" x2="864" y1="500.7031" y2="500.7031"/></g><!--class Country--><g id="elem_Country"><rect codeLine="19" fill="#F1F1F1" height="259.3125" id="Country" rx="2.5" ry="2.5" style="stroke:#181818;stroke-width:0.5;" width="87" x="537.5" y="258.5"/><ellipse cx="554.75" cy="274.5" fill="#ADD1B2" rx="11" ry="11" style="stroke:#181818;stroke-width:1.0;"/><path d="M553.6094,275.2969 L553.6094,277.7969 L557.9375,277.7969 L557.9375,276.875 Q557.9375,276.2656 558.1719,276 Q558.4219,275.7344 558.7969,275.7344 Q559.1719,275.7344 559.4063,276 Q559.6406,276.2656 559.6406,276.875 L559.6406,279.5 L551.6406,279.5 Q551.0156,279.5 550.75,279.2656 Q550.5,279.0313 550.5,278.6406 Q550.5,278.2656 550.7656,278.0313 Q551.0313,277.7969 551.6406,277.7969 L551.9063,277.7969 L551.9063,271.1406 L551.6406,271.1406 Q551.0156,271.1406 550.75,270.9063 Q550.5,270.6719 550.5,270.2813 Q550.5,269.9063 550.75,269.6719 Q551.0156,269.4375 551.6406,269.4375 L559.2656,269.4375 L559.2656,272.0313 Q559.2656,272.6406 559.0313,272.9063 Q558.8125,273.1563 558.4219,273.1563 Q558.0469,273.1563 557.8125,272.9063 Q557.5781,272.6406 557.5781,272.0313 L557.5781,271.1406 L553.6094,271.1406 L553.6094,273.5938 L555.0938,273.5938 Q555.0938,272.9375 555.2188,272.75 Q555.4844,272.3438 555.9531,272.3438 Q556.3281,272.3438 556.5625,272.6094 Q556.7969,272.8594 556.7969,273.4688 L556.7969,275.4375 Q556.7969,275.9844 556.6719,276.1719 Q556.4063,276.5625 555.9531,276.5625 Q555.4844,276.5625 555.2188,276.1563 Q555.0938,275.9688 555.0938,275.2969 L553.6094,275.2969 Z " fill="#000000"/><text fill="#000000" font-family="sans-serif" font-size="14" lengthAdjust="spacing" textLength="50" x="569.25" y="280.2285">Country</text><line style="stroke:#181818;stroke-width:0.5;" x1="538.5" x2="623.5" y1="290.5" y2="290.5"/><text fill="#000000" font-family="sans-serif" font-size="14" lengthAdjust="spacing" text-decoration="underline" textLength="11" x="543.5" y="309.0332">id</text><text fill="#000000" font-family="sans-serif" font-size="14" lengthAdjust="spacing" textLength="35" x="543.5" y="326.6426">name</text><text fill="#000000" font-family="sans-serif" font-size="14" lengthAdjust="spacing" textLength="26" x="543.5" y="344.252">iso2</text><text fill="#000000" font-family="sans-serif" font-size="14" lengthAdjust="spacing" textLength="26" x="543.5" y="361.8613">iso3</text><text fill="#000000" font-family="sans-serif" font-size="14" lengthAdjust="spacing" textLength="66" x="543.5" y="379.4707">population</text><text fill="#000000" font-family="sans-serif" font-size="14" lengthAdjust="spacing" textLength="68" x="543.5" y="397.0801">created_at</text><text fill="#000000" font-family="sans-serif" font-size="14" lengthAdjust="spacing" textLength="71" x="543.5" y="414.6895">created_by</text><text fill="#000000" font-family="sans-serif" font-size="14" lengthAdjust="spacing" textLength="72" x="543.5" y="432.2988">updated_at</text><text fill="#000000" font-family="sans-serif" font-size="14" lengthAdjust="spacing" textLength="75" x="543.5" y="449.9082">updated_by</text><text fill="#000000" font-family="sans-serif" font-size="14" lengthAdjust="spacing" textLength="67" x="543.5" y="467.5176">deleted_at</text><text fill="#000000" font-family="sans-serif" font-size="14" lengthAdjust="spacing" textLength="70" x="543.5" y="485.127">deleted_by</text><text fill="#000000" font-family="sans-serif" font-size="14" lengthAdjust="spacing" textLength="65" x="543.5" y="502.7363">is_deleted</text><line style="stroke:#181818;stroke-width:0.5;" x1="538.5" x2="623.5" y1="509.8125" y2="509.8125"/></g><!--class User--><g id="elem_User"><rect codeLine="34" fill="#F1F1F1" height="312.1406" id="User" rx="2.5" ry="2.5" style="stroke:#181818;stroke-width:0.5;" width="87" x="11.5" y="7"/><ellipse cx="38.2" cy="23" fill="#ADD1B2" rx="11" ry="11" style="stroke:#181818;stroke-width:1.0;"/><path d="M37.0594,23.7969 L37.0594,26.2969 L41.3875,26.2969 L41.3875,25.375 Q41.3875,24.7656 41.6219,24.5 Q41.8719,24.2344 42.2469,24.2344 Q42.6219,24.2344 42.8563,24.5 Q43.0906,24.7656 43.0906,25.375 L43.0906,28 L35.0906,28 Q34.4656,28 34.2,27.7656 Q33.95,27.5313 33.95,27.1406 Q33.95,26.7656 34.2156,26.5313 Q34.4813,26.2969 35.0906,26.2969 L35.3563,26.2969 L35.3563,19.6406 L35.0906,19.6406 Q34.4656,19.6406 34.2,19.4063 Q33.95,19.1719 33.95,18.7813 Q33.95,18.4063 34.2,18.1719 Q34.4656,17.9375 35.0906,17.9375 L42.7156,17.9375 L42.7156,20.5313 Q42.7156,21.1406 42.4813,21.4063 Q42.2625,21.6563 41.8719,21.6563 Q41.4969,21.6563 41.2625,21.4063 Q41.0281,21.1406 41.0281,20.5313 L41.0281,19.6406 L37.0594,19.6406 L37.0594,22.0938 L38.5438,22.0938 Q38.5438,21.4375 38.6688,21.25 Q38.9344,20.8438 39.4031,20.8438 Q39.7781,20.8438 40.0125,21.1094 Q40.2469,21.3594 40.2469,21.9688 L40.2469,23.9375 Q40.2469,24.4844 40.1219,24.6719 Q39.8563,25.0625 39.4031,25.0625 Q38.9344,25.0625 38.6688,24.6563 Q38.5438,24.4688 38.5438,23.7969 L37.0594,23.7969 Z " fill="#000000"/><text fill="#000000" font-family="sans-serif" font-size="14" lengthAdjust="spacing" textLength="29" x="54.8" y="28.7285">User</text><line style="stroke:#181818;stroke-width:0.5;" x1="12.5" x2="97.5" y1="39" y2="39"/><text fill="#000000" font-family="sans-serif" font-size="14" lengthAdjust="spacing" text-decoration="underline" textLength="11" x="17.5" y="57.5332">id</text><text fill="#000000" font-family="sans-serif" font-size="14" lengthAdjust="spacing" textLength="58" x="17.5" y="75.1426">firstname</text><text fill="#000000" font-family="sans-serif" font-size="14" lengthAdjust="spacing" textLength="57" x="17.5" y="92.752">lastname</text><text fill="#000000" font-family="sans-serif" font-size="14" lengthAdjust="spacing" textLength="63" x="17.5" y="110.3613">username</text><text fill="#000000" font-family="sans-serif" font-size="14" lengthAdjust="spacing" textLength="33" x="17.5" y="127.9707">email</text><text fill="#000000" font-family="sans-serif" font-size="14" lengthAdjust="spacing" textLength="60" x="17.5" y="145.5801">password</text><text fill="#000000" font-family="sans-serif" font-size="14" lengthAdjust="spacing" textLength="45" x="17.5" y="163.1895">gender</text><text fill="#000000" font-family="sans-serif" font-size="14" lengthAdjust="spacing" textLength="56" x="17.5" y="180.7988">birthdate</text><text fill="#000000" font-family="sans-serif" font-size="14" lengthAdjust="spacing" textLength="68" x="17.5" y="198.4082">created_at</text><text fill="#000000" font-family="sans-serif" font-size="14" lengthAdjust="spacing" textLength="71" x="17.5" y="216.0176">created_by</text><text fill="#000000" font-family="sans-serif" font-size="14" lengthAdjust="spacing" textLength="72" x="17.5" y="233.627">updated_at</text><text fill="#000000" font-family="sans-serif" font-size="14" lengthAdjust="spacing" textLength="75" x="17.5" y="251.2363">updated_by</text><text fill="#000000" font-family="sans-serif" font-size="14" lengthAdjust="spacing" textLength="67" x="17.5" y="268.8457">deleted_at</text><text fill="#000000" font-family="sans-serif" font-size="14" lengthAdjust="spacing" textLength="70" x="17.5" y="286.4551">deleted_by</text><text fill="#000000" font-family="sans-serif" font-size="14" lengthAdjust="spacing" textLength="65" x="17.5" y="304.0645">is_deleted</text><line style="stroke:#181818;stroke-width:0.5;" x1="12.5" x2="97.5" y1="311.1406" y2="311.1406"/></g><!--class Role--><g id="elem_Role"><rect codeLine="52" fill="#F1F1F1" height="224.0938" id="Role" rx="2.5" ry="2.5" style="stroke:#181818;stroke-width:0.5;" width="87" x="264" y="51"/><ellipse cx="290.7" cy="67" fill="#ADD1B2" rx="11" ry="11" style="stroke:#181818;stroke-width:1.0;"/><path d="M289.5594,67.7969 L289.5594,70.2969 L293.8875,70.2969 L293.8875,69.375 Q293.8875,68.7656 294.1219,68.5 Q294.3719,68.2344 294.7469,68.2344 Q295.1219,68.2344 295.3563,68.5 Q295.5906,68.7656 295.5906,69.375 L295.5906,72 L287.5906,72 Q286.9656,72 286.7,71.7656 Q286.45,71.5313 286.45,71.1406 Q286.45,70.7656 286.7156,70.5313 Q286.9813,70.2969 287.5906,70.2969 L287.8563,70.2969 L287.8563,63.6406 L287.5906,63.6406 Q286.9656,63.6406 286.7,63.4063 Q286.45,63.1719 286.45,62.7813 Q286.45,62.4063 286.7,62.1719 Q286.9656,61.9375 287.5906,61.9375 L295.2156,61.9375 L295.2156,64.5313 Q295.2156,65.1406 294.9813,65.4063 Q294.7625,65.6563 294.3719,65.6563 Q293.9969,65.6563 293.7625,65.4063 Q293.5281,65.1406 293.5281,64.5313 L293.5281,63.6406 L289.5594,63.6406 L289.5594,66.0938 L291.0438,66.0938 Q291.0438,65.4375 291.1688,65.25 Q291.4344,64.8438 291.9031,64.8438 Q292.2781,64.8438 292.5125,65.1094 Q292.7469,65.3594 292.7469,65.9688 L292.7469,67.9375 Q292.7469,68.4844 292.6219,68.6719 Q292.3563,69.0625 291.9031,69.0625 Q291.4344,69.0625 291.1688,68.6563 Q291.0438,68.4688 291.0438,67.7969 L289.5594,67.7969 Z " fill="#000000"/><text fill="#000000" font-family="sans-serif" font-size="14" lengthAdjust="spacing" textLength="29" x="307.3" y="72.7285">Role</text><line style="stroke:#181818;stroke-width:0.5;" x1="265" x2="350" y1="83" y2="83"/><text fill="#000000" font-family="sans-serif" font-size="14" lengthAdjust="spacing" text-decoration="underline" textLength="11" x="270" y="101.5332">id</text><text fill="#000000" font-family="sans-serif" font-size="14" lengthAdjust="spacing" textLength="35" x="270" y="119.1426">name</text><text fill="#000000" font-family="sans-serif" font-size="14" lengthAdjust="spacing" textLength="69" x="270" y="136.752">description</text><text fill="#000000" font-family="sans-serif" font-size="14" lengthAdjust="spacing" textLength="68" x="270" y="154.3613">created_at</text><text fill="#000000" font-family="sans-serif" font-size="14" lengthAdjust="spacing" textLength="71" x="270" y="171.9707">created_by</text><text fill="#000000" font-family="sans-serif" font-size="14" lengthAdjust="spacing" textLength="72" x="270" y="189.5801">updated_at</text><text fill="#000000" font-family="sans-serif" font-size="14" lengthAdjust="spacing" textLength="75" x="270" y="207.1895">updated_by</text><text fill="#000000" font-family="sans-serif" font-size="14" lengthAdjust="spacing" textLength="67" x="270" y="224.7988">deleted_at</text><text fill="#000000" font-family="sans-serif" font-size="14" lengthAdjust="spacing" textLength="70" x="270" y="242.4082">deleted_by</text><text fill="#000000" font-family="sans-serif" font-size="14" lengthAdjust="spacing" textLength="65" x="270" y="260.0176">is_deleted</text><line style="stroke:#181818;stroke-width:0.5;" x1="265" x2="350" y1="267.0938" y2="267.0938"/></g><!--class Epidemic--><g id="elem_Epidemic"><rect codeLine="65" fill="#F1F1F1" height="347.3594" id="Epidemic" rx="2.5" ry="2.5" style="stroke:#181818;stroke-width:0.5;" width="134" x="514" y="816.5"/><ellipse cx="549.25" cy="832.5" fill="#ADD1B2" rx="11" ry="11" style="stroke:#181818;stroke-width:1.0;"/><path d="M548.1094,833.2969 L548.1094,835.7969 L552.4375,835.7969 L552.4375,834.875 Q552.4375,834.2656 552.6719,834 Q552.9219,833.7344 553.2969,833.7344 Q553.6719,833.7344 553.9063,834 Q554.1406,834.2656 554.1406,834.875 L554.1406,837.5 L546.1406,837.5 Q545.5156,837.5 545.25,837.2656 Q545,837.0313 545,836.6406 Q545,836.2656 545.2656,836.0313 Q545.5313,835.7969 546.1406,835.7969 L546.4063,835.7969 L546.4063,829.1406 L546.1406,829.1406 Q545.5156,829.1406 545.25,828.9063 Q545,828.6719 545,828.2813 Q545,827.9063 545.25,827.6719 Q545.5156,827.4375 546.1406,827.4375 L553.7656,827.4375 L553.7656,830.0313 Q553.7656,830.6406 553.5313,830.9063 Q553.3125,831.1563 552.9219,831.1563 Q552.5469,831.1563 552.3125,830.9063 Q552.0781,830.6406 552.0781,830.0313 L552.0781,829.1406 L548.1094,829.1406 L548.1094,831.5938 L549.5938,831.5938 Q549.5938,830.9375 549.7188,830.75 Q549.9844,830.3438 550.4531,830.3438 Q550.8281,830.3438 551.0625,830.6094 Q551.2969,830.8594 551.2969,831.4688 L551.2969,833.4375 Q551.2969,833.9844 551.1719,834.1719 Q550.9063,834.5625 550.4531,834.5625 Q549.9844,834.5625 549.7188,834.1563 Q549.5938,833.9688 549.5938,833.2969 L548.1094,833.2969 Z " fill="#000000"/><text fill="#000000" font-family="sans-serif" font-size="14" lengthAdjust="spacing" textLength="57" x="567.75" y="838.2285">Epidemic</text><line style="stroke:#181818;stroke-width:0.5;" x1="515" x2="647" y1="848.5" y2="848.5"/><text fill="#000000" font-family="sans-serif" font-size="14" lengthAdjust="spacing" text-decoration="underline" textLength="11" x="520" y="867.0332">id</text><text fill="#000000" font-family="sans-serif" font-size="14" lengthAdjust="spacing" textLength="35" x="520" y="884.6426">name</text><text fill="#000000" font-family="sans-serif" font-size="14" lengthAdjust="spacing" textLength="64" x="520" y="902.252">start_date</text><text fill="#000000" font-family="sans-serif" font-size="14" lengthAdjust="spacing" textLength="60" x="520" y="919.8613">end_date</text><text fill="#000000" font-family="sans-serif" font-size="14" lengthAdjust="spacing" textLength="27" x="520" y="937.4707">type</text><text fill="#000000" font-family="sans-serif" font-size="14" lengthAdjust="spacing" textLength="103" x="520" y="955.0801">pathogen_name</text><text fill="#000000" font-family="sans-serif" font-size="14" lengthAdjust="spacing" textLength="69" x="520" y="972.6895">description</text><text fill="#000000" font-family="sans-serif" font-size="14" lengthAdjust="spacing" textLength="122" x="520" y="990.2988">transmission_mode</text><text fill="#000000" font-family="sans-serif" font-size="14" lengthAdjust="spacing" textLength="63" x="520" y="1007.9082">symptoms</text><text fill="#000000" font-family="sans-serif" font-size="14" lengthAdjust="spacing" textLength="113" x="520" y="1025.5176">reproduction_rate</text><text fill="#000000" font-family="sans-serif" font-size="14" lengthAdjust="spacing" textLength="68" x="520" y="1043.127">created_at</text><text fill="#000000" font-family="sans-serif" font-size="14" lengthAdjust="spacing" textLength="71" x="520" y="1060.7363">created_by</text><text fill="#000000" font-family="sans-serif" font-size="14" lengthAdjust="spacing" textLength="72" x="520" y="1078.3457">updated_at</text><text fill="#000000" font-family="sans-serif" font-size="14" lengthAdjust="spacing" textLength="75" x="520" y="1095.9551">updated_by</text><text fill="#000000" font-family="sans-serif" font-size="14" lengthAdjust="spacing" textLength="67" x="520" y="1113.5645">deleted_at</text><text fill="#000000" font-family="sans-serif" font-size="14" lengthAdjust="spacing" textLength="70" x="520" y="1131.1738">deleted_by</text><text fill="#000000" font-family="sans-serif" font-size="14" lengthAdjust="spacing" textLength="65" x="520" y="1148.7832">is_deleted</text><line style="stroke:#181818;stroke-width:0.5;" x1="515" x2="647" y1="1155.8594" y2="1155.8594"/></g><!--class Vaccine--><g id="elem_Vaccine"><rect codeLine="85" fill="#F1F1F1" height="294.5313" id="Vaccine" rx="2.5" ry="2.5" style="stroke:#181818;stroke-width:0.5;" width="145" x="235" y="692.5"/><ellipse cx="278.35" cy="708.5" fill="#ADD1B2" rx="11" ry="11" style="stroke:#181818;stroke-width:1.0;"/><path d="M277.2094,709.2969 L277.2094,711.7969 L281.5375,711.7969 L281.5375,710.875 Q281.5375,710.2656 281.7719,710 Q282.0219,709.7344 282.3969,709.7344 Q282.7719,709.7344 283.0063,710 Q283.2406,710.2656 283.2406,710.875 L283.2406,713.5 L275.2406,713.5 Q274.6156,713.5 274.35,713.2656 Q274.1,713.0313 274.1,712.6406 Q274.1,712.2656 274.3656,712.0313 Q274.6313,711.7969 275.2406,711.7969 L275.5063,711.7969 L275.5063,705.1406 L275.2406,705.1406 Q274.6156,705.1406 274.35,704.9063 Q274.1,704.6719 274.1,704.2813 Q274.1,703.9063 274.35,703.6719 Q274.6156,703.4375 275.2406,703.4375 L282.8656,703.4375 L282.8656,706.0313 Q282.8656,706.6406 282.6313,706.9063 Q282.4125,707.1563 282.0219,707.1563 Q281.6469,707.1563 281.4125,706.9063 Q281.1781,706.6406 281.1781,706.0313 L281.1781,705.1406 L277.2094,705.1406 L277.2094,707.5938 L278.6938,707.5938 Q278.6938,706.9375 278.8188,706.75 Q279.0844,706.3438 279.5531,706.3438 Q279.9281,706.3438 280.1625,706.6094 Q280.3969,706.8594 280.3969,707.4688 L280.3969,709.4375 Q280.3969,709.9844 280.2719,710.1719 Q280.0063,710.5625 279.5531,710.5625 Q279.0844,710.5625 278.8188,710.1563 Q278.6938,709.9688 278.6938,709.2969 L277.2094,709.2969 Z " fill="#000000"/><text fill="#000000" font-family="sans-serif" font-size="14" lengthAdjust="spacing" textLength="50" x="298.65" y="714.2285">Vaccine</text><line style="stroke:#181818;stroke-width:0.5;" x1="236" x2="379" y1="724.5" y2="724.5"/><text fill="#000000" font-family="sans-serif" font-size="14" lengthAdjust="spacing" text-decoration="underline" textLength="11" x="241" y="743.0332">id</text><text fill="#000000" font-family="sans-serif" font-size="14" lengthAdjust="spacing" textLength="35" x="241" y="760.6426">name</text><text fill="#000000" font-family="sans-serif" font-size="14" lengthAdjust="spacing" textLength="64" x="241" y="778.252">laboratory</text><text fill="#000000" font-family="sans-serif" font-size="14" lengthAdjust="spacing" textLength="69" x="241" y="795.8613">technology</text><text fill="#000000" font-family="sans-serif" font-size="14" lengthAdjust="spacing" textLength="31" x="241" y="813.4707">dose</text><text fill="#000000" font-family="sans-serif" font-size="14" lengthAdjust="spacing" textLength="48" x="241" y="831.0801">efficacy</text><text fill="#000000" font-family="sans-serif" font-size="14" lengthAdjust="spacing" textLength="133" x="241" y="848.6895">storage_temperature</text><text fill="#000000" font-family="sans-serif" font-size="14" lengthAdjust="spacing" textLength="68" x="241" y="866.2988">created_at</text><text fill="#000000" font-family="sans-serif" font-size="14" lengthAdjust="spacing" textLength="71" x="241" y="883.9082">created_by</text><text fill="#000000" font-family="sans-serif" font-size="14" lengthAdjust="spacing" textLength="72" x="241" y="901.5176">updated_at</text><text fill="#000000" font-family="sans-serif" font-size="14" lengthAdjust="spacing" textLength="75" x="241" y="919.127">updated_by</text><text fill="#000000" font-family="sans-serif" font-size="14" lengthAdjust="spacing" textLength="67" x="241" y="936.7363">deleted_at</text><text fill="#000000" font-family="sans-serif" font-size="14" lengthAdjust="spacing" textLength="70" x="241" y="954.3457">deleted_by</text><text fill="#000000" font-family="sans-serif" font-size="14" lengthAdjust="spacing" textLength="65" x="241" y="971.9551">is_deleted</text><line style="stroke:#181818;stroke-width:0.5;" x1="236" x2="379" y1="979.0313" y2="979.0313"/></g><!--class DailyWise--><g id="elem_DailyWise"><rect codeLine="102" fill="#F1F1F1" height="259.3125" id="DailyWise" rx="2.5" ry="2.5" style="stroke:#181818;stroke-width:0.5;" width="94" x="260.5" y="398.5"/><ellipse cx="275.5" cy="414.5" fill="#ADD1B2" rx="11" ry="11" style="stroke:#181818;stroke-width:1.0;"/><path d="M274.3594,415.2969 L274.3594,417.7969 L278.6875,417.7969 L278.6875,416.875 Q278.6875,416.2656 278.9219,416 Q279.1719,415.7344 279.5469,415.7344 Q279.9219,415.7344 280.1563,416 Q280.3906,416.2656 280.3906,416.875 L280.3906,419.5 L272.3906,419.5 Q271.7656,419.5 271.5,419.2656 Q271.25,419.0313 271.25,418.6406 Q271.25,418.2656 271.5156,418.0313 Q271.7813,417.7969 272.3906,417.7969 L272.6563,417.7969 L272.6563,411.1406 L272.3906,411.1406 Q271.7656,411.1406 271.5,410.9063 Q271.25,410.6719 271.25,410.2813 Q271.25,409.9063 271.5,409.6719 Q271.7656,409.4375 272.3906,409.4375 L280.0156,409.4375 L280.0156,412.0313 Q280.0156,412.6406 279.7813,412.9063 Q279.5625,413.1563 279.1719,413.1563 Q278.7969,413.1563 278.5625,412.9063 Q278.3281,412.6406 278.3281,412.0313 L278.3281,411.1406 L274.3594,411.1406 L274.3594,413.5938 L275.8438,413.5938 Q275.8438,412.9375 275.9688,412.75 Q276.2344,412.3438 276.7031,412.3438 Q277.0781,412.3438 277.3125,412.6094 Q277.5469,412.8594 277.5469,413.4688 L277.5469,415.4375 Q277.5469,415.9844 277.4219,416.1719 Q277.1563,416.5625 276.7031,416.5625 Q276.2344,416.5625 275.9688,416.1563 Q275.8438,415.9688 275.8438,415.2969 L274.3594,415.2969 Z " fill="#000000"/><text fill="#000000" font-family="sans-serif" font-size="14" lengthAdjust="spacing" textLength="62" x="289.5" y="420.2285">DailyWise</text><line style="stroke:#181818;stroke-width:0.5;" x1="261.5" x2="353.5" y1="430.5" y2="430.5"/><text fill="#000000" font-family="sans-serif" font-size="14" lengthAdjust="spacing" text-decoration="underline" textLength="11" x="266.5" y="449.0332">id</text><text fill="#000000" font-family="sans-serif" font-size="14" lengthAdjust="spacing" textLength="28" x="266.5" y="466.6426">date</text><text fill="#000000" font-family="sans-serif" font-size="14" lengthAdjust="spacing" textLength="54" x="266.5" y="484.252">province</text><text fill="#000000" font-family="sans-serif" font-size="14" lengthAdjust="spacing" textLength="46" x="266.5" y="501.8613">latitude</text><text fill="#000000" font-family="sans-serif" font-size="14" lengthAdjust="spacing" textLength="58" x="266.5" y="519.4707">longitude</text><text fill="#000000" font-family="sans-serif" font-size="14" lengthAdjust="spacing" textLength="68" x="266.5" y="537.0801">created_at</text><text fill="#000000" font-family="sans-serif" font-size="14" lengthAdjust="spacing" textLength="71" x="266.5" y="554.6895">created_by</text><text fill="#000000" font-family="sans-serif" font-size="14" lengthAdjust="spacing" textLength="72" x="266.5" y="572.2988">updated_at</text><text fill="#000000" font-family="sans-serif" font-size="14" lengthAdjust="spacing" textLength="75" x="266.5" y="589.9082">updated_by</text><text fill="#000000" font-family="sans-serif" font-size="14" lengthAdjust="spacing" textLength="67" x="266.5" y="607.5176">deleted_at</text><text fill="#000000" font-family="sans-serif" font-size="14" lengthAdjust="spacing" textLength="70" x="266.5" y="625.127">deleted_by</text><text fill="#000000" font-family="sans-serif" font-size="14" lengthAdjust="spacing" textLength="65" x="266.5" y="642.7363">is_deleted</text><line style="stroke:#181818;stroke-width:0.5;" x1="261.5" x2="353.5" y1="649.8125" y2="649.8125"/></g><!--class Statistic--><g id="elem_Statistic"><rect codeLine="117" fill="#F1F1F1" height="259.3125" id="Statistic" rx="2.5" ry="2.5" style="stroke:#181818;stroke-width:0.5;" width="96" x="7" y="617.5"/><ellipse cx="28.75" cy="633.5" fill="#ADD1B2" rx="11" ry="11" style="stroke:#181818;stroke-width:1.0;"/><path d="M27.6094,634.2969 L27.6094,636.7969 L31.9375,636.7969 L31.9375,635.875 Q31.9375,635.2656 32.1719,635 Q32.4219,634.7344 32.7969,634.7344 Q33.1719,634.7344 33.4063,635 Q33.6406,635.2656 33.6406,635.875 L33.6406,638.5 L25.6406,638.5 Q25.0156,638.5 24.75,638.2656 Q24.5,638.0313 24.5,637.6406 Q24.5,637.2656 24.7656,637.0313 Q25.0313,636.7969 25.6406,636.7969 L25.9063,636.7969 L25.9063,630.1406 L25.6406,630.1406 Q25.0156,630.1406 24.75,629.9063 Q24.5,629.6719 24.5,629.2813 Q24.5,628.9063 24.75,628.6719 Q25.0156,628.4375 25.6406,628.4375 L33.2656,628.4375 L33.2656,631.0313 Q33.2656,631.6406 33.0313,631.9063 Q32.8125,632.1563 32.4219,632.1563 Q32.0469,632.1563 31.8125,631.9063 Q31.5781,631.6406 31.5781,631.0313 L31.5781,630.1406 L27.6094,630.1406 L27.6094,632.5938 L29.0938,632.5938 Q29.0938,631.9375 29.2188,631.75 Q29.4844,631.3438 29.9531,631.3438 Q30.3281,631.3438 30.5625,631.6094 Q30.7969,631.8594 30.7969,632.4688 L30.7969,634.4375 Q30.7969,634.9844 30.6719,635.1719 Q30.4063,635.5625 29.9531,635.5625 Q29.4844,635.5625 29.2188,635.1563 Q29.0938,634.9688 29.0938,634.2969 L27.6094,634.2969 Z " fill="#000000"/><text fill="#000000" font-family="sans-serif" font-size="14" lengthAdjust="spacing" textLength="49" x="44.25" y="639.2285">Statistic</text><line style="stroke:#181818;stroke-width:0.5;" x1="8" x2="102" y1="649.5" y2="649.5"/><text fill="#000000" font-family="sans-serif" font-size="14" lengthAdjust="spacing" text-decoration="underline" textLength="11" x="13" y="668.0332">id</text><text fill="#000000" font-family="sans-serif" font-size="14" lengthAdjust="spacing" textLength="30" x="13" y="685.6426">label</text><text fill="#000000" font-family="sans-serif" font-size="14" lengthAdjust="spacing" textLength="34" x="13" y="703.252">value</text><text fill="#000000" font-family="sans-serif" font-size="14" lengthAdjust="spacing" textLength="81" x="13" y="720.8613">published_at</text><text fill="#000000" font-family="sans-serif" font-size="14" lengthAdjust="spacing" textLength="84" x="13" y="738.4707">published_by</text><text fill="#000000" font-family="sans-serif" font-size="14" lengthAdjust="spacing" textLength="68" x="13" y="756.0801">created_at</text><text fill="#000000" font-family="sans-serif" font-size="14" lengthAdjust="spacing" textLength="71" x="13" y="773.6895">created_by</text><text fill="#000000" font-family="sans-serif" font-size="14" lengthAdjust="spacing" textLength="72" x="13" y="791.2988">updated_at</text><text fill="#000000" font-family="sans-serif" font-size="14" lengthAdjust="spacing" textLength="75" x="13" y="808.9082">updated_by</text><text fill="#000000" font-family="sans-serif" font-size="14" lengthAdjust="spacing" textLength="67" x="13" y="826.5176">deleted_at</text><text fill="#000000" font-family="sans-serif" font-size="14" lengthAdjust="spacing" textLength="70" x="13" y="844.127">deleted_by</text><text fill="#000000" font-family="sans-serif" font-size="14" lengthAdjust="spacing" textLength="65" x="13" y="861.7363">is_deleted</text><line style="stroke:#181818;stroke-width:0.5;" x1="8" x2="102" y1="868.8125" y2="868.8125"/></g><!--link Country to Continent--><g id="link_Country_Continent"><path codeLine="133" d="M624.65,388 C666.27,388 729.37,388 771.96,388 " fill="none" id="Country-Continent" style="stroke:#181818;stroke-width:1.0;"/><polygon fill="#000000" points="688,379.1758,678.9549,376.2369,678.9549,382.1147,688,379.1758" style="stroke:#000000;stroke-width:1.0;"/><text fill="#000000" font-family="sans-serif" font-size="13" lengthAdjust="spacing" textLength="49" x="692" y="384.4951">contains</text><text fill="#000000" font-family="sans-serif" font-size="13" lengthAdjust="spacing" textLength="22" x="632.3352" y="402.6229">1..1</text><text fill="#000000" font-family="sans-serif" font-size="13" lengthAdjust="spacing" textLength="22" x="741.8684" y="402.6657">0..n</text></g><!--link DailyWise to Country--><g id="link_DailyWise_Country"><path codeLine="134" d="M354.56,504.25 C405.69,477.88 487.56,435.67 537.3,410.02 " fill="none" id="DailyWise-Country" style="stroke:#181818;stroke-width:1.0;"/><polygon fill="#000000" points="419.444,429.8842,410.0578,431.4176,412.7517,436.6418,419.444,429.8842" style="stroke:#000000;stroke-width:1.0;"/><text fill="#000000" font-family="sans-serif" font-size="13" lengthAdjust="spacing" textLength="59" x="424" y="437.4951">located_in</text><text fill="#000000" font-family="sans-serif" font-size="13" lengthAdjust="spacing" textLength="22" x="362.3618" y="515.6313">1..1</text><text fill="#000000" font-family="sans-serif" font-size="13" lengthAdjust="spacing" textLength="22" x="507.6078" y="427.7394">0..n</text></g><!--link Statistic to DailyWise--><g id="link_Statistic_DailyWise"><path codeLine="135" d="M103.12,705.81 C148.19,666.41 215.73,607.36 260.44,568.27 " fill="none" id="Statistic-DailyWise" style="stroke:#181818;stroke-width:1.0;"/><polygon fill="#000000" points="141.7642,604.8848,133.0203,608.6257,136.889,613.0508,141.7642,604.8848" style="stroke:#000000;stroke-width:1.0;"/><text fill="#000000" font-family="sans-serif" font-size="13" lengthAdjust="spacing" textLength="57" x="147" y="613.4951">related_to</text><text fill="#000000" font-family="sans-serif" font-size="13" lengthAdjust="spacing" textLength="22" x="111.0643" y="714.8478">1..1</text><text fill="#000000" font-family="sans-serif" font-size="13" lengthAdjust="spacing" textLength="22" x="230.6382" y="588.254">0..n</text></g><!--link Statistic to Country--><g id="link_Statistic_Country"><path codeLine="136" d="M82.52,617.44 C106.98,534.26 152.49,432.49 235,381 C329.28,322.16 468.07,352.27 537.37,373.31 " fill="none" id="Statistic-Country" style="stroke:#181818;stroke-width:1.0;"/><polygon fill="#000000" points="298.9055,334.8112,289.546,336.4992,292.3257,341.6783,298.9055,334.8112" style="stroke:#000000;stroke-width:1.0;"/><text fill="#000000" font-family="sans-serif" font-size="13" lengthAdjust="spacing" textLength="21" x="303.5" y="342.4951">has</text><text fill="#000000" font-family="sans-serif" font-size="13" lengthAdjust="spacing" textLength="22" x="61.5267" y="606.5537">0..1</text><text fill="#000000" font-family="sans-serif" font-size="13" lengthAdjust="spacing" textLength="22" x="507.3462" y="385.8254">0..n</text></g><!--link Statistic to Vaccine--><g id="link_Statistic_Vaccine"><path codeLine="137" d="M103.12,764.49 C140.25,778.28 192.64,797.73 234.94,813.43 " fill="none" id="Statistic-Vaccine" style="stroke:#181818;stroke-width:1.0;"/><polygon fill="#000000" points="160.6874,769.916,153.2307,764.0127,151.1849,769.5231,160.6874,769.916" style="stroke:#000000;stroke-width:1.0;"/><text fill="#000000" font-family="sans-serif" font-size="13" lengthAdjust="spacing" textLength="21" x="165" y="773.4951">has</text><text fill="#000000" font-family="sans-serif" font-size="13" lengthAdjust="spacing" textLength="22" x="111.0643" y="781.413">0..1</text><text fill="#000000" font-family="sans-serif" font-size="13" lengthAdjust="spacing" textLength="22" x="204.9757" y="825.1943">0..n</text></g><!--link Statistic to Epidemic--><g id="link_Statistic_Epidemic"><path codeLine="138" d="M103.07,870.58 C131.87,927.85 174.91,990.35 235,1023 C322.5,1070.54 441.05,1042.82 513.94,1017.28 " fill="none" id="Statistic-Epidemic" style="stroke:#181818;stroke-width:1.0;"/><polygon fill="#000000" points="275.7089,1015.8571,268.1787,1010.0478,266.2022,1015.5834,275.7089,1015.8571" style="stroke:#000000;stroke-width:1.0;"/><text fill="#000000" font-family="sans-serif" font-size="13" lengthAdjust="spacing" textLength="68" x="280" y="1019.4951">correlate_to</text><text fill="#000000" font-family="sans-serif" font-size="13" lengthAdjust="spacing" textLength="22" x="109.5308" y="898.4688">0..1</text><text fill="#000000" font-family="sans-serif" font-size="13" lengthAdjust="spacing" textLength="22" x="483.8901" y="1034.413">0..n</text></g><!--link Vaccine to Epidemic--><g id="link_Vaccine_Epidemic"><path codeLine="139" d="M380.19,879.61 C421.66,902.52 473.49,931.16 513.97,953.52 " fill="none" id="Vaccine-Epidemic" style="stroke:#181818;stroke-width:1.0;"/><polygon fill="#000000" points="424.3765,890.5937,417.8805,883.6472,415.0381,888.7921,424.3765,890.5937" style="stroke:#000000;stroke-width:1.0;"/><text fill="#000000" font-family="sans-serif" font-size="13" lengthAdjust="spacing" textLength="49" x="429" y="893.4951">used_for</text><text fill="#000000" font-family="sans-serif" font-size="13" lengthAdjust="spacing" textLength="22" x="387.9052" y="897.532">1..1</text><text fill="#000000" font-family="sans-serif" font-size="13" lengthAdjust="spacing" textLength="22" x="483.9232" y="964.0777">0..n</text></g><!--link User to Role--><g id="link_User_Role"><path codeLine="140" d="M98.78,163 C144.89,163 217.85,163 263.9,163 " fill="none" id="User-Role" style="stroke:#181818;stroke-width:1.0;"/><polygon fill="#000000" points="153.5,154.1758,144.4549,151.2369,144.4549,157.1147,153.5,154.1758" style="stroke:#000000;stroke-width:1.0;"/><text fill="#000000" font-family="sans-serif" font-size="13" lengthAdjust="spacing" textLength="36" x="157.5" y="159.4951">grants</text><text fill="#000000" font-family="sans-serif" font-size="13" lengthAdjust="spacing" textLength="22" x="106.4834" y="177.6349">1..1</text><text fill="#000000" font-family="sans-serif" font-size="13" lengthAdjust="spacing" textLength="22" x="233.8806" y="177.6891">0..n</text></g><!--SRC=[nLNDRjim3BxxAOHSUchGRhSS1WnRNs35jgF1I8nDL9O4aSvW57sWFSTURBGSnncQ3BiqEuaqV_Jn8qLxt8cHQ38rhHX76QrG31K_KKYGeJC9x1Cq-2Y3HpEQ8JGUg-h6F0GX-VMJAno5mNoAUWPLp7Dbp3CB2DaNGqwr01tgOQCRZnHJxw5SfDyoWg2hGKwKxQ1AdznYcPLYSUZnQ9cLOY6k3thrKYt8-Y1vk8oBEBwRZlV_0TvNndm6suuoom6WXwFOg_T1n0x8Zu21-KVCOr23mM5MOKjPsX7JTMhu4dKyBlBha6scT3rA7n8vxCXUXgJVijG7WfIqMPGXbH45QQEIMP-jG384xeXPrRgRXfg7BadiMCMCAKVNbwTKvwlru1jOgm_mSiqUjb7Xn3oc4BHjY3usvQR8XOVTZYpOeV2ZhWtMWbr23UhpbQhuh3CzV2S-LyUXHyhkdeATIjAWlZJ0nz3CyXLmFex0MCxEc1ADuyFSW-yBu7xhYTiv-QAMz6y9ziPyP8wMoZfZ0tkqna9s5C1FstjUZglxzVf-PMvlpUfklGwhats-qSKT14WJVAYM_fo9c59jj1UsOAMW4GjJhoAMP1jzDRx4wE_eZvYxYxUqm7ztdL_4FxWUDyPOR9wmJ53c9A_0duJeKdRrBcPrBzlybM_PZnlJwEAG4Sbl]--></g></svg>