<?xml version="1.0" encoding="us-ascii" standalone="no"?><svg xmlns="http://www.w3.org/2000/svg" xmlns:xlink="http://www.w3.org/1999/xlink" contentStyleType="text/css" height="621px" preserveAspectRatio="none" style="width:661px;height:621px;background:#FFFFFF;" version="1.1" viewBox="0 0 661 621" width="661px" zoomAndPan="magnify"><defs/><g><rect fill="none" height="362.4063" style="stroke:#000000;stroke-width:1.5;" width="644.5" x="10" y="160.3125"/><rect fill="none" height="158.1094" style="stroke:#000000;stroke-width:1.5;" width="481.5" x="20" y="357.6094"/><line style="stroke:#181818;stroke-width:0.5;stroke-dasharray:5.0,5.0;" x1="63" x2="63" y1="82.6094" y2="539.7188"/><line style="stroke:#181818;stroke-width:0.5;stroke-dasharray:5.0,5.0;" x1="238.5" x2="238.5" y1="82.6094" y2="539.7188"/><line style="stroke:#181818;stroke-width:0.5;stroke-dasharray:5.0,5.0;" x1="425.5" x2="425.5" y1="82.6094" y2="539.7188"/><line style="stroke:#181818;stroke-width:0.5;stroke-dasharray:5.0,5.0;" x1="572.5" x2="572.5" y1="82.6094" y2="539.7188"/><text fill="#000000" font-family="sans-serif" font-size="14" lengthAdjust="spacing" textLength="61" x="30" y="79.5332">API Client</text><ellipse cx="63.5" cy="13.5" fill="#E2E2F0" rx="8" ry="8" style="stroke:#181818;stroke-width:0.5;"/><path d="M63.5,21.5 L63.5,48.5 M50.5,29.5 L76.5,29.5 M63.5,48.5 L50.5,63.5 M63.5,48.5 L76.5,63.5 " fill="none" style="stroke:#181818;stroke-width:0.5;"/><text fill="#000000" font-family="sans-serif" font-size="14" lengthAdjust="spacing" textLength="61" x="30" y="553.252">API Client</text><ellipse cx="63.5" cy="564.8281" fill="#E2E2F0" rx="8" ry="8" style="stroke:#181818;stroke-width:0.5;"/><path d="M63.5,572.8281 L63.5,599.8281 M50.5,580.8281 L76.5,580.8281 M63.5,599.8281 L50.5,614.8281 M63.5,599.8281 L76.5,614.8281 " fill="none" style="stroke:#181818;stroke-width:0.5;"/><rect fill="#E2E2F0" height="31.6094" rx="2.5" ry="2.5" style="stroke:#181818;stroke-width:0.5;" width="146" x="165.5" y="50"/><text fill="#000000" font-family="sans-serif" font-size="14" lengthAdjust="spacing" textLength="132" x="172.5" y="71.5332">AddCountryUseCase</text><rect fill="#E2E2F0" height="31.6094" rx="2.5" ry="2.5" style="stroke:#181818;stroke-width:0.5;" width="146" x="165.5" y="538.7188"/><text fill="#000000" font-family="sans-serif" font-size="14" lengthAdjust="spacing" textLength="132" x="172.5" y="560.252">AddCountryUseCase</text><rect fill="#E2E2F0" height="31.6094" rx="2.5" ry="2.5" style="stroke:#181818;stroke-width:0.5;" width="132" x="359.5" y="50"/><text fill="#000000" font-family="sans-serif" font-size="14" lengthAdjust="spacing" textLength="118" x="366.5" y="71.5332">CountryRepository</text><rect fill="#E2E2F0" height="31.6094" rx="2.5" ry="2.5" style="stroke:#181818;stroke-width:0.5;" width="132" x="359.5" y="538.7188"/><text fill="#000000" font-family="sans-serif" font-size="14" lengthAdjust="spacing" textLength="118" x="366.5" y="560.252">CountryRepository</text><rect fill="#E2E2F0" height="31.6094" rx="2.5" ry="2.5" style="stroke:#181818;stroke-width:0.5;" width="143" x="501.5" y="50"/><text fill="#000000" font-family="sans-serif" font-size="14" lengthAdjust="spacing" textLength="129" x="508.5" y="71.5332">ContinentRepository</text><rect fill="#E2E2F0" height="31.6094" rx="2.5" ry="2.5" style="stroke:#181818;stroke-width:0.5;" width="143" x="501.5" y="538.7188"/><text fill="#000000" font-family="sans-serif" font-size="14" lengthAdjust="spacing" textLength="129" x="508.5" y="560.252">ContinentRepository</text><polygon fill="#181818" points="226.5,110.9609,236.5,114.9609,226.5,118.9609,230.5,114.9609" style="stroke:#181818;stroke-width:1.0;"/><line style="stroke:#181818;stroke-width:1.0;" x1="63.5" x2="232.5" y1="114.9609" y2="114.9609"/><text fill="#000000" font-family="sans-serif" font-size="13" lengthAdjust="spacing" textLength="99" x="70.5" y="110.1045">execute(payload)</text><polygon fill="#181818" points="413.5,141.3125,423.5,145.3125,413.5,149.3125,417.5,145.3125" style="stroke:#181818;stroke-width:1.0;"/><line style="stroke:#181818;stroke-width:1.0;" x1="238.5" x2="419.5" y1="145.3125" y2="145.3125"/><text fill="#000000" font-family="sans-serif" font-size="13" lengthAdjust="spacing" textLength="153" x="245.5" y="140.4561">find_by_iso3(payload.iso3)</text><path d="M10,160.3125 L71,160.3125 L71,168.6641 L61,178.6641 L10,178.6641 L10,160.3125 " fill="#EEEEEE" style="stroke:#000000;stroke-width:1.5;"/><rect fill="none" height="362.4063" style="stroke:#000000;stroke-width:1.5;" width="644.5" x="10" y="160.3125"/><text fill="#000000" font-family="sans-serif" font-size="13" font-weight="bold" lengthAdjust="spacing" textLength="16" x="25" y="174.8076">alt</text><text fill="#000000" font-family="sans-serif" font-size="11" font-weight="bold" lengthAdjust="spacing" textLength="178" x="86" y="173.7314">[Country exists and not deleted]</text><polygon fill="#181818" points="74.5,213.3672,64.5,217.3672,74.5,221.3672,70.5,217.3672" style="stroke:#181818;stroke-width:1.0;"/><line style="stroke:#181818;stroke-width:1.0;" x1="68.5" x2="237.5" y1="217.3672" y2="217.3672"/><text fill="#000000" font-family="sans-serif" font-size="13" lengthAdjust="spacing" textLength="57" x="80.5" y="196.1592">HTTP 400</text><text fill="#000000" font-family="sans-serif" font-size="13" lengthAdjust="spacing" textLength="151" x="80.5" y="212.5107">"Le code iso3 existe d&#233;j&#224;"</text><line style="stroke:#000000;stroke-width:1.0;stroke-dasharray:2.0,2.0;" x1="10" x2="654.5" y1="226.3672" y2="226.3672"/><text fill="#000000" font-family="sans-serif" font-size="11" font-weight="bold" lengthAdjust="spacing" textLength="170" x="15" y="237.7861">[Country exists and is deleted]</text><polygon fill="#181818" points="413.5,259.5547,423.5,263.5547,413.5,267.5547,417.5,263.5547" style="stroke:#181818;stroke-width:1.0;"/><line style="stroke:#181818;stroke-width:1.0;" x1="238.5" x2="419.5" y1="263.5547" y2="263.5547"/><text fill="#000000" font-family="sans-serif" font-size="13" lengthAdjust="spacing" textLength="106" x="245.5" y="258.6982">reactivate(country)</text><polygon fill="#181818" points="74.5,306.2578,64.5,310.2578,74.5,314.2578,70.5,310.2578" style="stroke:#181818;stroke-width:1.0;"/><line style="stroke:#181818;stroke-width:1.0;" x1="68.5" x2="237.5" y1="310.2578" y2="310.2578"/><text fill="#000000" font-family="sans-serif" font-size="13" lengthAdjust="spacing" textLength="57" x="80.5" y="289.0498">HTTP 400</text><text fill="#000000" font-family="sans-serif" font-size="13" lengthAdjust="spacing" textLength="91" x="80.5" y="305.4014">"Pays restaur&#233;"</text><line style="stroke:#000000;stroke-width:1.0;stroke-dasharray:2.0,2.0;" x1="10" x2="654.5" y1="319.2578" y2="319.2578"/><polygon fill="#181818" points="561,338.6094,571,342.6094,561,346.6094,565,342.6094" style="stroke:#181818;stroke-width:1.0;"/><line style="stroke:#181818;stroke-width:1.0;" x1="238.5" x2="567" y1="342.6094" y2="342.6094"/><text fill="#000000" font-family="sans-serif" font-size="13" lengthAdjust="spacing" textLength="185" x="245.5" y="337.7529">find_by_id(payload.continent_id)</text><path d="M20,357.6094 L81,357.6094 L81,365.9609 L71,375.9609 L20,375.9609 L20,357.6094 " fill="#EEEEEE" style="stroke:#000000;stroke-width:1.5;"/><rect fill="none" height="158.1094" style="stroke:#000000;stroke-width:1.5;" width="481.5" x="20" y="357.6094"/><text fill="#000000" font-family="sans-serif" font-size="13" font-weight="bold" lengthAdjust="spacing" textLength="16" x="35" y="372.1045">alt</text><text fill="#000000" font-family="sans-serif" font-size="11" font-weight="bold" lengthAdjust="spacing" textLength="118" x="96" y="371.0283">[Continent not found]</text><polygon fill="#181818" points="74.5,410.6641,64.5,414.6641,74.5,418.6641,70.5,414.6641" style="stroke:#181818;stroke-width:1.0;"/><line style="stroke:#181818;stroke-width:1.0;" x1="68.5" x2="237.5" y1="414.6641" y2="414.6641"/><text fill="#000000" font-family="sans-serif" font-size="13" lengthAdjust="spacing" textLength="57" x="80.5" y="393.4561">HTTP 400</text><text fill="#000000" font-family="sans-serif" font-size="13" lengthAdjust="spacing" textLength="138" x="80.5" y="409.8076">"Continent n'existe pas"</text><line style="stroke:#000000;stroke-width:1.0;stroke-dasharray:2.0,2.0;" x1="20" x2="501.5" y1="423.6641" y2="423.6641"/><polygon fill="#181818" points="413.5,443.0156,423.5,447.0156,413.5,451.0156,417.5,447.0156" style="stroke:#181818;stroke-width:1.0;"/><line style="stroke:#181818;stroke-width:1.0;" x1="238.5" x2="419.5" y1="447.0156" y2="447.0156"/><text fill="#000000" font-family="sans-serif" font-size="13" lengthAdjust="spacing" textLength="89" x="245.5" y="442.1592">create(payload)</text><polygon fill="#181818" points="249.5,473.3672,239.5,477.3672,249.5,481.3672,245.5,477.3672" style="stroke:#181818;stroke-width:1.0;"/><line style="stroke:#181818;stroke-width:1.0;stroke-dasharray:2.0,2.0;" x1="243.5" x2="424.5" y1="477.3672" y2="477.3672"/><text fill="#000000" font-family="sans-serif" font-size="13" lengthAdjust="spacing" textLength="163" x="255.5" y="472.5107">CountryEntity/CountryModel</text><polygon fill="#181818" points="74.5,503.7188,64.5,507.7188,74.5,511.7188,70.5,507.7188" style="stroke:#181818;stroke-width:1.0;"/><line style="stroke:#181818;stroke-width:1.0;stroke-dasharray:2.0,2.0;" x1="68.5" x2="237.5" y1="507.7188" y2="507.7188"/><text fill="#000000" font-family="sans-serif" font-size="13" lengthAdjust="spacing" textLength="127" x="80.5" y="502.8623">return created country</text><!--SRC=[ZLB1IWCn4BtdAuQzQ0_LWfvw4AG82WgBr9jGncGAaILPabbn_yPhlwC_vhJ9rjHQwK8WcRmtxytBecOVeBgj7s3MM79S0SQyLIq6jjgsw5WWninyvpZqBv5c66cBpFjzQCOzK-kZbVvzQlfJ_GrtR9q87X2AkbB958nl1b6O0dsIxfZEM-mRZsQaXYj15Ng2N5fd5c_zmaP_DS0lDeUHmeO7i3IqaIEWC-0yWw66c8m2-ShMoSeKxkVp6gudarTNFH9eRmWsFLCR0hDUlQ-_AaMDyFwGiF6emfxvGAZPVg1CgjF5w1HBDVPHk96n2-jLid4eL8HSvcHsAUa18iMacnBBrMrGIx6LXZZ1Lq4zoqcr6AijVUVntq2q958- -q0eKUEzFoNVt8aozvVvz2GFrXogbRO3SHTS5ZIGuqzMPM9Ptm00]--></g></svg>