<?xml version="1.0" encoding="us-ascii" standalone="no"?><svg xmlns="http://www.w3.org/2000/svg" xmlns:xlink="http://www.w3.org/1999/xlink" contentStyleType="text/css" height="686px" preserveAspectRatio="none" style="width:981px;height:686px;background:#F9F9F9;" version="1.1" viewBox="0 0 981 686" width="981px" zoomAndPan="magnify"><defs><filter height="300%" id="f11mekuv27ne0" width="300%" x="-1" y="-1"><feGaussianBlur result="blurOut" stdDeviation="2.0"/><feColorMatrix in="blurOut" result="blurOut2" type="matrix" values="0 0 0 0 0 0 0 0 0 0 0 0 0 0 0 0 0 0 .4 0"/><feOffset dx="4.0" dy="4.0" in="blurOut2" result="blurOut3"/><feBlend in="SourceGraphic" in2="blurOut3" mode="normal"/></filter></defs><g><rect fill="#F9F9F9" height="686" style="stroke:none;stroke-width:1.0;" width="981" x="0" y="0"/><!--cluster ENVIRONNEMENT--><g id="cluster_ENVIRONNEMENT"><rect fill="#FFFFFF" filter="url(#f11mekuv27ne0)" height="667" rx="2.5" ry="2.5" style="stroke:#444444;stroke-width:1.0;" width="962" x="7" y="7"/><text fill="#000000" font-family="sans-serif" font-size="14" font-weight="bold" lengthAdjust="spacing" textLength="122" x="427" y="23.5332">ENVIRONNEMENT</text></g><!--cluster Docker Compose (Tous les services)--><g id="cluster_Docker Compose (Tous les services)"><rect fill="#FFFFFF" filter="url(#f11mekuv27ne0)" height="479" rx="2.5" ry="2.5" style="stroke:#444444;stroke-width:1.0;" width="454" x="31" y="171"/><text fill="#000000" font-family="sans-serif" font-size="14" font-weight="bold" lengthAdjust="spacing" textLength="258" x="129" y="187.5332">Docker Compose (Tous les services)</text></g><!--cluster API Gateway - Backend (? venir)--><g id="cluster_API Gateway - Backend (&#224; venir)"><rect fill="#FFFFFF" filter="url(#f11mekuv27ne0)" height="411" rx="2.5" ry="2.5" style="stroke:#444444;stroke-width:1.0;" width="238" x="223" y="215"/><text fill="#000000" font-family="sans-serif" font-size="14" font-weight="bold" lengthAdjust="spacing" textLength="222" x="231" y="231.5332">API Gateway - Backend (&#224; venir)</text></g><!--entity Developer--><g id="elem_Developer"><ellipse cx="705" cy="251.5" fill="#FFFFFF" filter="url(#f11mekuv27ne0)" rx="8" ry="8" style="stroke:#000000;stroke-width:0.5;"/><path d="M705,259.5 L705,286.5 M692,267.5 L718,267.5 M705,286.5 L692,301.5 M705,286.5 L718,301.5 " fill="none" filter="url(#f11mekuv27ne0)" style="stroke:#000000;stroke-width:0.5;"/><text fill="#000000" font-family="sans-serif" font-size="14" lengthAdjust="spacing" textLength="65" x="672.5" y="320.5332">Developer</text></g><!--entity Client--><g id="elem_Client"><ellipse cx="127" cy="51.5" fill="#FFFFFF" filter="url(#f11mekuv27ne0)" rx="8" ry="8" style="stroke:#000000;stroke-width:0.5;"/><path d="M127,59.5 L127,86.5 M114,67.5 L140,67.5 M127,86.5 L114,101.5 M127,86.5 L140,101.5 " fill="none" filter="url(#f11mekuv27ne0)" style="stroke:#000000;stroke-width:0.5;"/><text fill="#000000" font-family="sans-serif" font-size="14" lengthAdjust="spacing" textLength="36" x="109" y="120.5332">Client</text></g><!--entity InterfaceETL--><g id="elem_InterfaceETL"><polygon fill="#F1F1F1" filter="url(#f11mekuv27ne0)" points="501,412,511,402,639,402,639,457.2188,629,467.2188,501,467.2188,501,412" style="stroke:#444444;stroke-width:0.5;"/><line style="stroke:#444444;stroke-width:0.5;" x1="629" x2="639" y1="412" y2="402"/><line style="stroke:#444444;stroke-width:0.5;" x1="501" x2="629" y1="412" y2="412"/><line style="stroke:#444444;stroke-width:0.5;" x1="629" x2="629" y1="412" y2="467.2188"/><text fill="#000000" font-family="sans-serif" font-size="14" font-style="italic" lengthAdjust="spacing" textLength="98" x="516" y="436.5332">&#171;InterfaceETL&#187;</text><text fill="#000000" font-family="sans-serif" font-size="14" lengthAdjust="spacing" textLength="81" x="524.5" y="454.1426">InterfaceETL</text></g><!--entity ETL--><g id="elem_ETL"><polygon fill="#F1F1F1" filter="url(#f11mekuv27ne0)" points="363,261,373,251,445,251,445,306.2188,435,316.2188,363,316.2188,363,261" style="stroke:#444444;stroke-width:0.5;"/><line style="stroke:#444444;stroke-width:0.5;" x1="435" x2="445" y1="261" y2="251"/><line style="stroke:#444444;stroke-width:0.5;" x1="363" x2="435" y1="261" y2="261"/><line style="stroke:#444444;stroke-width:0.5;" x1="435" x2="435" y1="261" y2="316.2188"/><text fill="#000000" font-family="sans-serif" font-size="14" font-style="italic" lengthAdjust="spacing" textLength="42" x="378" y="285.5332">&#171;ETL&#187;</text><text fill="#000000" font-family="sans-serif" font-size="14" lengthAdjust="spacing" textLength="26" x="386" y="303.1426">ETL</text></g><!--entity API Rest--><g id="elem_API Rest"><polygon fill="#F1F1F1" filter="url(#f11mekuv27ne0)" points="351,555,361,545,445,545,445,600.2188,435,610.2188,351,610.2188,351,555" style="stroke:#444444;stroke-width:0.5;"/><line style="stroke:#444444;stroke-width:0.5;" x1="435" x2="445" y1="555" y2="545"/><line style="stroke:#444444;stroke-width:0.5;" x1="351" x2="435" y1="555" y2="555"/><line style="stroke:#444444;stroke-width:0.5;" x1="435" x2="435" y1="555" y2="610.2188"/><text fill="#000000" font-family="sans-serif" font-size="14" font-style="italic" lengthAdjust="spacing" textLength="38" x="374" y="579.5332">&#171;API&#187;</text><text fill="#000000" font-family="sans-serif" font-size="14" lengthAdjust="spacing" textLength="54" x="366" y="597.1426">API Rest</text></g><!--entity PostgreSQL--><g id="elem_PostgreSQL"><path d="M315.5,412.5 C315.5,402.5 364,402.5 364,402.5 C364,402.5 412.5,402.5 412.5,412.5 L412.5,456.7188 C412.5,466.7188 364,466.7188 364,466.7188 C364,466.7188 315.5,466.7188 315.5,456.7188 L315.5,412.5 " fill="#DFF0D8" filter="url(#f11mekuv27ne0)" style="stroke:#3C763D;stroke-width:0.5;"/><path d="M315.5,412.5 C315.5,422.5 364,422.5 364,422.5 C364,422.5 412.5,422.5 412.5,412.5 " fill="none" style="stroke:#3C763D;stroke-width:0.5;"/><text fill="#3C763D" font-family="sans-serif" font-size="14" font-style="italic" lengthAdjust="spacing" textLength="35" x="346.5" y="441.0332">&#171;DB&#187;</text><text fill="#3C763D" font-family="sans-serif" font-size="14" lengthAdjust="spacing" textLength="77" x="325.5" y="458.6426">PostgreSQL</text></g><!--entity Metabase (dataviz)--><g id="elem_Metabase (dataviz)"><polygon fill="#F1F1F1" filter="url(#f11mekuv27ne0)" points="47,261,57,251,207,251,207,306.2188,197,316.2188,47,316.2188,47,261" style="stroke:#444444;stroke-width:0.5;"/><line style="stroke:#444444;stroke-width:0.5;" x1="197" x2="207" y1="261" y2="251"/><line style="stroke:#444444;stroke-width:0.5;" x1="47" x2="197" y1="261" y2="261"/><line style="stroke:#444444;stroke-width:0.5;" x1="197" x2="197" y1="261" y2="316.2188"/><text fill="#000000" font-family="sans-serif" font-size="14" font-style="italic" lengthAdjust="spacing" textLength="62" x="91" y="285.5332">&#171;Dataviz&#187;</text><text fill="#000000" font-family="sans-serif" font-size="14" lengthAdjust="spacing" textLength="120" x="62" y="303.1426">Metabase (dataviz)</text></g><!--link ETL to PostgreSQL--><g id="link_ETL_PostgreSQL"><path d="M367.84,316.12 C350.17,331.99 332.2,348.9 330,354 C323.14,369.84 326.1993,382.3693 335.0693,396.9993 " fill="none" id="ETL-to-PostgreSQL" style="stroke:#181818;stroke-width:1.0;"/><polygon fill="#181818" points="338.18,402.13,336.9344,392.3602,335.5878,397.8544,330.0936,396.5078,338.18,402.13" style="stroke:#181818;stroke-width:1.0;"/><text fill="#000000" font-family="sans-serif" font-size="13" lengthAdjust="spacing" textLength="31" x="331" y="368.4951">Write</text></g><!--link ETL to PostgreSQL--><g id="link_ETL_PostgreSQL"><path d="M394.61,316.27 C391.19,328.09 387.33,341.63 384,354 C379.7,369.94 376.6303,381.9354 372.9903,396.6554 " fill="none" id="ETL-to-PostgreSQL-1" style="stroke:#181818;stroke-width:1.0;"/><polygon fill="#181818" points="371.55,402.48,377.5935,394.7034,372.7503,397.6262,369.8274,392.783,371.55,402.48" style="stroke:#181818;stroke-width:1.0;"/><text fill="#000000" font-family="sans-serif" font-size="13" lengthAdjust="spacing" textLength="30" x="385" y="368.4951">Read</text></g><!--link Developer to API Rest--><g id="link_Developer_API Rest"><path d="M737.66,321.48 C766.43,358.8 800.41,417.79 777,467 C762.48,497.53 748.64,500.71 718,515 C627.51,557.21 515.6776,570.0645 451.2176,574.2145 " fill="none" id="Developer-to-API Rest" style="stroke:#181818;stroke-width:1.0;"/><polygon fill="#181818" points="445.23,574.6,454.4684,578.0135,450.2197,574.2788,453.9544,570.03,445.23,574.6" style="stroke:#181818;stroke-width:1.0;"/><text fill="#000000" font-family="sans-serif" font-size="13" lengthAdjust="spacing" textLength="112" x="785" y="439.9951">HTTP (Auth &#224; venir)</text></g><!--link API Rest to Developer--><g id="link_API Rest_Developer"><path d="M445.1,567.12 C501.65,553.7 596.42,524.08 657,467 C691.28,434.69 693.01,417.81 704,372 C707.69,356.64 708.6509,345.309 708.3709,330.159 " fill="none" id="API Rest-to-Developer" style="stroke:#181818;stroke-width:1.0;"/><polygon fill="#181818" points="708.26,324.16,704.427,333.2324,708.3524,329.1591,712.4256,333.0845,708.26,324.16" style="stroke:#181818;stroke-width:1.0;"/><text fill="#000000" font-family="sans-serif" font-size="13" lengthAdjust="spacing" textLength="58" x="697" y="439.9951">Response</text></g><!--link Developer to PostgreSQL--><g id="link_Developer_PostgreSQL"><path d="M672.28,309.59 C641.86,332.47 598.42,363.9 579,372 C511.42,400.18 485.54,376.23 417,402 C415.6,402.53 419.7109,400.7407 418.3009,401.3407 " fill="none" id="Developer-to-PostgreSQL" style="stroke:#181818;stroke-width:1.0;"/><polygon fill="#181818" points="412.78,403.69,422.6276,403.8466,417.3808,401.7322,419.4952,396.4854,412.78,403.69" style="stroke:#181818;stroke-width:1.0;"/><text fill="#000000" font-family="sans-serif" font-size="13" lengthAdjust="spacing" textLength="75" x="608" y="368.4951">CONNEXION</text></g><!--link API Rest to PostgreSQL--><g id="link_API Rest_PostgreSQL"><path d="M387.45,544.77 C384.49,535.26 381.42,524.76 379,515 C375.08,499.19 372.6716,487.2889 370.0716,472.5389 " fill="none" id="API Rest-to-PostgreSQL" style="stroke:#181818;stroke-width:1.0;"/><polygon fill="#181818" points="369.03,466.63,366.6531,476.1877,369.898,471.5541,374.5316,474.799,369.03,466.63" style="stroke:#181818;stroke-width:1.0;"/><text fill="#000000" font-family="sans-serif" font-size="13" lengthAdjust="spacing" textLength="36" x="380" y="511.4951">CRUD</text></g><!--link PostgreSQL to API Rest--><g id="link_PostgreSQL_API Rest"><path d="M321.71,466.72 C307.87,480.88 298.08,498.2 307,515 C316.48,532.85 328.5205,543.4486 345.4605,553.2786 " fill="none" id="PostgreSQL-to-API Rest" style="stroke:#181818;stroke-width:1.0;"/><polygon fill="#181818" points="350.65,556.29,344.8733,548.3132,346.3254,553.7805,340.8581,555.2326,350.65,556.29" style="stroke:#181818;stroke-width:1.0;"/><text fill="#000000" font-family="sans-serif" font-size="13" lengthAdjust="spacing" textLength="58" x="308" y="511.4951">Response</text></g><!--link Metabase (dataviz) to PostgreSQL--><g id="link_Metabase (dataviz)_PostgreSQL"><path d="M177.26,316.1 C218.02,341.73 270.0507,374.4362 310.3507,399.7762 " fill="none" id="Metabase (dataviz)-to-PostgreSQL" style="stroke:#181818;stroke-width:1.0;"/><polygon fill="#181818" points="315.43,402.97,309.9402,394.7931,311.1972,400.3085,305.6818,401.5655,315.43,402.97" style="stroke:#181818;stroke-width:1.0;"/><text fill="#000000" font-family="sans-serif" font-size="13" lengthAdjust="spacing" textLength="30" x="260" y="368.4951">Read</text></g><!--link Client to Metabase (dataviz)--><g id="link_Client_Metabase (dataviz)"><path d="M127,124.09 C127,161.33 127,210.37 127,244.8 " fill="none" id="Client-to-Metabase (dataviz)" style="stroke:#181818;stroke-width:1.0;"/><polygon fill="#181818" points="127,250.8,131,241.8,127,245.8,123,241.8,127,250.8" style="stroke:#181818;stroke-width:1.0;"/></g><!--link Developer to InterfaceETL--><g id="link_Developer_InterfaceETL"><path d="M708.93,324.42 C708.58,340.46 705.53,358.35 696,372 C682.34,391.56 666.1848,402.7631 644.6448,412.1031 " fill="none" id="Developer-to-InterfaceETL" style="stroke:#181818;stroke-width:1.0;"/><polygon fill="#181818" points="639.14,414.49,648.9885,414.5794,643.7273,412.5009,645.8059,407.2397,639.14,414.49" style="stroke:#181818;stroke-width:1.0;"/></g><!--link InterfaceETL to ETL--><g id="link_InterfaceETL_ETL"><path d="M516.39,401.88 C502.96,392.94 488.97,382.71 477,372 C458.28,355.25 443.8143,338.3388 430.3143,320.7588 " fill="none" id="InterfaceETL-to-ETL" style="stroke:#181818;stroke-width:1.0;"/><polygon fill="#181818" points="426.66,316,428.969,325.5744,429.7053,319.9656,435.314,320.7019,426.66,316" style="stroke:#181818;stroke-width:1.0;"/><text fill="#000000" font-family="sans-serif" font-size="13" lengthAdjust="spacing" textLength="96" x="478" y="368.4951">Ex&#233;cute pipeline</text></g><!--SRC=[dLHTRzem57tFhx3Om-W3KjSKMb25H85jI2jbBFjuDVODM0GREGvjD_5VzhZ-3lxOd8ybDXYsrKWaiS_rFUUUQxz6mMBtQmM8H9X910f5B6Qp2BnuoVWQIxn2CqoMSoaIJliY4XAz2jlfpq1G274IgG0ULIzYSxu2hX3HVo0DLBp0L3mmFaTA9k0PAnA8mdmU0VhX8Jrk3p9c8ryJae8ivY-paSs_5LmLi-VPyBP61YvekVcBDg1OuHcEZpAaONXEhmyJ-EIgvTFz1CMicG0JfLV-Ktz1z1XzhofiRJZ-CfhUZyV3k-4ugEb4MLIUTG0RYCHQkrNDzIEc3SnHMVL6gPqX9Z0CFg2R6_Epsos8RtEyaNOWo1BqRcAr5hfwzK0aCOeWHZ783ICGdvLSzY9xan5wXnKyu2VKo4e2dABwxYVQ06VIZYjPrZITcgPdilepjjPNLNgIakDQhJliY2CGqkOXpdGd376pSCSSXbFKRrxk8ROkKMajfX2hL9b-VuaoLvXJ6RJ2YwBNZYhp_NRRWR5wiDKYv9IoyaJL9Y9MSmcVFcRE3MuTygpFtED6esk7Tj1NoHHOqBApStXLnmvw7mGJLEybQe7AdZeLQwVgfqVfs-X-R3Eh4hXYffy7DjnSFo2edzgy6FvD-nGmFSMbKkFOsIXmtd1tK9XJJstQiEzdcJNvk-LFrNhEjdE5k0-K3ytGFb1MoxN9nTNCFYf6kxNmcraRk_GufVojVldbbyCSyPwxHSmhiOHOrsQsOUPW1mqVTyyaKO3MR0qHur3SeDlV]--></g></svg>