<?xml version="1.0" encoding="us-ascii" standalone="no"?><svg xmlns="http://www.w3.org/2000/svg" xmlns:xlink="http://www.w3.org/1999/xlink" contentStyleType="text/css" height="820px" preserveAspectRatio="none" style="width:571px;height:820px;background:#F9F9F9;" version="1.1" viewBox="0 0 571 820" width="571px" zoomAndPan="magnify"><defs><filter height="300%" id="f8uo51bpft29w" width="300%" x="-1" y="-1"><feGaussianBlur result="blurOut" stdDeviation="2.0"/><feColorMatrix in="blurOut" result="blurOut2" type="matrix" values="0 0 0 0 0 0 0 0 0 0 0 0 0 0 0 0 0 0 .4 0"/><feOffset dx="4.0" dy="4.0" in="blurOut2" result="blurOut3"/><feBlend in="SourceGraphic" in2="blurOut3" mode="normal"/></filter></defs><g><rect fill="#F9F9F9" height="820" style="stroke:none;stroke-width:1.0;" width="571" x="0" y="0"/><!--cluster ENVIRONNEMENT--><g id="cluster_ENVIRONNEMENT"><rect fill="#FFFFFF" filter="url(#f8uo51bpft29w)" height="801" rx="2.5" ry="2.5" style="stroke:#444444;stroke-width:1.0;" width="552" x="7" y="7"/><text fill="#000000" font-family="sans-serif" font-size="14" font-weight="bold" lengthAdjust="spacing" textLength="122" x="222" y="23.5332">ENVIRONNEMENT</text></g><!--cluster Docker Compose (Tous les services)--><g id="cluster_Docker Compose (Tous les services)"><rect fill="#FFFFFF" filter="url(#f8uo51bpft29w)" height="470" rx="2.5" ry="2.5" style="stroke:#444444;stroke-width:1.0;" width="454" x="31" y="314"/><text fill="#000000" font-family="sans-serif" font-size="14" font-weight="bold" lengthAdjust="spacing" textLength="258" x="129" y="330.5332">Docker Compose (Tous les services)</text></g><!--cluster API Gateway (? venir) - Backend--><g id="cluster_API Gateway (&#224; venir) - Backend"><rect fill="#FFFFFF" filter="url(#f8uo51bpft29w)" height="402" rx="2.5" ry="2.5" style="stroke:#444444;stroke-width:1.0;" width="238" x="55" y="358"/><text fill="#000000" font-family="sans-serif" font-size="14" font-weight="bold" lengthAdjust="spacing" textLength="222" x="63" y="374.5332">API Gateway (&#224; venir) - Backend</text></g><!--entity Developer--><g id="elem_Developer"><ellipse cx="505" cy="51.5" fill="#FFFFFF" filter="url(#f8uo51bpft29w)" rx="8" ry="8" style="stroke:#000000;stroke-width:0.5;"/><path d="M505,59.5 L505,86.5 M492,67.5 L518,67.5 M505,86.5 L492,101.5 M505,86.5 L518,101.5 " fill="none" filter="url(#f8uo51bpft29w)" style="stroke:#000000;stroke-width:0.5;"/><text fill="#000000" font-family="sans-serif" font-size="14" lengthAdjust="spacing" textLength="65" x="472.5" y="120.5332">Developer</text></g><!--entity Client--><g id="elem_Client"><ellipse cx="361" cy="51.5" fill="#FFFFFF" filter="url(#f8uo51bpft29w)" rx="8" ry="8" style="stroke:#000000;stroke-width:0.5;"/><path d="M361,59.5 L361,86.5 M348,67.5 L374,67.5 M361,86.5 L348,101.5 M361,86.5 L374,101.5 " fill="none" filter="url(#f8uo51bpft29w)" style="stroke:#000000;stroke-width:0.5;"/><text fill="#000000" font-family="sans-serif" font-size="14" lengthAdjust="spacing" textLength="36" x="343" y="120.5332">Client</text></g><!--entity InterfaceETL--><g id="elem_InterfaceETL"><polygon fill="#F1F1F1" filter="url(#f8uo51bpft29w)" points="215,195,225,185,353,185,353,240.2188,343,250.2188,215,250.2188,215,195" style="stroke:#444444;stroke-width:0.5;"/><line style="stroke:#444444;stroke-width:0.5;" x1="343" x2="353" y1="195" y2="185"/><line style="stroke:#444444;stroke-width:0.5;" x1="215" x2="343" y1="195" y2="195"/><line style="stroke:#444444;stroke-width:0.5;" x1="343" x2="343" y1="195" y2="250.2188"/><text fill="#000000" font-family="sans-serif" font-size="14" font-style="italic" lengthAdjust="spacing" textLength="98" x="230" y="219.5332">&#171;InterfaceETL&#187;</text><text fill="#000000" font-family="sans-serif" font-size="14" lengthAdjust="spacing" textLength="81" x="238.5" y="237.1426">InterfaceETL</text></g><!--entity ETL--><g id="elem_ETL"><polygon fill="#F1F1F1" filter="url(#f8uo51bpft29w)" points="192,404,202,394,274,394,274,449.2188,264,459.2188,192,459.2188,192,404" style="stroke:#444444;stroke-width:0.5;"/><line style="stroke:#444444;stroke-width:0.5;" x1="264" x2="274" y1="404" y2="394"/><line style="stroke:#444444;stroke-width:0.5;" x1="192" x2="264" y1="404" y2="404"/><line style="stroke:#444444;stroke-width:0.5;" x1="264" x2="264" y1="404" y2="459.2188"/><text fill="#000000" font-family="sans-serif" font-size="14" font-style="italic" lengthAdjust="spacing" textLength="42" x="207" y="428.5332">&#171;ETL&#187;</text><text fill="#000000" font-family="sans-serif" font-size="14" lengthAdjust="spacing" textLength="26" x="215" y="446.1426">ETL</text></g><!--entity API Rest--><g id="elem_API Rest"><polygon fill="#F1F1F1" filter="url(#f8uo51bpft29w)" points="183,689,193,679,277,679,277,734.2188,267,744.2188,183,744.2188,183,689" style="stroke:#444444;stroke-width:0.5;"/><line style="stroke:#444444;stroke-width:0.5;" x1="267" x2="277" y1="689" y2="679"/><line style="stroke:#444444;stroke-width:0.5;" x1="183" x2="267" y1="689" y2="689"/><line style="stroke:#444444;stroke-width:0.5;" x1="267" x2="267" y1="689" y2="744.2188"/><text fill="#000000" font-family="sans-serif" font-size="14" font-style="italic" lengthAdjust="spacing" textLength="38" x="206" y="713.5332">&#171;API&#187;</text><text fill="#000000" font-family="sans-serif" font-size="14" lengthAdjust="spacing" textLength="54" x="198" y="731.1426">API Rest</text></g><!--entity PostgreSQL--><g id="elem_PostgreSQL"><path d="M179.5,547 C179.5,537 228,537 228,537 C228,537 276.5,537 276.5,547 L276.5,591.2188 C276.5,601.2188 228,601.2188 228,601.2188 C228,601.2188 179.5,601.2188 179.5,591.2188 L179.5,547 " fill="#DFF0D8" filter="url(#f8uo51bpft29w)" style="stroke:#3C763D;stroke-width:0.5;"/><path d="M179.5,547 C179.5,557 228,557 228,557 C228,557 276.5,557 276.5,547 " fill="none" style="stroke:#3C763D;stroke-width:0.5;"/><text fill="#3C763D" font-family="sans-serif" font-size="14" font-style="italic" lengthAdjust="spacing" textLength="35" x="210.5" y="575.5332">&#171;DB&#187;</text><text fill="#3C763D" font-family="sans-serif" font-size="14" lengthAdjust="spacing" textLength="77" x="189.5" y="593.1426">PostgreSQL</text></g><!--entity Metabase (dataviz)--><g id="elem_Metabase (dataviz)"><polygon fill="#F1F1F1" filter="url(#f8uo51bpft29w)" points="309,404,319,394,469,394,469,449.2188,459,459.2188,309,459.2188,309,404" style="stroke:#444444;stroke-width:0.5;"/><line style="stroke:#444444;stroke-width:0.5;" x1="459" x2="469" y1="404" y2="394"/><line style="stroke:#444444;stroke-width:0.5;" x1="309" x2="459" y1="404" y2="404"/><line style="stroke:#444444;stroke-width:0.5;" x1="459" x2="459" y1="404" y2="459.2188"/><text fill="#000000" font-family="sans-serif" font-size="14" font-style="italic" lengthAdjust="spacing" textLength="62" x="353" y="428.5332">&#171;Dataviz&#187;</text><text fill="#000000" font-family="sans-serif" font-size="14" lengthAdjust="spacing" textLength="120" x="324" y="446.1426">Metabase (dataviz)</text></g><!--link ETL to PostgreSQL--><g id="link_ETL_PostgreSQL"><path d="M191.91,453.57 C180.37,463.17 169.27,475.15 163,489 C155.09,506.48 161.0266,519.1837 175.6166,532.7537 " fill="none" id="ETL-to-PostgreSQL" style="stroke:#181818;stroke-width:1.0;"/><polygon fill="#181818" points="180.01,536.84,176.144,527.7816,176.3488,533.4348,170.6957,533.6395,180.01,536.84" style="stroke:#181818;stroke-width:1.0;"/><text fill="#000000" font-family="sans-serif" font-size="13" lengthAdjust="spacing" textLength="31" x="164" y="503.4951">Write</text></g><!--link ETL to PostgreSQL--><g id="link_ETL_PostgreSQL"><path d="M223.13,459.12 C220.61,468.63 218.26,479.15 217,489 C214.98,504.8 215.8398,516.4513 218.6798,530.9913 " fill="none" id="ETL-to-PostgreSQL-1" style="stroke:#181818;stroke-width:1.0;"/><polygon fill="#181818" points="219.83,536.88,222.0305,527.2801,218.8715,531.9727,214.1789,528.8137,219.83,536.88" style="stroke:#181818;stroke-width:1.0;"/><text fill="#000000" font-family="sans-serif" font-size="13" lengthAdjust="spacing" textLength="30" x="218" y="503.4951">Read</text></g><!--link Developer to API Rest--><g id="link_Developer_API Rest"><path d="M524.3032,129.7493 C533.9632,155.5593 542,184.61 542,216.5 C542,216.5 542,216.5 542,570 C542,684.8 370.2047,706.0876 283.0447,709.7576 " fill="none" id="Developer-API Rest" style="stroke:#181818;stroke-width:1.0;"/><polygon fill="#181818" points="522.2,124.13,521.6085,133.9611,523.9526,128.8128,529.101,131.1569,522.2,124.13" style="stroke:#181818;stroke-width:1.0;"/><polygon fill="#181818" points="277.05,710.01,286.2103,713.6278,282.0456,709.7997,285.8738,705.6349,277.05,710.01" style="stroke:#181818;stroke-width:1.0;"/></g><!--link Developer to PostgreSQL--><g id="link_Developer_PostgreSQL"><path d="M509.22,124.23 C518.3,218.46 535.04,451.76 485,507 C454.24,540.96 324.23,521.82 281,537 C279.59,537.49 283.7563,535.8153 282.3463,536.3753 " fill="none" id="Developer-to-PostgreSQL" style="stroke:#181818;stroke-width:1.0;"/><polygon fill="#181818" points="276.77,538.59,286.6109,538.9855,281.4169,536.7444,283.658,531.5504,276.77,538.59" style="stroke:#181818;stroke-width:1.0;"/></g><!--link API Rest to PostgreSQL--><g id="link_API Rest_PostgreSQL"><path d="M218.19,678.69 C215.23,669.26 212.48,658.83 211,649 C208.61,633.19 210.0469,621.552 214.2369,607.122 " fill="none" id="API Rest-to-PostgreSQL" style="stroke:#181818;stroke-width:1.0;"/><polygon fill="#181818" points="215.91,601.36,209.559,608.8876,214.5158,606.1617,217.2417,611.1184,215.91,601.36" style="stroke:#181818;stroke-width:1.0;"/><text fill="#000000" font-family="sans-serif" font-size="13" lengthAdjust="spacing" textLength="36" x="212" y="645.4951">CRUD</text></g><!--link PostgreSQL to API Rest--><g id="link_PostgreSQL_API Rest"><path d="M179.47,590.31 C153.6,604.39 129.44,624.91 142,649 C150.87,666.02 161.7382,676.1685 177.6682,685.9585 " fill="none" id="PostgreSQL-to-API Rest" style="stroke:#181818;stroke-width:1.0;"/><polygon fill="#181818" points="182.78,689.1,177.2066,680.9798,178.5201,686.482,173.0179,687.7956,182.78,689.1" style="stroke:#181818;stroke-width:1.0;"/><text fill="#000000" font-family="sans-serif" font-size="13" lengthAdjust="spacing" textLength="58" x="143" y="645.4951">Response</text></g><!--link Metabase (dataviz) to PostgreSQL--><g id="link_Metabase (dataviz)_PostgreSQL"><path d="M352.87,459.03 C326.26,482.25 294.7709,509.7353 268.2509,532.8753 " fill="none" id="Metabase (dataviz)-to-PostgreSQL" style="stroke:#181818;stroke-width:1.0;"/><polygon fill="#181818" points="263.73,536.82,273.1413,533.9168,267.4975,533.5327,267.8816,527.8889,263.73,536.82" style="stroke:#181818;stroke-width:1.0;"/><text fill="#000000" font-family="sans-serif" font-size="13" lengthAdjust="spacing" textLength="30" x="319" y="503.4951">Read</text></g><!--link Client to Metabase (dataviz)--><g id="link_Client_Metabase (dataviz)"><path d="M365.17,124.1 C367.05,142.59 369.25,164.91 371,185 C377.53,259.87 383.3411,342.0039 386.4811,387.9739 " fill="none" id="Client-to-Metabase (dataviz)" style="stroke:#181818;stroke-width:1.0;"/><polygon fill="#181818" points="386.89,393.96,390.2674,384.7083,386.5493,388.9716,382.286,385.2535,386.89,393.96" style="stroke:#181818;stroke-width:1.0;"/></g><!--link Client to InterfaceETL--><g id="link_Client_InterfaceETL"><path d="M342.95,115.45 C330.77,136.33 317.7637,158.6176 305.4937,179.6476 " fill="none" id="Client-to-InterfaceETL" style="stroke:#181818;stroke-width:1.0;"/><polygon fill="#181818" points="302.47,184.83,310.4605,179.0722,304.9897,180.5113,303.5506,175.0406,302.47,184.83" style="stroke:#181818;stroke-width:1.0;"/></g><!--link Developer to InterfaceETL--><g id="link_Developer_InterfaceETL"><path d="M472.39,103.98 C436.73,125.28 384.2009,156.6529 342.0509,181.8329 " fill="none" id="Developer-to-InterfaceETL" style="stroke:#181818;stroke-width:1.0;"/><polygon fill="#181818" points="336.9,184.91,346.6777,183.7283,341.1924,182.3458,342.5749,176.8605,336.9,184.91" style="stroke:#181818;stroke-width:1.0;"/></g><!--link InterfaceETL to ETL--><g id="link_InterfaceETL_ETL"><path d="M276.14,250.39 C266.53,289.4 251.7958,349.2143 242.2158,388.0843 " fill="none" id="InterfaceETL-to-ETL" style="stroke:#181818;stroke-width:1.0;"/><polygon fill="#181818" points="240.78,393.91,246.8175,386.1287,241.9765,389.0553,239.0499,384.2143,240.78,393.91" style="stroke:#181818;stroke-width:1.0;"/><text fill="#000000" font-family="sans-serif" font-size="13" lengthAdjust="spacing" textLength="96" x="268" y="294.4951">Execute pipeline</text></g><!--SRC=[dLJRRXen47tVhx3eG-41ASq6KYA4b02ja1gQKje-6tkMM1WRsOQahVYNFlO_ycFrUhUxDfXUCaYmQv_np3bpy4iqlt_wkGP4E6OAWK6SQRRWaEWL4nkiy1ejC5ajbTmAEfHSAlGYw-KV3q4Xmrjkvl1ehZbRYZK8WuZz0kMXz3scye699J9g2ucteu0OB9OSqFS4sRWvgkYYs9EAWYhNBrouzJTIc7Brp4Mozoe8IQl3dtK0nGOli3xP8SsoC_hwk41ABhifFInGhle5C35svp_vbusUQZ-fXMsCfvydi_VJwVXsF9qtR26NLLGTmGwutDXfrMj3pkm02vHJRvAFCyC4nlDtgD_tNmU3il5zWVVAZYHPWJrDhZVIgjUSowr673JIe7QCW6vLlHnaNjzDq5jiu05_HSsd7sW7WgaMQZjrGD0Wh-goOTjfsFRyhdx7FdYhfITvSyAoZQUTc0Xaj7ECywUJPRXJJiSFRr8qxLmS8FOnKhaMCz0cPsQVdyCibXPb1jtilFJQIMPfskj5C847krr2_iIi-aSrxgGsImKVFxZ9ZMuYz8BNOiRjzY1ClK9V53CGG2jdexx3LqAUG1qU6jQjnn0fFfnz6eLmVp-iRk7sruv6mxyncm6cIKIEmXwtK4hPp4NTiMyj9sJn7AXP6oLgabXAtFufTBBG_e51UkJySX4QspD75xzQz72CJvJAt_Gehge25icFulphgqQ4Hl0n5IIu1jrHRcPNQFm8P6i0RTW6E1DGNeZxNm00]--></g></svg>