<svg xmlns="http://www.w3.org/2000/svg" xmlns:xlink="http://www.w3.org/1999/xlink" contentStyleType="text/css" data-diagram-type="CLASS" height="925px" preserveAspectRatio="none" style="width:509px;height:925px;background:#FFFFFF;" version="1.1" viewBox="0 0 509 925" width="509px" zoomAndPan="magnify"><defs/><g><!--class statistic--><g class="entity" data-entity="statistic" data-source-line="9" data-uid="ent0002" id="entity_statistic"><rect fill="#ADD8E6" height="129.4844" rx="2.5" ry="2.5" style="stroke:#00008B;stroke-width:0.5;" width="118.2646" x="63.01" y="773.13"/><ellipse cx="84.8615" cy="789.13" fill="#ADD1B2" rx="11" ry="11" style="stroke:#181818;stroke-width:1;"/><path d="M88.9709,795.13 L81.2521,795.13 L81.2521,782.7394 L88.9709,782.7394 L88.9709,784.8956 L83.7053,784.8956 L83.7053,787.5675 L88.4709,787.5675 L88.4709,789.7238 L83.7053,789.7238 L83.7053,792.9738 L88.9709,792.9738 L88.9709,795.13 Z " fill="#000000"/><text fill="#000000" font-family="sans-serif" font-size="14" lengthAdjust="spacing" textLength="71.0391" x="100.3841" y="793.9767">STATISTIC</text><line style="stroke:#00008B;stroke-width:0.5;" x1="64.01" x2="180.2746" y1="805.13" y2="805.13"/><ellipse cx="74.01" cy="818.7784" fill="#000000" rx="3" ry="3" style="stroke:#000000;stroke-width:1;"/><text fill="#000000" font-family="sans-serif" font-size="14" lengthAdjust="spacing" textLength="12.7764" x="83.01" y="822.1251">id</text><text fill="#000000" font-family="sans-serif" font-size="14" lengthAdjust="spacing" textLength="33.8584" x="83.01" y="838.422">label</text><text fill="#000000" font-family="sans-serif" font-size="14" lengthAdjust="spacing" textLength="38.2402" x="83.01" y="854.7189">value</text><text fill="#000000" font-family="sans-serif" font-size="14" lengthAdjust="spacing" textLength="89.1611" x="83.01" y="871.0157">published_at</text><text fill="#000000" font-family="sans-serif" font-size="14" lengthAdjust="spacing" textLength="92.2646" x="83.01" y="887.3126">published_by</text><line style="stroke:#00008B;stroke-width:0.5;" x1="64.01" x2="180.2746" y1="894.6144" y2="894.6144"/></g><!--class country--><g class="entity" data-entity="country" data-source-line="17" data-uid="ent0003" id="entity_country"><rect fill="#ADD8E6" height="129.4844" rx="2.5" ry="2.5" style="stroke:#00008B;stroke-width:0.5;" width="100.498" x="13.9" y="262.38"/><ellipse cx="28.9686" cy="278.38" fill="#ADD1B2" rx="11" ry="11" style="stroke:#181818;stroke-width:1;"/><path d="M33.0779,284.38 L25.3592,284.38 L25.3592,271.9894 L33.0779,271.9894 L33.0779,274.1456 L27.8123,274.1456 L27.8123,276.8175 L32.5779,276.8175 L32.5779,278.9738 L27.8123,278.9738 L27.8123,282.2238 L33.0779,282.2238 L33.0779,284.38 Z " fill="#000000"/><text fill="#000000" font-family="sans-serif" font-size="14" lengthAdjust="spacing" textLength="68.3457" x="42.9838" y="283.2267">COUNTRY</text><line style="stroke:#00008B;stroke-width:0.5;" x1="14.9" x2="113.398" y1="294.38" y2="294.38"/><ellipse cx="24.9" cy="308.0284" fill="#000000" rx="3" ry="3" style="stroke:#000000;stroke-width:1;"/><text fill="#000000" font-family="sans-serif" font-size="14" lengthAdjust="spacing" textLength="12.7764" x="33.9" y="311.3751">id</text><text fill="#000000" font-family="sans-serif" font-size="14" lengthAdjust="spacing" textLength="39.7031" x="33.9" y="327.672">name</text><text fill="#000000" font-family="sans-serif" font-size="14" lengthAdjust="spacing" textLength="28.6563" x="33.9" y="343.9689">iso2</text><text fill="#000000" font-family="sans-serif" font-size="14" lengthAdjust="spacing" textLength="28.6563" x="33.9" y="360.2657">iso3</text><text fill="#000000" font-family="sans-serif" font-size="14" lengthAdjust="spacing" textLength="74.498" x="33.9" y="376.5626">population</text><line style="stroke:#00008B;stroke-width:0.5;" x1="14.9" x2="113.398" y1="383.8644" y2="383.8644"/></g><!--class continent--><g class="entity" data-entity="continent" data-source-line="25" data-uid="ent0004" id="entity_continent"><rect fill="#ADD8E6" height="113.1875" rx="2.5" ry="2.5" style="stroke:#00008B;stroke-width:0.5;" width="114.291" x="7" y="39.6"/><ellipse cx="22" cy="55.6" fill="#ADD1B2" rx="11" ry="11" style="stroke:#181818;stroke-width:1;"/><path d="M26.1094,61.6 L18.3906,61.6 L18.3906,49.2094 L26.1094,49.2094 L26.1094,51.3656 L20.8438,51.3656 L20.8438,54.0375 L25.6094,54.0375 L25.6094,56.1938 L20.8438,56.1938 L20.8438,59.4438 L26.1094,59.4438 L26.1094,61.6 Z " fill="#000000"/><text fill="#000000" font-family="sans-serif" font-size="14" lengthAdjust="spacing" textLength="82.291" x="36" y="60.4467">CONTINENT</text><line style="stroke:#00008B;stroke-width:0.5;" x1="8" x2="120.291" y1="71.6" y2="71.6"/><ellipse cx="18" cy="85.2484" fill="#000000" rx="3" ry="3" style="stroke:#000000;stroke-width:1;"/><text fill="#000000" font-family="sans-serif" font-size="14" lengthAdjust="spacing" textLength="12.7764" x="27" y="88.5951">id</text><text fill="#000000" font-family="sans-serif" font-size="14" lengthAdjust="spacing" textLength="39.7031" x="27" y="104.892">name</text><text fill="#000000" font-family="sans-serif" font-size="14" lengthAdjust="spacing" textLength="33.7627" x="27" y="121.1889">code</text><text fill="#000000" font-family="sans-serif" font-size="14" lengthAdjust="spacing" textLength="74.498" x="27" y="137.4857">population</text><line style="stroke:#00008B;stroke-width:0.5;" x1="8" x2="120.291" y1="144.7875" y2="144.7875"/></g><!--class daily_wise--><g class="entity" data-entity="daily_wise" data-source-line="32" data-uid="ent0005" id="entity_daily_wise"><rect fill="#ADD8E6" height="129.4844" rx="2.5" ry="2.5" style="stroke:#00008B;stroke-width:0.5;" width="115.542" x="342.37" y="509.61"/><ellipse cx="357.37" cy="525.61" fill="#ADD1B2" rx="11" ry="11" style="stroke:#181818;stroke-width:1;"/><path d="M361.4794,531.61 L353.7606,531.61 L353.7606,519.2194 L361.4794,519.2194 L361.4794,521.3756 L356.2138,521.3756 L356.2138,524.0475 L360.9794,524.0475 L360.9794,526.2037 L356.2138,526.2037 L356.2138,529.4537 L361.4794,529.4537 L361.4794,531.61 Z " fill="#000000"/><text fill="#000000" font-family="sans-serif" font-size="14" lengthAdjust="spacing" textLength="83.542" x="371.37" y="530.4567">DAILY_WISE</text><line style="stroke:#00008B;stroke-width:0.5;" x1="343.37" x2="456.912" y1="541.61" y2="541.61"/><ellipse cx="353.37" cy="555.2584" fill="#000000" rx="3" ry="3" style="stroke:#000000;stroke-width:1;"/><text fill="#000000" font-family="sans-serif" font-size="14" lengthAdjust="spacing" textLength="12.7764" x="362.37" y="558.6051">id</text><text fill="#000000" font-family="sans-serif" font-size="14" lengthAdjust="spacing" textLength="31.5684" x="362.37" y="574.902">date</text><text fill="#000000" font-family="sans-serif" font-size="14" lengthAdjust="spacing" textLength="60.5664" x="362.37" y="591.1989">province</text><text fill="#000000" font-family="sans-serif" font-size="14" lengthAdjust="spacing" textLength="53.71" x="362.37" y="607.4957">latitude</text><text fill="#000000" font-family="sans-serif" font-size="14" lengthAdjust="spacing" textLength="65.9668" x="362.37" y="623.7926">longitude</text><line style="stroke:#00008B;stroke-width:0.5;" x1="343.37" x2="456.912" y1="631.0944" y2="631.0944"/></g><!--class epidemic--><g class="entity" data-entity="epidemic" data-source-line="40" data-uid="ent0006" id="entity_epidemic"><rect fill="#ADD8E6" height="210.9688" rx="2.5" ry="2.5" style="stroke:#00008B;stroke-width:0.5;" width="162.1377" x="145.08" y="468.86"/><ellipse cx="188.4801" cy="484.86" fill="#ADD1B2" rx="11" ry="11" style="stroke:#181818;stroke-width:1;"/><path d="M192.5895,490.86 L184.8707,490.86 L184.8707,478.4694 L192.5895,478.4694 L192.5895,480.6256 L187.3238,480.6256 L187.3238,483.2975 L192.0895,483.2975 L192.0895,485.4537 L187.3238,485.4537 L187.3238,488.7037 L192.5895,488.7037 L192.5895,490.86 Z " fill="#000000"/><text fill="#000000" font-family="sans-serif" font-size="14" lengthAdjust="spacing" textLength="67.0264" x="208.7912" y="489.7067">EPIDEMIC</text><line style="stroke:#00008B;stroke-width:0.5;" x1="146.08" x2="306.2177" y1="500.86" y2="500.86"/><ellipse cx="156.08" cy="514.5084" fill="#000000" rx="3" ry="3" style="stroke:#000000;stroke-width:1;"/><text fill="#000000" font-family="sans-serif" font-size="14" lengthAdjust="spacing" textLength="12.7764" x="165.08" y="517.8551">id</text><text fill="#000000" font-family="sans-serif" font-size="14" lengthAdjust="spacing" textLength="39.7031" x="165.08" y="534.152">name</text><text fill="#000000" font-family="sans-serif" font-size="14" lengthAdjust="spacing" textLength="71.1758" x="165.08" y="550.4489">start_date</text><text fill="#000000" font-family="sans-serif" font-size="14" lengthAdjust="spacing" textLength="64.9414" x="165.08" y="566.7457">end_date</text><text fill="#000000" font-family="sans-serif" font-size="14" lengthAdjust="spacing" textLength="31.2744" x="165.08" y="583.0426">type</text><text fill="#000000" font-family="sans-serif" font-size="14" lengthAdjust="spacing" textLength="113.4697" x="165.08" y="599.3395">pathogen_name</text><text fill="#000000" font-family="sans-serif" font-size="14" lengthAdjust="spacing" textLength="77.8408" x="165.08" y="615.6364">description</text><text fill="#000000" font-family="sans-serif" font-size="14" lengthAdjust="spacing" textLength="136.1377" x="165.08" y="631.9332">transmission_mode</text><text fill="#000000" font-family="sans-serif" font-size="14" lengthAdjust="spacing" textLength="73.0898" x="165.08" y="648.2301">symptoms</text><text fill="#000000" font-family="sans-serif" font-size="14" lengthAdjust="spacing" textLength="125.2891" x="165.08" y="664.527">reproduction_rate</text><line style="stroke:#00008B;stroke-width:0.5;" x1="146.08" x2="306.2177" y1="671.8287" y2="671.8287"/></g><!--class vaccine--><g class="entity" data-entity="vaccine" data-source-line="53" data-uid="ent0007" id="entity_vaccine"><rect fill="#ADD8E6" height="162.0781" rx="2.5" ry="2.5" style="stroke:#00008B;stroke-width:0.5;" width="174.4902" x="297.9" y="756.83"/><ellipse cx="349.8189" cy="772.83" fill="#ADD1B2" rx="11" ry="11" style="stroke:#181818;stroke-width:1;"/><path d="M353.9283,778.83 L346.2096,778.83 L346.2096,766.4394 L353.9283,766.4394 L353.9283,768.5956 L348.6627,768.5956 L348.6627,771.2675 L353.4283,771.2675 L353.4283,773.4237 L348.6627,773.4237 L348.6627,776.6737 L353.9283,776.6737 L353.9283,778.83 Z " fill="#000000"/><text fill="#000000" font-family="sans-serif" font-size="14" lengthAdjust="spacing" textLength="62.1523" x="370.3189" y="777.6767">VACCINE</text><line style="stroke:#00008B;stroke-width:0.5;" x1="298.9" x2="471.3902" y1="788.83" y2="788.83"/><ellipse cx="308.9" cy="802.4784" fill="#000000" rx="3" ry="3" style="stroke:#000000;stroke-width:1;"/><text fill="#000000" font-family="sans-serif" font-size="14" lengthAdjust="spacing" textLength="12.7764" x="317.9" y="805.8251">id</text><text fill="#000000" font-family="sans-serif" font-size="14" lengthAdjust="spacing" textLength="39.7031" x="317.9" y="822.122">name</text><text fill="#000000" font-family="sans-serif" font-size="14" lengthAdjust="spacing" textLength="72.3516" x="317.9" y="838.4189">laboratory</text><text fill="#000000" font-family="sans-serif" font-size="14" lengthAdjust="spacing" textLength="77.7383" x="317.9" y="854.7157">technology</text><text fill="#000000" font-family="sans-serif" font-size="14" lengthAdjust="spacing" textLength="33.3594" x="317.9" y="871.0126">dose</text><text fill="#000000" font-family="sans-serif" font-size="14" lengthAdjust="spacing" textLength="54.6191" x="317.9" y="887.3095">efficacy</text><text fill="#000000" font-family="sans-serif" font-size="14" lengthAdjust="spacing" textLength="148.4902" x="317.9" y="903.6064">storage_temperature</text><line style="stroke:#00008B;stroke-width:0.5;" x1="298.9" x2="471.3902" y1="910.9081" y2="910.9081"/></g><!--class user--><g class="entity" data-entity="user" data-source-line="63" data-uid="ent0008" id="entity_user"><rect fill="#ADD8E6" height="178.375" rx="2.5" ry="2.5" style="stroke:#00008B;stroke-width:0.5;" width="96.2393" x="156.03" y="7"/><ellipse cx="182.9695" cy="23" fill="#ADD1B2" rx="11" ry="11" style="stroke:#181818;stroke-width:1;"/><path d="M187.0789,29 L179.3601,29 L179.3601,16.6094 L187.0789,16.6094 L187.0789,18.7656 L181.8133,18.7656 L181.8133,21.4375 L186.5789,21.4375 L186.5789,23.5938 L181.8133,23.5938 L181.8133,26.8438 L187.0789,26.8438 L187.0789,29 Z " fill="#000000"/><text fill="#000000" font-family="sans-serif" font-size="14" lengthAdjust="spacing" textLength="37.707" x="199.6227" y="27.8467">USER</text><line style="stroke:#00008B;stroke-width:0.5;" x1="157.03" x2="251.2693" y1="39" y2="39"/><ellipse cx="167.03" cy="52.6484" fill="#000000" rx="3" ry="3" style="stroke:#000000;stroke-width:1;"/><text fill="#000000" font-family="sans-serif" font-size="14" lengthAdjust="spacing" textLength="12.7764" x="176.03" y="55.9951">id</text><text fill="#000000" font-family="sans-serif" font-size="14" lengthAdjust="spacing" textLength="67.0605" x="176.03" y="72.292">firstname</text><text fill="#000000" font-family="sans-serif" font-size="14" lengthAdjust="spacing" textLength="64.9551" x="176.03" y="88.5889">lastname</text><text fill="#000000" font-family="sans-serif" font-size="14" lengthAdjust="spacing" textLength="70.2393" x="176.03" y="104.8857">username</text><text fill="#000000" font-family="sans-serif" font-size="14" lengthAdjust="spacing" textLength="38.6094" x="176.03" y="121.1826">email</text><text fill="#000000" font-family="sans-serif" font-size="14" lengthAdjust="spacing" textLength="66.7119" x="176.03" y="137.4795">password</text><text fill="#000000" font-family="sans-serif" font-size="14" lengthAdjust="spacing" textLength="49.6289" x="176.03" y="153.7764">gender</text><text fill="#000000" font-family="sans-serif" font-size="14" lengthAdjust="spacing" textLength="64.4629" x="176.03" y="170.0732">birthdate</text><line style="stroke:#00008B;stroke-width:0.5;" x1="157.03" x2="251.2693" y1="177.375" y2="177.375"/></g><!--class role--><g class="entity" data-entity="role" data-source-line="74" data-uid="ent0009" id="entity_role"><rect fill="#ADD8E6" height="96.8906" rx="2.5" ry="2.5" style="stroke:#00008B;stroke-width:0.5;" width="103.8408" x="152.23" y="278.68"/><ellipse cx="182.7317" cy="294.68" fill="#ADD1B2" rx="11" ry="11" style="stroke:#181818;stroke-width:1;"/><path d="M186.8411,300.68 L179.1223,300.68 L179.1223,288.2894 L186.8411,288.2894 L186.8411,290.4456 L181.5755,290.4456 L181.5755,293.1175 L186.3411,293.1175 L186.3411,295.2737 L181.5755,295.2737 L181.5755,298.5237 L186.8411,298.5237 L186.8411,300.68 Z " fill="#000000"/><text fill="#000000" font-family="sans-serif" font-size="14" lengthAdjust="spacing" textLength="37.3926" x="200.1765" y="299.5267">ROLE</text><line style="stroke:#00008B;stroke-width:0.5;" x1="153.23" x2="255.0708" y1="310.68" y2="310.68"/><ellipse cx="163.23" cy="324.3284" fill="#000000" rx="3" ry="3" style="stroke:#000000;stroke-width:1;"/><text fill="#000000" font-family="sans-serif" font-size="14" lengthAdjust="spacing" textLength="12.7764" x="172.23" y="327.6751">id</text><text fill="#000000" font-family="sans-serif" font-size="14" lengthAdjust="spacing" textLength="39.7031" x="172.23" y="343.972">name</text><text fill="#000000" font-family="sans-serif" font-size="14" lengthAdjust="spacing" textLength="77.8408" x="172.23" y="360.2689">description</text><line style="stroke:#00008B;stroke-width:0.5;" x1="153.23" x2="255.0708" y1="367.5706" y2="367.5706"/></g><!--link country to statistic--><g class="link" data-entity-1="country" data-entity-2="statistic" data-source-line="82" data-uid="lnk10" id="link_country_statistic"><path codeLine="82" d="M52.77,392.15 C42.25,463.27 31.13,581.08 52.15,679.83 C58.95,711.8 72.74,745.15 86.29,772.86" fill="none" id="country-statistic" style="stroke:#0000FF;stroke-width:1;"/><polygon fill="#000000" points="57.5885,579.3971,59.7228,570.1291,53.8676,570.6447,57.5885,579.3971" style="stroke:#000000;stroke-width:1;"/><text fill="#000000" font-family="sans-serif" font-size="13" lengthAdjust="spacing" textLength="60.0679" x="66.15" y="578.9169">concerne</text><text fill="#000000" font-family="sans-serif" font-size="13" lengthAdjust="spacing" textLength="20.6743" x="30.4685" y="412.1569">1,1</text><text fill="#000000" font-family="sans-serif" font-size="13" lengthAdjust="spacing" textLength="20.6426" x="61.31" y="762.0031">0,n</text></g><!--link country to daily_wise--><g class="link" data-entity-1="country" data-entity-2="daily_wise" data-source-line="83" data-uid="lnk11" id="link_country_daily_wise"><path codeLine="83" d="M114.83,377.32 C121.41,382.57 128.26,387.56 135.15,391.86 C212.43,440.13 253.54,412.52 325.15,468.86 C339.36,480.05 352.09,494.61 362.85,509.3" fill="none" id="country-daily_wise" style="stroke:#0000FF;stroke-width:1;"/><polygon fill="#000000" points="279.564,432.7752,272.9596,425.9317,270.1984,431.1206,279.564,432.7752" style="stroke:#000000;stroke-width:1;"/><text fill="#000000" font-family="sans-serif" font-size="13" lengthAdjust="spacing" textLength="48.6738" x="284.15" y="434.9269">localise</text><text fill="#000000" font-family="sans-serif" font-size="13" lengthAdjust="spacing" textLength="20.6743" x="122.2666" y="379.5988">1,1</text><text fill="#000000" font-family="sans-serif" font-size="13" lengthAdjust="spacing" textLength="20.6426" x="337.7127" y="498.4388">0,n</text></g><!--link continent to country--><g class="link" data-entity-1="continent" data-entity-2="country" data-source-line="84" data-uid="lnk12" id="link_continent_country"><path codeLine="84" d="M64.15,153.19 C64.15,186.15 64.15,227.96 64.15,262.2" fill="none" id="continent-country" style="stroke:#0000FF;stroke-width:1;"/><polygon fill="#000000" points="69.15,228.9464,72.0889,219.9013,66.2111,219.9013,69.15,228.9464" style="stroke:#000000;stroke-width:1;"/><text fill="#000000" font-family="sans-serif" font-size="13" lengthAdjust="spacing" textLength="53.3838" x="78.15" y="228.4469">contient</text><text fill="#000000" font-family="sans-serif" font-size="13" lengthAdjust="spacing" textLength="20.6743" x="43.0333" y="172.722">1,1</text><text fill="#000000" font-family="sans-serif" font-size="13" lengthAdjust="spacing" textLength="20.6426" x="43.0915" y="251.353">0,n</text></g><!--link epidemic to statistic--><g class="link" data-entity-1="epidemic" data-entity-2="statistic" data-source-line="85" data-uid="lnk13" id="link_epidemic_statistic"><path codeLine="85" d="M144.66,661.03 C134.21,676.29 125.1,692.79 119.15,709.83 C112.23,729.62 110.87,752.21 111.88,772.81" fill="none" id="epidemic-statistic" style="stroke:#0000FF;stroke-width:1;"/><polygon fill="#000000" points="122.743,723.1944,128.1085,715.3418,122.4681,713.6878,122.743,723.1944" style="stroke:#000000;stroke-width:1;"/><text fill="#000000" font-family="sans-serif" font-size="13" lengthAdjust="spacing" textLength="49.0166" x="133.15" y="722.8969">mesure</text><text fill="#000000" font-family="sans-serif" font-size="13" lengthAdjust="spacing" textLength="20.6743" x="116.5418" y="665.1553">1,1</text><text fill="#000000" font-family="sans-serif" font-size="13" lengthAdjust="spacing" textLength="20.6426" x="89.6989" y="761.9477">0,n</text></g><!--link daily_wise to statistic--><g class="link" data-entity-1="daily_wise" data-entity-2="statistic" data-source-line="86" data-uid="lnk14" id="link_daily_wise_statistic"><path codeLine="86" d="M379.21,639.36 C367.21,668.66 349.77,702.24 326.15,726.83 C314.98,738.46 237.85,778.65 181.73,807.08" fill="none" id="daily_wise-statistic" style="stroke:#0000FF;stroke-width:1;"/><polygon fill="#000000" points="338.339,721.6331,347.1357,718.0179,343.3307,713.5378,338.339,721.6331" style="stroke:#000000;stroke-width:1;"/><text fill="#000000" font-family="sans-serif" font-size="13" lengthAdjust="spacing" textLength="48.147" x="351.15" y="722.8969">d&#233;taille</text><text fill="#000000" font-family="sans-serif" font-size="13" lengthAdjust="spacing" textLength="20.6743" x="355.8638" y="659.3647">1,1</text><text fill="#000000" font-family="sans-serif" font-size="13" lengthAdjust="spacing" textLength="20.6426" x="189.3763" y="799.9659">0,n</text></g><!--link epidemic to vaccine--><g class="link" data-entity-1="epidemic" data-entity-2="vaccine" data-source-line="87" data-uid="lnk15" id="link_epidemic_vaccine"><path codeLine="87" d="M210.47,680.05 C211.81,696.37 215.57,712.54 223.15,726.83 C239.38,757.48 268.39,781.17 297.43,798.59" fill="none" id="epidemic-vaccine" style="stroke:#0000FF;stroke-width:1;"/><polygon fill="#000000" points="231.1075,722.4279,228.127,713.3965,223.3877,716.8732,231.1075,722.4279" style="stroke:#000000;stroke-width:1;"/><text fill="#000000" font-family="sans-serif" font-size="13" lengthAdjust="spacing" textLength="84.811" x="237.15" y="722.8969">est trait&#233; par</text><text fill="#000000" font-family="sans-serif" font-size="13" lengthAdjust="spacing" textLength="20.6743" x="188.7674" y="699.7274">1,1</text><text fill="#000000" font-family="sans-serif" font-size="13" lengthAdjust="spacing" textLength="20.6426" x="269.3646" y="791.7885">0,n</text></g><!--link daily_wise to vaccine--><g class="link" data-entity-1="daily_wise" data-entity-2="vaccine" data-source-line="88" data-uid="lnk16" id="link_daily_wise_vaccine"><path codeLine="88" d="M423.31,639.48 C430.22,666.45 434.66,698.17 429.15,726.83 C427.26,736.63 424.51,746.67 421.29,756.5" fill="none" id="daily_wise-vaccine" style="stroke:#0000FF;stroke-width:1;"/><text fill="#000000" font-family="sans-serif" font-size="13" lengthAdjust="spacing" textLength="69.5576" x="432.15" y="722.8969">administre</text><text fill="#000000" font-family="sans-serif" font-size="13" lengthAdjust="spacing" textLength="20.6426" x="404.7012" y="659.0435">0,n</text><text fill="#000000" font-family="sans-serif" font-size="13" lengthAdjust="spacing" textLength="20.6426" x="403.6471" y="745.6579">0,n</text></g><!--link user to role--><g class="link" data-entity-1="user" data-entity-2="role" data-source-line="89" data-uid="lnk17" id="link_user_role"><path codeLine="89" d="M204.15,185.7 C204.15,217.28 204.15,251.65 204.15,278.47" fill="none" id="user-role" style="stroke:#0000FF;stroke-width:1;"/><text fill="#000000" font-family="sans-serif" font-size="13" lengthAdjust="spacing" textLength="53.9995" x="205.15" y="228.4469">poss&#232;de</text><text fill="#000000" font-family="sans-serif" font-size="13" lengthAdjust="spacing" textLength="20.6426" x="183.3788" y="205.5029">0,n</text><text fill="#000000" font-family="sans-serif" font-size="13" lengthAdjust="spacing" textLength="20.6426" x="182.7889" y="267.6494">0,n</text></g><!--SRC=[VLFDRk8m4BxdAImkRLUjjEpUE5IYm06ffQj2j-efClO05euTpJYjejM-p_OvUB4TEw4AjEMIZCVVVFFt-KoCTsyhuqmmtWbT2GgrXOosnfKIPI6KbKJYJoR4ZLJRDVhAwP6t7iMjMM_2ZQs0xuQ8_hLnjvuRZngmSOqbRfFxRvQT7IO44k222Ritof9HYzvyCLnCvulfg2SaSK4o60f6fIA-6SrVAvTW-VyYcsHbjRI6Dg1p6GwEophct1EFxXzdYuVdHAkuaO1rXzJ98d8PyZ-Qtyz8vSlAobZh8T5iCPrDPekMYjsExpwIAQ_XIvRnS7hxd3zDvvD4ewMnTVvg23eyMeP4WFx5E0MfTuwk4gtrRjtO7TR9h-buSjSE3qgZeJYONLiPZnL3tjA3qtipr6LAACF6hy7bBPmNfT2KgGK6eNHK628-vaNJ8zL56Nn1R29mlRfI4PrZvEtKztiu6l7iKdalKYcUtCVgUC6U0ptMCHkeZMCXhUD1UqeLhrP6ILMdJXYwXZn0KG87LNYGxt4-UKZ9AWBiP5ePfF2UxjsCgDQ4WZUIPa7qod9caoV2gcPZQJ1iz55h3_UtJL_exITDTMVuwKj0Q4H2V3UIg8sJDZqDNf1mFgHBSGSODNBUltGNb-ByU_FhN_QRK_yYsskxnywUkBeIFGRrEYzf43Mhk54Grr-XEt8SiD8Kbq8DVA_seu0zpw1v415ndRqBy4Gj1H3lZC6Tb2VWUlSM66ZX1FrUM0C15A9SunXvaNYK9O4_YPAwuCLGO2absHm1qtu7_Ao9Tlyq_0S0]--></g></svg>