<svg xmlns="http://www.w3.org/2000/svg" xmlns:xlink="http://www.w3.org/1999/xlink" contentStyleType="text/css" data-diagram-type="CLASS" height="1382px" preserveAspectRatio="none" style="width:1208px;height:1382px;background:#FFFFFF;" version="1.1" viewBox="0 0 1208 1382" width="1208px" zoomAndPan="magnify"><defs/><g><!--class statistic--><g class="entity" data-entity="statistic" data-source-line="9" data-uid="ent0002" id="entity_statistic"><rect fill="#ADD8E6" height="292.4531" rx="2.5" ry="2.5" style="stroke:#00008B;stroke-width:0.5;" width="229.0205" x="142.1" y="7"/><ellipse cx="224.8046" cy="23" fill="#ADD1B2" rx="11" ry="11" style="stroke:#181818;stroke-width:1;"/><path d="M228.914,29 L221.1952,29 L221.1952,16.6094 L228.914,16.6094 L228.914,18.7656 L223.6483,18.7656 L223.6483,21.4375 L228.414,21.4375 L228.414,23.5938 L223.6483,23.5938 L223.6483,26.8438 L228.914,26.8438 L228.914,29 Z " fill="#000000"/><text fill="#000000" font-family="sans-serif" font-size="14" lengthAdjust="spacing" textLength="55.1113" x="245.3046" y="27.8467">statistic</text><line style="stroke:#00008B;stroke-width:0.5;" x1="143.1" x2="370.1205" y1="39" y2="39"/><ellipse cx="153.1" cy="52.6484" fill="#000000" rx="3" ry="3" style="stroke:#000000;stroke-width:1;"/><text fill="#000000" font-family="sans-serif" font-size="14" lengthAdjust="spacing" textLength="120.2373" x="162.1" y="55.9951">id : number &#171;PK&#187;</text><text fill="#000000" font-family="sans-serif" font-size="14" lengthAdjust="spacing" textLength="87.6641" x="162.1" y="72.292">label : string</text><text fill="#000000" font-family="sans-serif" font-size="14" lengthAdjust="spacing" textLength="106.4971" x="162.1" y="88.5889">value : number</text><text fill="#000000" font-family="sans-serif" font-size="14" lengthAdjust="spacing" textLength="165.9766" x="162.1" y="104.8857">published_at : datetime</text><text fill="#000000" font-family="sans-serif" font-size="14" lengthAdjust="spacing" textLength="146.0703" x="162.1" y="121.1826">published_by : string</text><text fill="#000000" font-family="sans-serif" font-size="14" lengthAdjust="spacing" textLength="180.3867" x="162.1" y="137.4795">country_id : number &#171;FK&#187;</text><text fill="#000000" font-family="sans-serif" font-size="14" lengthAdjust="spacing" textLength="190.9619" x="162.1" y="153.7764">epidemic_id : number &#171;FK&#187;</text><text fill="#000000" font-family="sans-serif" font-size="14" lengthAdjust="spacing" textLength="203.0205" x="162.1" y="170.0732">dayly_wise_id : number &#171;FK&#187;</text><text fill="#000000" font-family="sans-serif" font-size="14" lengthAdjust="spacing" textLength="151.5186" x="162.1" y="186.3701">created_at : datetime</text><text fill="#000000" font-family="sans-serif" font-size="14" lengthAdjust="spacing" textLength="131.6123" x="162.1" y="202.667">created_by : string</text><text fill="#000000" font-family="sans-serif" font-size="14" lengthAdjust="spacing" textLength="156.0986" x="162.1" y="218.9639">updated_at : datetime</text><text fill="#000000" font-family="sans-serif" font-size="14" lengthAdjust="spacing" textLength="136.1924" x="162.1" y="235.2607">updated_by : string</text><text fill="#000000" font-family="sans-serif" font-size="14" lengthAdjust="spacing" textLength="150.876" x="162.1" y="251.5576">deleted_at : datetime</text><text fill="#000000" font-family="sans-serif" font-size="14" lengthAdjust="spacing" textLength="130.9697" x="162.1" y="267.8545">deleted_by : string</text><text fill="#000000" font-family="sans-serif" font-size="14" lengthAdjust="spacing" textLength="140.7656" x="162.1" y="284.1514">is_deleted : boolean</text><line style="stroke:#00008B;stroke-width:0.5;" x1="143.1" x2="370.1205" y1="291.4531" y2="291.4531"/></g><!--class country--><g class="entity" data-entity="country" data-source-line="27" data-uid="ent0003" id="entity_country"><rect fill="#ADD8E6" height="259.8594" rx="2.5" ry="2.5" style="stroke:#00008B;stroke-width:0.5;" width="219.2109" x="7" y="778.5"/><ellipse cx="85.5859" cy="794.5" fill="#ADD1B2" rx="11" ry="11" style="stroke:#181818;stroke-width:1;"/><path d="M89.6953,800.5 L81.9766,800.5 L81.9766,788.1094 L89.6953,788.1094 L89.6953,790.2656 L84.4297,790.2656 L84.4297,792.9375 L89.1953,792.9375 L89.1953,795.0938 L84.4297,795.0938 L84.4297,798.3438 L89.6953,798.3438 L89.6953,800.5 Z " fill="#000000"/><text fill="#000000" font-family="sans-serif" font-size="14" lengthAdjust="spacing" textLength="53.5391" x="106.0859" y="799.3467">country</text><line style="stroke:#00008B;stroke-width:0.5;" x1="8" x2="225.2109" y1="810.5" y2="810.5"/><ellipse cx="18" cy="824.1484" fill="#000000" rx="3" ry="3" style="stroke:#000000;stroke-width:1;"/><text fill="#000000" font-family="sans-serif" font-size="14" lengthAdjust="spacing" textLength="120.2373" x="27" y="827.4951">id : number &#171;PK&#187;</text><text fill="#000000" font-family="sans-serif" font-size="14" lengthAdjust="spacing" textLength="93.5088" x="27" y="843.792">name : string</text><text fill="#000000" font-family="sans-serif" font-size="14" lengthAdjust="spacing" textLength="82.4619" x="27" y="860.0889">iso2 : string</text><text fill="#000000" font-family="sans-serif" font-size="14" lengthAdjust="spacing" textLength="82.4619" x="27" y="876.3857">iso3 : string</text><text fill="#000000" font-family="sans-serif" font-size="14" lengthAdjust="spacing" textLength="142.7549" x="27" y="892.6826">population : number</text><text fill="#000000" font-family="sans-serif" font-size="14" lengthAdjust="spacing" textLength="193.2109" x="27" y="908.9795">continent_id : number &#171;FK&#187;</text><text fill="#000000" font-family="sans-serif" font-size="14" lengthAdjust="spacing" textLength="151.5186" x="27" y="925.2764">created_at : datetime</text><text fill="#000000" font-family="sans-serif" font-size="14" lengthAdjust="spacing" textLength="131.6123" x="27" y="941.5732">created_by : string</text><text fill="#000000" font-family="sans-serif" font-size="14" lengthAdjust="spacing" textLength="156.0986" x="27" y="957.8701">updated_at : datetime</text><text fill="#000000" font-family="sans-serif" font-size="14" lengthAdjust="spacing" textLength="136.1924" x="27" y="974.167">updated_by : string</text><text fill="#000000" font-family="sans-serif" font-size="14" lengthAdjust="spacing" textLength="150.876" x="27" y="990.4639">deleted_at : datetime</text><text fill="#000000" font-family="sans-serif" font-size="14" lengthAdjust="spacing" textLength="130.9697" x="27" y="1006.7607">deleted_by : string</text><text fill="#000000" font-family="sans-serif" font-size="14" lengthAdjust="spacing" textLength="140.7656" x="27" y="1023.0576">is_deleted : boolean</text><line style="stroke:#00008B;stroke-width:0.5;" x1="8" x2="225.2109" y1="1030.3594" y2="1030.3594"/></g><!--class continent--><g class="entity" data-entity="continent" data-source-line="43" data-uid="ent0004" id="entity_continent"><rect fill="#ADD8E6" height="227.2656" rx="2.5" ry="2.5" style="stroke:#00008B;stroke-width:0.5;" width="182.0986" x="25.56" y="1147.95"/><ellipse cx="79.1777" cy="1163.95" fill="#ADD1B2" rx="11" ry="11" style="stroke:#181818;stroke-width:1;"/><path d="M83.2871,1169.95 L75.5683,1169.95 L75.5683,1157.5594 L83.2871,1157.5594 L83.2871,1159.7156 L78.0214,1159.7156 L78.0214,1162.3875 L82.7871,1162.3875 L82.7871,1164.5438 L78.0214,1164.5438 L78.0214,1167.7938 L83.2871,1167.7938 L83.2871,1169.95 Z " fill="#000000"/><text fill="#000000" font-family="sans-serif" font-size="14" lengthAdjust="spacing" textLength="66.3633" x="99.6777" y="1168.7967">continent</text><line style="stroke:#00008B;stroke-width:0.5;" x1="26.56" x2="206.6586" y1="1179.95" y2="1179.95"/><ellipse cx="36.56" cy="1193.5984" fill="#000000" rx="3" ry="3" style="stroke:#000000;stroke-width:1;"/><text fill="#000000" font-family="sans-serif" font-size="14" lengthAdjust="spacing" textLength="120.2373" x="45.56" y="1196.9451">id : number &#171;PK&#187;</text><text fill="#000000" font-family="sans-serif" font-size="14" lengthAdjust="spacing" textLength="93.5088" x="45.56" y="1213.242">name : string</text><text fill="#000000" font-family="sans-serif" font-size="14" lengthAdjust="spacing" textLength="87.5684" x="45.56" y="1229.5389">code : string</text><text fill="#000000" font-family="sans-serif" font-size="14" lengthAdjust="spacing" textLength="142.7549" x="45.56" y="1245.8357">population : number</text><text fill="#000000" font-family="sans-serif" font-size="14" lengthAdjust="spacing" textLength="151.5186" x="45.56" y="1262.1326">created_at : datetime</text><text fill="#000000" font-family="sans-serif" font-size="14" lengthAdjust="spacing" textLength="131.6123" x="45.56" y="1278.4295">created_by : string</text><text fill="#000000" font-family="sans-serif" font-size="14" lengthAdjust="spacing" textLength="156.0986" x="45.56" y="1294.7264">updated_at : datetime</text><text fill="#000000" font-family="sans-serif" font-size="14" lengthAdjust="spacing" textLength="136.1924" x="45.56" y="1311.0232">updated_by : string</text><text fill="#000000" font-family="sans-serif" font-size="14" lengthAdjust="spacing" textLength="150.876" x="45.56" y="1327.3201">deleted_at : datetime</text><text fill="#000000" font-family="sans-serif" font-size="14" lengthAdjust="spacing" textLength="130.9697" x="45.56" y="1343.617">deleted_by : string</text><text fill="#000000" font-family="sans-serif" font-size="14" lengthAdjust="spacing" textLength="140.7656" x="45.56" y="1359.9139">is_deleted : boolean</text><line style="stroke:#00008B;stroke-width:0.5;" x1="26.56" x2="206.6586" y1="1367.2156" y2="1367.2156"/></g><!--class daily_wise--><g class="entity" data-entity="daily_wise" data-source-line="57" data-uid="ent0005" id="entity_daily_wise"><rect fill="#ADD8E6" height="259.8594" rx="2.5" ry="2.5" style="stroke:#00008B;stroke-width:0.5;" width="206.3867" x="153.41" y="392.75"/><ellipse cx="216.4647" cy="408.75" fill="#ADD1B2" rx="11" ry="11" style="stroke:#181818;stroke-width:1;"/><path d="M220.5741,414.75 L212.8553,414.75 L212.8553,402.3594 L220.5741,402.3594 L220.5741,404.5156 L215.3084,404.5156 L215.3084,407.1875 L220.0741,407.1875 L220.0741,409.3438 L215.3084,409.3438 L215.3084,412.5938 L220.5741,412.5938 L220.5741,414.75 Z " fill="#000000"/><text fill="#000000" font-family="sans-serif" font-size="14" lengthAdjust="spacing" textLength="71.7773" x="236.9647" y="413.5967">daily_wise</text><line style="stroke:#00008B;stroke-width:0.5;" x1="154.41" x2="358.7967" y1="424.75" y2="424.75"/><ellipse cx="164.41" cy="438.3984" fill="#000000" rx="3" ry="3" style="stroke:#000000;stroke-width:1;"/><text fill="#000000" font-family="sans-serif" font-size="14" lengthAdjust="spacing" textLength="120.2373" x="173.41" y="441.7451">id : number &#171;PK&#187;</text><text fill="#000000" font-family="sans-serif" font-size="14" lengthAdjust="spacing" textLength="76.7539" x="173.41" y="458.042">date : date</text><text fill="#000000" font-family="sans-serif" font-size="14" lengthAdjust="spacing" textLength="114.3721" x="173.41" y="474.3389">province : string</text><text fill="#000000" font-family="sans-serif" font-size="14" lengthAdjust="spacing" textLength="121.9668" x="173.41" y="490.6357">latitude : number</text><text fill="#000000" font-family="sans-serif" font-size="14" lengthAdjust="spacing" textLength="134.2236" x="173.41" y="506.9326">longitude : number</text><text fill="#000000" font-family="sans-serif" font-size="14" lengthAdjust="spacing" textLength="180.3867" x="173.41" y="523.2295">country_id : number &#171;FK&#187;</text><text fill="#000000" font-family="sans-serif" font-size="14" lengthAdjust="spacing" textLength="151.5186" x="173.41" y="539.5264">created_at : datetime</text><text fill="#000000" font-family="sans-serif" font-size="14" lengthAdjust="spacing" textLength="131.6123" x="173.41" y="555.8232">created_by : string</text><text fill="#000000" font-family="sans-serif" font-size="14" lengthAdjust="spacing" textLength="156.0986" x="173.41" y="572.1201">updated_at : datetime</text><text fill="#000000" font-family="sans-serif" font-size="14" lengthAdjust="spacing" textLength="136.1924" x="173.41" y="588.417">updated_by : string</text><text fill="#000000" font-family="sans-serif" font-size="14" lengthAdjust="spacing" textLength="150.876" x="173.41" y="604.7139">deleted_at : datetime</text><text fill="#000000" font-family="sans-serif" font-size="14" lengthAdjust="spacing" textLength="130.9697" x="173.41" y="621.0107">deleted_by : string</text><text fill="#000000" font-family="sans-serif" font-size="14" lengthAdjust="spacing" textLength="140.7656" x="173.41" y="637.3076">is_deleted : boolean</text><line style="stroke:#00008B;stroke-width:0.5;" x1="154.41" x2="358.7967" y1="644.6094" y2="644.6094"/></g><!--class epidemic--><g class="entity" data-entity="epidemic" data-source-line="73" data-uid="ent0006" id="entity_epidemic"><rect fill="#ADD8E6" height="325.0469" rx="2.5" ry="2.5" style="stroke:#00008B;stroke-width:0.5;" width="219.5459" x="351.83" y="745.91"/><ellipse cx="425.2958" cy="761.91" fill="#ADD1B2" rx="11" ry="11" style="stroke:#181818;stroke-width:1;"/><path d="M429.4052,767.91 L421.6864,767.91 L421.6864,755.5194 L429.4052,755.5194 L429.4052,757.6756 L424.1396,757.6756 L424.1396,760.3475 L428.9052,760.3475 L428.9052,762.5038 L424.1396,762.5038 L424.1396,765.7538 L429.4052,765.7538 L429.4052,767.91 Z " fill="#000000"/><text fill="#000000" font-family="sans-serif" font-size="14" lengthAdjust="spacing" textLength="64.1143" x="445.7958" y="766.7567">epidemic</text><line style="stroke:#00008B;stroke-width:0.5;" x1="352.83" x2="570.3759" y1="777.91" y2="777.91"/><ellipse cx="362.83" cy="791.5584" fill="#000000" rx="3" ry="3" style="stroke:#000000;stroke-width:1;"/><text fill="#000000" font-family="sans-serif" font-size="14" lengthAdjust="spacing" textLength="120.2373" x="371.83" y="794.9051">id : number &#171;PK&#187;</text><text fill="#000000" font-family="sans-serif" font-size="14" lengthAdjust="spacing" textLength="93.5088" x="371.83" y="811.202">name : string</text><text fill="#000000" font-family="sans-serif" font-size="14" lengthAdjust="spacing" textLength="116.3613" x="371.83" y="827.4989">start_date : date</text><text fill="#000000" font-family="sans-serif" font-size="14" lengthAdjust="spacing" textLength="110.127" x="371.83" y="843.7957">end_date : date</text><text fill="#000000" font-family="sans-serif" font-size="14" lengthAdjust="spacing" textLength="85.0801" x="371.83" y="860.0926">type : string</text><text fill="#000000" font-family="sans-serif" font-size="14" lengthAdjust="spacing" textLength="167.2754" x="371.83" y="876.3895">pathogen_name : string</text><text fill="#000000" font-family="sans-serif" font-size="14" lengthAdjust="spacing" textLength="119.335" x="371.83" y="892.6864">description : text</text><text fill="#000000" font-family="sans-serif" font-size="14" lengthAdjust="spacing" textLength="189.9434" x="371.83" y="908.9832">transmission_mode : string</text><text fill="#000000" font-family="sans-serif" font-size="14" lengthAdjust="spacing" textLength="114.584" x="371.83" y="925.2801">symptoms : text</text><text fill="#000000" font-family="sans-serif" font-size="14" lengthAdjust="spacing" textLength="193.5459" x="371.83" y="941.577">reproduction_rate : number</text><text fill="#000000" font-family="sans-serif" font-size="14" lengthAdjust="spacing" textLength="151.5186" x="371.83" y="957.8739">created_at : datetime</text><text fill="#000000" font-family="sans-serif" font-size="14" lengthAdjust="spacing" textLength="131.6123" x="371.83" y="974.1707">created_by : string</text><text fill="#000000" font-family="sans-serif" font-size="14" lengthAdjust="spacing" textLength="156.0986" x="371.83" y="990.4676">updated_at : datetime</text><text fill="#000000" font-family="sans-serif" font-size="14" lengthAdjust="spacing" textLength="136.1924" x="371.83" y="1006.7645">updated_by : string</text><text fill="#000000" font-family="sans-serif" font-size="14" lengthAdjust="spacing" textLength="150.876" x="371.83" y="1023.0614">deleted_at : datetime</text><text fill="#000000" font-family="sans-serif" font-size="14" lengthAdjust="spacing" textLength="130.9697" x="371.83" y="1039.3582">deleted_by : string</text><text fill="#000000" font-family="sans-serif" font-size="14" lengthAdjust="spacing" textLength="140.7656" x="371.83" y="1055.6551">is_deleted : boolean</text><line style="stroke:#00008B;stroke-width:0.5;" x1="352.83" x2="570.3759" y1="1062.9569" y2="1062.9569"/></g><!--class vaccine--><g class="entity" data-entity="vaccine" data-source-line="93" data-uid="ent0007" id="entity_vaccine"><rect fill="#ADD8E6" height="292.4531" rx="2.5" ry="2.5" style="stroke:#00008B;stroke-width:0.5;" width="242.7471" x="525.23" y="376.45"/><ellipse cx="615.5362" cy="392.45" fill="#ADD1B2" rx="11" ry="11" style="stroke:#181818;stroke-width:1;"/><path d="M619.6455,398.45 L611.9268,398.45 L611.9268,386.0594 L619.6455,386.0594 L619.6455,388.2156 L614.3799,388.2156 L614.3799,390.8875 L619.1455,390.8875 L619.1455,393.0438 L614.3799,393.0438 L614.3799,396.2938 L619.6455,396.2938 L619.6455,398.45 Z " fill="#000000"/><text fill="#000000" font-family="sans-serif" font-size="14" lengthAdjust="spacing" textLength="53.6348" x="636.0362" y="397.2967">vaccine</text><line style="stroke:#00008B;stroke-width:0.5;" x1="526.23" x2="766.9771" y1="408.45" y2="408.45"/><ellipse cx="536.23" cy="422.0984" fill="#000000" rx="3" ry="3" style="stroke:#000000;stroke-width:1;"/><text fill="#000000" font-family="sans-serif" font-size="14" lengthAdjust="spacing" textLength="120.2373" x="545.23" y="425.4451">id : number &#171;PK&#187;</text><text fill="#000000" font-family="sans-serif" font-size="14" lengthAdjust="spacing" textLength="93.5088" x="545.23" y="441.742">name : string</text><text fill="#000000" font-family="sans-serif" font-size="14" lengthAdjust="spacing" textLength="126.1572" x="545.23" y="458.0389">laboratory : string</text><text fill="#000000" font-family="sans-serif" font-size="14" lengthAdjust="spacing" textLength="131.5439" x="545.23" y="474.3357">technology : string</text><text fill="#000000" font-family="sans-serif" font-size="14" lengthAdjust="spacing" textLength="101.6162" x="545.23" y="490.6326">dose : number</text><text fill="#000000" font-family="sans-serif" font-size="14" lengthAdjust="spacing" textLength="122.876" x="545.23" y="506.9295">efficacy : number</text><text fill="#000000" font-family="sans-serif" font-size="14" lengthAdjust="spacing" textLength="216.7471" x="545.23" y="523.2264">storage_temperature : number</text><text fill="#000000" font-family="sans-serif" font-size="14" lengthAdjust="spacing" textLength="190.9619" x="545.23" y="539.5232">epidemic_id : number &#171;FK&#187;</text><text fill="#000000" font-family="sans-serif" font-size="14" lengthAdjust="spacing" textLength="151.5186" x="545.23" y="555.8201">created_at : datetime</text><text fill="#000000" font-family="sans-serif" font-size="14" lengthAdjust="spacing" textLength="131.6123" x="545.23" y="572.117">created_by : string</text><text fill="#000000" font-family="sans-serif" font-size="14" lengthAdjust="spacing" textLength="156.0986" x="545.23" y="588.4139">updated_at : datetime</text><text fill="#000000" font-family="sans-serif" font-size="14" lengthAdjust="spacing" textLength="136.1924" x="545.23" y="604.7107">updated_by : string</text><text fill="#000000" font-family="sans-serif" font-size="14" lengthAdjust="spacing" textLength="150.876" x="545.23" y="621.0076">deleted_at : datetime</text><text fill="#000000" font-family="sans-serif" font-size="14" lengthAdjust="spacing" textLength="130.9697" x="545.23" y="637.3045">deleted_by : string</text><text fill="#000000" font-family="sans-serif" font-size="14" lengthAdjust="spacing" textLength="140.7656" x="545.23" y="653.6014">is_deleted : boolean</text><line style="stroke:#00008B;stroke-width:0.5;" x1="526.23" x2="766.9771" y1="660.9031" y2="660.9031"/></g><!--class daily_wise_vaccine--><g class="entity" data-entity="daily_wise_vaccine" data-source-line="111" data-uid="ent0008" id="entity_daily_wise_vaccine"><rect fill="#ADD8E6" height="210.9688" rx="2.5" ry="2.5" style="stroke:#00008B;stroke-width:0.5;" width="224.625" x="448.29" y="47.74"/><ellipse cx="490.3858" cy="63.74" fill="#ADD1B2" rx="11" ry="11" style="stroke:#181818;stroke-width:1;"/><path d="M494.4952,69.74 L486.7764,69.74 L486.7764,57.3494 L494.4952,57.3494 L494.4952,59.5056 L489.2296,59.5056 L489.2296,62.1775 L493.9952,62.1775 L493.9952,64.3338 L489.2296,64.3338 L489.2296,67.5838 L494.4952,67.5838 L494.4952,69.74 Z " fill="#000000"/><text fill="#000000" font-family="sans-serif" font-size="14" lengthAdjust="spacing" textLength="132.4121" x="510.4071" y="68.5867">daily_wise_vaccine</text><line style="stroke:#00008B;stroke-width:0.5;" x1="449.29" x2="671.915" y1="79.74" y2="79.74"/><ellipse cx="459.29" cy="93.3884" fill="#000000" rx="3" ry="3" style="stroke:#000000;stroke-width:1;"/><text fill="#000000" font-family="sans-serif" font-size="14" lengthAdjust="spacing" textLength="120.2373" x="468.29" y="96.7351">id : number &#171;PK&#187;</text><text fill="#000000" font-family="sans-serif" font-size="14" lengthAdjust="spacing" textLength="198.625" x="468.29" y="113.032">daily_wise_id : number &#171;FK&#187;</text><text fill="#000000" font-family="sans-serif" font-size="14" lengthAdjust="spacing" textLength="180.4824" x="468.29" y="129.3289">vaccine_id : number &#171;FK&#187;</text><text fill="#000000" font-family="sans-serif" font-size="14" lengthAdjust="spacing" textLength="151.5186" x="468.29" y="145.6257">created_at : datetime</text><text fill="#000000" font-family="sans-serif" font-size="14" lengthAdjust="spacing" textLength="131.6123" x="468.29" y="161.9226">created_by : string</text><text fill="#000000" font-family="sans-serif" font-size="14" lengthAdjust="spacing" textLength="156.0986" x="468.29" y="178.2195">updated_at : datetime</text><text fill="#000000" font-family="sans-serif" font-size="14" lengthAdjust="spacing" textLength="136.1924" x="468.29" y="194.5164">updated_by : string</text><text fill="#000000" font-family="sans-serif" font-size="14" lengthAdjust="spacing" textLength="150.876" x="468.29" y="210.8132">deleted_at : datetime</text><text fill="#000000" font-family="sans-serif" font-size="14" lengthAdjust="spacing" textLength="130.9697" x="468.29" y="227.1101">deleted_by : string</text><text fill="#000000" font-family="sans-serif" font-size="14" lengthAdjust="spacing" textLength="140.7656" x="468.29" y="243.407">is_deleted : boolean</text><line style="stroke:#00008B;stroke-width:0.5;" x1="449.29" x2="671.915" y1="250.7088" y2="250.7088"/></g><!--class user--><g class="entity" data-entity="user" data-source-line="124" data-uid="ent0009" id="entity_user"><rect fill="#ADD8E6" height="292.4531" rx="2.5" ry="2.5" style="stroke:#00008B;stroke-width:0.5;" width="182.0986" x="802.56" y="376.45"/><ellipse cx="874.0913" cy="392.45" fill="#ADD1B2" rx="11" ry="11" style="stroke:#181818;stroke-width:1;"/><path d="M878.2006,398.45 L870.4819,398.45 L870.4819,386.0594 L878.2006,386.0594 L878.2006,388.2156 L872.935,388.2156 L872.935,390.8875 L877.7006,390.8875 L877.7006,393.0438 L872.935,393.0438 L872.935,396.2938 L878.2006,396.2938 L878.2006,398.45 Z " fill="#000000"/><text fill="#000000" font-family="sans-serif" font-size="14" lengthAdjust="spacing" textLength="30.5361" x="894.5913" y="397.2967">user</text><line style="stroke:#00008B;stroke-width:0.5;" x1="803.56" x2="983.6586" y1="408.45" y2="408.45"/><ellipse cx="813.56" cy="422.0984" fill="#000000" rx="3" ry="3" style="stroke:#000000;stroke-width:1;"/><text fill="#000000" font-family="sans-serif" font-size="14" lengthAdjust="spacing" textLength="120.2373" x="822.56" y="425.4451">id : number &#171;PK&#187;</text><text fill="#000000" font-family="sans-serif" font-size="14" lengthAdjust="spacing" textLength="120.8662" x="822.56" y="441.742">firstname : string</text><text fill="#000000" font-family="sans-serif" font-size="14" lengthAdjust="spacing" textLength="118.7607" x="822.56" y="458.0389">lastname : string</text><text fill="#000000" font-family="sans-serif" font-size="14" lengthAdjust="spacing" textLength="124.0449" x="822.56" y="474.3357">username : string</text><text fill="#000000" font-family="sans-serif" font-size="14" lengthAdjust="spacing" textLength="92.415" x="822.56" y="490.6326">email : string</text><text fill="#000000" font-family="sans-serif" font-size="14" lengthAdjust="spacing" textLength="120.5176" x="822.56" y="506.9295">password : string</text><text fill="#000000" font-family="sans-serif" font-size="14" lengthAdjust="spacing" textLength="103.4346" x="822.56" y="523.2264">gender : string</text><text fill="#000000" font-family="sans-serif" font-size="14" lengthAdjust="spacing" textLength="109.6484" x="822.56" y="539.5232">birthdate : date</text><text fill="#000000" font-family="sans-serif" font-size="14" lengthAdjust="spacing" textLength="151.5186" x="822.56" y="555.8201">created_at : datetime</text><text fill="#000000" font-family="sans-serif" font-size="14" lengthAdjust="spacing" textLength="131.6123" x="822.56" y="572.117">created_by : string</text><text fill="#000000" font-family="sans-serif" font-size="14" lengthAdjust="spacing" textLength="156.0986" x="822.56" y="588.4139">updated_at : datetime</text><text fill="#000000" font-family="sans-serif" font-size="14" lengthAdjust="spacing" textLength="136.1924" x="822.56" y="604.7107">updated_by : string</text><text fill="#000000" font-family="sans-serif" font-size="14" lengthAdjust="spacing" textLength="150.876" x="822.56" y="621.0076">deleted_at : datetime</text><text fill="#000000" font-family="sans-serif" font-size="14" lengthAdjust="spacing" textLength="130.9697" x="822.56" y="637.3045">deleted_by : string</text><text fill="#000000" font-family="sans-serif" font-size="14" lengthAdjust="spacing" textLength="140.7656" x="822.56" y="653.6014">is_deleted : boolean</text><line style="stroke:#00008B;stroke-width:0.5;" x1="803.56" x2="983.6586" y1="660.9031" y2="660.9031"/></g><!--class role--><g class="entity" data-entity="role" data-source-line="142" data-uid="ent0010" id="entity_role"><rect fill="#ADD8E6" height="210.9688" rx="2.5" ry="2.5" style="stroke:#00008B;stroke-width:0.5;" width="182.0986" x="1019.56" y="417.2"/><ellipse cx="1092.9472" cy="433.2" fill="#ADD1B2" rx="11" ry="11" style="stroke:#181818;stroke-width:1;"/><path d="M1097.0566,439.2 L1089.3378,439.2 L1089.3378,426.8094 L1097.0566,426.8094 L1097.0566,428.9656 L1091.791,428.9656 L1091.791,431.6375 L1096.5566,431.6375 L1096.5566,433.7938 L1091.791,433.7938 L1091.791,437.0438 L1097.0566,437.0438 L1097.0566,439.2 Z " fill="#000000"/><text fill="#000000" font-family="sans-serif" font-size="14" lengthAdjust="spacing" textLength="26.8242" x="1113.4472" y="438.0467">role</text><line style="stroke:#00008B;stroke-width:0.5;" x1="1020.56" x2="1200.6586" y1="449.2" y2="449.2"/><ellipse cx="1030.56" cy="462.8484" fill="#000000" rx="3" ry="3" style="stroke:#000000;stroke-width:1;"/><text fill="#000000" font-family="sans-serif" font-size="14" lengthAdjust="spacing" textLength="120.2373" x="1039.56" y="466.1951">id : number &#171;PK&#187;</text><text fill="#000000" font-family="sans-serif" font-size="14" lengthAdjust="spacing" textLength="93.5088" x="1039.56" y="482.492">name : string</text><text fill="#000000" font-family="sans-serif" font-size="14" lengthAdjust="spacing" textLength="119.335" x="1039.56" y="498.7889">description : text</text><text fill="#000000" font-family="sans-serif" font-size="14" lengthAdjust="spacing" textLength="151.5186" x="1039.56" y="515.0857">created_at : datetime</text><text fill="#000000" font-family="sans-serif" font-size="14" lengthAdjust="spacing" textLength="131.6123" x="1039.56" y="531.3826">created_by : string</text><text fill="#000000" font-family="sans-serif" font-size="14" lengthAdjust="spacing" textLength="156.0986" x="1039.56" y="547.6795">updated_at : datetime</text><text fill="#000000" font-family="sans-serif" font-size="14" lengthAdjust="spacing" textLength="136.1924" x="1039.56" y="563.9764">updated_by : string</text><text fill="#000000" font-family="sans-serif" font-size="14" lengthAdjust="spacing" textLength="150.876" x="1039.56" y="580.2732">deleted_at : datetime</text><text fill="#000000" font-family="sans-serif" font-size="14" lengthAdjust="spacing" textLength="130.9697" x="1039.56" y="596.5701">deleted_by : string</text><text fill="#000000" font-family="sans-serif" font-size="14" lengthAdjust="spacing" textLength="140.7656" x="1039.56" y="612.867">is_deleted : boolean</text><line style="stroke:#00008B;stroke-width:0.5;" x1="1020.56" x2="1200.6586" y1="620.1688" y2="620.1688"/></g><!--class user_role--><g class="entity" data-entity="user_role" data-source-line="155" data-uid="ent0011" id="entity_user_role"><rect fill="#ADD8E6" height="210.9688" rx="2.5" ry="2.5" style="stroke:#00008B;stroke-width:0.5;" width="183.3838" x="909.91" y="47.74"/><ellipse cx="965.1717" cy="63.74" fill="#ADD1B2" rx="11" ry="11" style="stroke:#181818;stroke-width:1;"/><path d="M969.2811,69.74 L961.5623,69.74 L961.5623,57.3494 L969.2811,57.3494 L969.2811,59.5056 L964.0155,59.5056 L964.0155,62.1775 L968.7811,62.1775 L968.7811,64.3338 L964.0155,64.3338 L964.0155,67.5838 L969.2811,67.5838 L969.2811,69.74 Z " fill="#000000"/><text fill="#000000" font-family="sans-serif" font-size="14" lengthAdjust="spacing" textLength="64.3604" x="985.6717" y="68.5867">user_role</text><line style="stroke:#00008B;stroke-width:0.5;" x1="910.91" x2="1092.2938" y1="79.74" y2="79.74"/><ellipse cx="920.91" cy="93.3884" fill="#000000" rx="3" ry="3" style="stroke:#000000;stroke-width:1;"/><text fill="#000000" font-family="sans-serif" font-size="14" lengthAdjust="spacing" textLength="120.2373" x="929.91" y="96.7351">id : number &#171;PK&#187;</text><text fill="#000000" font-family="sans-serif" font-size="14" lengthAdjust="spacing" textLength="157.3838" x="929.91" y="113.032">user_id : number &#171;FK&#187;</text><text fill="#000000" font-family="sans-serif" font-size="14" lengthAdjust="spacing" textLength="153.6719" x="929.91" y="129.3289">role_id : number &#171;FK&#187;</text><text fill="#000000" font-family="sans-serif" font-size="14" lengthAdjust="spacing" textLength="151.5186" x="929.91" y="145.6257">created_at : datetime</text><text fill="#000000" font-family="sans-serif" font-size="14" lengthAdjust="spacing" textLength="131.6123" x="929.91" y="161.9226">created_by : string</text><text fill="#000000" font-family="sans-serif" font-size="14" lengthAdjust="spacing" textLength="156.0986" x="929.91" y="178.2195">updated_at : datetime</text><text fill="#000000" font-family="sans-serif" font-size="14" lengthAdjust="spacing" textLength="136.1924" x="929.91" y="194.5164">updated_by : string</text><text fill="#000000" font-family="sans-serif" font-size="14" lengthAdjust="spacing" textLength="150.876" x="929.91" y="210.8132">deleted_at : datetime</text><text fill="#000000" font-family="sans-serif" font-size="14" lengthAdjust="spacing" textLength="130.9697" x="929.91" y="227.1101">deleted_by : string</text><text fill="#000000" font-family="sans-serif" font-size="14" lengthAdjust="spacing" textLength="140.7656" x="929.91" y="243.407">is_deleted : boolean</text><line style="stroke:#00008B;stroke-width:0.5;" x1="910.91" x2="1092.2938" y1="250.7088" y2="250.7088"/></g><!--link country to continent--><g class="link" data-entity-1="country" data-entity-2="continent" data-source-line="169" data-uid="lnk12" id="link_country_continent"><path codeLine="169" d="M116.61,1046.69 C116.61,1082.38 116.61,1104.82 116.61,1139.52" fill="none" id="country-continent" style="stroke:#0000FF;stroke-width:1;"/><line style="stroke:#0000FF;stroke-width:1;" x1="116.61" x2="110.61" y1="1046.69" y2="1038.69"/><line style="stroke:#0000FF;stroke-width:1;" x1="116.61" x2="122.61" y1="1046.69" y2="1038.69"/><line style="stroke:#0000FF;stroke-width:1;" x1="116.61" x2="116.61" y1="1046.69" y2="1038.69"/><line style="stroke:#0000FF;stroke-width:1;" x1="112.61" x2="120.61" y1="1048.69" y2="1048.69"/><line style="stroke:#0000FF;stroke-width:1;" x1="120.61" x2="112.61" y1="1143.52" y2="1143.52"/><line style="stroke:#0000FF;stroke-width:1;" x1="120.61" x2="112.61" y1="1140.52" y2="1140.52"/><line style="stroke:#0000FF;stroke-width:1;" x1="116.61" x2="116.61" y1="1139.52" y2="1147.52"/><text fill="#000000" font-family="sans-serif" font-size="13" lengthAdjust="spacing" textLength="59.0332" x="117.61" y="1114.0169">1,1 &#224; 0,N</text></g><!--link daily_wise to country--><g class="link" data-entity-1="daily_wise" data-entity-2="country" data-source-line="170" data-uid="lnk13" id="link_daily_wise_country"><path codeLine="170" d="M206.6589,660.5857 C191.9389,700.9457 181.1817,730.4145 166.4617,770.7645" fill="none" id="daily_wise-country" style="stroke:#0000FF;stroke-width:1;"/><line style="stroke:#0000FF;stroke-width:1;" x1="206.6589" x2="203.7632" y1="660.5857" y2="651.0142"/><line style="stroke:#0000FF;stroke-width:1;" x1="206.6589" x2="215.0368" y1="660.5857" y2="655.1258"/><line style="stroke:#0000FF;stroke-width:1;" x1="206.6589" x2="209.4" y1="660.5857" y2="653.07"/><line style="stroke:#0000FF;stroke-width:1;" x1="202.2157" x2="209.7315" y1="661.0941" y2="663.8352"/><line style="stroke:#0000FF;stroke-width:1;" x1="168.8486" x2="161.3331" y1="775.8931" y2="773.1514"/><line style="stroke:#0000FF;stroke-width:1;" x1="169.8768" x2="162.3612" y1="773.0748" y2="770.3331"/><line style="stroke:#0000FF;stroke-width:1;" x1="166.4617" x2="163.72" y1="770.7645" y2="778.28"/><text fill="#000000" font-family="sans-serif" font-size="13" lengthAdjust="spacing" textLength="59.0332" x="192.61" y="711.9769">1,1 &#224; 0,N</text></g><!--link statistic to country--><g class="link" data-entity-1="statistic" data-entity-2="country" data-source-line="171" data-uid="lnk14" id="link_statistic_country"><path codeLine="171" d="M136.6653,270.5262 C109.3653,303.6862 89.08,335.95 74.61,376.45 C27.75,507.62 48.6813,660.4761 75.4113,770.4961" fill="none" id="statistic-country" style="stroke:#0000FF;stroke-width:1;"/><line style="stroke:#0000FF;stroke-width:1;" x1="136.6653" x2="137.1179" y1="270.5262" y2="260.5364"/><line style="stroke:#0000FF;stroke-width:1;" x1="136.6653" x2="146.3821" y1="270.5262" y2="268.1636"/><line style="stroke:#0000FF;stroke-width:1;" x1="136.6653" x2="141.75" y1="270.5262" y2="264.35"/><line style="stroke:#0000FF;stroke-width:1;" x1="132.306" x2="138.4822" y1="269.5279" y2="274.6126"/><line style="stroke:#0000FF;stroke-width:1;" x1="80.2426" x2="72.4687" y1="773.4387" y2="775.3274"/><line style="stroke:#0000FF;stroke-width:1;" x1="79.5343" x2="71.7605" y1="770.5235" y2="772.4122"/><line style="stroke:#0000FF;stroke-width:1;" x1="75.4113" x2="77.3" y1="770.4961" y2="778.27"/><text fill="#000000" font-family="sans-serif" font-size="13" lengthAdjust="spacing" textLength="59.0332" x="75.61" y="527.2469">1,1 &#224; 0,N</text></g><!--link statistic to epidemic--><g class="link" data-entity-1="statistic" data-entity-2="epidemic" data-source-line="172" data-uid="lnk15" id="link_statistic_epidemic"><path codeLine="172" d="M348.5289,307.0048 C360.9889,331.9148 368.91,350.88 377.61,376.45 C418.39,496.41 438.7312,630.491 449.6012,737.461" fill="none" id="statistic-epidemic" style="stroke:#0000FF;stroke-width:1;"/><line style="stroke:#0000FF;stroke-width:1;" x1="348.5289" x2="339.5839" y1="307.0048" y2="302.5341"/><line style="stroke:#0000FF;stroke-width:1;" x1="348.5289" x2="350.3161" y1="307.0048" y2="297.1659"/><line style="stroke:#0000FF;stroke-width:1;" x1="348.5289" x2="344.95" y1="307.0048" y2="299.85"/><line style="stroke:#0000FF;stroke-width:1;" x1="345.8462" x2="353.001" y1="310.583" y2="307.0041"/><line style="stroke:#0000FF;stroke-width:1;" x1="453.9851" x2="446.0261" y1="741.0361" y2="741.8449"/><line style="stroke:#0000FF;stroke-width:1;" x1="453.6818" x2="445.7228" y1="738.0515" y2="738.8603"/><line style="stroke:#0000FF;stroke-width:1;" x1="449.6012" x2="450.41" y1="737.461" y2="745.42"/><text fill="#000000" font-family="sans-serif" font-size="13" lengthAdjust="spacing" textLength="59.0332" x="442.61" y="527.2469">1,1 &#224; 0,N</text></g><!--link statistic to daily_wise--><g class="link" data-entity-1="statistic" data-entity-2="daily_wise" data-source-line="173" data-uid="lnk16" id="link_statistic_daily_wise"><path codeLine="173" d="M256.61,307.72 C256.61,338.29 256.61,354.35 256.61,384.28" fill="none" id="statistic-daily_wise" style="stroke:#0000FF;stroke-width:1;"/><line style="stroke:#0000FF;stroke-width:1;" x1="256.61" x2="250.61" y1="307.72" y2="299.72"/><line style="stroke:#0000FF;stroke-width:1;" x1="256.61" x2="262.61" y1="307.72" y2="299.72"/><line style="stroke:#0000FF;stroke-width:1;" x1="256.61" x2="256.61" y1="307.72" y2="299.72"/><line style="stroke:#0000FF;stroke-width:1;" x1="252.61" x2="260.61" y1="309.72" y2="309.72"/><line style="stroke:#0000FF;stroke-width:1;" x1="260.61" x2="252.61" y1="388.28" y2="388.28"/><line style="stroke:#0000FF;stroke-width:1;" x1="260.61" x2="252.61" y1="385.28" y2="385.28"/><line style="stroke:#0000FF;stroke-width:1;" x1="256.61" x2="256.61" y1="384.28" y2="392.28"/><text fill="#000000" font-family="sans-serif" font-size="13" lengthAdjust="spacing" textLength="59.0332" x="257.61" y="342.5169">1,1 &#224; 0,N</text></g><!--link vaccine to epidemic--><g class="link" data-entity-1="vaccine" data-entity-2="epidemic" data-source-line="174" data-uid="lnk17" id="link_vaccine_epidemic"><path codeLine="174" d="M572.9256,676.5162 C560.9156,701.4262 555.3237,713.0335 543.1237,738.3435" fill="none" id="vaccine-epidemic" style="stroke:#0000FF;stroke-width:1;"/><line style="stroke:#0000FF;stroke-width:1;" x1="572.9256" x2="570.9954" y1="676.5162" y2="666.7042"/><line style="stroke:#0000FF;stroke-width:1;" x1="572.9256" x2="581.8046" y1="676.5162" y2="671.9158"/><line style="stroke:#0000FF;stroke-width:1;" x1="572.9256" x2="576.4" y1="676.5162" y2="669.31"/><line style="stroke:#0000FF;stroke-width:1;" x1="568.454" x2="575.6601" y1="676.5805" y2="680.0549"/><line style="stroke:#0000FF;stroke-width:1;" x1="544.9901" x2="537.7836" y1="743.6836" y2="740.2099"/><line style="stroke:#0000FF;stroke-width:1;" x1="546.2927" x2="539.0862" y1="740.9812" y2="737.5075"/><line style="stroke:#0000FF;stroke-width:1;" x1="543.1237" x2="539.65" y1="738.3435" y2="745.55"/><text fill="#000000" font-family="sans-serif" font-size="13" lengthAdjust="spacing" textLength="59.0332" x="561.61" y="711.9769">1,1 &#224; 0,N</text></g><!--link daily_wise_vaccine to daily_wise--><g class="link" data-entity-1="daily_wise_vaccine" data-entity-2="daily_wise" data-source-line="175" data-uid="lnk18" id="link_daily_wise_vaccine_daily_wise"><path codeLine="175" d="M468.8005,265.194 C433.3505,308.044 402.2494,345.6359 365.2294,390.3859" fill="none" id="daily_wise_vaccine-daily_wise" style="stroke:#0000FF;stroke-width:1;"/><line style="stroke:#0000FF;stroke-width:1;" x1="468.8005" x2="469.277" y1="265.194" y2="255.2054"/><line style="stroke:#0000FF;stroke-width:1;" x1="468.8005" x2="478.523" y1="265.194" y2="262.8546"/><line style="stroke:#0000FF;stroke-width:1;" x1="468.8005" x2="473.9" y1="265.194" y2="259.03"/><line style="stroke:#0000FF;stroke-width:1;" x1="464.4436" x2="470.6076" y1="264.1853" y2="269.2848"/><line style="stroke:#0000FF;stroke-width:1;" x1="365.7617" x2="359.5976" y1="396.0176" y2="390.9183"/><line style="stroke:#0000FF;stroke-width:1;" x1="367.674" x2="361.5099" y1="393.7061" y2="388.6067"/><line style="stroke:#0000FF;stroke-width:1;" x1="365.2294" x2="360.13" y1="390.3859" y2="396.55"/><text fill="#000000" font-family="sans-serif" font-size="13" lengthAdjust="spacing" textLength="59.0332" x="409.61" y="342.5169">1,1 &#224; 0,N</text></g><!--link daily_wise_vaccine to vaccine--><g class="link" data-entity-1="daily_wise_vaccine" data-entity-2="vaccine" data-source-line="176" data-uid="lnk19" id="link_daily_wise_vaccine_vaccine"><path codeLine="176" d="M586.9542,266.8192 C595.4742,303.1992 601.5381,329.1002 610.6781,368.1802" fill="none" id="daily_wise_vaccine-vaccine" style="stroke:#0000FF;stroke-width:1;"/><line style="stroke:#0000FF;stroke-width:1;" x1="586.9542" x2="579.2881" y1="266.8192" y2="260.3981"/><line style="stroke:#0000FF;stroke-width:1;" x1="586.9542" x2="590.9719" y1="266.8192" y2="257.6619"/><line style="stroke:#0000FF;stroke-width:1;" x1="586.9542" x2="585.13" y1="266.8192" y2="259.03"/><line style="stroke:#0000FF;stroke-width:1;" x1="583.5156" x2="591.3049" y1="269.6787" y2="267.8545"/><line style="stroke:#0000FF;stroke-width:1;" x1="615.484" x2="607.6942" y1="371.1642" y2="372.986"/><line style="stroke:#0000FF;stroke-width:1;" x1="614.8008" x2="607.011" y1="368.243" y2="370.0649"/><line style="stroke:#0000FF;stroke-width:1;" x1="610.6781" x2="612.5" y1="368.1802" y2="375.97"/><text fill="#000000" font-family="sans-serif" font-size="13" lengthAdjust="spacing" textLength="59.0332" x="604.61" y="342.5169">1,1 &#224; 0,N</text></g><!--link user_role to user--><g class="link" data-entity-1="user_role" data-entity-2="user" data-source-line="177" data-uid="lnk20" id="link_user_role_user"><path codeLine="177" d="M968.5446,266.7055 C957.8546,303.0855 950.1766,329.2149 938.6866,368.2949" fill="none" id="user_role-user" style="stroke:#0000FF;stroke-width:1;"/><line style="stroke:#0000FF;stroke-width:1;" x1="968.5446" x2="965.0434" y1="266.7055" y2="257.3385"/><line style="stroke:#0000FF;stroke-width:1;" x1="968.5446" x2="976.5566" y1="266.7055" y2="260.7215"/><line style="stroke:#0000FF;stroke-width:1;" x1="968.5446" x2="970.8" y1="266.7055" y2="259.03"/><line style="stroke:#0000FF;stroke-width:1;" x1="964.143" x2="971.8185" y1="267.4967" y2="269.7521"/><line style="stroke:#0000FF;stroke-width:1;" x1="941.3959" x2="933.7207" y1="373.2607" y2="371.0041"/><line style="stroke:#0000FF;stroke-width:1;" x1="942.2421" x2="934.5669" y1="370.3825" y2="368.126"/><line style="stroke:#0000FF;stroke-width:1;" x1="938.6866" x2="936.43" y1="368.2949" y2="375.97"/><text fill="#000000" font-family="sans-serif" font-size="13" lengthAdjust="spacing" textLength="59.0332" x="948.61" y="342.5169">1,1 &#224; 0,N</text></g><!--link user_role to role--><g class="link" data-entity-1="user_role" data-entity-2="role" data-source-line="178" data-uid="lnk21" id="link_user_role_role"><path codeLine="178" d="M1034.9661,266.6994 C1049.6361,316.1294 1062.5347,359.6204 1077.2047,409.0704" fill="none" id="user_role-role" style="stroke:#0000FF;stroke-width:1;"/><line style="stroke:#0000FF;stroke-width:1;" x1="1034.9661" x2="1026.938" y1="266.6994" y2="260.7371"/><line style="stroke:#0000FF;stroke-width:1;" x1="1034.9661" x2="1038.442" y1="266.6994" y2="257.3229"/><line style="stroke:#0000FF;stroke-width:1;" x1="1034.9661" x2="1032.69" y1="266.6994" y2="259.03"/><line style="stroke:#0000FF;stroke-width:1;" x1="1031.7005" x2="1039.3699" y1="269.7548" y2="267.4786"/><line style="stroke:#0000FF;stroke-width:1;" x1="1082.1772" x2="1074.5075" y1="411.7675" y2="414.0428"/><line style="stroke:#0000FF;stroke-width:1;" x1="1081.3239" x2="1073.6543" y1="408.8914" y2="411.1667"/><line style="stroke:#0000FF;stroke-width:1;" x1="1077.2047" x2="1079.48" y1="409.0704" y2="416.74"/><text fill="#000000" font-family="sans-serif" font-size="13" lengthAdjust="spacing" textLength="59.0332" x="1057.61" y="342.5169">1,1 &#224; 0,N</text></g><!--SRC=[rLV1Rjim3BtxAuHS2Wmji6wteYYmhDjbmp3i1mn5OXoXicI8SZfZxR_isk_eZurMvCHoN6Sv-YO-FP7o8qN95-p-zMMjZFBA6YPhXhxHaE63CXLtl6H2SqJs9sDioSL3uMnjv6UhhMFVLR7nIrq3pNropZxku8WihPFWTj0zTmy1Viwo2_R5UELVNv1LJXcXAgu1CsZ1XYtGSw_GAx5W7DdU2XjufoIxOQOkL-3OxUtFRtTtX6g-0aquUd9N4B3b56fF9A2gLrhX1cJEFU6IU_2gX6HcrVHT2FfAxvey3VXr5n0g9Q5KOdnMyaOt-QD269yN3YZ-yLOwFDr8NSbHTeUdR0aQnjWTdh8Lvd62q9Mr6hXfCzIb8eeG4X774saml8JKk_qmi3_sxSfMjUQXwdgf4fQ26zh1_CMB7nBbYzOP0WehuJy4cuqYagjuC88a1tD2apPeZDqguEoMEaQYIgk8hsLothKrnH4uUQJdesBNV8A6dN56LL57TJvFTGKZ1uXlghJskD_O0am-T2S1XLDLh4eFltsxsd63fK8aD2y7POnDMNbRue7kW18hQz4woTrk7pEixoqNWivuI4mSdv4NkiKiVRjrIKmFOcFe2YtIVLjCD8BrMWakcZw6v8eNa7ieAo37jKkNJDvXSsmgUL__OtYooQZ96pjwcBjKDO8BuhI32JdMog4_BizZhFKpnA0aCTFEWVX8Jy4-Hes4dePzPAMStwGjQ3x2EaA2iEtWZ2C_sZldLK_v_jltreG0WJDwYjg5SprV5-mNxDvboFWM11FSIMMu3ZyvMVToVdwwkdfwwhq4RzZY-lAQlVvbxoz_BBBUUsXFtQqS40__H6Vozg-5KyJULWRKhfcUy3ZIVa-wVdjDPmuM72ekya9VEqKAuvJq3m00]--></g></svg>