<?xml version="1.0" encoding="us-ascii" standalone="no"?><svg xmlns="http://www.w3.org/2000/svg" xmlns:xlink="http://www.w3.org/1999/xlink" contentStyleType="text/css" height="1454px" preserveAspectRatio="none" style="width:1790px;height:1454px;background:#FFFFFF;" version="1.1" viewBox="0 0 1790 1454" width="1790px" zoomAndPan="magnify"><defs/><g><!--class continent--><g id="elem_continent"><rect codeLine="7" fill="#F1F1F1" height="241.7031" id="continent" rx="2.5" ry="2.5" style="stroke:#181818;stroke-width:0.5;" width="399" x="1384" y="1118"/><ellipse cx="1550.25" cy="1134" fill="#FFAAAA" rx="11" ry="11" style="stroke:#181818;stroke-width:1.0;"/><path d="M1551.1719,1131.3906 L1551.1719,1138.0469 L1552.3281,1138.0469 Q1552.9375,1138.0469 1553.1875,1138.2813 Q1553.4531,1138.5156 1553.4531,1138.9063 Q1553.4531,1139.2813 1553.1875,1139.5156 Q1552.9375,1139.75 1552.3281,1139.75 L1548.3438,1139.75 Q1547.7188,1139.75 1547.4531,1139.5156 Q1547.2031,1139.2813 1547.2031,1138.8906 Q1547.2031,1138.5156 1547.4531,1138.2813 Q1547.7188,1138.0469 1548.3438,1138.0469 L1549.4688,1138.0469 L1549.4688,1131.3906 L1547.625,1131.3906 L1547.625,1133 Q1547.625,1133.6094 1547.3906,1133.875 Q1547.1563,1134.1406 1546.7813,1134.1406 Q1546.4063,1134.1406 1546.1719,1133.875 Q1545.9375,1133.6094 1545.9375,1133 L1545.9375,1129.6875 L1554.75,1129.6875 L1554.75,1133 Q1554.75,1133.6094 1554.5,1133.875 Q1554.2656,1134.1406 1553.8906,1134.1406 Q1553.5156,1134.1406 1553.2813,1133.875 Q1553.0469,1133.6094 1553.0469,1133 L1553.0469,1131.3906 L1551.1719,1131.3906 Z " fill="#000000"/><text fill="#000000" font-family="sans-serif" font-size="14" lengthAdjust="spacing" textLength="58" x="1570.75" y="1139.7285">continent</text><line style="stroke:#181818;stroke-width:0.5;" x1="1385" x2="1782" y1="1150" y2="1150"/><text fill="#000000" font-family="sans-serif" font-size="14" lengthAdjust="spacing" text-decoration="underline" textLength="94" x="1390" y="1168.5332">id : BIGSERIAL</text><text fill="#000000" font-family="sans-serif" font-size="14" lengthAdjust="spacing" textLength="113" x="1390" y="1186.1426">name : VARCHAR</text><text fill="#000000" font-family="sans-serif" font-size="14" lengthAdjust="spacing" textLength="109" x="1390" y="1203.752">code : VARCHAR</text><text fill="#000000" font-family="sans-serif" font-size="14" lengthAdjust="spacing" textLength="122" x="1390" y="1221.3613">population : BIGINT</text><text fill="#000000" font-family="sans-serif" font-size="14" lengthAdjust="spacing" textLength="383" x="1390" y="1238.9707">created_at : TIMESTAMP DEFAULT CURRENT_TIMESTAMP</text><text fill="#000000" font-family="sans-serif" font-size="14" lengthAdjust="spacing" textLength="270" x="1390" y="1256.5801">created_by : VARCHAR DEFAULT 'system'</text><text fill="#000000" font-family="sans-serif" font-size="14" lengthAdjust="spacing" textLength="387" x="1390" y="1274.1895">updated_at : TIMESTAMP DEFAULT CURRENT_TIMESTAMP</text><text fill="#000000" font-family="sans-serif" font-size="14" lengthAdjust="spacing" textLength="274" x="1390" y="1291.7988">updated_by : VARCHAR DEFAULT 'system'</text><text fill="#000000" font-family="sans-serif" font-size="14" lengthAdjust="spacing" textLength="158" x="1390" y="1309.4082">deleted_at : TIMESTAMP</text><text fill="#000000" font-family="sans-serif" font-size="14" lengthAdjust="spacing" textLength="148" x="1390" y="1327.0176">deleted_by : VARCHAR</text><text fill="#000000" font-family="sans-serif" font-size="14" lengthAdjust="spacing" textLength="258" x="1390" y="1344.627">is_deleted : BOOLEAN DEFAULT FALSE</text><line style="stroke:#181818;stroke-width:0.5;" x1="1385" x2="1782" y1="1351.7031" y2="1351.7031"/></g><!--class country--><g id="elem_country"><rect codeLine="21" fill="#F1F1F1" height="276.9219" id="country" rx="2.5" ry="2.5" style="stroke:#181818;stroke-width:0.5;" width="399" x="925" y="1100.5"/><ellipse cx="1096.75" cy="1116.5" fill="#FFAAAA" rx="11" ry="11" style="stroke:#181818;stroke-width:1.0;"/><path d="M1097.6719,1113.8906 L1097.6719,1120.5469 L1098.8281,1120.5469 Q1099.4375,1120.5469 1099.6875,1120.7813 Q1099.9531,1121.0156 1099.9531,1121.4063 Q1099.9531,1121.7813 1099.6875,1122.0156 Q1099.4375,1122.25 1098.8281,1122.25 L1094.8438,1122.25 Q1094.2188,1122.25 1093.9531,1122.0156 Q1093.7031,1121.7813 1093.7031,1121.3906 Q1093.7031,1121.0156 1093.9531,1120.7813 Q1094.2188,1120.5469 1094.8438,1120.5469 L1095.9688,1120.5469 L1095.9688,1113.8906 L1094.125,1113.8906 L1094.125,1115.5 Q1094.125,1116.1094 1093.8906,1116.375 Q1093.6563,1116.6406 1093.2813,1116.6406 Q1092.9063,1116.6406 1092.6719,1116.375 Q1092.4375,1116.1094 1092.4375,1115.5 L1092.4375,1112.1875 L1101.25,1112.1875 L1101.25,1115.5 Q1101.25,1116.1094 1101,1116.375 Q1100.7656,1116.6406 1100.3906,1116.6406 Q1100.0156,1116.6406 1099.7813,1116.375 Q1099.5469,1116.1094 1099.5469,1115.5 L1099.5469,1113.8906 L1097.6719,1113.8906 Z " fill="#000000"/><text fill="#000000" font-family="sans-serif" font-size="14" lengthAdjust="spacing" textLength="47" x="1117.25" y="1122.2285">country</text><line style="stroke:#181818;stroke-width:0.5;" x1="926" x2="1323" y1="1132.5" y2="1132.5"/><text fill="#000000" font-family="sans-serif" font-size="14" lengthAdjust="spacing" text-decoration="underline" textLength="94" x="931" y="1151.0332">id : BIGSERIAL</text><text fill="#000000" font-family="sans-serif" font-size="14" lengthAdjust="spacing" textLength="113" x="931" y="1168.6426">name : VARCHAR</text><text fill="#000000" font-family="sans-serif" font-size="14" lengthAdjust="spacing" textLength="104" x="931" y="1186.252">iso2 : VARCHAR</text><text fill="#000000" font-family="sans-serif" font-size="14" lengthAdjust="spacing" textLength="104" x="931" y="1203.8613">iso3 : VARCHAR</text><text fill="#000000" font-family="sans-serif" font-size="14" lengthAdjust="spacing" textLength="122" x="931" y="1221.4707">population : BIGINT</text><text fill="#000000" font-family="sans-serif" font-size="14" lengthAdjust="spacing" textLength="383" x="931" y="1239.0801">created_at : TIMESTAMP DEFAULT CURRENT_TIMESTAMP</text><text fill="#000000" font-family="sans-serif" font-size="14" lengthAdjust="spacing" textLength="270" x="931" y="1256.6895">created_by : VARCHAR DEFAULT 'system'</text><text fill="#000000" font-family="sans-serif" font-size="14" lengthAdjust="spacing" textLength="387" x="931" y="1274.2988">updated_at : TIMESTAMP DEFAULT CURRENT_TIMESTAMP</text><text fill="#000000" font-family="sans-serif" font-size="14" lengthAdjust="spacing" textLength="274" x="931" y="1291.9082">updated_by : VARCHAR DEFAULT 'system'</text><text fill="#000000" font-family="sans-serif" font-size="14" lengthAdjust="spacing" textLength="158" x="931" y="1309.5176">deleted_at : TIMESTAMP</text><text fill="#000000" font-family="sans-serif" font-size="14" lengthAdjust="spacing" textLength="148" x="931" y="1327.127">deleted_by : VARCHAR</text><text fill="#000000" font-family="sans-serif" font-size="14" lengthAdjust="spacing" textLength="258" x="931" y="1344.7363">is_deleted : BOOLEAN DEFAULT FALSE</text><line style="stroke:#181818;stroke-width:0.5;" x1="926" x2="1323" y1="1351.8125" y2="1351.8125"/><text fill="#000000" font-family="sans-serif" font-size="14" lengthAdjust="spacing" textLength="313" x="931" y="1370.3457">continent_id : BIGINT REFERENCES continent(id)</text></g><!--class user--><g id="elem_user"><rect codeLine="37" fill="#F1F1F1" height="312.1406" id="user" rx="2.5" ry="2.5" style="stroke:#181818;stroke-width:0.5;" width="399" x="466" y="7"/><ellipse cx="647.25" cy="23" fill="#FFAAAA" rx="11" ry="11" style="stroke:#181818;stroke-width:1.0;"/><path d="M648.1719,20.3906 L648.1719,27.0469 L649.3281,27.0469 Q649.9375,27.0469 650.1875,27.2813 Q650.4531,27.5156 650.4531,27.9063 Q650.4531,28.2813 650.1875,28.5156 Q649.9375,28.75 649.3281,28.75 L645.3438,28.75 Q644.7188,28.75 644.4531,28.5156 Q644.2031,28.2813 644.2031,27.8906 Q644.2031,27.5156 644.4531,27.2813 Q644.7188,27.0469 645.3438,27.0469 L646.4688,27.0469 L646.4688,20.3906 L644.625,20.3906 L644.625,22 Q644.625,22.6094 644.3906,22.875 Q644.1563,23.1406 643.7813,23.1406 Q643.4063,23.1406 643.1719,22.875 Q642.9375,22.6094 642.9375,22 L642.9375,18.6875 L651.75,18.6875 L651.75,22 Q651.75,22.6094 651.5,22.875 Q651.2656,23.1406 650.8906,23.1406 Q650.5156,23.1406 650.2813,22.875 Q650.0469,22.6094 650.0469,22 L650.0469,20.3906 L648.1719,20.3906 Z " fill="#000000"/><text fill="#000000" font-family="sans-serif" font-size="14" lengthAdjust="spacing" textLength="28" x="667.75" y="28.7285">user</text><line style="stroke:#181818;stroke-width:0.5;" x1="467" x2="864" y1="39" y2="39"/><text fill="#000000" font-family="sans-serif" font-size="14" lengthAdjust="spacing" text-decoration="underline" textLength="94" x="472" y="57.5332">id : BIGSERIAL</text><text fill="#000000" font-family="sans-serif" font-size="14" lengthAdjust="spacing" textLength="383" x="472" y="75.1426">created_at : TIMESTAMP DEFAULT CURRENT_TIMESTAMP</text><text fill="#000000" font-family="sans-serif" font-size="14" lengthAdjust="spacing" textLength="270" x="472" y="92.752">created_by : VARCHAR DEFAULT 'system'</text><text fill="#000000" font-family="sans-serif" font-size="14" lengthAdjust="spacing" textLength="387" x="472" y="110.3613">updated_at : TIMESTAMP DEFAULT CURRENT_TIMESTAMP</text><text fill="#000000" font-family="sans-serif" font-size="14" lengthAdjust="spacing" textLength="274" x="472" y="127.9707">updated_by : VARCHAR DEFAULT 'system'</text><text fill="#000000" font-family="sans-serif" font-size="14" lengthAdjust="spacing" textLength="158" x="472" y="145.5801">deleted_at : TIMESTAMP</text><text fill="#000000" font-family="sans-serif" font-size="14" lengthAdjust="spacing" textLength="148" x="472" y="163.1895">deleted_by : VARCHAR</text><text fill="#000000" font-family="sans-serif" font-size="14" lengthAdjust="spacing" textLength="258" x="472" y="180.7988">is_deleted : BOOLEAN DEFAULT FALSE</text><line style="stroke:#181818;stroke-width:0.5;" x1="467" x2="864" y1="187.875" y2="187.875"/><text fill="#000000" font-family="sans-serif" font-size="14" lengthAdjust="spacing" textLength="162" x="472" y="206.4082">firstname : VARCHAR(50)</text><text fill="#000000" font-family="sans-serif" font-size="14" lengthAdjust="spacing" textLength="161" x="472" y="224.0176">lastname : VARCHAR(50)</text><text fill="#000000" font-family="sans-serif" font-size="14" lengthAdjust="spacing" textLength="167" x="472" y="241.627">username : VARCHAR(50)</text><text fill="#000000" font-family="sans-serif" font-size="14" lengthAdjust="spacing" textLength="199" x="472" y="259.2363">email : VARCHAR(100) UNIQUE</text><text fill="#000000" font-family="sans-serif" font-size="14" lengthAdjust="spacing" textLength="172" x="472" y="276.8457">password : VARCHAR(100)</text><text fill="#000000" font-family="sans-serif" font-size="14" lengthAdjust="spacing" textLength="149" x="472" y="294.4551">gender : VARCHAR(10)</text><text fill="#000000" font-family="sans-serif" font-size="14" lengthAdjust="spacing" textLength="160" x="472" y="312.0645">birthdate : VARCHAR(10)</text></g><!--class role--><g id="elem_role"><rect codeLine="55" fill="#F1F1F1" height="224.0938" id="role" rx="2.5" ry="2.5" style="stroke:#181818;stroke-width:0.5;" width="399" x="466" y="354"/><ellipse cx="649.25" cy="370" fill="#FFAAAA" rx="11" ry="11" style="stroke:#181818;stroke-width:1.0;"/><path d="M650.1719,367.3906 L650.1719,374.0469 L651.3281,374.0469 Q651.9375,374.0469 652.1875,374.2813 Q652.4531,374.5156 652.4531,374.9063 Q652.4531,375.2813 652.1875,375.5156 Q651.9375,375.75 651.3281,375.75 L647.3438,375.75 Q646.7188,375.75 646.4531,375.5156 Q646.2031,375.2813 646.2031,374.8906 Q646.2031,374.5156 646.4531,374.2813 Q646.7188,374.0469 647.3438,374.0469 L648.4688,374.0469 L648.4688,367.3906 L646.625,367.3906 L646.625,369 Q646.625,369.6094 646.3906,369.875 Q646.1563,370.1406 645.7813,370.1406 Q645.4063,370.1406 645.1719,369.875 Q644.9375,369.6094 644.9375,369 L644.9375,365.6875 L653.75,365.6875 L653.75,369 Q653.75,369.6094 653.5,369.875 Q653.2656,370.1406 652.8906,370.1406 Q652.5156,370.1406 652.2813,369.875 Q652.0469,369.6094 652.0469,369 L652.0469,367.3906 L650.1719,367.3906 Z " fill="#000000"/><text fill="#000000" font-family="sans-serif" font-size="14" lengthAdjust="spacing" textLength="24" x="669.75" y="375.7285">role</text><line style="stroke:#181818;stroke-width:0.5;" x1="467" x2="864" y1="386" y2="386"/><text fill="#000000" font-family="sans-serif" font-size="14" lengthAdjust="spacing" text-decoration="underline" textLength="94" x="472" y="404.5332">id : BIGSERIAL</text><text fill="#000000" font-family="sans-serif" font-size="14" lengthAdjust="spacing" textLength="383" x="472" y="422.1426">created_at : TIMESTAMP DEFAULT CURRENT_TIMESTAMP</text><text fill="#000000" font-family="sans-serif" font-size="14" lengthAdjust="spacing" textLength="270" x="472" y="439.752">created_by : VARCHAR DEFAULT 'system'</text><text fill="#000000" font-family="sans-serif" font-size="14" lengthAdjust="spacing" textLength="387" x="472" y="457.3613">updated_at : TIMESTAMP DEFAULT CURRENT_TIMESTAMP</text><text fill="#000000" font-family="sans-serif" font-size="14" lengthAdjust="spacing" textLength="274" x="472" y="474.9707">updated_by : VARCHAR DEFAULT 'system'</text><text fill="#000000" font-family="sans-serif" font-size="14" lengthAdjust="spacing" textLength="158" x="472" y="492.5801">deleted_at : TIMESTAMP</text><text fill="#000000" font-family="sans-serif" font-size="14" lengthAdjust="spacing" textLength="148" x="472" y="510.1895">deleted_by : VARCHAR</text><text fill="#000000" font-family="sans-serif" font-size="14" lengthAdjust="spacing" textLength="258" x="472" y="527.7988">is_deleted : BOOLEAN DEFAULT FALSE</text><line style="stroke:#181818;stroke-width:0.5;" x1="467" x2="864" y1="534.875" y2="534.875"/><text fill="#000000" font-family="sans-serif" font-size="14" lengthAdjust="spacing" textLength="139" x="472" y="553.4082">name : VARCHAR(50)</text><text fill="#000000" font-family="sans-serif" font-size="14" lengthAdjust="spacing" textLength="181" x="472" y="571.0176">description : VARCHAR(100)</text></g><!--class epidemic--><g id="elem_epidemic"><rect codeLine="68" fill="#F1F1F1" height="347.3594" id="epidemic" rx="2.5" ry="2.5" style="stroke:#181818;stroke-width:0.5;" width="399" x="925" y="657.5"/><ellipse cx="1092.25" cy="673.5" fill="#FFAAAA" rx="11" ry="11" style="stroke:#181818;stroke-width:1.0;"/><path d="M1093.1719,670.8906 L1093.1719,677.5469 L1094.3281,677.5469 Q1094.9375,677.5469 1095.1875,677.7813 Q1095.4531,678.0156 1095.4531,678.4063 Q1095.4531,678.7813 1095.1875,679.0156 Q1094.9375,679.25 1094.3281,679.25 L1090.3438,679.25 Q1089.7188,679.25 1089.4531,679.0156 Q1089.2031,678.7813 1089.2031,678.3906 Q1089.2031,678.0156 1089.4531,677.7813 Q1089.7188,677.5469 1090.3438,677.5469 L1091.4688,677.5469 L1091.4688,670.8906 L1089.625,670.8906 L1089.625,672.5 Q1089.625,673.1094 1089.3906,673.375 Q1089.1563,673.6406 1088.7813,673.6406 Q1088.4063,673.6406 1088.1719,673.375 Q1087.9375,673.1094 1087.9375,672.5 L1087.9375,669.1875 L1096.75,669.1875 L1096.75,672.5 Q1096.75,673.1094 1096.5,673.375 Q1096.2656,673.6406 1095.8906,673.6406 Q1095.5156,673.6406 1095.2813,673.375 Q1095.0469,673.1094 1095.0469,672.5 L1095.0469,670.8906 L1093.1719,670.8906 Z " fill="#000000"/><text fill="#000000" font-family="sans-serif" font-size="14" lengthAdjust="spacing" textLength="56" x="1112.75" y="679.2285">epidemic</text><line style="stroke:#181818;stroke-width:0.5;" x1="926" x2="1323" y1="689.5" y2="689.5"/><text fill="#000000" font-family="sans-serif" font-size="14" lengthAdjust="spacing" text-decoration="underline" textLength="94" x="931" y="708.0332">id : BIGSERIAL</text><text fill="#000000" font-family="sans-serif" font-size="14" lengthAdjust="spacing" textLength="113" x="931" y="725.6426">name : VARCHAR</text><text fill="#000000" font-family="sans-serif" font-size="14" lengthAdjust="spacing" textLength="113" x="931" y="743.252">start_date : DATE</text><text fill="#000000" font-family="sans-serif" font-size="14" lengthAdjust="spacing" textLength="109" x="931" y="760.8613">end_date : DATE</text><text fill="#000000" font-family="sans-serif" font-size="14" lengthAdjust="spacing" textLength="105" x="931" y="778.4707">type : VARCHAR</text><text fill="#000000" font-family="sans-serif" font-size="14" lengthAdjust="spacing" textLength="181" x="931" y="796.0801">pathogen_name : VARCHAR</text><text fill="#000000" font-family="sans-serif" font-size="14" lengthAdjust="spacing" textLength="116" x="931" y="813.6895">description : TEXT</text><text fill="#000000" font-family="sans-serif" font-size="14" lengthAdjust="spacing" textLength="200" x="931" y="831.2988">transmission_mode : VARCHAR</text><text fill="#000000" font-family="sans-serif" font-size="14" lengthAdjust="spacing" textLength="110" x="931" y="848.9082">symptoms : TEXT</text><text fill="#000000" font-family="sans-serif" font-size="14" lengthAdjust="spacing" textLength="171" x="931" y="866.5176">reproduction_rate : FLOAT</text><text fill="#000000" font-family="sans-serif" font-size="14" lengthAdjust="spacing" textLength="383" x="931" y="884.127">created_at : TIMESTAMP DEFAULT CURRENT_TIMESTAMP</text><text fill="#000000" font-family="sans-serif" font-size="14" lengthAdjust="spacing" textLength="270" x="931" y="901.7363">created_by : VARCHAR DEFAULT 'system'</text><text fill="#000000" font-family="sans-serif" font-size="14" lengthAdjust="spacing" textLength="387" x="931" y="919.3457">updated_at : TIMESTAMP DEFAULT CURRENT_TIMESTAMP</text><text fill="#000000" font-family="sans-serif" font-size="14" lengthAdjust="spacing" textLength="274" x="931" y="936.9551">updated_by : VARCHAR DEFAULT 'system'</text><text fill="#000000" font-family="sans-serif" font-size="14" lengthAdjust="spacing" textLength="158" x="931" y="954.5645">deleted_at : TIMESTAMP</text><text fill="#000000" font-family="sans-serif" font-size="14" lengthAdjust="spacing" textLength="148" x="931" y="972.1738">deleted_by : VARCHAR</text><text fill="#000000" font-family="sans-serif" font-size="14" lengthAdjust="spacing" textLength="258" x="931" y="989.7832">is_deleted : BOOLEAN DEFAULT FALSE</text><line style="stroke:#181818;stroke-width:0.5;" x1="926" x2="1323" y1="996.8594" y2="996.8594"/></g><!--class vaccine--><g id="elem_vaccine"><rect codeLine="88" fill="#F1F1F1" height="312.1406" id="vaccine" rx="2.5" ry="2.5" style="stroke:#181818;stroke-width:0.5;" width="399" x="466" y="613"/><ellipse cx="637.25" cy="629" fill="#FFAAAA" rx="11" ry="11" style="stroke:#181818;stroke-width:1.0;"/><path d="M638.1719,626.3906 L638.1719,633.0469 L639.3281,633.0469 Q639.9375,633.0469 640.1875,633.2813 Q640.4531,633.5156 640.4531,633.9063 Q640.4531,634.2813 640.1875,634.5156 Q639.9375,634.75 639.3281,634.75 L635.3438,634.75 Q634.7188,634.75 634.4531,634.5156 Q634.2031,634.2813 634.2031,633.8906 Q634.2031,633.5156 634.4531,633.2813 Q634.7188,633.0469 635.3438,633.0469 L636.4688,633.0469 L636.4688,626.3906 L634.625,626.3906 L634.625,628 Q634.625,628.6094 634.3906,628.875 Q634.1563,629.1406 633.7813,629.1406 Q633.4063,629.1406 633.1719,628.875 Q632.9375,628.6094 632.9375,628 L632.9375,624.6875 L641.75,624.6875 L641.75,628 Q641.75,628.6094 641.5,628.875 Q641.2656,629.1406 640.8906,629.1406 Q640.5156,629.1406 640.2813,628.875 Q640.0469,628.6094 640.0469,628 L640.0469,626.3906 L638.1719,626.3906 Z " fill="#000000"/><text fill="#000000" font-family="sans-serif" font-size="14" lengthAdjust="spacing" textLength="48" x="657.75" y="634.7285">vaccine</text><line style="stroke:#181818;stroke-width:0.5;" x1="467" x2="864" y1="645" y2="645"/><text fill="#000000" font-family="sans-serif" font-size="14" lengthAdjust="spacing" text-decoration="underline" textLength="94" x="472" y="663.5332">id : BIGSERIAL</text><text fill="#000000" font-family="sans-serif" font-size="14" lengthAdjust="spacing" textLength="113" x="472" y="681.1426">name : VARCHAR</text><text fill="#000000" font-family="sans-serif" font-size="14" lengthAdjust="spacing" textLength="142" x="472" y="698.752">laboratory : VARCHAR</text><text fill="#000000" font-family="sans-serif" font-size="14" lengthAdjust="spacing" textLength="147" x="472" y="716.3613">technology : VARCHAR</text><text fill="#000000" font-family="sans-serif" font-size="14" lengthAdjust="spacing" textLength="109" x="472" y="733.9707">dose : VARCHAR</text><text fill="#000000" font-family="sans-serif" font-size="14" lengthAdjust="spacing" textLength="106" x="472" y="751.5801">efficacy : FLOAT</text><text fill="#000000" font-family="sans-serif" font-size="14" lengthAdjust="spacing" textLength="211" x="472" y="769.1895">storage_temperature : VARCHAR</text><text fill="#000000" font-family="sans-serif" font-size="14" lengthAdjust="spacing" textLength="383" x="472" y="786.7988">created_at : TIMESTAMP DEFAULT CURRENT_TIMESTAMP</text><text fill="#000000" font-family="sans-serif" font-size="14" lengthAdjust="spacing" textLength="270" x="472" y="804.4082">created_by : VARCHAR DEFAULT 'system'</text><text fill="#000000" font-family="sans-serif" font-size="14" lengthAdjust="spacing" textLength="387" x="472" y="822.0176">updated_at : TIMESTAMP DEFAULT CURRENT_TIMESTAMP</text><text fill="#000000" font-family="sans-serif" font-size="14" lengthAdjust="spacing" textLength="274" x="472" y="839.627">updated_by : VARCHAR DEFAULT 'system'</text><text fill="#000000" font-family="sans-serif" font-size="14" lengthAdjust="spacing" textLength="158" x="472" y="857.2363">deleted_at : TIMESTAMP</text><text fill="#000000" font-family="sans-serif" font-size="14" lengthAdjust="spacing" textLength="148" x="472" y="874.8457">deleted_by : VARCHAR</text><text fill="#000000" font-family="sans-serif" font-size="14" lengthAdjust="spacing" textLength="258" x="472" y="892.4551">is_deleted : BOOLEAN DEFAULT FALSE</text><line style="stroke:#181818;stroke-width:0.5;" x1="467" x2="864" y1="899.5313" y2="899.5313"/><text fill="#000000" font-family="sans-serif" font-size="14" lengthAdjust="spacing" textLength="309" x="472" y="918.0645">epidemic_id : BIGINT REFERENCES epidemic(id)</text></g><!--class daily_wise--><g id="elem_daily_wise"><rect codeLine="106" fill="#F1F1F1" height="276.9219" id="daily_wise" rx="2.5" ry="2.5" style="stroke:#181818;stroke-width:0.5;" width="399" x="466" y="960.5"/><ellipse cx="629.25" cy="976.5" fill="#FFAAAA" rx="11" ry="11" style="stroke:#181818;stroke-width:1.0;"/><path d="M630.1719,973.8906 L630.1719,980.5469 L631.3281,980.5469 Q631.9375,980.5469 632.1875,980.7813 Q632.4531,981.0156 632.4531,981.4063 Q632.4531,981.7813 632.1875,982.0156 Q631.9375,982.25 631.3281,982.25 L627.3438,982.25 Q626.7188,982.25 626.4531,982.0156 Q626.2031,981.7813 626.2031,981.3906 Q626.2031,981.0156 626.4531,980.7813 Q626.7188,980.5469 627.3438,980.5469 L628.4688,980.5469 L628.4688,973.8906 L626.625,973.8906 L626.625,975.5 Q626.625,976.1094 626.3906,976.375 Q626.1563,976.6406 625.7813,976.6406 Q625.4063,976.6406 625.1719,976.375 Q624.9375,976.1094 624.9375,975.5 L624.9375,972.1875 L633.75,972.1875 L633.75,975.5 Q633.75,976.1094 633.5,976.375 Q633.2656,976.6406 632.8906,976.6406 Q632.5156,976.6406 632.2813,976.375 Q632.0469,976.1094 632.0469,975.5 L632.0469,973.8906 L630.1719,973.8906 Z " fill="#000000"/><text fill="#000000" font-family="sans-serif" font-size="14" lengthAdjust="spacing" textLength="64" x="649.75" y="982.2285">daily_wise</text><line style="stroke:#181818;stroke-width:0.5;" x1="467" x2="864" y1="992.5" y2="992.5"/><text fill="#000000" font-family="sans-serif" font-size="14" lengthAdjust="spacing" text-decoration="underline" textLength="94" x="472" y="1011.0332">id : BIGSERIAL</text><text fill="#000000" font-family="sans-serif" font-size="14" lengthAdjust="spacing" textLength="119" x="472" y="1028.6426">date : TIMESTAMP</text><text fill="#000000" font-family="sans-serif" font-size="14" lengthAdjust="spacing" textLength="132" x="472" y="1046.252">province : VARCHAR</text><text fill="#000000" font-family="sans-serif" font-size="14" lengthAdjust="spacing" textLength="104" x="472" y="1063.8613">latitude : FLOAT</text><text fill="#000000" font-family="sans-serif" font-size="14" lengthAdjust="spacing" textLength="116" x="472" y="1081.4707">longitude : FLOAT</text><text fill="#000000" font-family="sans-serif" font-size="14" lengthAdjust="spacing" textLength="383" x="472" y="1099.0801">created_at : TIMESTAMP DEFAULT CURRENT_TIMESTAMP</text><text fill="#000000" font-family="sans-serif" font-size="14" lengthAdjust="spacing" textLength="270" x="472" y="1116.6895">created_by : VARCHAR DEFAULT 'system'</text><text fill="#000000" font-family="sans-serif" font-size="14" lengthAdjust="spacing" textLength="387" x="472" y="1134.2988">updated_at : TIMESTAMP DEFAULT CURRENT_TIMESTAMP</text><text fill="#000000" font-family="sans-serif" font-size="14" lengthAdjust="spacing" textLength="274" x="472" y="1151.9082">updated_by : VARCHAR DEFAULT 'system'</text><text fill="#000000" font-family="sans-serif" font-size="14" lengthAdjust="spacing" textLength="158" x="472" y="1169.5176">deleted_at : TIMESTAMP</text><text fill="#000000" font-family="sans-serif" font-size="14" lengthAdjust="spacing" textLength="148" x="472" y="1187.127">deleted_by : VARCHAR</text><text fill="#000000" font-family="sans-serif" font-size="14" lengthAdjust="spacing" textLength="258" x="472" y="1204.7363">is_deleted : BOOLEAN DEFAULT FALSE</text><line style="stroke:#181818;stroke-width:0.5;" x1="467" x2="864" y1="1211.8125" y2="1211.8125"/><text fill="#000000" font-family="sans-serif" font-size="14" lengthAdjust="spacing" textLength="291" x="472" y="1230.3457">country_id : BIGINT REFERENCES country(id)</text></g><!--class statistic--><g id="elem_statistic"><rect codeLine="122" fill="#F1F1F1" height="312.1406" id="statistic" rx="2.5" ry="2.5" style="stroke:#181818;stroke-width:0.5;" width="399" x="7" y="1135"/><ellipse cx="178.75" cy="1151" fill="#FFAAAA" rx="11" ry="11" style="stroke:#181818;stroke-width:1.0;"/><path d="M179.6719,1148.3906 L179.6719,1155.0469 L180.8281,1155.0469 Q181.4375,1155.0469 181.6875,1155.2813 Q181.9531,1155.5156 181.9531,1155.9063 Q181.9531,1156.2813 181.6875,1156.5156 Q181.4375,1156.75 180.8281,1156.75 L176.8438,1156.75 Q176.2188,1156.75 175.9531,1156.5156 Q175.7031,1156.2813 175.7031,1155.8906 Q175.7031,1155.5156 175.9531,1155.2813 Q176.2188,1155.0469 176.8438,1155.0469 L177.9688,1155.0469 L177.9688,1148.3906 L176.125,1148.3906 L176.125,1150 Q176.125,1150.6094 175.8906,1150.875 Q175.6563,1151.1406 175.2813,1151.1406 Q174.9063,1151.1406 174.6719,1150.875 Q174.4375,1150.6094 174.4375,1150 L174.4375,1146.6875 L183.25,1146.6875 L183.25,1150 Q183.25,1150.6094 183,1150.875 Q182.7656,1151.1406 182.3906,1151.1406 Q182.0156,1151.1406 181.7813,1150.875 Q181.5469,1150.6094 181.5469,1150 L181.5469,1148.3906 L179.6719,1148.3906 Z " fill="#000000"/><text fill="#000000" font-family="sans-serif" font-size="14" lengthAdjust="spacing" textLength="47" x="199.25" y="1156.7285">statistic</text><line style="stroke:#181818;stroke-width:0.5;" x1="8" x2="405" y1="1167" y2="1167"/><text fill="#000000" font-family="sans-serif" font-size="14" lengthAdjust="spacing" text-decoration="underline" textLength="94" x="13" y="1185.5332">id : BIGSERIAL</text><text fill="#000000" font-family="sans-serif" font-size="14" lengthAdjust="spacing" textLength="108" x="13" y="1203.1426">label : VARCHAR</text><text fill="#000000" font-family="sans-serif" font-size="14" lengthAdjust="spacing" textLength="92" x="13" y="1220.752">value : FLOAT</text><text fill="#000000" font-family="sans-serif" font-size="14" lengthAdjust="spacing" textLength="159" x="13" y="1238.3613">published_at : VARCHAR</text><text fill="#000000" font-family="sans-serif" font-size="14" lengthAdjust="spacing" textLength="162" x="13" y="1255.9707">published_by : VARCHAR</text><text fill="#000000" font-family="sans-serif" font-size="14" lengthAdjust="spacing" textLength="383" x="13" y="1273.5801">created_at : TIMESTAMP DEFAULT CURRENT_TIMESTAMP</text><text fill="#000000" font-family="sans-serif" font-size="14" lengthAdjust="spacing" textLength="270" x="13" y="1291.1895">created_by : VARCHAR DEFAULT 'system'</text><text fill="#000000" font-family="sans-serif" font-size="14" lengthAdjust="spacing" textLength="387" x="13" y="1308.7988">updated_at : TIMESTAMP DEFAULT CURRENT_TIMESTAMP</text><text fill="#000000" font-family="sans-serif" font-size="14" lengthAdjust="spacing" textLength="274" x="13" y="1326.4082">updated_by : VARCHAR DEFAULT 'system'</text><text fill="#000000" font-family="sans-serif" font-size="14" lengthAdjust="spacing" textLength="158" x="13" y="1344.0176">deleted_at : TIMESTAMP</text><text fill="#000000" font-family="sans-serif" font-size="14" lengthAdjust="spacing" textLength="148" x="13" y="1361.627">deleted_by : VARCHAR</text><text fill="#000000" font-family="sans-serif" font-size="14" lengthAdjust="spacing" textLength="258" x="13" y="1379.2363">is_deleted : BOOLEAN DEFAULT FALSE</text><line style="stroke:#181818;stroke-width:0.5;" x1="8" x2="405" y1="1386.3125" y2="1386.3125"/><text fill="#000000" font-family="sans-serif" font-size="14" lengthAdjust="spacing" textLength="325" x="13" y="1404.8457">daily_wise_id : BIGINT REFERENCES daily_wise(id)</text><text fill="#000000" font-family="sans-serif" font-size="14" lengthAdjust="spacing" textLength="309" x="13" y="1422.4551">epidemic_id : BIGINT REFERENCES epidemic(id)</text><text fill="#000000" font-family="sans-serif" font-size="14" lengthAdjust="spacing" textLength="291" x="13" y="1440.0645">country_id : BIGINT REFERENCES country(id)</text></g><!--class user_role--><g id="elem_user_role"><rect codeLine="140" fill="#F1F1F1" height="224.0938" id="user_role" rx="2.5" ry="2.5" style="stroke:#181818;stroke-width:0.5;" width="399" x="7" y="203"/><ellipse cx="172.25" cy="219" fill="#FFAAAA" rx="11" ry="11" style="stroke:#181818;stroke-width:1.0;"/><path d="M173.1719,216.3906 L173.1719,223.0469 L174.3281,223.0469 Q174.9375,223.0469 175.1875,223.2813 Q175.4531,223.5156 175.4531,223.9063 Q175.4531,224.2813 175.1875,224.5156 Q174.9375,224.75 174.3281,224.75 L170.3438,224.75 Q169.7188,224.75 169.4531,224.5156 Q169.2031,224.2813 169.2031,223.8906 Q169.2031,223.5156 169.4531,223.2813 Q169.7188,223.0469 170.3438,223.0469 L171.4688,223.0469 L171.4688,216.3906 L169.625,216.3906 L169.625,218 Q169.625,218.6094 169.3906,218.875 Q169.1563,219.1406 168.7813,219.1406 Q168.4063,219.1406 168.1719,218.875 Q167.9375,218.6094 167.9375,218 L167.9375,214.6875 L176.75,214.6875 L176.75,218 Q176.75,218.6094 176.5,218.875 Q176.2656,219.1406 175.8906,219.1406 Q175.5156,219.1406 175.2813,218.875 Q175.0469,218.6094 175.0469,218 L175.0469,216.3906 L173.1719,216.3906 Z " fill="#000000"/><text fill="#000000" font-family="sans-serif" font-size="14" lengthAdjust="spacing" textLength="60" x="192.75" y="224.7285">user_role</text><line style="stroke:#181818;stroke-width:0.5;" x1="8" x2="405" y1="235" y2="235"/><text fill="#000000" font-family="sans-serif" font-size="14" lengthAdjust="spacing" text-decoration="underline" textLength="94" x="13" y="253.5332">id : BIGSERIAL</text><text fill="#000000" font-family="sans-serif" font-size="14" lengthAdjust="spacing" textLength="383" x="13" y="271.1426">created_at : TIMESTAMP DEFAULT CURRENT_TIMESTAMP</text><text fill="#000000" font-family="sans-serif" font-size="14" lengthAdjust="spacing" textLength="270" x="13" y="288.752">created_by : VARCHAR DEFAULT 'system'</text><text fill="#000000" font-family="sans-serif" font-size="14" lengthAdjust="spacing" textLength="387" x="13" y="306.3613">updated_at : TIMESTAMP DEFAULT CURRENT_TIMESTAMP</text><text fill="#000000" font-family="sans-serif" font-size="14" lengthAdjust="spacing" textLength="274" x="13" y="323.9707">updated_by : VARCHAR DEFAULT 'system'</text><text fill="#000000" font-family="sans-serif" font-size="14" lengthAdjust="spacing" textLength="158" x="13" y="341.5801">deleted_at : TIMESTAMP</text><text fill="#000000" font-family="sans-serif" font-size="14" lengthAdjust="spacing" textLength="148" x="13" y="359.1895">deleted_by : VARCHAR</text><text fill="#000000" font-family="sans-serif" font-size="14" lengthAdjust="spacing" textLength="258" x="13" y="376.7988">is_deleted : BOOLEAN DEFAULT FALSE</text><line style="stroke:#181818;stroke-width:0.5;" x1="8" x2="405" y1="383.875" y2="383.875"/><text fill="#000000" font-family="sans-serif" font-size="14" lengthAdjust="spacing" textLength="263" x="13" y="402.4082">user_id : BIGINT REFERENCES "user"(id)</text><text fill="#000000" font-family="sans-serif" font-size="14" lengthAdjust="spacing" textLength="245" x="13" y="420.0176">role_id : BIGINT REFERENCES role(id)</text></g><!--class daily_wise_vaccine--><g id="elem_daily_wise_vaccine"><rect codeLine="153" fill="#F1F1F1" height="224.0938" id="daily_wise_vaccine" rx="2.5" ry="2.5" style="stroke:#181818;stroke-width:0.5;" width="399" x="7" y="766"/><ellipse cx="142.25" cy="782" fill="#FFAAAA" rx="11" ry="11" style="stroke:#181818;stroke-width:1.0;"/><path d="M143.1719,779.3906 L143.1719,786.0469 L144.3281,786.0469 Q144.9375,786.0469 145.1875,786.2813 Q145.4531,786.5156 145.4531,786.9063 Q145.4531,787.2813 145.1875,787.5156 Q144.9375,787.75 144.3281,787.75 L140.3438,787.75 Q139.7188,787.75 139.4531,787.5156 Q139.2031,787.2813 139.2031,786.8906 Q139.2031,786.5156 139.4531,786.2813 Q139.7188,786.0469 140.3438,786.0469 L141.4688,786.0469 L141.4688,779.3906 L139.625,779.3906 L139.625,781 Q139.625,781.6094 139.3906,781.875 Q139.1563,782.1406 138.7813,782.1406 Q138.4063,782.1406 138.1719,781.875 Q137.9375,781.6094 137.9375,781 L137.9375,777.6875 L146.75,777.6875 L146.75,781 Q146.75,781.6094 146.5,781.875 Q146.2656,782.1406 145.8906,782.1406 Q145.5156,782.1406 145.2813,781.875 Q145.0469,781.6094 145.0469,781 L145.0469,779.3906 L143.1719,779.3906 Z " fill="#000000"/><text fill="#000000" font-family="sans-serif" font-size="14" lengthAdjust="spacing" textLength="120" x="162.75" y="787.7285">daily_wise_vaccine</text><line style="stroke:#181818;stroke-width:0.5;" x1="8" x2="405" y1="798" y2="798"/><text fill="#000000" font-family="sans-serif" font-size="14" lengthAdjust="spacing" text-decoration="underline" textLength="94" x="13" y="816.5332">id : BIGSERIAL</text><text fill="#000000" font-family="sans-serif" font-size="14" lengthAdjust="spacing" textLength="383" x="13" y="834.1426">created_at : TIMESTAMP DEFAULT CURRENT_TIMESTAMP</text><text fill="#000000" font-family="sans-serif" font-size="14" lengthAdjust="spacing" textLength="270" x="13" y="851.752">created_by : VARCHAR DEFAULT 'system'</text><text fill="#000000" font-family="sans-serif" font-size="14" lengthAdjust="spacing" textLength="387" x="13" y="869.3613">updated_at : TIMESTAMP DEFAULT CURRENT_TIMESTAMP</text><text fill="#000000" font-family="sans-serif" font-size="14" lengthAdjust="spacing" textLength="274" x="13" y="886.9707">updated_by : VARCHAR DEFAULT 'system'</text><text fill="#000000" font-family="sans-serif" font-size="14" lengthAdjust="spacing" textLength="158" x="13" y="904.5801">deleted_at : TIMESTAMP</text><text fill="#000000" font-family="sans-serif" font-size="14" lengthAdjust="spacing" textLength="148" x="13" y="922.1895">deleted_by : VARCHAR</text><text fill="#000000" font-family="sans-serif" font-size="14" lengthAdjust="spacing" textLength="258" x="13" y="939.7988">is_deleted : BOOLEAN DEFAULT FALSE</text><line style="stroke:#181818;stroke-width:0.5;" x1="8" x2="405" y1="946.875" y2="946.875"/><text fill="#000000" font-family="sans-serif" font-size="14" lengthAdjust="spacing" textLength="325" x="13" y="965.4082">daily_wise_id : BIGINT REFERENCES daily_wise(id)</text><text fill="#000000" font-family="sans-serif" font-size="14" lengthAdjust="spacing" textLength="293" x="13" y="983.0176">vaccine_id : BIGINT REFERENCES vaccine(id)</text></g><!--link country to continent--><g id="link_country_continent"><path codeLine="167" d="M1324.29,1239 C1344.02,1239 1358.06,1239 1377.8,1239 " fill="none" id="country-to-continent" style="stroke:#181818;stroke-width:1.0;"/><polygon fill="#181818" points="1383.8,1239,1374.8,1235,1378.8,1239,1374.8,1243,1383.8,1239" style="stroke:#181818;stroke-width:1.0;"/></g><!--link daily_wise to country--><g id="link_daily_wise_country"><path codeLine="168" d="M865.29,1159.9 C885.02,1165.94 899.3234,1170.3218 919.0634,1176.3718 " fill="none" id="daily_wise-to-country" style="stroke:#181818;stroke-width:1.0;"/><polygon fill="#181818" points="924.8,1178.13,917.3672,1171.6683,920.0195,1176.6648,915.023,1179.3171,924.8,1178.13" style="stroke:#181818;stroke-width:1.0;"/></g><!--link statistic to daily_wise--><g id="link_statistic_daily_wise"><path codeLine="169" d="M406.29,1207.48 C426.02,1199.19 440.528,1193.0932 460.268,1184.8032 " fill="none" id="statistic-to-daily_wise" style="stroke:#181818;stroke-width:1.0;"/><polygon fill="#181818" points="465.8,1182.48,455.9532,1182.2768,461.19,1184.416,459.0508,1189.6528,465.8,1182.48" style="stroke:#181818;stroke-width:1.0;"/></g><!--link statistic to country--><g id="link_statistic_country"><path codeLine="170" d="M406.33,1317.95 C537.28,1331.02 712.15,1339.56 865,1317 C884.59,1314.11 898.9234,1311.4406 918.9434,1306.6706 " fill="none" id="statistic-to-country" style="stroke:#181818;stroke-width:1.0;"/><polygon fill="#181818" points="924.78,1305.28,915.098,1303.4749,919.9162,1306.4389,916.9522,1311.257,924.78,1305.28" style="stroke:#181818;stroke-width:1.0;"/></g><!--link vaccine to epidemic--><g id="link_vaccine_epidemic"><path codeLine="171" d="M865.29,795.97 C885.02,798.65 899.1141,800.5658 918.8541,803.2358 " fill="none" id="vaccine-to-epidemic" style="stroke:#181818;stroke-width:1.0;"/><polygon fill="#181818" points="924.8,804.04,916.4174,798.8698,919.8451,803.3698,915.3451,806.7976,924.8,804.04" style="stroke:#181818;stroke-width:1.0;"/></g><!--link statistic to epidemic--><g id="link_statistic_epidemic"><path codeLine="172" d="M406.4,1303.71 C573.18,1310.17 795,1307.66 865,1255 C929.7,1206.33 886.08,1154 925,1083 C939.46,1056.63 953.16,1035.0506 971.28,1009.7106 " fill="none" id="statistic-to-epidemic" style="stroke:#181818;stroke-width:1.0;"/><polygon fill="#181818" points="974.77,1004.83,966.2813,1009.8242,971.8617,1008.8971,972.7887,1014.4775,974.77,1004.83" style="stroke:#181818;stroke-width:1.0;"/></g><!--link daily_wise_vaccine to daily_wise--><g id="link_daily_wise_vaccine_daily_wise"><path codeLine="173" d="M406.29,974.13 C426.02,983.68 440.6578,990.7592 460.3978,1000.2992 " fill="none" id="daily_wise_vaccine-to-daily_wise" style="stroke:#181818;stroke-width:1.0;"/><polygon fill="#181818" points="465.8,1002.91,459.4372,995.3923,461.2982,1000.7343,455.9562,1002.5953,465.8,1002.91" style="stroke:#181818;stroke-width:1.0;"/></g><!--link daily_wise_vaccine to vaccine--><g id="link_daily_wise_vaccine_vaccine"><path codeLine="174" d="M406.29,830.59 C426.02,825.88 440.2238,822.4925 459.9638,817.7825 " fill="none" id="daily_wise_vaccine-to-vaccine" style="stroke:#181818;stroke-width:1.0;"/><polygon fill="#181818" points="465.8,816.39,456.1174,814.588,460.9365,817.5504,457.9741,822.3696,465.8,816.39" style="stroke:#181818;stroke-width:1.0;"/></g><!--link user_role to user--><g id="link_user_role_user"><path codeLine="175" d="M406.29,248.88 C426.02,242.32 440.3662,237.5422 460.1062,230.9822 " fill="none" id="user_role-to-user" style="stroke:#181818;stroke-width:1.0;"/><polygon fill="#181818" points="465.8,229.09,455.9978,228.1324,461.0551,230.6668,458.5207,235.7241,465.8,229.09" style="stroke:#181818;stroke-width:1.0;"/></g><!--link user_role to role--><g id="link_user_role_role"><path codeLine="176" d="M406.29,380.68 C426.02,387.2 440.3636,391.9356 460.1036,398.4656 " fill="none" id="user_role-to-role" style="stroke:#181818;stroke-width:1.0;"/><polygon fill="#181818" points="465.8,400.35,458.5116,393.7258,461.053,398.7797,455.9991,401.321,465.8,400.35" style="stroke:#181818;stroke-width:1.0;"/></g><!--SRC=[xLZHRjem57tFLtZTGq5QfMxJNgQgKjQ63OdI5iAqjyZ45x2Qn97jq4LLFwZVqH_RTHf8OeWeUmvFSCxnTRZ7zrx31mOBdW3HT1v1xs-VX15LYlmb5nUavt_wE1Yu-EgJoqidWeKcMX39bojD69SGQYuIHptm9AMInYIbuGDTmbJd4H13qsGPWUESaklN5zo66prXe0WacklN5qNe6aAYynINaJkXz5B2z7xaE6_F4mhK9IZkaoU7a2UbgURXC-6CV2S_XZ-dtcJeZf19Q0m8_NOdLx_S2GAXO4qW5MaMqU81YgN3iMza4gW65b2Dg3-yyQQ-UtD7hhs1Enlvv6escNXZFzWojINpl8g_NN2gSgKXFaLTbh9ZGs-M70hD88BTq3MY7W1XheAICT_zzdRakUDjt84xcdhESvNoBD4oFphXN8alDl3rFGviB0usUo1E9jx0m_HSUTDAqEEitrcsnx9CWJparu9BfPkczRwTctnYlUydJDYz1CIKHpNqy_bvdyp6m_kPPsp6_l4e9BC4o2mXOI0Rk87dNEgLoU8EqrbjMor51CULPkaPDjrGyhIiFikOBizsdY7b368U7jq6KIbrK9xcQzSt5O77ta9mu5dJYUgLmFe8TW8sZVEzFwPfQaaJ5NEb40rYUzIfF4wrY5Mbbv1AmR9YNWVoxL46erkt6u7xp5_JCCI9SxJt4PqBJAwGpQqrXAj4H6BPX9bGpUMmMF2GXddD6uN1y6OKu9TE0KDdqbfI7jEssRdXkz7POZN3IPO7ZrmTTBiiuFh-M5DhdeJs8S2RRSRg5HQ9P6bZvJMh_T9Jq9rlBRuLDYbzk45ZJKBKs6PDewpkH7K4sioe5AKVnvRTCLwdsJpYQhN9Msr4R0ahRztfs7SX3jvpLIg4BRQS6FAaTCK4QnCQhYlKWmqsUETO_OzwB2EtwKkwysZ7ezq_PYIy_KHNJjcMoDdPPVKRtAboNnA5oDdsumAjH1QnaPUE5DYcMLhIBRnxWkmzMXJbUsVR3GhKVB8Wy-OV]--></g></svg>