<?xml version="1.0" encoding="us-ascii" standalone="no"?><svg xmlns="http://www.w3.org/2000/svg" xmlns:xlink="http://www.w3.org/1999/xlink" contentStyleType="text/css" height="600px" preserveAspectRatio="none" style="width:1592px;height:600px;background:#FFFFFF;" version="1.1" viewBox="0 0 1592 600" width="1592px" zoomAndPan="magnify"><defs/><g><text fill="#000000" font-family="sans-serif" font-size="14" font-weight="bold" lengthAdjust="spacing" textLength="215" x="690" y="29.5332">Cycle de vie d'une requ&#234;te API</text><line style="stroke:#181818;stroke-width:0.5;stroke-dasharray:5.0,5.0;" x1="39" x2="39" y1="121.2188" y2="518.4375"/><line style="stroke:#181818;stroke-width:0.5;stroke-dasharray:5.0,5.0;" x1="368.5" x2="368.5" y1="121.2188" y2="518.4375"/><line style="stroke:#181818;stroke-width:0.5;stroke-dasharray:5.0,5.0;" x1="629" x2="629" y1="121.2188" y2="518.4375"/><line style="stroke:#181818;stroke-width:0.5;stroke-dasharray:5.0,5.0;" x1="809" x2="809" y1="121.2188" y2="518.4375"/><line style="stroke:#181818;stroke-width:0.5;stroke-dasharray:5.0,5.0;" x1="984" x2="984" y1="121.2188" y2="518.4375"/><line style="stroke:#181818;stroke-width:0.5;stroke-dasharray:5.0,5.0;" x1="1239" x2="1239" y1="121.2188" y2="518.4375"/><line style="stroke:#181818;stroke-width:0.5;stroke-dasharray:5.0,5.0;" x1="1531" x2="1531" y1="121.2188" y2="518.4375"/><text fill="#000000" font-family="sans-serif" font-size="14" lengthAdjust="spacing" textLength="62" x="5" y="118.1426">Utilisateur</text><ellipse cx="39" cy="52.1094" fill="#E2E2F0" rx="8" ry="8" style="stroke:#181818;stroke-width:0.5;"/><path d="M39,60.1094 L39,87.1094 M26,68.1094 L52,68.1094 M39,87.1094 L26,102.1094 M39,87.1094 L52,102.1094 " fill="none" style="stroke:#181818;stroke-width:0.5;"/><text fill="#000000" font-family="sans-serif" font-size="14" lengthAdjust="spacing" textLength="62" x="5" y="531.9707">Utilisateur</text><ellipse cx="39" cy="543.5469" fill="#E2E2F0" rx="8" ry="8" style="stroke:#181818;stroke-width:0.5;"/><path d="M39,551.5469 L39,578.5469 M26,559.5469 L52,559.5469 M39,578.5469 L26,593.5469 M39,578.5469 L52,593.5469 " fill="none" style="stroke:#181818;stroke-width:0.5;"/><rect fill="#E2E2F0" height="31.6094" rx="2.5" ry="2.5" style="stroke:#181818;stroke-width:0.5;" width="115" x="311.5" y="88.6094"/><text fill="#000000" font-family="sans-serif" font-size="14" lengthAdjust="spacing" textLength="101" x="318.5" y="110.1426">Route (FastAPI)</text><rect fill="#E2E2F0" height="31.6094" rx="2.5" ry="2.5" style="stroke:#181818;stroke-width:0.5;" width="115" x="311.5" y="517.4375"/><text fill="#000000" font-family="sans-serif" font-size="14" lengthAdjust="spacing" textLength="101" x="318.5" y="538.9707">Route (FastAPI)</text><rect fill="#E2E2F0" height="31.6094" rx="2.5" ry="2.5" style="stroke:#181818;stroke-width:0.5;" width="198" x="530" y="88.6094"/><text fill="#000000" font-family="sans-serif" font-size="14" lengthAdjust="spacing" textLength="184" x="537" y="110.1426">Use Case (Application Layer)</text><rect fill="#E2E2F0" height="31.6094" rx="2.5" ry="2.5" style="stroke:#181818;stroke-width:0.5;" width="198" x="530" y="517.4375"/><text fill="#000000" font-family="sans-serif" font-size="14" lengthAdjust="spacing" textLength="184" x="537" y="538.9707">Use Case (Application Layer)</text><rect fill="#E2E2F0" height="31.6094" rx="2.5" ry="2.5" style="stroke:#181818;stroke-width:0.5;" width="120" x="749" y="88.6094"/><text fill="#000000" font-family="sans-serif" font-size="14" lengthAdjust="spacing" textLength="106" x="756" y="110.1426">Entit&#233; (Domaine)</text><rect fill="#E2E2F0" height="31.6094" rx="2.5" ry="2.5" style="stroke:#181818;stroke-width:0.5;" width="120" x="749" y="517.4375"/><text fill="#000000" font-family="sans-serif" font-size="14" lengthAdjust="spacing" textLength="106" x="756" y="538.9707">Entit&#233; (Domaine)</text><rect fill="#E2E2F0" height="31.6094" rx="2.5" ry="2.5" style="stroke:#181818;stroke-width:0.5;" width="211" x="879" y="88.6094"/><text fill="#000000" font-family="sans-serif" font-size="14" lengthAdjust="spacing" textLength="197" x="886" y="110.1426">Repository Interface (Domaine)</text><rect fill="#E2E2F0" height="31.6094" rx="2.5" ry="2.5" style="stroke:#181818;stroke-width:0.5;" width="211" x="879" y="517.4375"/><text fill="#000000" font-family="sans-serif" font-size="14" lengthAdjust="spacing" textLength="197" x="886" y="538.9707">Repository Interface (Domaine)</text><rect fill="#E2E2F0" height="31.6094" rx="2.5" ry="2.5" style="stroke:#181818;stroke-width:0.5;" width="279" x="1100" y="88.6094"/><text fill="#000000" font-family="sans-serif" font-size="14" lengthAdjust="spacing" textLength="265" x="1107" y="110.1426">Repository Impl&#233;mentation (Infrastructure)</text><rect fill="#E2E2F0" height="31.6094" rx="2.5" ry="2.5" style="stroke:#181818;stroke-width:0.5;" width="279" x="1100" y="517.4375"/><text fill="#000000" font-family="sans-serif" font-size="14" lengthAdjust="spacing" textLength="265" x="1107" y="538.9707">Repository Impl&#233;mentation (Infrastructure)</text><text fill="#000000" font-family="sans-serif" font-size="14" lengthAdjust="spacing" textLength="113" x="1472" y="118.1426">Base de Donn&#233;es</text><path d="M1513.5,67.6094 C1513.5,57.6094 1531.5,57.6094 1531.5,57.6094 C1531.5,57.6094 1549.5,57.6094 1549.5,67.6094 L1549.5,93.6094 C1549.5,103.6094 1531.5,103.6094 1531.5,103.6094 C1531.5,103.6094 1513.5,103.6094 1513.5,93.6094 L1513.5,67.6094 " fill="#E2E2F0" style="stroke:#181818;stroke-width:1.5;"/><path d="M1513.5,67.6094 C1513.5,77.6094 1531.5,77.6094 1531.5,77.6094 C1531.5,77.6094 1549.5,77.6094 1549.5,67.6094 " fill="none" style="stroke:#181818;stroke-width:1.5;"/><text fill="#000000" font-family="sans-serif" font-size="14" lengthAdjust="spacing" textLength="113" x="1472" y="531.9707">Base de Donn&#233;es</text><path d="M1513.5,545.0469 C1513.5,535.0469 1531.5,535.0469 1531.5,535.0469 C1531.5,535.0469 1549.5,535.0469 1549.5,545.0469 L1549.5,571.0469 C1549.5,581.0469 1531.5,581.0469 1531.5,581.0469 C1531.5,581.0469 1513.5,581.0469 1513.5,571.0469 L1513.5,545.0469 " fill="#E2E2F0" style="stroke:#181818;stroke-width:1.5;"/><path d="M1513.5,545.0469 C1513.5,555.0469 1531.5,555.0469 1531.5,555.0469 C1531.5,555.0469 1549.5,555.0469 1549.5,545.0469 " fill="none" style="stroke:#181818;stroke-width:1.5;"/><polygon fill="#181818" points="357,149.5703,367,153.5703,357,157.5703,361,153.5703" style="stroke:#181818;stroke-width:1.0;"/><line style="stroke:#181818;stroke-width:1.0;" x1="39" x2="363" y1="153.5703" y2="153.5703"/><text fill="#000000" font-family="sans-serif" font-size="13" lengthAdjust="spacing" textLength="306" x="46" y="148.7139">Envoie une requ&#234;te HTTP (GET/POST/PUT/DELETE)</text><line style="stroke:#181818;stroke-width:1.0;" x1="369" x2="411" y1="183.9219" y2="183.9219"/><line style="stroke:#181818;stroke-width:1.0;" x1="411" x2="411" y1="183.9219" y2="196.9219"/><line style="stroke:#181818;stroke-width:1.0;" x1="370" x2="411" y1="196.9219" y2="196.9219"/><polygon fill="#181818" points="380,192.9219,370,196.9219,380,200.9219,376,196.9219" style="stroke:#181818;stroke-width:1.0;"/><text fill="#000000" font-family="sans-serif" font-size="13" lengthAdjust="spacing" textLength="231" x="376" y="179.0654">Valide les donn&#233;es entrantes (Pydantic)</text><polygon fill="#181818" points="617,223.2734,627,227.2734,617,231.2734,621,227.2734" style="stroke:#181818;stroke-width:1.0;"/><line style="stroke:#181818;stroke-width:1.0;" x1="369" x2="623" y1="227.2734" y2="227.2734"/><text fill="#000000" font-family="sans-serif" font-size="13" lengthAdjust="spacing" textLength="236" x="376" y="222.417">Appelle le cas d'utilisation correspondant</text><polygon fill="#181818" points="797,253.625,807,257.625,797,261.625,801,257.625" style="stroke:#181818;stroke-width:1.0;"/><line style="stroke:#181818;stroke-width:1.0;" x1="629" x2="803" y1="257.625" y2="257.625"/><text fill="#000000" font-family="sans-serif" font-size="13" lengthAdjust="spacing" textLength="156" x="636" y="252.7686">Manipule les entit&#233;s m&#233;tier</text><polygon fill="#181818" points="972.5,283.9766,982.5,287.9766,972.5,291.9766,976.5,287.9766" style="stroke:#181818;stroke-width:1.0;"/><line style="stroke:#181818;stroke-width:1.0;" x1="629" x2="978.5" y1="287.9766" y2="287.9766"/><text fill="#000000" font-family="sans-serif" font-size="13" lengthAdjust="spacing" textLength="263" x="636" y="283.1201">Appelle les m&#233;thodes d&#233;finies dans l'interface</text><polygon fill="#181818" points="1227.5,314.3281,1237.5,318.3281,1227.5,322.3281,1231.5,318.3281" style="stroke:#181818;stroke-width:1.0;"/><line style="stroke:#181818;stroke-width:1.0;" x1="984.5" x2="1233.5" y1="318.3281" y2="318.3281"/><text fill="#000000" font-family="sans-serif" font-size="13" lengthAdjust="spacing" textLength="194" x="991.5" y="313.4717">Appelle l'impl&#233;mentation concr&#232;te</text><polygon fill="#181818" points="1519.5,344.6797,1529.5,348.6797,1519.5,352.6797,1523.5,348.6797" style="stroke:#181818;stroke-width:1.0;"/><line style="stroke:#181818;stroke-width:1.0;" x1="1239.5" x2="1525.5" y1="348.6797" y2="348.6797"/><text fill="#000000" font-family="sans-serif" font-size="13" lengthAdjust="spacing" textLength="268" x="1246.5" y="343.8232">Effectue une op&#233;ration sur la base de donn&#233;es</text><polygon fill="#181818" points="1250.5,375.0313,1240.5,379.0313,1250.5,383.0313,1246.5,379.0313" style="stroke:#181818;stroke-width:1.0;"/><line style="stroke:#181818;stroke-width:1.0;stroke-dasharray:2.0,2.0;" x1="1244.5" x2="1530.5" y1="379.0313" y2="379.0313"/><text fill="#000000" font-family="sans-serif" font-size="13" lengthAdjust="spacing" textLength="199" x="1256.5" y="374.1748">Retourne les donn&#233;es ou un statut</text><polygon fill="#181818" points="995.5,405.3828,985.5,409.3828,995.5,413.3828,991.5,409.3828" style="stroke:#181818;stroke-width:1.0;"/><line style="stroke:#181818;stroke-width:1.0;stroke-dasharray:2.0,2.0;" x1="989.5" x2="1238.5" y1="409.3828" y2="409.3828"/><text fill="#000000" font-family="sans-serif" font-size="13" lengthAdjust="spacing" textLength="127" x="1001.5" y="404.5264">Retourne les r&#233;sultats</text><polygon fill="#181818" points="640,435.7344,630,439.7344,640,443.7344,636,439.7344" style="stroke:#181818;stroke-width:1.0;"/><line style="stroke:#181818;stroke-width:1.0;stroke-dasharray:2.0,2.0;" x1="634" x2="983.5" y1="439.7344" y2="439.7344"/><text fill="#000000" font-family="sans-serif" font-size="13" lengthAdjust="spacing" textLength="127" x="646" y="434.8779">Retourne les r&#233;sultats</text><polygon fill="#181818" points="380,466.0859,370,470.0859,380,474.0859,376,470.0859" style="stroke:#181818;stroke-width:1.0;"/><line style="stroke:#181818;stroke-width:1.0;stroke-dasharray:2.0,2.0;" x1="374" x2="628" y1="470.0859" y2="470.0859"/><text fill="#000000" font-family="sans-serif" font-size="13" lengthAdjust="spacing" textLength="219" x="386" y="465.2295">Retourne les donn&#233;es ou un message</text><polygon fill="#181818" points="50,496.4375,40,500.4375,50,504.4375,46,500.4375" style="stroke:#181818;stroke-width:1.0;"/><line style="stroke:#181818;stroke-width:1.0;stroke-dasharray:2.0,2.0;" x1="44" x2="368" y1="500.4375" y2="500.4375"/><text fill="#000000" font-family="sans-serif" font-size="13" lengthAdjust="spacing" textLength="209" x="56" y="495.5811">Retourne une r&#233;ponse HTTP (JSON)</text><!--SRC=[VPB1Rjim38RlVWeYbpY7elST1ZIrjsNerg1rTbTbUXCWIvv45V0RpNiDlzYeA0viezr55cH-vC-V94KQuRwNVDO8hue_ss0G7FuEurz2k3iUian8iWvEfBJoWZ0u41vE7btM2KTAgauOWisJ3KpaduGdndQR67L-MuOn2FU2Z_okwxIIWfGry21wT8dXWFX_IPM658q3v8LjXJAOGi-l_Ke6TjOhLjp3mH2wHaXSOJ7a-kzzkktqEBHeA4dC3wPnt9mBaeARf-B0h1OaNc9RctqysSx26ZCEwCznnJxBecLmyp6P0XzO_QjbonU6Vwcg8-IVo-hs-FZCnwcwBSg7iYftMS9c_0-X5TVHwA6-r09MwxWHlkN7lkQRaZFoOYspx3rg7M6GB8_7VXblx5HQvz1triG4sGGnd_nc_9imgWiw5SSq6m_jE93YjPWH2wiNTLFuBrj7-UFGAAFYJHWFUgkkqracc3Aou_DaMxMQbRH6kl4FNVWOpcYnZwut3V80a- -s6mUN4CzxhGMyNAOtEPenTBCi-uHaWpChvstWZE1PGA1PrJSyMF2EZGkQARzkTJ6lzvYhrREz-9- -5hqNFt5QYLJ3pQ7pEeu3JzzFw_Zr-V7xBli7]--></g></svg>