<?xml version="1.0" encoding="us-ascii" standalone="no"?><svg xmlns="http://www.w3.org/2000/svg" xmlns:xlink="http://www.w3.org/1999/xlink" contentStyleType="text/css" height="2986px" preserveAspectRatio="none" style="width:1304px;height:2986px;background:#FFFFFF;" version="1.1" viewBox="0 0 1304 2986" width="1304px" zoomAndPan="magnify"><defs><filter height="300%" id="f1l8xrypxnbvxw" width="300%" x="-1" y="-1"><feGaussianBlur result="blurOut" stdDeviation="2.0"/><feColorMatrix in="blurOut" result="blurOut2" type="matrix" values="0 0 0 0 0 0 0 0 0 0 0 0 0 0 0 0 0 0 .4 0"/><feOffset dx="4.0" dy="4.0" in="blurOut2" result="blurOut3"/><feBlend in="SourceGraphic" in2="blurOut3" mode="normal"/></filter></defs><g><!--cluster Country--><g id="cluster_Country"><rect fill="none" filter="url(#f1l8xrypxnbvxw)" height="1717" rx="2.5" ry="2.5" style="stroke:#000000;stroke-width:1.5;" width="1122.5" x="169.5" y="7"/><text fill="#000000" font-family="sans-serif" font-size="14" font-weight="bold" lengthAdjust="spacing" textLength="55" x="703.25" y="23.5332">Country</text></g><!--cluster Application--><g id="cluster_Application"><rect fill="#D0E7FF" filter="url(#f1l8xrypxnbvxw)" height="658" rx="2.5" ry="2.5" style="stroke:#000000;stroke-width:1.5;" width="334" x="581" y="1042"/><text fill="#000000" font-family="sans-serif" font-size="14" font-style="italic" lengthAdjust="spacing" textLength="84" x="706" y="1058.5332">&#171;application&#187;</text><text fill="#000000" font-family="sans-serif" font-size="14" font-weight="bold" lengthAdjust="spacing" textLength="78" x="709" y="1076.1426">Application</text></g><!--cluster Usecase--><g id="cluster_Usecase"><rect fill="none" filter="url(#f1l8xrypxnbvxw)" height="572" rx="2.5" ry="2.5" style="stroke:#000000;stroke-width:1.5;" width="286" x="605" y="1104"/><text fill="#000000" font-family="sans-serif" font-size="14" font-weight="bold" lengthAdjust="spacing" textLength="60" x="718" y="1120.5332">Usecase</text></g><!--cluster Domain--><g id="cluster_Domain"><rect fill="#E0FFE0" filter="url(#f1l8xrypxnbvxw)" height="474" rx="2.5" ry="2.5" style="stroke:#000000;stroke-width:1.5;" width="329" x="939" y="1042"/><text fill="#000000" font-family="sans-serif" font-size="14" font-style="italic" lengthAdjust="spacing" textLength="62" x="1072.5" y="1058.5332">&#171;domain&#187;</text><text fill="#000000" font-family="sans-serif" font-size="14" font-weight="bold" lengthAdjust="spacing" textLength="52" x="1077.5" y="1076.1426">Domain</text></g><!--cluster Entity--><g id="cluster_Entity"><rect fill="none" filter="url(#f1l8xrypxnbvxw)" height="164" rx="2.5" ry="2.5" style="stroke:#000000;stroke-width:1.5;" width="149" x="1029" y="1104"/><text fill="#000000" font-family="sans-serif" font-size="14" font-weight="bold" lengthAdjust="spacing" textLength="39" x="1084" y="1120.5332">Entity</text></g><!--cluster Interface--><g id="cluster_Interface"><rect fill="none" filter="url(#f1l8xrypxnbvxw)" height="200" rx="2.5" ry="2.5" style="stroke:#000000;stroke-width:1.5;" width="281" x="963" y="1292"/><text fill="#000000" font-family="sans-serif" font-size="14" font-weight="bold" lengthAdjust="spacing" textLength="63" x="1072" y="1308.5332">Interface</text></g><!--cluster Infrastructure--><g id="cluster_Infrastructure"><rect fill="#FFF8DC" filter="url(#f1l8xrypxnbvxw)" height="468" rx="2.5" ry="2.5" style="stroke:#000000;stroke-width:1.5;" width="620" x="583.5" y="550"/><text fill="#000000" font-family="sans-serif" font-size="14" font-style="italic" lengthAdjust="spacing" textLength="100" x="843.5" y="566.5332">&#171;infrastructure&#187;</text><text fill="#000000" font-family="sans-serif" font-size="14" font-weight="bold" lengthAdjust="spacing" textLength="97" x="845" y="584.1426">Infrastructure</text></g><!--cluster Model--><g id="cluster_Model"><rect fill="none" filter="url(#f1l8xrypxnbvxw)" height="164" rx="2.5" ry="2.5" style="stroke:#000000;stroke-width:1.5;" width="152" x="1027.5" y="730"/><text fill="#000000" font-family="sans-serif" font-size="14" font-weight="bold" lengthAdjust="spacing" textLength="44" x="1081.5" y="746.5332">Model</text></g><!--cluster Repository--><g id="cluster_Repository"><rect fill="none" filter="url(#f1l8xrypxnbvxw)" height="382" rx="2.5" ry="2.5" style="stroke:#000000;stroke-width:1.5;" width="281" x="607.5" y="612"/><text fill="#000000" font-family="sans-serif" font-size="14" font-weight="bold" lengthAdjust="spacing" textLength="76" x="710" y="628.5332">Repository</text></g><!--cluster Presentation--><g id="cluster_Presentation"><rect fill="#F2F2F2" filter="url(#f1l8xrypxnbvxw)" height="475" rx="2.5" ry="2.5" style="stroke:#000000;stroke-width:1.5;" width="306" x="950.5" y="51"/><text fill="#000000" font-family="sans-serif" font-size="14" font-style="italic" lengthAdjust="spacing" textLength="95" x="1056" y="67.5332">&#171;presentation&#187;</text><text fill="#000000" font-family="sans-serif" font-size="14" font-weight="bold" lengthAdjust="spacing" textLength="90" x="1058.5" y="85.1426">Presentation</text></g><!--cluster Model--><g id="cluster_Model"><rect fill="none" filter="url(#f1l8xrypxnbvxw)" height="343" rx="2.5" ry="2.5" style="stroke:#000000;stroke-width:1.5;" width="258" x="974.5" y="159"/><text fill="#000000" font-family="sans-serif" font-size="14" font-weight="bold" lengthAdjust="spacing" textLength="44" x="1081.5" y="175.5332">Model</text></g><!--cluster Payload--><g id="cluster_Payload"><rect fill="none" filter="url(#f1l8xrypxnbvxw)" height="275" rx="2.5" ry="2.5" style="stroke:#000000;stroke-width:1.5;" width="210" x="998.5" y="203"/><text fill="#000000" font-family="sans-serif" font-size="14" font-weight="bold" lengthAdjust="spacing" textLength="54" x="1076.5" y="219.5332">Payload</text></g><!--cluster Base--><g id="cluster_Base"><rect fill="#FFD6E7" filter="url(#f1l8xrypxnbvxw)" height="1226" rx="2.5" ry="2.5" style="stroke:#000000;stroke-width:1.5;" width="550" x="7" y="1748"/><text fill="#000000" font-family="sans-serif" font-size="14" font-style="italic" lengthAdjust="spacing" textLength="47" x="258.5" y="1764.5332">&#171;base&#187;</text><text fill="#000000" font-family="sans-serif" font-size="14" font-weight="bold" lengthAdjust="spacing" textLength="35" x="264.5" y="1782.1426">Base</text></g><!--cluster Domain--><g id="cluster_Domain"><rect fill="none" filter="url(#f1l8xrypxnbvxw)" height="524" rx="2.5" ry="2.5" style="stroke:#000000;stroke-width:1.5;" width="502" x="31" y="2030"/><text fill="#000000" font-family="sans-serif" font-size="14" font-weight="bold" lengthAdjust="spacing" textLength="52" x="256" y="2046.5332">Domain</text></g><!--cluster Entity--><g id="cluster_Entity"><rect fill="none" filter="url(#f1l8xrypxnbvxw)" height="304" rx="2.5" ry="2.5" style="stroke:#000000;stroke-width:1.5;" width="223" x="170.5" y="2074"/><text fill="#000000" font-family="sans-serif" font-size="14" font-weight="bold" lengthAdjust="spacing" textLength="39" x="262.5" y="2090.5332">Entity</text></g><!--cluster Interface--><g id="cluster_Interface"><rect fill="none" filter="url(#f1l8xrypxnbvxw)" height="128" rx="2.5" ry="2.5" style="stroke:#000000;stroke-width:1.5;" width="454" x="55" y="2402"/><text fill="#000000" font-family="sans-serif" font-size="14" font-weight="bold" lengthAdjust="spacing" textLength="63" x="250.5" y="2418.5332">Interface</text></g><!--cluster Infrastructure--><g id="cluster_Infrastructure"><rect fill="none" filter="url(#f1l8xrypxnbvxw)" height="372" rx="2.5" ry="2.5" style="stroke:#000000;stroke-width:1.5;" width="271" x="146.5" y="2578"/><text fill="#000000" font-family="sans-serif" font-size="14" font-weight="bold" lengthAdjust="spacing" textLength="97" x="233.5" y="2594.5332">Infrastructure</text></g><!--cluster Model--><g id="cluster_Model"><rect fill="none" filter="url(#f1l8xrypxnbvxw)" height="304" rx="2.5" ry="2.5" style="stroke:#000000;stroke-width:1.5;" width="223" x="170.5" y="2622"/><text fill="#000000" font-family="sans-serif" font-size="14" font-weight="bold" lengthAdjust="spacing" textLength="44" x="260" y="2638.5332">Model</text></g><!--cluster Application--><g id="cluster_Application"><rect fill="none" filter="url(#f1l8xrypxnbvxw)" height="196" rx="2.5" ry="2.5" style="stroke:#000000;stroke-width:1.5;" width="203" x="180.5" y="1810"/><text fill="#000000" font-family="sans-serif" font-size="14" font-weight="bold" lengthAdjust="spacing" textLength="78" x="243" y="1826.5332">Application</text></g><!--cluster Usecase--><g id="cluster_Usecase"><rect fill="none" filter="url(#f1l8xrypxnbvxw)" height="128" rx="2.5" ry="2.5" style="stroke:#000000;stroke-width:1.5;" width="155" x="204.5" y="1854"/><text fill="#000000" font-family="sans-serif" font-size="14" font-weight="bold" lengthAdjust="spacing" textLength="60" x="252" y="1870.5332">Usecase</text></g><!--class CountryContainer--><g id="elem_CountryContainer"><rect codeLine="27" fill="#E6F0FF" filter="url(#f1l8xrypxnbvxw)" height="146.75" id="CountryContainer" rx="2.5" ry="2.5" style="stroke:#181818;stroke-width:0.5;" width="193" x="185.5" y="1271.5"/><ellipse cx="222.55" cy="1292.8516" fill="#ADD1B2" rx="11" ry="11" style="stroke:#181818;stroke-width:1.0;"/><path d="M225.3156,1288.7266 Q225.4719,1288.5078 225.6594,1288.3984 Q225.8469,1288.2891 226.0656,1288.2891 Q226.4406,1288.2891 226.675,1288.5547 Q226.9094,1288.8047 226.9094,1289.4141 L226.9094,1290.8672 Q226.9094,1291.4766 226.675,1291.7422 Q226.4406,1292.0078 226.0656,1292.0078 Q225.7219,1292.0078 225.5188,1291.8047 Q225.3156,1291.6172 225.2063,1291.1016 Q225.1594,1290.7422 224.9719,1290.5547 Q224.6438,1290.1797 224.0344,1289.9609 Q223.425,1289.7422 222.8,1289.7422 Q222.0344,1289.7422 221.3938,1290.0703 Q220.7688,1290.3984 220.2688,1291.1484 Q219.7844,1291.8984 219.7844,1292.9297 L219.7844,1294.0234 Q219.7844,1295.2578 220.675,1296.0859 Q221.5656,1296.8984 223.1594,1296.8984 Q224.0969,1296.8984 224.7531,1296.6484 Q225.1438,1296.4922 225.5656,1296.0547 Q225.8313,1295.7891 225.9719,1295.7109 Q226.1281,1295.6328 226.3313,1295.6328 Q226.6594,1295.6328 226.9094,1295.8984 Q227.175,1296.1484 227.175,1296.4922 Q227.175,1296.8359 226.8313,1297.2422 Q226.3313,1297.8203 225.5344,1298.1484 Q224.4563,1298.6016 223.1594,1298.6016 Q221.6438,1298.6016 220.4406,1297.9766 Q219.4563,1297.4766 218.7688,1296.4141 Q218.0813,1295.3359 218.0813,1294.0547 L218.0813,1292.8984 Q218.0813,1291.5703 218.6906,1290.4297 Q219.3156,1289.2734 220.4094,1288.6641 Q221.5031,1288.0391 222.7375,1288.0391 Q223.4719,1288.0391 224.1125,1288.2109 Q224.7688,1288.3672 225.3156,1288.7266 Z " fill="#000000"/><text fill="#000000" font-family="sans-serif" font-size="12" font-style="italic" lengthAdjust="spacing" textLength="60" x="267.45" y="1288.957">&#171;usecase&#187;</text><text fill="#000000" font-family="sans-serif" font-size="14" lengthAdjust="spacing" textLength="112" x="241.45" y="1306.127">CountryContainer</text><line style="stroke:#181818;stroke-width:0.5;" x1="186.5" x2="377.5" y1="1314.2031" y2="1314.2031"/><text fill="#000000" font-family="sans-serif" font-size="14" lengthAdjust="spacing" textLength="140" x="191.5" y="1332.7363">add_country_usecase</text><text fill="#000000" font-family="sans-serif" font-size="14" lengthAdjust="spacing" textLength="172" x="191.5" y="1350.3457">find_all_countries_usecase</text><text fill="#000000" font-family="sans-serif" font-size="14" lengthAdjust="spacing" textLength="181" x="191.5" y="1367.9551">find_country_by_id_usecase</text><text fill="#000000" font-family="sans-serif" font-size="14" lengthAdjust="spacing" textLength="160" x="191.5" y="1385.5645">update_country_usecase</text><text fill="#000000" font-family="sans-serif" font-size="14" lengthAdjust="spacing" textLength="155" x="191.5" y="1403.1738">delete_country_usecase</text><line style="stroke:#181818;stroke-width:0.5;" x1="186.5" x2="377.5" y1="1410.25" y2="1410.25"/></g><!--class AddCountryUseCase--><g id="elem_AddCountryUseCase"><rect codeLine="37" fill="#E6F0FF" filter="url(#f1l8xrypxnbvxw)" height="76.3125" id="AddCountryUseCase" rx="2.5" ry="2.5" style="stroke:#181818;stroke-width:0.5;" width="235" x="630.5" y="1362"/><ellipse cx="677.75" cy="1383.3516" fill="#ADD1B2" rx="11" ry="11" style="stroke:#181818;stroke-width:1.0;"/><path d="M680.5156,1379.2266 Q680.6719,1379.0078 680.8594,1378.8984 Q681.0469,1378.7891 681.2656,1378.7891 Q681.6406,1378.7891 681.875,1379.0547 Q682.1094,1379.3047 682.1094,1379.9141 L682.1094,1381.3672 Q682.1094,1381.9766 681.875,1382.2422 Q681.6406,1382.5078 681.2656,1382.5078 Q680.9219,1382.5078 680.7188,1382.3047 Q680.5156,1382.1172 680.4063,1381.6016 Q680.3594,1381.2422 680.1719,1381.0547 Q679.8438,1380.6797 679.2344,1380.4609 Q678.625,1380.2422 678,1380.2422 Q677.2344,1380.2422 676.5938,1380.5703 Q675.9688,1380.8984 675.4688,1381.6484 Q674.9844,1382.3984 674.9844,1383.4297 L674.9844,1384.5234 Q674.9844,1385.7578 675.875,1386.5859 Q676.7656,1387.3984 678.3594,1387.3984 Q679.2969,1387.3984 679.9531,1387.1484 Q680.3438,1386.9922 680.7656,1386.5547 Q681.0313,1386.2891 681.1719,1386.2109 Q681.3281,1386.1328 681.5313,1386.1328 Q681.8594,1386.1328 682.1094,1386.3984 Q682.375,1386.6484 682.375,1386.9922 Q682.375,1387.3359 682.0313,1387.7422 Q681.5313,1388.3203 680.7344,1388.6484 Q679.6563,1389.1016 678.3594,1389.1016 Q676.8438,1389.1016 675.6406,1388.4766 Q674.6563,1387.9766 673.9688,1386.9141 Q673.2813,1385.8359 673.2813,1384.5547 L673.2813,1383.3984 Q673.2813,1382.0703 673.8906,1380.9297 Q674.5156,1379.7734 675.6094,1379.1641 Q676.7031,1378.5391 677.9375,1378.5391 Q678.6719,1378.5391 679.3125,1378.7109 Q679.9688,1378.8672 680.5156,1379.2266 Z " fill="#000000"/><text fill="#000000" font-family="sans-serif" font-size="12" font-style="italic" lengthAdjust="spacing" textLength="60" x="734.25" y="1379.457">&#171;usecase&#187;</text><text fill="#000000" font-family="sans-serif" font-size="14" lengthAdjust="spacing" textLength="132" x="698.25" y="1396.627">AddCountryUseCase</text><line style="stroke:#181818;stroke-width:0.5;" x1="631.5" x2="864.5" y1="1404.7031" y2="1404.7031"/><line style="stroke:#181818;stroke-width:0.5;" x1="631.5" x2="864.5" y1="1412.7031" y2="1412.7031"/><text fill="#000000" font-family="sans-serif" font-size="14" lengthAdjust="spacing" textLength="223" x="636.5" y="1431.2363">+execute(payload) -&gt; CountryEntity</text></g><!--class DeleteCountryUseCase--><g id="elem_DeleteCountryUseCase"><rect codeLine="40" fill="#E6F0FF" filter="url(#f1l8xrypxnbvxw)" height="76.3125" id="DeleteCountryUseCase" rx="2.5" ry="2.5" style="stroke:#181818;stroke-width:0.5;" width="196" x="650" y="1473"/><ellipse cx="672.2" cy="1494.3516" fill="#ADD1B2" rx="11" ry="11" style="stroke:#181818;stroke-width:1.0;"/><path d="M674.9656,1490.2266 Q675.1219,1490.0078 675.3094,1489.8984 Q675.4969,1489.7891 675.7156,1489.7891 Q676.0906,1489.7891 676.325,1490.0547 Q676.5594,1490.3047 676.5594,1490.9141 L676.5594,1492.3672 Q676.5594,1492.9766 676.325,1493.2422 Q676.0906,1493.5078 675.7156,1493.5078 Q675.3719,1493.5078 675.1688,1493.3047 Q674.9656,1493.1172 674.8563,1492.6016 Q674.8094,1492.2422 674.6219,1492.0547 Q674.2938,1491.6797 673.6844,1491.4609 Q673.075,1491.2422 672.45,1491.2422 Q671.6844,1491.2422 671.0438,1491.5703 Q670.4188,1491.8984 669.9188,1492.6484 Q669.4344,1493.3984 669.4344,1494.4297 L669.4344,1495.5234 Q669.4344,1496.7578 670.325,1497.5859 Q671.2156,1498.3984 672.8094,1498.3984 Q673.7469,1498.3984 674.4031,1498.1484 Q674.7938,1497.9922 675.2156,1497.5547 Q675.4813,1497.2891 675.6219,1497.2109 Q675.7781,1497.1328 675.9813,1497.1328 Q676.3094,1497.1328 676.5594,1497.3984 Q676.825,1497.6484 676.825,1497.9922 Q676.825,1498.3359 676.4813,1498.7422 Q675.9813,1499.3203 675.1844,1499.6484 Q674.1063,1500.1016 672.8094,1500.1016 Q671.2938,1500.1016 670.0906,1499.4766 Q669.1063,1498.9766 668.4188,1497.9141 Q667.7313,1496.8359 667.7313,1495.5547 L667.7313,1494.3984 Q667.7313,1493.0703 668.3406,1491.9297 Q668.9656,1490.7734 670.0594,1490.1641 Q671.1531,1489.5391 672.3875,1489.5391 Q673.1219,1489.5391 673.7625,1489.7109 Q674.4188,1489.8672 674.9656,1490.2266 Z " fill="#000000"/><text fill="#000000" font-family="sans-serif" font-size="12" font-style="italic" lengthAdjust="spacing" textLength="60" x="731.8" y="1490.457">&#171;usecase&#187;</text><text fill="#000000" font-family="sans-serif" font-size="14" lengthAdjust="spacing" textLength="148" x="687.8" y="1507.627">DeleteCountryUseCase</text><line style="stroke:#181818;stroke-width:0.5;" x1="651" x2="845" y1="1515.7031" y2="1515.7031"/><line style="stroke:#181818;stroke-width:0.5;" x1="651" x2="845" y1="1523.7031" y2="1523.7031"/><text fill="#000000" font-family="sans-serif" font-size="14" lengthAdjust="spacing" textLength="184" x="656" y="1542.2363">+execute(id) -&gt; CountryEntity</text></g><!--class FindAllCountriesUseCase--><g id="elem_FindAllCountriesUseCase"><rect codeLine="43" fill="#E6F0FF" filter="url(#f1l8xrypxnbvxw)" height="76.3125" id="FindAllCountriesUseCase" rx="2.5" ry="2.5" style="stroke:#181818;stroke-width:0.5;" width="193" x="651.5" y="1584"/><ellipse cx="666.5" cy="1605.3516" fill="#ADD1B2" rx="11" ry="11" style="stroke:#181818;stroke-width:1.0;"/><path d="M669.2656,1601.2266 Q669.4219,1601.0078 669.6094,1600.8984 Q669.7969,1600.7891 670.0156,1600.7891 Q670.3906,1600.7891 670.625,1601.0547 Q670.8594,1601.3047 670.8594,1601.9141 L670.8594,1603.3672 Q670.8594,1603.9766 670.625,1604.2422 Q670.3906,1604.5078 670.0156,1604.5078 Q669.6719,1604.5078 669.4688,1604.3047 Q669.2656,1604.1172 669.1563,1603.6016 Q669.1094,1603.2422 668.9219,1603.0547 Q668.5938,1602.6797 667.9844,1602.4609 Q667.375,1602.2422 666.75,1602.2422 Q665.9844,1602.2422 665.3438,1602.5703 Q664.7188,1602.8984 664.2188,1603.6484 Q663.7344,1604.3984 663.7344,1605.4297 L663.7344,1606.5234 Q663.7344,1607.7578 664.625,1608.5859 Q665.5156,1609.3984 667.1094,1609.3984 Q668.0469,1609.3984 668.7031,1609.1484 Q669.0938,1608.9922 669.5156,1608.5547 Q669.7813,1608.2891 669.9219,1608.2109 Q670.0781,1608.1328 670.2813,1608.1328 Q670.6094,1608.1328 670.8594,1608.3984 Q671.125,1608.6484 671.125,1608.9922 Q671.125,1609.3359 670.7813,1609.7422 Q670.2813,1610.3203 669.4844,1610.6484 Q668.4063,1611.1016 667.1094,1611.1016 Q665.5938,1611.1016 664.3906,1610.4766 Q663.4063,1609.9766 662.7188,1608.9141 Q662.0313,1607.8359 662.0313,1606.5547 L662.0313,1605.3984 Q662.0313,1604.0703 662.6406,1602.9297 Q663.2656,1601.7734 664.3594,1601.1641 Q665.4531,1600.5391 666.6875,1600.5391 Q667.4219,1600.5391 668.0625,1600.7109 Q668.7188,1600.8672 669.2656,1601.2266 Z " fill="#000000"/><text fill="#000000" font-family="sans-serif" font-size="12" font-style="italic" lengthAdjust="spacing" textLength="60" x="731" y="1601.457">&#171;usecase&#187;</text><text fill="#000000" font-family="sans-serif" font-size="14" lengthAdjust="spacing" textLength="161" x="680.5" y="1618.627">FindAllCountriesUseCase</text><line style="stroke:#181818;stroke-width:0.5;" x1="652.5" x2="843.5" y1="1626.7031" y2="1626.7031"/><line style="stroke:#181818;stroke-width:0.5;" x1="652.5" x2="843.5" y1="1634.7031" y2="1634.7031"/><text fill="#000000" font-family="sans-serif" font-size="14" lengthAdjust="spacing" textLength="181" x="657.5" y="1653.2363">+execute() -&gt; CountryEntity[]</text></g><!--class FindCountryByIdUseCase--><g id="elem_FindCountryByIdUseCase"><rect codeLine="46" fill="#E6F0FF" filter="url(#f1l8xrypxnbvxw)" height="76.3125" id="FindCountryByIdUseCase" rx="2.5" ry="2.5" style="stroke:#181818;stroke-width:0.5;" width="196" x="650" y="1140"/><ellipse cx="665.9" cy="1161.3516" fill="#ADD1B2" rx="11" ry="11" style="stroke:#181818;stroke-width:1.0;"/><path d="M668.6656,1157.2266 Q668.8219,1157.0078 669.0094,1156.8984 Q669.1969,1156.7891 669.4156,1156.7891 Q669.7906,1156.7891 670.025,1157.0547 Q670.2594,1157.3047 670.2594,1157.9141 L670.2594,1159.3672 Q670.2594,1159.9766 670.025,1160.2422 Q669.7906,1160.5078 669.4156,1160.5078 Q669.0719,1160.5078 668.8688,1160.3047 Q668.6656,1160.1172 668.5563,1159.6016 Q668.5094,1159.2422 668.3219,1159.0547 Q667.9938,1158.6797 667.3844,1158.4609 Q666.775,1158.2422 666.15,1158.2422 Q665.3844,1158.2422 664.7438,1158.5703 Q664.1188,1158.8984 663.6188,1159.6484 Q663.1344,1160.3984 663.1344,1161.4297 L663.1344,1162.5234 Q663.1344,1163.7578 664.025,1164.5859 Q664.9156,1165.3984 666.5094,1165.3984 Q667.4469,1165.3984 668.1031,1165.1484 Q668.4938,1164.9922 668.9156,1164.5547 Q669.1813,1164.2891 669.3219,1164.2109 Q669.4781,1164.1328 669.6813,1164.1328 Q670.0094,1164.1328 670.2594,1164.3984 Q670.525,1164.6484 670.525,1164.9922 Q670.525,1165.3359 670.1813,1165.7422 Q669.6813,1166.3203 668.8844,1166.6484 Q667.8063,1167.1016 666.5094,1167.1016 Q664.9938,1167.1016 663.7906,1166.4766 Q662.8063,1165.9766 662.1188,1164.9141 Q661.4313,1163.8359 661.4313,1162.5547 L661.4313,1161.3984 Q661.4313,1160.0703 662.0406,1158.9297 Q662.6656,1157.7734 663.7594,1157.1641 Q664.8531,1156.5391 666.0875,1156.5391 Q666.8219,1156.5391 667.4625,1156.7109 Q668.1188,1156.8672 668.6656,1157.2266 Z " fill="#000000"/><text fill="#000000" font-family="sans-serif" font-size="12" font-style="italic" lengthAdjust="spacing" textLength="60" x="731.1" y="1157.457">&#171;usecase&#187;</text><text fill="#000000" font-family="sans-serif" font-size="14" lengthAdjust="spacing" textLength="162" x="680.1" y="1174.627">FindCountryByIdUseCase</text><line style="stroke:#181818;stroke-width:0.5;" x1="651" x2="845" y1="1182.7031" y2="1182.7031"/><line style="stroke:#181818;stroke-width:0.5;" x1="651" x2="845" y1="1190.7031" y2="1190.7031"/><text fill="#000000" font-family="sans-serif" font-size="14" lengthAdjust="spacing" textLength="184" x="656" y="1209.2363">+execute(id) -&gt; CountryEntity</text></g><!--class UpdateCountryUseCase--><g id="elem_UpdateCountryUseCase"><rect codeLine="49" fill="#E6F0FF" filter="url(#f1l8xrypxnbvxw)" height="76.3125" id="UpdateCountryUseCase" rx="2.5" ry="2.5" style="stroke:#181818;stroke-width:0.5;" width="254" x="621" y="1251"/><ellipse cx="667.75" cy="1272.3516" fill="#ADD1B2" rx="11" ry="11" style="stroke:#181818;stroke-width:1.0;"/><path d="M670.5156,1268.2266 Q670.6719,1268.0078 670.8594,1267.8984 Q671.0469,1267.7891 671.2656,1267.7891 Q671.6406,1267.7891 671.875,1268.0547 Q672.1094,1268.3047 672.1094,1268.9141 L672.1094,1270.3672 Q672.1094,1270.9766 671.875,1271.2422 Q671.6406,1271.5078 671.2656,1271.5078 Q670.9219,1271.5078 670.7188,1271.3047 Q670.5156,1271.1172 670.4063,1270.6016 Q670.3594,1270.2422 670.1719,1270.0547 Q669.8438,1269.6797 669.2344,1269.4609 Q668.625,1269.2422 668,1269.2422 Q667.2344,1269.2422 666.5938,1269.5703 Q665.9688,1269.8984 665.4688,1270.6484 Q664.9844,1271.3984 664.9844,1272.4297 L664.9844,1273.5234 Q664.9844,1274.7578 665.875,1275.5859 Q666.7656,1276.3984 668.3594,1276.3984 Q669.2969,1276.3984 669.9531,1276.1484 Q670.3438,1275.9922 670.7656,1275.5547 Q671.0313,1275.2891 671.1719,1275.2109 Q671.3281,1275.1328 671.5313,1275.1328 Q671.8594,1275.1328 672.1094,1275.3984 Q672.375,1275.6484 672.375,1275.9922 Q672.375,1276.3359 672.0313,1276.7422 Q671.5313,1277.3203 670.7344,1277.6484 Q669.6563,1278.1016 668.3594,1278.1016 Q666.8438,1278.1016 665.6406,1277.4766 Q664.6563,1276.9766 663.9688,1275.9141 Q663.2813,1274.8359 663.2813,1273.5547 L663.2813,1272.3984 Q663.2813,1271.0703 663.8906,1269.9297 Q664.5156,1268.7734 665.6094,1268.1641 Q666.7031,1267.5391 667.9375,1267.5391 Q668.6719,1267.5391 669.3125,1267.7109 Q669.9688,1267.8672 670.5156,1268.2266 Z " fill="#000000"/><text fill="#000000" font-family="sans-serif" font-size="12" font-style="italic" lengthAdjust="spacing" textLength="60" x="734.25" y="1268.457">&#171;usecase&#187;</text><text fill="#000000" font-family="sans-serif" font-size="14" lengthAdjust="spacing" textLength="152" x="688.25" y="1285.627">UpdateCountryUseCase</text><line style="stroke:#181818;stroke-width:0.5;" x1="622" x2="874" y1="1293.7031" y2="1293.7031"/><line style="stroke:#181818;stroke-width:0.5;" x1="622" x2="874" y1="1301.7031" y2="1301.7031"/><text fill="#000000" font-family="sans-serif" font-size="14" lengthAdjust="spacing" textLength="242" x="627" y="1320.2363">+execute(id, payload) -&gt; CountryEntity</text></g><!--class CountryEntity--><g id="elem_CountryEntity"><rect codeLine="57" fill="#E0FFE0" filter="url(#f1l8xrypxnbvxw)" height="111.5313" id="CountryEntity" rx="2.5" ry="2.5" style="stroke:#181818;stroke-width:0.5;" width="117" x="1045" y="1140"/><ellipse cx="1060" cy="1161.3516" fill="#ADD1B2" rx="11" ry="11" style="stroke:#181818;stroke-width:1.0;"/><path d="M1062.7656,1157.2266 Q1062.9219,1157.0078 1063.1094,1156.8984 Q1063.2969,1156.7891 1063.5156,1156.7891 Q1063.8906,1156.7891 1064.125,1157.0547 Q1064.3594,1157.3047 1064.3594,1157.9141 L1064.3594,1159.3672 Q1064.3594,1159.9766 1064.125,1160.2422 Q1063.8906,1160.5078 1063.5156,1160.5078 Q1063.1719,1160.5078 1062.9688,1160.3047 Q1062.7656,1160.1172 1062.6563,1159.6016 Q1062.6094,1159.2422 1062.4219,1159.0547 Q1062.0938,1158.6797 1061.4844,1158.4609 Q1060.875,1158.2422 1060.25,1158.2422 Q1059.4844,1158.2422 1058.8438,1158.5703 Q1058.2188,1158.8984 1057.7188,1159.6484 Q1057.2344,1160.3984 1057.2344,1161.4297 L1057.2344,1162.5234 Q1057.2344,1163.7578 1058.125,1164.5859 Q1059.0156,1165.3984 1060.6094,1165.3984 Q1061.5469,1165.3984 1062.2031,1165.1484 Q1062.5938,1164.9922 1063.0156,1164.5547 Q1063.2813,1164.2891 1063.4219,1164.2109 Q1063.5781,1164.1328 1063.7813,1164.1328 Q1064.1094,1164.1328 1064.3594,1164.3984 Q1064.625,1164.6484 1064.625,1164.9922 Q1064.625,1165.3359 1064.2813,1165.7422 Q1063.7813,1166.3203 1062.9844,1166.6484 Q1061.9063,1167.1016 1060.6094,1167.1016 Q1059.0938,1167.1016 1057.8906,1166.4766 Q1056.9063,1165.9766 1056.2188,1164.9141 Q1055.5313,1163.8359 1055.5313,1162.5547 L1055.5313,1161.3984 Q1055.5313,1160.0703 1056.1406,1158.9297 Q1056.7656,1157.7734 1057.8594,1157.1641 Q1058.9531,1156.5391 1060.1875,1156.5391 Q1060.9219,1156.5391 1061.5625,1156.7109 Q1062.2188,1156.8672 1062.7656,1157.2266 Z " fill="#000000"/><text fill="#000000" font-family="sans-serif" font-size="12" font-style="italic" lengthAdjust="spacing" textLength="43" x="1095" y="1157.457">&#171;entity&#187;</text><text fill="#000000" font-family="sans-serif" font-size="14" lengthAdjust="spacing" textLength="85" x="1074" y="1174.627">CountryEntity</text><line style="stroke:#181818;stroke-width:0.5;" x1="1046" x2="1161" y1="1182.7031" y2="1182.7031"/><text fill="#000000" font-family="sans-serif" font-size="14" lengthAdjust="spacing" textLength="62" x="1051" y="1201.2363">+id: string</text><text fill="#000000" font-family="sans-serif" font-size="14" lengthAdjust="spacing" textLength="86" x="1051" y="1218.8457">+name: string</text><text fill="#000000" font-family="sans-serif" font-size="14" lengthAdjust="spacing" textLength="82" x="1051" y="1236.4551">+code: string</text><line style="stroke:#181818;stroke-width:0.5;" x1="1046" x2="1161" y1="1243.5313" y2="1243.5313"/></g><!--class CountryRepository--><g id="elem_CountryRepository"><rect codeLine="65" fill="#FFF0D0" filter="url(#f1l8xrypxnbvxw)" height="146.75" id="CountryRepository" rx="2.5" ry="2.5" style="stroke:#181818;stroke-width:0.5;" width="249" x="979" y="1328.5"/><ellipse cx="1040.25" cy="1349.8516" fill="#ADD1B2" rx="11" ry="11" style="stroke:#181818;stroke-width:1.0;"/><path d="M1043.0156,1345.7266 Q1043.1719,1345.5078 1043.3594,1345.3984 Q1043.5469,1345.2891 1043.7656,1345.2891 Q1044.1406,1345.2891 1044.375,1345.5547 Q1044.6094,1345.8047 1044.6094,1346.4141 L1044.6094,1347.8672 Q1044.6094,1348.4766 1044.375,1348.7422 Q1044.1406,1349.0078 1043.7656,1349.0078 Q1043.4219,1349.0078 1043.2188,1348.8047 Q1043.0156,1348.6172 1042.9063,1348.1016 Q1042.8594,1347.7422 1042.6719,1347.5547 Q1042.3438,1347.1797 1041.7344,1346.9609 Q1041.125,1346.7422 1040.5,1346.7422 Q1039.7344,1346.7422 1039.0938,1347.0703 Q1038.4688,1347.3984 1037.9688,1348.1484 Q1037.4844,1348.8984 1037.4844,1349.9297 L1037.4844,1351.0234 Q1037.4844,1352.2578 1038.375,1353.0859 Q1039.2656,1353.8984 1040.8594,1353.8984 Q1041.7969,1353.8984 1042.4531,1353.6484 Q1042.8438,1353.4922 1043.2656,1353.0547 Q1043.5313,1352.7891 1043.6719,1352.7109 Q1043.8281,1352.6328 1044.0313,1352.6328 Q1044.3594,1352.6328 1044.6094,1352.8984 Q1044.875,1353.1484 1044.875,1353.4922 Q1044.875,1353.8359 1044.5313,1354.2422 Q1044.0313,1354.8203 1043.2344,1355.1484 Q1042.1563,1355.6016 1040.8594,1355.6016 Q1039.3438,1355.6016 1038.1406,1354.9766 Q1037.1563,1354.4766 1036.4688,1353.4141 Q1035.7813,1352.3359 1035.7813,1351.0547 L1035.7813,1349.8984 Q1035.7813,1348.5703 1036.3906,1347.4297 Q1037.0156,1346.2734 1038.1094,1345.6641 Q1039.2031,1345.0391 1040.4375,1345.0391 Q1041.1719,1345.0391 1041.8125,1345.2109 Q1042.4688,1345.3672 1043.0156,1345.7266 Z " fill="#000000"/><text fill="#000000" font-family="sans-serif" font-size="12" font-style="italic" lengthAdjust="spacing" textLength="68" x="1085.75" y="1345.957">&#171;repository&#187;</text><text fill="#000000" font-family="sans-serif" font-size="14" lengthAdjust="spacing" textLength="118" x="1060.75" y="1363.127">CountryRepository</text><line style="stroke:#181818;stroke-width:0.5;" x1="980" x2="1227" y1="1371.2031" y2="1371.2031"/><line style="stroke:#181818;stroke-width:0.5;" x1="980" x2="1227" y1="1379.2031" y2="1379.2031"/><text fill="#000000" font-family="sans-serif" font-size="14" lengthAdjust="spacing" textLength="214" x="985" y="1397.7363">+create(payload) -&gt; CountryEntity</text><text fill="#000000" font-family="sans-serif" font-size="14" lengthAdjust="spacing" textLength="174" x="985" y="1415.3457">+delete(id) -&gt; CountryEntity</text><text fill="#000000" font-family="sans-serif" font-size="14" lengthAdjust="spacing" textLength="170" x="985" y="1432.9551">+findAll() -&gt; CountryEntity[]</text><text fill="#000000" font-family="sans-serif" font-size="14" lengthAdjust="spacing" textLength="185" x="985" y="1450.5645">+findById(id) -&gt; CountryEntity</text><text fill="#000000" font-family="sans-serif" font-size="14" lengthAdjust="spacing" textLength="237" x="985" y="1468.1738">+update(id, payload) -&gt; CountryEntity</text></g><!--class CountryModel--><g id="elem_CountryModel"><rect codeLine="77" fill="#FFFDD0" filter="url(#f1l8xrypxnbvxw)" height="111.5313" id="CountryModel" rx="2.5" ry="2.5" style="stroke:#181818;stroke-width:0.5;" width="120" x="1043.5" y="766"/><ellipse cx="1058.5" cy="787.3516" fill="#ADD1B2" rx="11" ry="11" style="stroke:#181818;stroke-width:1.0;"/><path d="M1061.2656,783.2266 Q1061.4219,783.0078 1061.6094,782.8984 Q1061.7969,782.7891 1062.0156,782.7891 Q1062.3906,782.7891 1062.625,783.0547 Q1062.8594,783.3047 1062.8594,783.9141 L1062.8594,785.3672 Q1062.8594,785.9766 1062.625,786.2422 Q1062.3906,786.5078 1062.0156,786.5078 Q1061.6719,786.5078 1061.4688,786.3047 Q1061.2656,786.1172 1061.1563,785.6016 Q1061.1094,785.2422 1060.9219,785.0547 Q1060.5938,784.6797 1059.9844,784.4609 Q1059.375,784.2422 1058.75,784.2422 Q1057.9844,784.2422 1057.3438,784.5703 Q1056.7188,784.8984 1056.2188,785.6484 Q1055.7344,786.3984 1055.7344,787.4297 L1055.7344,788.5234 Q1055.7344,789.7578 1056.625,790.5859 Q1057.5156,791.3984 1059.1094,791.3984 Q1060.0469,791.3984 1060.7031,791.1484 Q1061.0938,790.9922 1061.5156,790.5547 Q1061.7813,790.2891 1061.9219,790.2109 Q1062.0781,790.1328 1062.2813,790.1328 Q1062.6094,790.1328 1062.8594,790.3984 Q1063.125,790.6484 1063.125,790.9922 Q1063.125,791.3359 1062.7813,791.7422 Q1062.2813,792.3203 1061.4844,792.6484 Q1060.4063,793.1016 1059.1094,793.1016 Q1057.5938,793.1016 1056.3906,792.4766 Q1055.4063,791.9766 1054.7188,790.9141 Q1054.0313,789.8359 1054.0313,788.5547 L1054.0313,787.3984 Q1054.0313,786.0703 1054.6406,784.9297 Q1055.2656,783.7734 1056.3594,783.1641 Q1057.4531,782.5391 1058.6875,782.5391 Q1059.4219,782.5391 1060.0625,782.7109 Q1060.7188,782.8672 1061.2656,783.2266 Z " fill="#000000"/><text fill="#000000" font-family="sans-serif" font-size="12" font-style="italic" lengthAdjust="spacing" textLength="49" x="1092" y="783.457">&#171;model&#187;</text><text fill="#000000" font-family="sans-serif" font-size="14" lengthAdjust="spacing" textLength="88" x="1072.5" y="800.627">CountryModel</text><line style="stroke:#181818;stroke-width:0.5;" x1="1044.5" x2="1162.5" y1="808.7031" y2="808.7031"/><text fill="#000000" font-family="sans-serif" font-size="14" lengthAdjust="spacing" textLength="62" x="1049.5" y="827.2363">+id: string</text><text fill="#000000" font-family="sans-serif" font-size="14" lengthAdjust="spacing" textLength="86" x="1049.5" y="844.8457">+name: string</text><text fill="#000000" font-family="sans-serif" font-size="14" lengthAdjust="spacing" textLength="82" x="1049.5" y="862.4551">+code: string</text><line style="stroke:#181818;stroke-width:0.5;" x1="1044.5" x2="1162.5" y1="869.5313" y2="869.5313"/></g><!--class CountryRepositoryInMemory--><g id="elem_CountryRepositoryInMemory"><rect codeLine="85" fill="#FFF0D0" filter="url(#f1l8xrypxnbvxw)" height="146.75" id="CountryRepositoryInMemory" rx="2.5" ry="2.5" style="stroke:#181818;stroke-width:0.5;" width="249" x="623.5" y="830.5"/><ellipse cx="655.6" cy="851.8516" fill="#ADD1B2" rx="11" ry="11" style="stroke:#181818;stroke-width:1.0;"/><path d="M658.3656,847.7266 Q658.5219,847.5078 658.7094,847.3984 Q658.8969,847.2891 659.1156,847.2891 Q659.4906,847.2891 659.725,847.5547 Q659.9594,847.8047 659.9594,848.4141 L659.9594,849.8672 Q659.9594,850.4766 659.725,850.7422 Q659.4906,851.0078 659.1156,851.0078 Q658.7719,851.0078 658.5688,850.8047 Q658.3656,850.6172 658.2563,850.1016 Q658.2094,849.7422 658.0219,849.5547 Q657.6938,849.1797 657.0844,848.9609 Q656.475,848.7422 655.85,848.7422 Q655.0844,848.7422 654.4438,849.0703 Q653.8188,849.3984 653.3188,850.1484 Q652.8344,850.8984 652.8344,851.9297 L652.8344,853.0234 Q652.8344,854.2578 653.725,855.0859 Q654.6156,855.8984 656.2094,855.8984 Q657.1469,855.8984 657.8031,855.6484 Q658.1938,855.4922 658.6156,855.0547 Q658.8813,854.7891 659.0219,854.7109 Q659.1781,854.6328 659.3813,854.6328 Q659.7094,854.6328 659.9594,854.8984 Q660.225,855.1484 660.225,855.4922 Q660.225,855.8359 659.8813,856.2422 Q659.3813,856.8203 658.5844,857.1484 Q657.5063,857.6016 656.2094,857.6016 Q654.6938,857.6016 653.4906,856.9766 Q652.5063,856.4766 651.8188,855.4141 Q651.1313,854.3359 651.1313,853.0547 L651.1313,851.8984 Q651.1313,850.5703 651.7406,849.4297 Q652.3656,848.2734 653.4594,847.6641 Q654.5531,847.0391 655.7875,847.0391 Q656.5219,847.0391 657.1625,847.2109 Q657.8188,847.3672 658.3656,847.7266 Z " fill="#000000"/><text fill="#000000" font-family="sans-serif" font-size="12" font-style="italic" lengthAdjust="spacing" textLength="68" x="728.9" y="847.957">&#171;repository&#187;</text><text fill="#000000" font-family="sans-serif" font-size="14" lengthAdjust="spacing" textLength="179" x="673.4" y="865.127">CountryRepositoryInMemory</text><line style="stroke:#181818;stroke-width:0.5;" x1="624.5" x2="871.5" y1="873.2031" y2="873.2031"/><line style="stroke:#181818;stroke-width:0.5;" x1="624.5" x2="871.5" y1="881.2031" y2="881.2031"/><text fill="#000000" font-family="sans-serif" font-size="14" lengthAdjust="spacing" textLength="214" x="629.5" y="899.7363">+create(payload) -&gt; CountryEntity</text><text fill="#000000" font-family="sans-serif" font-size="14" lengthAdjust="spacing" textLength="174" x="629.5" y="917.3457">+delete(id) -&gt; CountryEntity</text><text fill="#000000" font-family="sans-serif" font-size="14" lengthAdjust="spacing" textLength="170" x="629.5" y="934.9551">+findAll() -&gt; CountryEntity[]</text><text fill="#000000" font-family="sans-serif" font-size="14" lengthAdjust="spacing" textLength="185" x="629.5" y="952.5645">+findById(id) -&gt; CountryEntity</text><text fill="#000000" font-family="sans-serif" font-size="14" lengthAdjust="spacing" textLength="237" x="629.5" y="970.1738">+update(id, payload) -&gt; CountryEntity</text></g><!--class CountryRepositoryInPostgres--><g id="elem_CountryRepositoryInPostgres"><rect codeLine="93" fill="#FFF0D0" filter="url(#f1l8xrypxnbvxw)" height="146.75" id="CountryRepositoryInPostgres" rx="2.5" ry="2.5" style="stroke:#181818;stroke-width:0.5;" width="249" x="623.5" y="648.5"/><ellipse cx="652.9" cy="669.8516" fill="#ADD1B2" rx="11" ry="11" style="stroke:#181818;stroke-width:1.0;"/><path d="M655.6656,665.7266 Q655.8219,665.5078 656.0094,665.3984 Q656.1969,665.2891 656.4156,665.2891 Q656.7906,665.2891 657.025,665.5547 Q657.2594,665.8047 657.2594,666.4141 L657.2594,667.8672 Q657.2594,668.4766 657.025,668.7422 Q656.7906,669.0078 656.4156,669.0078 Q656.0719,669.0078 655.8688,668.8047 Q655.6656,668.6172 655.5563,668.1016 Q655.5094,667.7422 655.3219,667.5547 Q654.9938,667.1797 654.3844,666.9609 Q653.775,666.7422 653.15,666.7422 Q652.3844,666.7422 651.7438,667.0703 Q651.1188,667.3984 650.6188,668.1484 Q650.1344,668.8984 650.1344,669.9297 L650.1344,671.0234 Q650.1344,672.2578 651.025,673.0859 Q651.9156,673.8984 653.5094,673.8984 Q654.4469,673.8984 655.1031,673.6484 Q655.4938,673.4922 655.9156,673.0547 Q656.1813,672.7891 656.3219,672.7109 Q656.4781,672.6328 656.6813,672.6328 Q657.0094,672.6328 657.2594,672.8984 Q657.525,673.1484 657.525,673.4922 Q657.525,673.8359 657.1813,674.2422 Q656.6813,674.8203 655.8844,675.1484 Q654.8063,675.6016 653.5094,675.6016 Q651.9938,675.6016 650.7906,674.9766 Q649.8063,674.4766 649.1188,673.4141 Q648.4313,672.3359 648.4313,671.0547 L648.4313,669.8984 Q648.4313,668.5703 649.0406,667.4297 Q649.6656,666.2734 650.7594,665.6641 Q651.8531,665.0391 653.0875,665.0391 Q653.8219,665.0391 654.4625,665.2109 Q655.1188,665.3672 655.6656,665.7266 Z " fill="#000000"/><text fill="#000000" font-family="sans-serif" font-size="12" font-style="italic" lengthAdjust="spacing" textLength="68" x="728.6" y="665.957">&#171;repository&#187;</text><text fill="#000000" font-family="sans-serif" font-size="14" lengthAdjust="spacing" textLength="185" x="670.1" y="683.127">CountryRepositoryInPostgres</text><line style="stroke:#181818;stroke-width:0.5;" x1="624.5" x2="871.5" y1="691.2031" y2="691.2031"/><line style="stroke:#181818;stroke-width:0.5;" x1="624.5" x2="871.5" y1="699.2031" y2="699.2031"/><text fill="#000000" font-family="sans-serif" font-size="14" lengthAdjust="spacing" textLength="214" x="629.5" y="717.7363">+create(payload) -&gt; CountryEntity</text><text fill="#000000" font-family="sans-serif" font-size="14" lengthAdjust="spacing" textLength="174" x="629.5" y="735.3457">+delete(id) -&gt; CountryEntity</text><text fill="#000000" font-family="sans-serif" font-size="14" lengthAdjust="spacing" textLength="170" x="629.5" y="752.9551">+findAll() -&gt; CountryEntity[]</text><text fill="#000000" font-family="sans-serif" font-size="14" lengthAdjust="spacing" textLength="185" x="629.5" y="770.5645">+findById(id) -&gt; CountryEntity</text><text fill="#000000" font-family="sans-serif" font-size="14" lengthAdjust="spacing" textLength="237" x="629.5" y="788.1738">+update(id, payload) -&gt; CountryEntity</text></g><!--entity router--><g id="elem_router"><path d="M1074.5,107.5 L1074.5,140.1094 A2.5,2.5 0 0 0 1077,142.6094 L1130,142.6094 A2.5,2.5 0 0 0 1132.5,140.1094 L1132.5,115 L1122.5,105 L1077,105 A2.5,2.5 0 0 0 1074.5,107.5 " fill="#F1F1F1" filter="url(#f1l8xrypxnbvxw)" style="stroke:#181818;stroke-width:0.5;"/><path d="M1122.5,105 L1122.5,112.5 A2.5,2.5 0 0 0 1125,115 L1132.5,115 " fill="#F1F1F1" style="stroke:#181818;stroke-width:0.5;"/><text fill="#000000" font-family="sans-serif" font-size="14" lengthAdjust="spacing" textLength="38" x="1084.5" y="129.5332">router</text></g><!--class CreateCountryPayload--><g id="elem_CreateCountryPayload"><rect codeLine="106" fill="#FDF2FF" filter="url(#f1l8xrypxnbvxw)" height="93.9219" id="CreateCountryPayload" rx="2.5" ry="2.5" style="stroke:#181818;stroke-width:0.5;" width="176" x="1015.5" y="239"/><ellipse cx="1030.5" cy="260.3516" fill="#ADD1B2" rx="11" ry="11" style="stroke:#181818;stroke-width:1.0;"/><path d="M1033.2656,256.2266 Q1033.4219,256.0078 1033.6094,255.8984 Q1033.7969,255.7891 1034.0156,255.7891 Q1034.3906,255.7891 1034.625,256.0547 Q1034.8594,256.3047 1034.8594,256.9141 L1034.8594,258.3672 Q1034.8594,258.9766 1034.625,259.2422 Q1034.3906,259.5078 1034.0156,259.5078 Q1033.6719,259.5078 1033.4688,259.3047 Q1033.2656,259.1172 1033.1563,258.6016 Q1033.1094,258.2422 1032.9219,258.0547 Q1032.5938,257.6797 1031.9844,257.4609 Q1031.375,257.2422 1030.75,257.2422 Q1029.9844,257.2422 1029.3438,257.5703 Q1028.7188,257.8984 1028.2188,258.6484 Q1027.7344,259.3984 1027.7344,260.4297 L1027.7344,261.5234 Q1027.7344,262.7578 1028.625,263.5859 Q1029.5156,264.3984 1031.1094,264.3984 Q1032.0469,264.3984 1032.7031,264.1484 Q1033.0938,263.9922 1033.5156,263.5547 Q1033.7813,263.2891 1033.9219,263.2109 Q1034.0781,263.1328 1034.2813,263.1328 Q1034.6094,263.1328 1034.8594,263.3984 Q1035.125,263.6484 1035.125,263.9922 Q1035.125,264.3359 1034.7813,264.7422 Q1034.2813,265.3203 1033.4844,265.6484 Q1032.4063,266.1016 1031.1094,266.1016 Q1029.5938,266.1016 1028.3906,265.4766 Q1027.4063,264.9766 1026.7188,263.9141 Q1026.0313,262.8359 1026.0313,261.5547 L1026.0313,260.3984 Q1026.0313,259.0703 1026.6406,257.9297 Q1027.2656,256.7734 1028.3594,256.1641 Q1029.4531,255.5391 1030.6875,255.5391 Q1031.4219,255.5391 1032.0625,255.7109 Q1032.7188,255.8672 1033.2656,256.2266 Z " fill="#000000"/><text fill="#000000" font-family="sans-serif" font-size="12" font-style="italic" lengthAdjust="spacing" textLength="58" x="1087.5" y="256.457">&#171;payload&#187;</text><text fill="#000000" font-family="sans-serif" font-size="14" lengthAdjust="spacing" textLength="144" x="1044.5" y="273.627">CreateCountryPayload</text><line style="stroke:#181818;stroke-width:0.5;" x1="1016.5" x2="1190.5" y1="281.7031" y2="281.7031"/><text fill="#000000" font-family="sans-serif" font-size="14" lengthAdjust="spacing" textLength="86" x="1021.5" y="300.2363">+name: string</text><text fill="#000000" font-family="sans-serif" font-size="14" lengthAdjust="spacing" textLength="82" x="1021.5" y="317.8457">+code: string</text><line style="stroke:#181818;stroke-width:0.5;" x1="1016.5" x2="1190.5" y1="324.9219" y2="324.9219"/></g><!--class UpdateCountryPayload--><g id="elem_UpdateCountryPayload"><rect codeLine="110" fill="#FDF2FF" filter="url(#f1l8xrypxnbvxw)" height="93.9219" id="UpdateCountryPayload" rx="2.5" ry="2.5" style="stroke:#181818;stroke-width:0.5;" width="178" x="1014.5" y="368"/><ellipse cx="1029.5" cy="389.3516" fill="#ADD1B2" rx="11" ry="11" style="stroke:#181818;stroke-width:1.0;"/><path d="M1032.2656,385.2266 Q1032.4219,385.0078 1032.6094,384.8984 Q1032.7969,384.7891 1033.0156,384.7891 Q1033.3906,384.7891 1033.625,385.0547 Q1033.8594,385.3047 1033.8594,385.9141 L1033.8594,387.3672 Q1033.8594,387.9766 1033.625,388.2422 Q1033.3906,388.5078 1033.0156,388.5078 Q1032.6719,388.5078 1032.4688,388.3047 Q1032.2656,388.1172 1032.1563,387.6016 Q1032.1094,387.2422 1031.9219,387.0547 Q1031.5938,386.6797 1030.9844,386.4609 Q1030.375,386.2422 1029.75,386.2422 Q1028.9844,386.2422 1028.3438,386.5703 Q1027.7188,386.8984 1027.2188,387.6484 Q1026.7344,388.3984 1026.7344,389.4297 L1026.7344,390.5234 Q1026.7344,391.7578 1027.625,392.5859 Q1028.5156,393.3984 1030.1094,393.3984 Q1031.0469,393.3984 1031.7031,393.1484 Q1032.0938,392.9922 1032.5156,392.5547 Q1032.7813,392.2891 1032.9219,392.2109 Q1033.0781,392.1328 1033.2813,392.1328 Q1033.6094,392.1328 1033.8594,392.3984 Q1034.125,392.6484 1034.125,392.9922 Q1034.125,393.3359 1033.7813,393.7422 Q1033.2813,394.3203 1032.4844,394.6484 Q1031.4063,395.1016 1030.1094,395.1016 Q1028.5938,395.1016 1027.3906,394.4766 Q1026.4063,393.9766 1025.7188,392.9141 Q1025.0313,391.8359 1025.0313,390.5547 L1025.0313,389.3984 Q1025.0313,388.0703 1025.6406,386.9297 Q1026.2656,385.7734 1027.3594,385.1641 Q1028.4531,384.5391 1029.6875,384.5391 Q1030.4219,384.5391 1031.0625,384.7109 Q1031.7188,384.8672 1032.2656,385.2266 Z " fill="#000000"/><text fill="#000000" font-family="sans-serif" font-size="12" font-style="italic" lengthAdjust="spacing" textLength="58" x="1087.5" y="385.457">&#171;payload&#187;</text><text fill="#000000" font-family="sans-serif" font-size="14" lengthAdjust="spacing" textLength="146" x="1043.5" y="402.627">UpdateCountryPayload</text><line style="stroke:#181818;stroke-width:0.5;" x1="1015.5" x2="1191.5" y1="410.7031" y2="410.7031"/><text fill="#000000" font-family="sans-serif" font-size="14" lengthAdjust="spacing" textLength="86" x="1020.5" y="429.2363">+name: string</text><text fill="#000000" font-family="sans-serif" font-size="14" lengthAdjust="spacing" textLength="82" x="1020.5" y="446.8457">+code: string</text><line style="stroke:#181818;stroke-width:0.5;" x1="1015.5" x2="1191.5" y1="453.9219" y2="453.9219"/></g><!--class BaseEntity--><g id="elem_BaseEntity"><rect codeLine="123" fill="#E0FFE0" filter="url(#f1l8xrypxnbvxw)" height="252.4063" id="BaseEntity" rx="2.5" ry="2.5" style="stroke:#181818;stroke-width:0.5;" width="191" x="186.5" y="2110"/><ellipse cx="244.25" cy="2131.3516" fill="#ADD1B2" rx="11" ry="11" style="stroke:#181818;stroke-width:1.0;"/><path d="M247.0156,2127.2266 Q247.1719,2127.0078 247.3594,2126.8984 Q247.5469,2126.7891 247.7656,2126.7891 Q248.1406,2126.7891 248.375,2127.0547 Q248.6094,2127.3047 248.6094,2127.9141 L248.6094,2129.3672 Q248.6094,2129.9766 248.375,2130.2422 Q248.1406,2130.5078 247.7656,2130.5078 Q247.4219,2130.5078 247.2188,2130.3047 Q247.0156,2130.1172 246.9063,2129.6016 Q246.8594,2129.2422 246.6719,2129.0547 Q246.3438,2128.6797 245.7344,2128.4609 Q245.125,2128.2422 244.5,2128.2422 Q243.7344,2128.2422 243.0938,2128.5703 Q242.4688,2128.8984 241.9688,2129.6484 Q241.4844,2130.3984 241.4844,2131.4297 L241.4844,2132.5234 Q241.4844,2133.7578 242.375,2134.5859 Q243.2656,2135.3984 244.8594,2135.3984 Q245.7969,2135.3984 246.4531,2135.1484 Q246.8438,2134.9922 247.2656,2134.5547 Q247.5313,2134.2891 247.6719,2134.2109 Q247.8281,2134.1328 248.0313,2134.1328 Q248.3594,2134.1328 248.6094,2134.3984 Q248.875,2134.6484 248.875,2134.9922 Q248.875,2135.3359 248.5313,2135.7422 Q248.0313,2136.3203 247.2344,2136.6484 Q246.1563,2137.1016 244.8594,2137.1016 Q243.3438,2137.1016 242.1406,2136.4766 Q241.1563,2135.9766 240.4688,2134.9141 Q239.7813,2133.8359 239.7813,2132.5547 L239.7813,2131.3984 Q239.7813,2130.0703 240.3906,2128.9297 Q241.0156,2127.7734 242.1094,2127.1641 Q243.2031,2126.5391 244.4375,2126.5391 Q245.1719,2126.5391 245.8125,2126.7109 Q246.4688,2126.8672 247.0156,2127.2266 Z " fill="#000000"/><text fill="#000000" font-family="sans-serif" font-size="12" font-style="italic" lengthAdjust="spacing" textLength="43" x="276.75" y="2127.457">&#171;entity&#187;</text><text fill="#000000" font-family="sans-serif" font-size="14" lengthAdjust="spacing" textLength="67" x="264.75" y="2144.627">BaseEntity</text><line style="stroke:#181818;stroke-width:0.5;" x1="187.5" x2="376.5" y1="2152.7031" y2="2152.7031"/><text fill="#000000" font-family="sans-serif" font-size="14" lengthAdjust="spacing" textLength="62" x="192.5" y="2171.2363">+id: string</text><text fill="#000000" font-family="sans-serif" font-size="14" lengthAdjust="spacing" textLength="138" x="192.5" y="2188.8457">+created_at: datetime</text><text fill="#000000" font-family="sans-serif" font-size="14" lengthAdjust="spacing" textLength="122" x="192.5" y="2206.4551">+created_by: string</text><text fill="#000000" font-family="sans-serif" font-size="14" lengthAdjust="spacing" textLength="142" x="192.5" y="2224.0645">+updated_at: datetime</text><text fill="#000000" font-family="sans-serif" font-size="14" lengthAdjust="spacing" textLength="126" x="192.5" y="2241.6738">+updated_by: string</text><text fill="#000000" font-family="sans-serif" font-size="14" lengthAdjust="spacing" textLength="137" x="192.5" y="2259.2832">+deleted_at: datetime</text><text fill="#000000" font-family="sans-serif" font-size="14" lengthAdjust="spacing" textLength="121" x="192.5" y="2276.8926">+deleted_by: string</text><text fill="#000000" font-family="sans-serif" font-size="14" lengthAdjust="spacing" textLength="132" x="192.5" y="2294.502">+is_deleted: boolean</text><line style="stroke:#181818;stroke-width:0.5;" x1="187.5" x2="376.5" y1="2301.5781" y2="2301.5781"/><text fill="#000000" font-family="sans-serif" font-size="14" lengthAdjust="spacing" textLength="151" x="192.5" y="2320.1113">+delete(deleted_by: str)</text><text fill="#000000" font-family="sans-serif" font-size="14" lengthAdjust="spacing" textLength="179" x="192.5" y="2337.7207">+reactivate(updated_by: str)</text><text fill="#000000" font-family="sans-serif" font-size="14" lengthAdjust="spacing" textLength="161" x="192.5" y="2355.3301">+update(updated_by: str)</text></g><!--class BaseRepository--><g id="elem_BaseRepository"><rect codeLine="138" fill="#FFF0D0" filter="url(#f1l8xrypxnbvxw)" height="76.3125" id="BaseRepository" rx="2.5" ry="2.5" style="stroke:#181818;stroke-width:0.5;" width="422" x="71" y="2438"/><ellipse cx="227.75" cy="2459.3516" fill="#ADD1B2" rx="11" ry="11" style="stroke:#181818;stroke-width:1.0;"/><path d="M230.5156,2455.2266 Q230.6719,2455.0078 230.8594,2454.8984 Q231.0469,2454.7891 231.2656,2454.7891 Q231.6406,2454.7891 231.875,2455.0547 Q232.1094,2455.3047 232.1094,2455.9141 L232.1094,2457.3672 Q232.1094,2457.9766 231.875,2458.2422 Q231.6406,2458.5078 231.2656,2458.5078 Q230.9219,2458.5078 230.7188,2458.3047 Q230.5156,2458.1172 230.4063,2457.6016 Q230.3594,2457.2422 230.1719,2457.0547 Q229.8438,2456.6797 229.2344,2456.4609 Q228.625,2456.2422 228,2456.2422 Q227.2344,2456.2422 226.5938,2456.5703 Q225.9688,2456.8984 225.4688,2457.6484 Q224.9844,2458.3984 224.9844,2459.4297 L224.9844,2460.5234 Q224.9844,2461.7578 225.875,2462.5859 Q226.7656,2463.3984 228.3594,2463.3984 Q229.2969,2463.3984 229.9531,2463.1484 Q230.3438,2462.9922 230.7656,2462.5547 Q231.0313,2462.2891 231.1719,2462.2109 Q231.3281,2462.1328 231.5313,2462.1328 Q231.8594,2462.1328 232.1094,2462.3984 Q232.375,2462.6484 232.375,2462.9922 Q232.375,2463.3359 232.0313,2463.7422 Q231.5313,2464.3203 230.7344,2464.6484 Q229.6563,2465.1016 228.3594,2465.1016 Q226.8438,2465.1016 225.6406,2464.4766 Q224.6563,2463.9766 223.9688,2462.9141 Q223.2813,2461.8359 223.2813,2460.5547 L223.2813,2459.3984 Q223.2813,2458.0703 223.8906,2456.9297 Q224.5156,2455.7734 225.6094,2455.1641 Q226.7031,2454.5391 227.9375,2454.5391 Q228.6719,2454.5391 229.3125,2454.7109 Q229.9688,2454.8672 230.5156,2455.2266 Z " fill="#000000"/><text fill="#000000" font-family="sans-serif" font-size="12" font-style="italic" lengthAdjust="spacing" textLength="68" x="264.25" y="2455.457">&#171;repository&#187;</text><text fill="#000000" font-family="sans-serif" font-size="14" lengthAdjust="spacing" textLength="100" x="248.25" y="2472.627">BaseRepository</text><line style="stroke:#181818;stroke-width:0.5;" x1="72" x2="492" y1="2480.7031" y2="2480.7031"/><line style="stroke:#181818;stroke-width:0.5;" x1="72" x2="492" y1="2488.7031" y2="2488.7031"/><text fill="#000000" font-family="sans-serif" font-size="14" font-style="italic" lengthAdjust="spacing" textLength="410" x="77" y="2507.2363">create(base: BaseEntity | BaseModel) -&gt; BaseEntity | BaseModel</text></g><!--class BaseModel--><g id="elem_BaseModel"><rect codeLine="146" fill="#FFFDD0" filter="url(#f1l8xrypxnbvxw)" height="252.4063" id="BaseModel" rx="2.5" ry="2.5" style="stroke:#181818;stroke-width:0.5;" width="191" x="186.5" y="2658"/><ellipse cx="242.75" cy="2679.3516" fill="#ADD1B2" rx="11" ry="11" style="stroke:#181818;stroke-width:1.0;"/><path d="M245.5156,2675.2266 Q245.6719,2675.0078 245.8594,2674.8984 Q246.0469,2674.7891 246.2656,2674.7891 Q246.6406,2674.7891 246.875,2675.0547 Q247.1094,2675.3047 247.1094,2675.9141 L247.1094,2677.3672 Q247.1094,2677.9766 246.875,2678.2422 Q246.6406,2678.5078 246.2656,2678.5078 Q245.9219,2678.5078 245.7188,2678.3047 Q245.5156,2678.1172 245.4063,2677.6016 Q245.3594,2677.2422 245.1719,2677.0547 Q244.8438,2676.6797 244.2344,2676.4609 Q243.625,2676.2422 243,2676.2422 Q242.2344,2676.2422 241.5938,2676.5703 Q240.9688,2676.8984 240.4688,2677.6484 Q239.9844,2678.3984 239.9844,2679.4297 L239.9844,2680.5234 Q239.9844,2681.7578 240.875,2682.5859 Q241.7656,2683.3984 243.3594,2683.3984 Q244.2969,2683.3984 244.9531,2683.1484 Q245.3438,2682.9922 245.7656,2682.5547 Q246.0313,2682.2891 246.1719,2682.2109 Q246.3281,2682.1328 246.5313,2682.1328 Q246.8594,2682.1328 247.1094,2682.3984 Q247.375,2682.6484 247.375,2682.9922 Q247.375,2683.3359 247.0313,2683.7422 Q246.5313,2684.3203 245.7344,2684.6484 Q244.6563,2685.1016 243.3594,2685.1016 Q241.8438,2685.1016 240.6406,2684.4766 Q239.6563,2683.9766 238.9688,2682.9141 Q238.2813,2681.8359 238.2813,2680.5547 L238.2813,2679.3984 Q238.2813,2678.0703 238.8906,2676.9297 Q239.5156,2675.7734 240.6094,2675.1641 Q241.7031,2674.5391 242.9375,2674.5391 Q243.6719,2674.5391 244.3125,2674.7109 Q244.9688,2674.8672 245.5156,2675.2266 Z " fill="#000000"/><text fill="#000000" font-family="sans-serif" font-size="12" font-style="italic" lengthAdjust="spacing" textLength="49" x="273.75" y="2675.457">&#171;model&#187;</text><text fill="#000000" font-family="sans-serif" font-size="14" lengthAdjust="spacing" textLength="70" x="263.25" y="2692.627">BaseModel</text><line style="stroke:#181818;stroke-width:0.5;" x1="187.5" x2="376.5" y1="2700.7031" y2="2700.7031"/><text fill="#000000" font-family="sans-serif" font-size="14" lengthAdjust="spacing" textLength="62" x="192.5" y="2719.2363">+id: string</text><text fill="#000000" font-family="sans-serif" font-size="14" lengthAdjust="spacing" textLength="138" x="192.5" y="2736.8457">+created_at: datetime</text><text fill="#000000" font-family="sans-serif" font-size="14" lengthAdjust="spacing" textLength="122" x="192.5" y="2754.4551">+created_by: string</text><text fill="#000000" font-family="sans-serif" font-size="14" lengthAdjust="spacing" textLength="142" x="192.5" y="2772.0645">+updated_at: datetime</text><text fill="#000000" font-family="sans-serif" font-size="14" lengthAdjust="spacing" textLength="126" x="192.5" y="2789.6738">+updated_by: string</text><text fill="#000000" font-family="sans-serif" font-size="14" lengthAdjust="spacing" textLength="137" x="192.5" y="2807.2832">+deleted_at: datetime</text><text fill="#000000" font-family="sans-serif" font-size="14" lengthAdjust="spacing" textLength="121" x="192.5" y="2824.8926">+deleted_by: string</text><text fill="#000000" font-family="sans-serif" font-size="14" lengthAdjust="spacing" textLength="132" x="192.5" y="2842.502">+is_deleted: boolean</text><line style="stroke:#181818;stroke-width:0.5;" x1="187.5" x2="376.5" y1="2849.5781" y2="2849.5781"/><text fill="#000000" font-family="sans-serif" font-size="14" lengthAdjust="spacing" textLength="151" x="192.5" y="2868.1113">+delete(deleted_by: str)</text><text fill="#000000" font-family="sans-serif" font-size="14" lengthAdjust="spacing" textLength="179" x="192.5" y="2885.7207">+reactivate(updated_by: str)</text><text fill="#000000" font-family="sans-serif" font-size="14" lengthAdjust="spacing" textLength="153" x="192.5" y="2903.3301">+update(update_by: str)</text></g><!--class BaseUseCase--><g id="elem_BaseUseCase"><rect codeLine="164" fill="#E6F0FF" filter="url(#f1l8xrypxnbvxw)" height="76.3125" id="BaseUseCase" rx="2.5" ry="2.5" style="stroke:#181818;stroke-width:0.5;" width="123" x="220.5" y="1890"/><ellipse cx="236.4" cy="1911.3516" fill="#ADD1B2" rx="11" ry="11" style="stroke:#181818;stroke-width:1.0;"/><path d="M239.1656,1907.2266 Q239.3219,1907.0078 239.5094,1906.8984 Q239.6969,1906.7891 239.9156,1906.7891 Q240.2906,1906.7891 240.525,1907.0547 Q240.7594,1907.3047 240.7594,1907.9141 L240.7594,1909.3672 Q240.7594,1909.9766 240.525,1910.2422 Q240.2906,1910.5078 239.9156,1910.5078 Q239.5719,1910.5078 239.3688,1910.3047 Q239.1656,1910.1172 239.0563,1909.6016 Q239.0094,1909.2422 238.8219,1909.0547 Q238.4938,1908.6797 237.8844,1908.4609 Q237.275,1908.2422 236.65,1908.2422 Q235.8844,1908.2422 235.2438,1908.5703 Q234.6188,1908.8984 234.1188,1909.6484 Q233.6344,1910.3984 233.6344,1911.4297 L233.6344,1912.5234 Q233.6344,1913.7578 234.525,1914.5859 Q235.4156,1915.3984 237.0094,1915.3984 Q237.9469,1915.3984 238.6031,1915.1484 Q238.9938,1914.9922 239.4156,1914.5547 Q239.6813,1914.2891 239.8219,1914.2109 Q239.9781,1914.1328 240.1813,1914.1328 Q240.5094,1914.1328 240.7594,1914.3984 Q241.025,1914.6484 241.025,1914.9922 Q241.025,1915.3359 240.6813,1915.7422 Q240.1813,1916.3203 239.3844,1916.6484 Q238.3063,1917.1016 237.0094,1917.1016 Q235.4938,1917.1016 234.2906,1916.4766 Q233.3063,1915.9766 232.6188,1914.9141 Q231.9313,1913.8359 231.9313,1912.5547 L231.9313,1911.3984 Q231.9313,1910.0703 232.5406,1908.9297 Q233.1656,1907.7734 234.2594,1907.1641 Q235.3531,1906.5391 236.5875,1906.5391 Q237.3219,1906.5391 237.9625,1906.7109 Q238.6188,1906.8672 239.1656,1907.2266 Z " fill="#000000"/><text fill="#000000" font-family="sans-serif" font-size="12" font-style="italic" lengthAdjust="spacing" textLength="60" x="265.1" y="1907.457">&#171;usecase&#187;</text><text fill="#000000" font-family="sans-serif" font-size="14" lengthAdjust="spacing" textLength="89" x="250.6" y="1924.627">BaseUseCase</text><line style="stroke:#181818;stroke-width:0.5;" x1="221.5" x2="342.5" y1="1932.7031" y2="1932.7031"/><line style="stroke:#181818;stroke-width:0.5;" x1="221.5" x2="342.5" y1="1940.7031" y2="1940.7031"/><text fill="#000000" font-family="sans-serif" font-size="14" lengthAdjust="spacing" textLength="111" x="226.5" y="1959.2363">+execute() -&gt; any</text></g><!--reverse link BaseRepository to CountryRepository--><g id="link_BaseRepository_CountryRepository"><path codeLine="172" d="M465,2419.95 C465,2234.2 465,1449.67 465,1449.67 C465,1449.67 793.06,1449.67 978.88,1449.67 " fill="none" id="BaseRepository-backto-CountryRepository" style="stroke:#2F4F4F;stroke-width:1.0;"/><polygon fill="none" points="465,2437.95,471,2419.95,459,2419.95,465,2437.95" style="stroke:#2F4F4F;stroke-width:1.0;"/></g><!--reverse link BaseUseCase to AddCountryUseCase--><g id="link_BaseUseCase_AddCountryUseCase"><path codeLine="173" d="M361.71,1947 C464.36,1947 641,1947 641,1947 C641,1947 641,1562.08 641,1438.03 " fill="none" id="BaseUseCase-backto-AddCountryUseCase" style="stroke:#6495ED;stroke-width:1.0;"/><polygon fill="none" points="343.71,1947,361.71,1953,361.71,1941,343.71,1947" style="stroke:#6495ED;stroke-width:1.0;"/></g><!--reverse link BaseUseCase to DeleteCountryUseCase--><g id="link_BaseUseCase_DeleteCountryUseCase"><path codeLine="174" d="M262,1871.96 C262,1771.31 262,1523.67 262,1523.67 C262,1523.67 507.98,1523.67 649.94,1523.67 " fill="none" id="BaseUseCase-backto-DeleteCountryUseCase" style="stroke:#6495ED;stroke-width:1.0;"/><polygon fill="none" points="262,1889.96,268,1871.96,256,1871.96,262,1889.96" style="stroke:#6495ED;stroke-width:1.0;"/></g><!--reverse link BaseUseCase to FindAllCountriesUseCase--><g id="link_BaseUseCase_FindAllCountriesUseCase"><path codeLine="175" d="M303,1871.95 C303,1792.58 303,1634.67 303,1634.67 C303,1634.67 520.56,1634.67 651.44,1634.67 " fill="none" id="BaseUseCase-backto-FindAllCountriesUseCase" style="stroke:#6495ED;stroke-width:1.0;"/><polygon fill="none" points="303,1889.95,309,1871.95,297,1871.95,303,1889.95" style="stroke:#6495ED;stroke-width:1.0;"/></g><!--reverse link BaseUseCase to FindCountryByIdUseCase--><g id="link_BaseUseCase_FindCountryByIdUseCase"><path codeLine="176" d="M361.52,1909 C393.51,1909 408,1909 408,1909 C408,1909 408,1190.67 408,1190.67 C408,1190.67 549.24,1190.67 649.66,1190.67 " fill="none" id="BaseUseCase-backto-FindCountryByIdUseCase" style="stroke:#6495ED;stroke-width:1.0;"/><polygon fill="none" points="343.52,1909,361.52,1915,361.52,1903,343.52,1909" style="stroke:#6495ED;stroke-width:1.0;"/></g><!--reverse link BaseUseCase to UpdateCountryUseCase--><g id="link_BaseUseCase_UpdateCountryUseCase"><path codeLine="177" d="M361.5,1928 C460.45,1928 626,1928 626,1928 C626,1928 626,1464.62 626,1327.06 " fill="none" id="BaseUseCase-backto-UpdateCountryUseCase" style="stroke:#6495ED;stroke-width:1.0;"/><polygon fill="none" points="343.5,1928,361.5,1934,361.5,1922,343.5,1928" style="stroke:#6495ED;stroke-width:1.0;"/></g><!--reverse link BaseModel to CountryModel--><g id="link_BaseModel_CountryModel"><path codeLine="178" d="M395.7,2784 C579.3,2784 945,2784 945,2784 C945,2784 945,866.12 945,866.12 C945,866.12 998.33,866.12 1043.13,866.12 " fill="none" id="BaseModel-backto-CountryModel" style="stroke:#556B2F;stroke-width:1.0;"/><polygon fill="none" points="377.7,2784,395.7,2790,395.7,2778,377.7,2784" style="stroke:#556B2F;stroke-width:1.0;"/></g><!--reverse link BaseEntity to CountryEntity--><g id="link_BaseEntity_CountryEntity"><path codeLine="179" d="M395.78,2236 C427.1,2236 436,2236 436,2236 C436,2236 436,1233.5 436,1233.5 C436,1233.5 881.97,1233.5 1044.85,1233.5 " fill="none" id="BaseEntity-backto-CountryEntity" style="stroke:#556B2F;stroke-width:1.0;"/><polygon fill="none" points="377.78,2236,395.78,2242,395.78,2230,377.78,2236" style="stroke:#556B2F;stroke-width:1.0;"/></g><!--link CountryContainer to AddCountryUseCase--><g id="link_CountryContainer_AddCountryUseCase"><path codeLine="182" d="M378.56,1390.25 C451.6,1390.25 546.27,1390.25 624.08,1390.25 " fill="none" id="CountryContainer-to-AddCountryUseCase" style="stroke:#4169E1;stroke-width:1.0;"/><polygon fill="#4169E1" points="630.08,1390.25,621.08,1386.25,625.08,1390.25,621.08,1394.25,630.08,1390.25" style="stroke:#4169E1;stroke-width:1.0;"/></g><!--link CountryContainer to DeleteCountryUseCase--><g id="link_CountryContainer_DeleteCountryUseCase"><path codeLine="183" d="M367,1418.52 C367,1457.87 367,1498.33 367,1498.33 C367,1498.33 531,1498.33 643.88,1498.33 " fill="none" id="CountryContainer-to-DeleteCountryUseCase" style="stroke:#4169E1;stroke-width:1.0;"/><polygon fill="#4169E1" points="649.88,1498.33,640.88,1494.33,644.88,1498.33,640.88,1502.33,649.88,1498.33" style="stroke:#4169E1;stroke-width:1.0;"/></g><!--link CountryContainer to FindAllCountriesUseCase--><g id="link_CountryContainer_FindAllCountriesUseCase"><path codeLine="184" d="M355,1418.63 C355,1496.85 355,1609.33 355,1609.33 C355,1609.33 528.99,1609.33 645.36,1609.33 " fill="none" id="CountryContainer-to-FindAllCountriesUseCase" style="stroke:#4169E1;stroke-width:1.0;"/><polygon fill="#4169E1" points="651.36,1609.33,642.36,1605.33,646.36,1609.33,642.36,1613.33,651.36,1609.33" style="stroke:#4169E1;stroke-width:1.0;"/></g><!--link CountryContainer to FindCountryByIdUseCase--><g id="link_CountryContainer_FindCountryByIdUseCase"><path codeLine="185" d="M315,1271.4 C315,1221.79 315,1165.33 315,1165.33 C315,1165.33 515.99,1165.33 643.75,1165.33 " fill="none" id="CountryContainer-to-FindCountryByIdUseCase" style="stroke:#4169E1;stroke-width:1.0;"/><polygon fill="#4169E1" points="649.75,1165.33,640.75,1161.33,644.75,1165.33,640.75,1169.33,649.75,1165.33" style="stroke:#4169E1;stroke-width:1.0;"/></g><!--link CountryContainer to UpdateCountryUseCase--><g id="link_CountryContainer_UpdateCountryUseCase"><path codeLine="186" d="M378.56,1299.25 C448.67,1299.25 538.23,1299.25 614.6,1299.25 " fill="none" id="CountryContainer-to-UpdateCountryUseCase" style="stroke:#4169E1;stroke-width:1.0;"/><polygon fill="#4169E1" points="620.6,1299.25,611.6,1295.25,615.6,1299.25,611.6,1303.25,620.6,1299.25" style="stroke:#4169E1;stroke-width:1.0;"/></g><!--link UpdateCountryUseCase to CountryRepository--><g id="link_UpdateCountryUseCase_CountryRepository"><path codeLine="188" d="M871,1327.14 C871,1337.17 871,1345.25 871,1345.25 C871,1345.25 917.59,1345.25 972.74,1345.25 " fill="none" id="UpdateCountryUseCase-to-CountryRepository" style="stroke:#008080;stroke-width:1.0;"/><polygon fill="#008080" points="978.74,1345.25,969.74,1341.25,973.74,1345.25,969.74,1349.25,978.74,1345.25" style="stroke:#008080;stroke-width:1.0;"/></g><!--link FindCountryByIdUseCase to CountryRepository--><g id="link_FindCountryByIdUseCase_CountryRepository"><path codeLine="189" d="M846.31,1190.67 C912.59,1190.67 988,1190.67 988,1190.67 C988,1190.67 988,1261.39 988,1322.38 " fill="none" id="FindCountryByIdUseCase-to-CountryRepository" style="stroke:#008080;stroke-width:1.0;"/><polygon fill="#008080" points="988,1328.38,992,1319.38,988,1323.38,984,1319.38,988,1328.38" style="stroke:#008080;stroke-width:1.0;"/></g><!--link DeleteCountryUseCase to CountryRepository--><g id="link_DeleteCountryUseCase_CountryRepository"><path codeLine="190" d="M748,1472.85 C748,1466.18 748,1461.33 748,1461.33 C748,1461.33 870.23,1461.33 972.66,1461.33 " fill="none" id="DeleteCountryUseCase-to-CountryRepository" style="stroke:#008080;stroke-width:1.0;"/><polygon fill="#008080" points="978.66,1461.33,969.66,1457.33,973.66,1461.33,969.66,1465.33,978.66,1461.33" style="stroke:#008080;stroke-width:1.0;"/></g><!--link FindAllCountriesUseCase to CountryRepository--><g id="link_FindAllCountriesUseCase_CountryRepository"><path codeLine="191" d="M844.81,1622 C950.23,1622 1104,1622 1104,1622 C1104,1622 1104,1545.52 1104,1481.56 " fill="none" id="FindAllCountriesUseCase-to-CountryRepository" style="stroke:#008080;stroke-width:1.0;"/><polygon fill="#008080" points="1104,1475.56,1100,1484.56,1104,1480.56,1108,1484.56,1104,1475.56" style="stroke:#008080;stroke-width:1.0;"/></g><!--link AddCountryUseCase to CountryRepository--><g id="link_AddCountryUseCase_CountryRepository"><path codeLine="192" d="M865.88,1400 C902.16,1400 936.21,1400 972.92,1400 " fill="none" id="AddCountryUseCase-to-CountryRepository" style="stroke:#008080;stroke-width:1.0;"/><polygon fill="#008080" points="978.92,1400,969.92,1396,973.92,1400,969.92,1404,978.92,1400" style="stroke:#008080;stroke-width:1.0;"/></g><!--reverse link CountryRepository to CountryRepositoryInMemory--><g id="link_CountryRepository_CountryRepositoryInMemory"><path codeLine="194" d="M997,1310.42 C997,1177.21 997,927.75 997,927.75 C997,927.75 934.99,927.75 872.86,927.75 " fill="none" id="CountryRepository-backto-CountryRepositoryInMemory" style="stroke:#DAA520;stroke-width:1.0;"/><polygon fill="none" points="997,1328.42,1003,1310.42,991,1310.42,997,1328.42" style="stroke:#DAA520;stroke-width:1.0;"/></g><!--reverse link CountryRepository to CountryRepositoryInPostgres--><g id="link_CountryRepository_CountryRepositoryInPostgres"><path codeLine="195" d="M1006,1310.27 C1006,1146.67 1006,785.67 1006,785.67 C1006,785.67 938.7,785.67 872.84,785.67 " fill="none" id="CountryRepository-backto-CountryRepositoryInPostgres" style="stroke:#DAA520;stroke-width:1.0;"/><polygon fill="none" points="1006,1328.27,1012,1310.27,1000,1310.27,1006,1328.27" style="stroke:#DAA520;stroke-width:1.0;"/></g><!--link CountryRepositoryInMemory to CountryEntity--><g id="link_CountryRepositoryInMemory_CountryEntity"><path codeLine="197" d="M860,977.84 C860,1055.12 860,1165.33 860,1165.33 C860,1165.33 966.81,1165.33 1038.87,1165.33 " fill="none" id="CountryRepositoryInMemory-to-CountryEntity" style="stroke:#808080;stroke-width:1.0;"/><polygon fill="#808080" points="1044.87,1165.33,1035.87,1161.33,1039.87,1165.33,1035.87,1169.33,1044.87,1165.33" style="stroke:#808080;stroke-width:1.0;"/></g><!--link CountryRepositoryInPostgres to CountryModel--><g id="link_CountryRepositoryInPostgres_CountryModel"><path codeLine="198" d="M872.84,775.83 C930.66,775.83 990.69,775.83 1037.25,775.83 " fill="none" id="CountryRepositoryInPostgres-to-CountryModel" style="stroke:#808080;stroke-width:1.0;"/><polygon fill="#808080" points="1043.25,775.83,1034.25,771.83,1038.25,775.83,1034.25,779.83,1043.25,775.83" style="stroke:#808080;stroke-width:1.0;"/></g><!--link CountryRepositoryInMemory to CreateCountryPayload--><g id="link_CountryRepositoryInMemory_CreateCountryPayload"><path codeLine="199" d="M872.83,842.38 C894.38,842.38 910,842.38 910,842.38 C910,842.38 910,301.67 910,301.67 C910,301.67 958.21,301.67 1009.24,301.67 " fill="none" id="CountryRepositoryInMemory-to-CreateCountryPayload" style="stroke:#808080;stroke-width:1.0;"/><polygon fill="#808080" points="1015.24,301.67,1006.24,297.67,1010.24,301.67,1006.24,305.67,1015.24,301.67" style="stroke:#808080;stroke-width:1.0;"/></g><!--link CountryRepositoryInPostgres to CreateCountryPayload--><g id="link_CountryRepositoryInPostgres_CreateCountryPayload"><path codeLine="200" d="M748,648.43 C748,520.44 748,270.33 748,270.33 C748,270.33 903.88,270.33 1009.17,270.33 " fill="none" id="CountryRepositoryInPostgres-to-CreateCountryPayload" style="stroke:#808080;stroke-width:1.0;"/><polygon fill="#808080" points="1015.17,270.33,1006.17,266.33,1010.17,270.33,1006.17,274.33,1015.17,270.33" style="stroke:#808080;stroke-width:1.0;"/></g><!--link CountryRepositoryInMemory to UpdateCountryPayload--><g id="link_CountryRepositoryInMemory_UpdateCountryPayload"><path codeLine="201" d="M872.61,854.25 C949.68,854.25 1034,854.25 1034,854.25 C1034,854.25 1034,581.32 1034,468.01 " fill="none" id="CountryRepositoryInMemory-to-UpdateCountryPayload" style="stroke:#808080;stroke-width:1.0;"/><polygon fill="#808080" points="1034,462.01,1030,471.01,1034,467.01,1038,471.01,1034,462.01" style="stroke:#808080;stroke-width:1.0;"/></g><!--link CountryRepositoryInPostgres to UpdateCountryPayload--><g id="link_CountryRepositoryInPostgres_UpdateCountryPayload"><path codeLine="202" d="M872.72,707.25 C946.25,707.25 1025,707.25 1025,707.25 C1025,707.25 1025,550.99 1025,468.28 " fill="none" id="CountryRepositoryInPostgres-to-UpdateCountryPayload" style="stroke:#808080;stroke-width:1.0;"/><polygon fill="#808080" points="1025,462.28,1021,471.28,1025,467.28,1029,471.28,1025,462.28" style="stroke:#808080;stroke-width:1.0;"/></g><!--link router to CountryContainer--><g id="link_router_CountryContainer"><path codeLine="204" d="M1074.12,124 C924.04,124 250,124 250,124 C250,124 250,1001.39 250,1265.37 " fill="none" id="router-to-CountryContainer" style="stroke:#696969;stroke-width:1.0;"/><polygon fill="#696969" points="250,1271.37,254,1262.37,250,1266.37,246,1262.37,250,1271.37" style="stroke:#696969;stroke-width:1.0;"/></g><!--SRC=[xLZDRjiu4BxhAGZxq0sw0OmUsaLG172SDYjWkotoSoeM1YsE728qAL1qKssR1-YZzBvla1TRalgnP97wIHRT7g8S0elVp71clXaEnI1MI0aawVfQ8K8bH8eA7gGtb2TOuWrYb8FA4a12gcjHMqXmT8FNSA4o1iZ8ORvcK0EarvY8MyhNICbjVI5YE4tdIacwsYe88y4lwD-0PW5cJDnkw6Sj4mJFq49i6Mnbgar9bAhxx_B-kx1x8L2QRsy8VGcGVaxqhxKKMquMWWdv-dKY8GMkiF7l-1XDunVcput5IS9eL47935x5iHjAn0PJYu9P7CFCZQ8ybZZLSOZKLe8r7yU_aSYDNk6qm92Ny2guQmH3-su322bAWGcEp6iax_zXhHZxGh5D8IfCmCjuvdDDGY9IgeJCYWtFYCSz7LUgihuWR0G1LgWYFbK9pfZ0nCA8pb1it2zJEz5Hu4fcayAptCloxKBez6gwoWcg-vX3pOC9MKOvTbciLsinvMIf2LW0AAHkI2c_ofQKj23RX605NYFQV_0iQo_DlyhJ-Ow2nfqc8tSkLVYhNDUajbQBq9oG8aWQjx0uTuZAvpbyXaXNvoz5FWxGuJ4gLBonsMw8tBcCdbfl7sYNFiZaMvsYEMEBCeTZhRPjVlnhcDL2w2GBoOznzSfIxS7H_HMDpUoTawUdjlyPmrKdTB0pL-mXPyEuqLIr4uS7b1pfiq2Q8wArnl46_AkHRZ_ErRgBxQs7N86CSGJTkp-lcgNneD4w7Lv44l3Wuh8IUUlevue5ntaPzDEvGXlU3bIUzxZ_a49Xut0quMiTbmvAlJEdINTE2iZkvFaP-5GdoZ12XVmTR9w8vIBMmFXz4AbQw_dlAO8ZI_D3RMWsmTiReeUMvKvVlgk98_1bzcpuYnrNyFfSs1RjBzRkWcsViRvpzd_Rq7wYydbKtxmcUdZM1zIaI5zzM3uf9e9LVHne7TnZJskZzV57TLvbUk9MHyZ4Lz4D-56hpAyfvtoVfXBLfIclupvD9QfB4qsN1Um8hOHWWBctRUpfEsW3TH3qhVoJgUmzDmwyBQ0Jw2BJu7d7v7_KiFC5h_GEj0jtgEYjXf17Q4SazDN-iAt3DYptqgE6Yf4JH6Nq4UF34yT_1CU7KRppUZtwEctOyQ2h9UPzvw_zsFFx_RVpy79-zYPebzlNmqFdfMDwYkND1TCHEPCu2_RsQAKSNm6c2o5vpCGjo1Es1QUO-nu_HD9x7HygxBfL3v5rNuwTacMLr-DQlBCXVS_e9nrI01uqpxwwGFboNqBdykeo_2Eyc5-6x_yC75-g3ZKhd8av5nbc-JOzKfwyz0lwqp9CrfcLVb5FKdQ2WGTYfLsKlmJC0k-MUiJSuHjWoncw7Zb7Xhib0kU71NVnxow8qpF12F1pGSR9xov8DGr1bwNwxYlsvvsdKtzThYmphrZJcFDcCDpcIF66RVSbOB3jBl6WdE0ReQdLplIKRWpoNm00]--></g></svg>