<?xml version="1.0" encoding="us-ascii" standalone="no"?><svg xmlns="http://www.w3.org/2000/svg" xmlns:xlink="http://www.w3.org/1999/xlink" contentStyleType="text/css" height="1084px" preserveAspectRatio="none" style="width:666px;height:1084px;background:#FFFFFF;" version="1.1" viewBox="0 0 666 1084" width="666px" zoomAndPan="magnify"><defs/><g><!--class continent--><g id="elem_continent"><rect codeLine="6" fill="#F1F1F1" height="241.7031" id="continent" rx="2.5" ry="2.5" style="stroke:#181818;stroke-width:0.5;" width="90" x="569" y="308"/><ellipse cx="584" cy="324" fill="#FFAAAA" rx="11" ry="11" style="stroke:#181818;stroke-width:1.0;"/><path d="M584.9219,321.3906 L584.9219,328.0469 L586.0781,328.0469 Q586.6875,328.0469 586.9375,328.2813 Q587.2031,328.5156 587.2031,328.9063 Q587.2031,329.2813 586.9375,329.5156 Q586.6875,329.75 586.0781,329.75 L582.0938,329.75 Q581.4688,329.75 581.2031,329.5156 Q580.9531,329.2813 580.9531,328.8906 Q580.9531,328.5156 581.2031,328.2813 Q581.4688,328.0469 582.0938,328.0469 L583.2188,328.0469 L583.2188,321.3906 L581.375,321.3906 L581.375,323 Q581.375,323.6094 581.1406,323.875 Q580.9063,324.1406 580.5313,324.1406 Q580.1563,324.1406 579.9219,323.875 Q579.6875,323.6094 579.6875,323 L579.6875,319.6875 L588.5,319.6875 L588.5,323 Q588.5,323.6094 588.25,323.875 Q588.0156,324.1406 587.6406,324.1406 Q587.2656,324.1406 587.0313,323.875 Q586.7969,323.6094 586.7969,323 L586.7969,321.3906 L584.9219,321.3906 Z " fill="#000000"/><text fill="#000000" font-family="sans-serif" font-size="14" lengthAdjust="spacing" textLength="58" x="598" y="329.7285">continent</text><line style="stroke:#181818;stroke-width:0.5;" x1="570" x2="658" y1="340" y2="340"/><text fill="#000000" font-family="sans-serif" font-size="14" lengthAdjust="spacing" text-decoration="underline" textLength="11" x="575" y="358.5332">id</text><text fill="#000000" font-family="sans-serif" font-size="14" lengthAdjust="spacing" textLength="35" x="575" y="376.1426">name</text><text fill="#000000" font-family="sans-serif" font-size="14" lengthAdjust="spacing" textLength="31" x="575" y="393.752">code</text><text fill="#000000" font-family="sans-serif" font-size="14" lengthAdjust="spacing" textLength="66" x="575" y="411.3613">population</text><text fill="#000000" font-family="sans-serif" font-size="14" lengthAdjust="spacing" textLength="68" x="575" y="428.9707">created_at</text><text fill="#000000" font-family="sans-serif" font-size="14" lengthAdjust="spacing" textLength="71" x="575" y="446.5801">created_by</text><text fill="#000000" font-family="sans-serif" font-size="14" lengthAdjust="spacing" textLength="72" x="575" y="464.1895">updated_at</text><text fill="#000000" font-family="sans-serif" font-size="14" lengthAdjust="spacing" textLength="75" x="575" y="481.7988">updated_by</text><text fill="#000000" font-family="sans-serif" font-size="14" lengthAdjust="spacing" textLength="67" x="575" y="499.4082">deleted_at</text><text fill="#000000" font-family="sans-serif" font-size="14" lengthAdjust="spacing" textLength="70" x="575" y="517.0176">deleted_by</text><text fill="#000000" font-family="sans-serif" font-size="14" lengthAdjust="spacing" textLength="65" x="575" y="534.627">is_deleted</text><line style="stroke:#181818;stroke-width:0.5;" x1="570" x2="658" y1="541.7031" y2="541.7031"/></g><!--class country--><g id="elem_country"><rect codeLine="20" fill="#F1F1F1" height="276.9219" id="country" rx="2.5" ry="2.5" style="stroke:#181818;stroke-width:0.5;" width="97" x="393.5" y="290.5"/><ellipse cx="416.6" cy="306.5" fill="#FFAAAA" rx="11" ry="11" style="stroke:#181818;stroke-width:1.0;"/><path d="M417.5219,303.8906 L417.5219,310.5469 L418.6781,310.5469 Q419.2875,310.5469 419.5375,310.7813 Q419.8031,311.0156 419.8031,311.4063 Q419.8031,311.7813 419.5375,312.0156 Q419.2875,312.25 418.6781,312.25 L414.6938,312.25 Q414.0688,312.25 413.8031,312.0156 Q413.5531,311.7813 413.5531,311.3906 Q413.5531,311.0156 413.8031,310.7813 Q414.0688,310.5469 414.6938,310.5469 L415.8188,310.5469 L415.8188,303.8906 L413.975,303.8906 L413.975,305.5 Q413.975,306.1094 413.7406,306.375 Q413.5063,306.6406 413.1313,306.6406 Q412.7563,306.6406 412.5219,306.375 Q412.2875,306.1094 412.2875,305.5 L412.2875,302.1875 L421.1,302.1875 L421.1,305.5 Q421.1,306.1094 420.85,306.375 Q420.6156,306.6406 420.2406,306.6406 Q419.8656,306.6406 419.6313,306.375 Q419.3969,306.1094 419.3969,305.5 L419.3969,303.8906 L417.5219,303.8906 Z " fill="#000000"/><text fill="#000000" font-family="sans-serif" font-size="14" lengthAdjust="spacing" textLength="47" x="432.4" y="312.2285">country</text><line style="stroke:#181818;stroke-width:0.5;" x1="394.5" x2="489.5" y1="322.5" y2="322.5"/><text fill="#000000" font-family="sans-serif" font-size="14" lengthAdjust="spacing" text-decoration="underline" textLength="11" x="399.5" y="341.0332">id</text><text fill="#000000" font-family="sans-serif" font-size="14" lengthAdjust="spacing" textLength="35" x="399.5" y="358.6426">name</text><text fill="#000000" font-family="sans-serif" font-size="14" lengthAdjust="spacing" textLength="26" x="399.5" y="376.252">iso2</text><text fill="#000000" font-family="sans-serif" font-size="14" lengthAdjust="spacing" textLength="26" x="399.5" y="393.8613">iso3</text><text fill="#000000" font-family="sans-serif" font-size="14" lengthAdjust="spacing" textLength="66" x="399.5" y="411.4707">population</text><text fill="#000000" font-family="sans-serif" font-size="14" font-style="italic" lengthAdjust="spacing" text-decoration="underline" textLength="85" x="399.5" y="429.0801">#continent_id</text><text fill="#000000" font-family="sans-serif" font-size="14" lengthAdjust="spacing" textLength="68" x="399.5" y="446.6895">created_at</text><text fill="#000000" font-family="sans-serif" font-size="14" lengthAdjust="spacing" textLength="71" x="399.5" y="464.2988">created_by</text><text fill="#000000" font-family="sans-serif" font-size="14" lengthAdjust="spacing" textLength="72" x="399.5" y="481.9082">updated_at</text><text fill="#000000" font-family="sans-serif" font-size="14" lengthAdjust="spacing" textLength="75" x="399.5" y="499.5176">updated_by</text><text fill="#000000" font-family="sans-serif" font-size="14" lengthAdjust="spacing" textLength="67" x="399.5" y="517.127">deleted_at</text><text fill="#000000" font-family="sans-serif" font-size="14" lengthAdjust="spacing" textLength="70" x="399.5" y="534.7363">deleted_by</text><text fill="#000000" font-family="sans-serif" font-size="14" lengthAdjust="spacing" textLength="65" x="399.5" y="552.3457">is_deleted</text><line style="stroke:#181818;stroke-width:0.5;" x1="394.5" x2="489.5" y1="559.4219" y2="559.4219"/></g><!--class user--><g id="elem_user"><rect codeLine="36" fill="#F1F1F1" height="312.1406" id="user" rx="2.5" ry="2.5" style="stroke:#181818;stroke-width:0.5;" width="87" x="15" y="7"/><ellipse cx="42.15" cy="23" fill="#FFAAAA" rx="11" ry="11" style="stroke:#181818;stroke-width:1.0;"/><path d="M43.0719,20.3906 L43.0719,27.0469 L44.2281,27.0469 Q44.8375,27.0469 45.0875,27.2813 Q45.3531,27.5156 45.3531,27.9063 Q45.3531,28.2813 45.0875,28.5156 Q44.8375,28.75 44.2281,28.75 L40.2438,28.75 Q39.6188,28.75 39.3531,28.5156 Q39.1031,28.2813 39.1031,27.8906 Q39.1031,27.5156 39.3531,27.2813 Q39.6188,27.0469 40.2438,27.0469 L41.3688,27.0469 L41.3688,20.3906 L39.525,20.3906 L39.525,22 Q39.525,22.6094 39.2906,22.875 Q39.0563,23.1406 38.6813,23.1406 Q38.3063,23.1406 38.0719,22.875 Q37.8375,22.6094 37.8375,22 L37.8375,18.6875 L46.65,18.6875 L46.65,22 Q46.65,22.6094 46.4,22.875 Q46.1656,23.1406 45.7906,23.1406 Q45.4156,23.1406 45.1813,22.875 Q44.9469,22.6094 44.9469,22 L44.9469,20.3906 L43.0719,20.3906 Z " fill="#000000"/><text fill="#000000" font-family="sans-serif" font-size="14" lengthAdjust="spacing" textLength="28" x="58.85" y="28.7285">user</text><line style="stroke:#181818;stroke-width:0.5;" x1="16" x2="101" y1="39" y2="39"/><text fill="#000000" font-family="sans-serif" font-size="14" lengthAdjust="spacing" text-decoration="underline" textLength="11" x="21" y="57.5332">id</text><text fill="#000000" font-family="sans-serif" font-size="14" lengthAdjust="spacing" textLength="58" x="21" y="75.1426">firstname</text><text fill="#000000" font-family="sans-serif" font-size="14" lengthAdjust="spacing" textLength="57" x="21" y="92.752">lastname</text><text fill="#000000" font-family="sans-serif" font-size="14" lengthAdjust="spacing" textLength="63" x="21" y="110.3613">username</text><text fill="#000000" font-family="sans-serif" font-size="14" lengthAdjust="spacing" textLength="33" x="21" y="127.9707">email</text><text fill="#000000" font-family="sans-serif" font-size="14" lengthAdjust="spacing" textLength="60" x="21" y="145.5801">password</text><text fill="#000000" font-family="sans-serif" font-size="14" lengthAdjust="spacing" textLength="45" x="21" y="163.1895">gender</text><text fill="#000000" font-family="sans-serif" font-size="14" lengthAdjust="spacing" textLength="56" x="21" y="180.7988">birthdate</text><text fill="#000000" font-family="sans-serif" font-size="14" lengthAdjust="spacing" textLength="68" x="21" y="198.4082">created_at</text><text fill="#000000" font-family="sans-serif" font-size="14" lengthAdjust="spacing" textLength="71" x="21" y="216.0176">created_by</text><text fill="#000000" font-family="sans-serif" font-size="14" lengthAdjust="spacing" textLength="72" x="21" y="233.627">updated_at</text><text fill="#000000" font-family="sans-serif" font-size="14" lengthAdjust="spacing" textLength="75" x="21" y="251.2363">updated_by</text><text fill="#000000" font-family="sans-serif" font-size="14" lengthAdjust="spacing" textLength="67" x="21" y="268.8457">deleted_at</text><text fill="#000000" font-family="sans-serif" font-size="14" lengthAdjust="spacing" textLength="70" x="21" y="286.4551">deleted_by</text><text fill="#000000" font-family="sans-serif" font-size="14" lengthAdjust="spacing" textLength="65" x="21" y="304.0645">is_deleted</text><line style="stroke:#181818;stroke-width:0.5;" x1="16" x2="101" y1="311.1406" y2="311.1406"/></g><!--class role--><g id="elem_role"><rect codeLine="54" fill="#F1F1F1" height="224.0938" id="role" rx="2.5" ry="2.5" style="stroke:#181818;stroke-width:0.5;" width="87" x="199" y="51"/><ellipse cx="227.95" cy="67" fill="#FFAAAA" rx="11" ry="11" style="stroke:#181818;stroke-width:1.0;"/><path d="M228.8719,64.3906 L228.8719,71.0469 L230.0281,71.0469 Q230.6375,71.0469 230.8875,71.2813 Q231.1531,71.5156 231.1531,71.9063 Q231.1531,72.2813 230.8875,72.5156 Q230.6375,72.75 230.0281,72.75 L226.0438,72.75 Q225.4188,72.75 225.1531,72.5156 Q224.9031,72.2813 224.9031,71.8906 Q224.9031,71.5156 225.1531,71.2813 Q225.4188,71.0469 226.0438,71.0469 L227.1688,71.0469 L227.1688,64.3906 L225.325,64.3906 L225.325,66 Q225.325,66.6094 225.0906,66.875 Q224.8563,67.1406 224.4813,67.1406 Q224.1063,67.1406 223.8719,66.875 Q223.6375,66.6094 223.6375,66 L223.6375,62.6875 L232.45,62.6875 L232.45,66 Q232.45,66.6094 232.2,66.875 Q231.9656,67.1406 231.5906,67.1406 Q231.2156,67.1406 230.9813,66.875 Q230.7469,66.6094 230.7469,66 L230.7469,64.3906 L228.8719,64.3906 Z " fill="#000000"/><text fill="#000000" font-family="sans-serif" font-size="14" lengthAdjust="spacing" textLength="24" x="245.05" y="72.7285">role</text><line style="stroke:#181818;stroke-width:0.5;" x1="200" x2="285" y1="83" y2="83"/><text fill="#000000" font-family="sans-serif" font-size="14" lengthAdjust="spacing" text-decoration="underline" textLength="11" x="205" y="101.5332">id</text><text fill="#000000" font-family="sans-serif" font-size="14" lengthAdjust="spacing" textLength="35" x="205" y="119.1426">name</text><text fill="#000000" font-family="sans-serif" font-size="14" lengthAdjust="spacing" textLength="69" x="205" y="136.752">description</text><text fill="#000000" font-family="sans-serif" font-size="14" lengthAdjust="spacing" textLength="68" x="205" y="154.3613">created_at</text><text fill="#000000" font-family="sans-serif" font-size="14" lengthAdjust="spacing" textLength="71" x="205" y="171.9707">created_by</text><text fill="#000000" font-family="sans-serif" font-size="14" lengthAdjust="spacing" textLength="72" x="205" y="189.5801">updated_at</text><text fill="#000000" font-family="sans-serif" font-size="14" lengthAdjust="spacing" textLength="75" x="205" y="207.1895">updated_by</text><text fill="#000000" font-family="sans-serif" font-size="14" lengthAdjust="spacing" textLength="67" x="205" y="224.7988">deleted_at</text><text fill="#000000" font-family="sans-serif" font-size="14" lengthAdjust="spacing" textLength="70" x="205" y="242.4082">deleted_by</text><text fill="#000000" font-family="sans-serif" font-size="14" lengthAdjust="spacing" textLength="65" x="205" y="260.0176">is_deleted</text><line style="stroke:#181818;stroke-width:0.5;" x1="200" x2="285" y1="267.0938" y2="267.0938"/></g><!--class epidemic--><g id="elem_epidemic"><rect codeLine="67" fill="#F1F1F1" height="347.3594" id="epidemic" rx="2.5" ry="2.5" style="stroke:#181818;stroke-width:0.5;" width="134" x="375" y="629.5"/><ellipse cx="410.7" cy="645.5" fill="#FFAAAA" rx="11" ry="11" style="stroke:#181818;stroke-width:1.0;"/><path d="M411.6219,642.8906 L411.6219,649.5469 L412.7781,649.5469 Q413.3875,649.5469 413.6375,649.7813 Q413.9031,650.0156 413.9031,650.4063 Q413.9031,650.7813 413.6375,651.0156 Q413.3875,651.25 412.7781,651.25 L408.7938,651.25 Q408.1688,651.25 407.9031,651.0156 Q407.6531,650.7813 407.6531,650.3906 Q407.6531,650.0156 407.9031,649.7813 Q408.1688,649.5469 408.7938,649.5469 L409.9188,649.5469 L409.9188,642.8906 L408.075,642.8906 L408.075,644.5 Q408.075,645.1094 407.8406,645.375 Q407.6063,645.6406 407.2313,645.6406 Q406.8563,645.6406 406.6219,645.375 Q406.3875,645.1094 406.3875,644.5 L406.3875,641.1875 L415.2,641.1875 L415.2,644.5 Q415.2,645.1094 414.95,645.375 Q414.7156,645.6406 414.3406,645.6406 Q413.9656,645.6406 413.7313,645.375 Q413.4969,645.1094 413.4969,644.5 L413.4969,642.8906 L411.6219,642.8906 Z " fill="#000000"/><text fill="#000000" font-family="sans-serif" font-size="14" lengthAdjust="spacing" textLength="56" x="429.3" y="651.2285">epidemic</text><line style="stroke:#181818;stroke-width:0.5;" x1="376" x2="508" y1="661.5" y2="661.5"/><text fill="#000000" font-family="sans-serif" font-size="14" lengthAdjust="spacing" text-decoration="underline" textLength="11" x="381" y="680.0332">id</text><text fill="#000000" font-family="sans-serif" font-size="14" lengthAdjust="spacing" textLength="35" x="381" y="697.6426">name</text><text fill="#000000" font-family="sans-serif" font-size="14" lengthAdjust="spacing" textLength="64" x="381" y="715.252">start_date</text><text fill="#000000" font-family="sans-serif" font-size="14" lengthAdjust="spacing" textLength="60" x="381" y="732.8613">end_date</text><text fill="#000000" font-family="sans-serif" font-size="14" lengthAdjust="spacing" textLength="27" x="381" y="750.4707">type</text><text fill="#000000" font-family="sans-serif" font-size="14" lengthAdjust="spacing" textLength="103" x="381" y="768.0801">pathogen_name</text><text fill="#000000" font-family="sans-serif" font-size="14" lengthAdjust="spacing" textLength="69" x="381" y="785.6895">description</text><text fill="#000000" font-family="sans-serif" font-size="14" lengthAdjust="spacing" textLength="122" x="381" y="803.2988">transmission_mode</text><text fill="#000000" font-family="sans-serif" font-size="14" lengthAdjust="spacing" textLength="63" x="381" y="820.9082">symptoms</text><text fill="#000000" font-family="sans-serif" font-size="14" lengthAdjust="spacing" textLength="113" x="381" y="838.5176">reproduction_rate</text><text fill="#000000" font-family="sans-serif" font-size="14" lengthAdjust="spacing" textLength="68" x="381" y="856.127">created_at</text><text fill="#000000" font-family="sans-serif" font-size="14" lengthAdjust="spacing" textLength="71" x="381" y="873.7363">created_by</text><text fill="#000000" font-family="sans-serif" font-size="14" lengthAdjust="spacing" textLength="72" x="381" y="891.3457">updated_at</text><text fill="#000000" font-family="sans-serif" font-size="14" lengthAdjust="spacing" textLength="75" x="381" y="908.9551">updated_by</text><text fill="#000000" font-family="sans-serif" font-size="14" lengthAdjust="spacing" textLength="67" x="381" y="926.5645">deleted_at</text><text fill="#000000" font-family="sans-serif" font-size="14" lengthAdjust="spacing" textLength="70" x="381" y="944.1738">deleted_by</text><text fill="#000000" font-family="sans-serif" font-size="14" lengthAdjust="spacing" textLength="65" x="381" y="961.7832">is_deleted</text><line style="stroke:#181818;stroke-width:0.5;" x1="376" x2="508" y1="968.8594" y2="968.8594"/></g><!--class vaccine--><g id="elem_vaccine"><rect codeLine="87" fill="#F1F1F1" height="312.1406" id="vaccine" rx="2.5" ry="2.5" style="stroke:#181818;stroke-width:0.5;" width="145" x="170" y="765"/><ellipse cx="214.25" cy="781" fill="#FFAAAA" rx="11" ry="11" style="stroke:#181818;stroke-width:1.0;"/><path d="M215.1719,778.3906 L215.1719,785.0469 L216.3281,785.0469 Q216.9375,785.0469 217.1875,785.2813 Q217.4531,785.5156 217.4531,785.9063 Q217.4531,786.2813 217.1875,786.5156 Q216.9375,786.75 216.3281,786.75 L212.3438,786.75 Q211.7188,786.75 211.4531,786.5156 Q211.2031,786.2813 211.2031,785.8906 Q211.2031,785.5156 211.4531,785.2813 Q211.7188,785.0469 212.3438,785.0469 L213.4688,785.0469 L213.4688,778.3906 L211.625,778.3906 L211.625,780 Q211.625,780.6094 211.3906,780.875 Q211.1563,781.1406 210.7813,781.1406 Q210.4063,781.1406 210.1719,780.875 Q209.9375,780.6094 209.9375,780 L209.9375,776.6875 L218.75,776.6875 L218.75,780 Q218.75,780.6094 218.5,780.875 Q218.2656,781.1406 217.8906,781.1406 Q217.5156,781.1406 217.2813,780.875 Q217.0469,780.6094 217.0469,780 L217.0469,778.3906 L215.1719,778.3906 Z " fill="#000000"/><text fill="#000000" font-family="sans-serif" font-size="14" lengthAdjust="spacing" textLength="48" x="234.75" y="786.7285">vaccine</text><line style="stroke:#181818;stroke-width:0.5;" x1="171" x2="314" y1="797" y2="797"/><text fill="#000000" font-family="sans-serif" font-size="14" lengthAdjust="spacing" text-decoration="underline" textLength="11" x="176" y="815.5332">id</text><text fill="#000000" font-family="sans-serif" font-size="14" lengthAdjust="spacing" textLength="35" x="176" y="833.1426">name</text><text fill="#000000" font-family="sans-serif" font-size="14" lengthAdjust="spacing" textLength="64" x="176" y="850.752">laboratory</text><text fill="#000000" font-family="sans-serif" font-size="14" lengthAdjust="spacing" textLength="69" x="176" y="868.3613">technology</text><text fill="#000000" font-family="sans-serif" font-size="14" lengthAdjust="spacing" textLength="31" x="176" y="885.9707">dose</text><text fill="#000000" font-family="sans-serif" font-size="14" lengthAdjust="spacing" textLength="48" x="176" y="903.5801">efficacy</text><text fill="#000000" font-family="sans-serif" font-size="14" lengthAdjust="spacing" textLength="133" x="176" y="921.1895">storage_temperature</text><text fill="#000000" font-family="sans-serif" font-size="14" font-style="italic" lengthAdjust="spacing" text-decoration="underline" textLength="83" x="176" y="938.7988">#epidemic_id</text><text fill="#000000" font-family="sans-serif" font-size="14" lengthAdjust="spacing" textLength="68" x="176" y="956.4082">created_at</text><text fill="#000000" font-family="sans-serif" font-size="14" lengthAdjust="spacing" textLength="71" x="176" y="974.0176">created_by</text><text fill="#000000" font-family="sans-serif" font-size="14" lengthAdjust="spacing" textLength="72" x="176" y="991.627">updated_at</text><text fill="#000000" font-family="sans-serif" font-size="14" lengthAdjust="spacing" textLength="75" x="176" y="1009.2363">updated_by</text><text fill="#000000" font-family="sans-serif" font-size="14" lengthAdjust="spacing" textLength="67" x="176" y="1026.8457">deleted_at</text><text fill="#000000" font-family="sans-serif" font-size="14" lengthAdjust="spacing" textLength="70" x="176" y="1044.4551">deleted_by</text><text fill="#000000" font-family="sans-serif" font-size="14" lengthAdjust="spacing" textLength="65" x="176" y="1062.0645">is_deleted</text><line style="stroke:#181818;stroke-width:0.5;" x1="171" x2="314" y1="1069.1406" y2="1069.1406"/></g><!--class daily_wise--><g id="elem_daily_wise"><rect codeLine="105" fill="#F1F1F1" height="276.9219" id="daily_wise" rx="2.5" ry="2.5" style="stroke:#181818;stroke-width:0.5;" width="96" x="194.5" y="381.5"/><ellipse cx="209.5" cy="397.5" fill="#FFAAAA" rx="11" ry="11" style="stroke:#181818;stroke-width:1.0;"/><path d="M210.4219,394.8906 L210.4219,401.5469 L211.5781,401.5469 Q212.1875,401.5469 212.4375,401.7813 Q212.7031,402.0156 212.7031,402.4063 Q212.7031,402.7813 212.4375,403.0156 Q212.1875,403.25 211.5781,403.25 L207.5938,403.25 Q206.9688,403.25 206.7031,403.0156 Q206.4531,402.7813 206.4531,402.3906 Q206.4531,402.0156 206.7031,401.7813 Q206.9688,401.5469 207.5938,401.5469 L208.7188,401.5469 L208.7188,394.8906 L206.875,394.8906 L206.875,396.5 Q206.875,397.1094 206.6406,397.375 Q206.4063,397.6406 206.0313,397.6406 Q205.6563,397.6406 205.4219,397.375 Q205.1875,397.1094 205.1875,396.5 L205.1875,393.1875 L214,393.1875 L214,396.5 Q214,397.1094 213.75,397.375 Q213.5156,397.6406 213.1406,397.6406 Q212.7656,397.6406 212.5313,397.375 Q212.2969,397.1094 212.2969,396.5 L212.2969,394.8906 L210.4219,394.8906 Z " fill="#000000"/><text fill="#000000" font-family="sans-serif" font-size="14" lengthAdjust="spacing" textLength="64" x="223.5" y="403.2285">daily_wise</text><line style="stroke:#181818;stroke-width:0.5;" x1="195.5" x2="289.5" y1="413.5" y2="413.5"/><text fill="#000000" font-family="sans-serif" font-size="14" lengthAdjust="spacing" text-decoration="underline" textLength="11" x="200.5" y="432.0332">id</text><text fill="#000000" font-family="sans-serif" font-size="14" lengthAdjust="spacing" textLength="28" x="200.5" y="449.6426">date</text><text fill="#000000" font-family="sans-serif" font-size="14" lengthAdjust="spacing" textLength="54" x="200.5" y="467.252">province</text><text fill="#000000" font-family="sans-serif" font-size="14" lengthAdjust="spacing" textLength="46" x="200.5" y="484.8613">latitude</text><text fill="#000000" font-family="sans-serif" font-size="14" lengthAdjust="spacing" textLength="58" x="200.5" y="502.4707">longitude</text><text fill="#000000" font-family="sans-serif" font-size="14" font-style="italic" lengthAdjust="spacing" text-decoration="underline" textLength="74" x="200.5" y="520.0801">#country_id</text><text fill="#000000" font-family="sans-serif" font-size="14" lengthAdjust="spacing" textLength="68" x="200.5" y="537.6895">created_at</text><text fill="#000000" font-family="sans-serif" font-size="14" lengthAdjust="spacing" textLength="71" x="200.5" y="555.2988">created_by</text><text fill="#000000" font-family="sans-serif" font-size="14" lengthAdjust="spacing" textLength="72" x="200.5" y="572.9082">updated_at</text><text fill="#000000" font-family="sans-serif" font-size="14" lengthAdjust="spacing" textLength="75" x="200.5" y="590.5176">updated_by</text><text fill="#000000" font-family="sans-serif" font-size="14" lengthAdjust="spacing" textLength="67" x="200.5" y="608.127">deleted_at</text><text fill="#000000" font-family="sans-serif" font-size="14" lengthAdjust="spacing" textLength="70" x="200.5" y="625.7363">deleted_by</text><text fill="#000000" font-family="sans-serif" font-size="14" lengthAdjust="spacing" textLength="65" x="200.5" y="643.3457">is_deleted</text><line style="stroke:#181818;stroke-width:0.5;" x1="195.5" x2="289.5" y1="650.4219" y2="650.4219"/></g><!--class statistic--><g id="elem_statistic"><rect codeLine="121" fill="#F1F1F1" height="329.75" id="statistic" rx="2.5" ry="2.5" style="stroke:#181818;stroke-width:0.5;" width="103" x="7" y="451"/><ellipse cx="32.8" cy="467" fill="#FFAAAA" rx="11" ry="11" style="stroke:#181818;stroke-width:1.0;"/><path d="M33.7219,464.3906 L33.7219,471.0469 L34.8781,471.0469 Q35.4875,471.0469 35.7375,471.2813 Q36.0031,471.5156 36.0031,471.9063 Q36.0031,472.2813 35.7375,472.5156 Q35.4875,472.75 34.8781,472.75 L30.8937,472.75 Q30.2687,472.75 30.0031,472.5156 Q29.7531,472.2813 29.7531,471.8906 Q29.7531,471.5156 30.0031,471.2813 Q30.2687,471.0469 30.8937,471.0469 L32.0188,471.0469 L32.0188,464.3906 L30.175,464.3906 L30.175,466 Q30.175,466.6094 29.9406,466.875 Q29.7062,467.1406 29.3312,467.1406 Q28.9562,467.1406 28.7219,466.875 Q28.4875,466.6094 28.4875,466 L28.4875,462.6875 L37.3,462.6875 L37.3,466 Q37.3,466.6094 37.05,466.875 Q36.8156,467.1406 36.4406,467.1406 Q36.0656,467.1406 35.8313,466.875 Q35.5969,466.6094 35.5969,466 L35.5969,464.3906 L33.7219,464.3906 Z " fill="#000000"/><text fill="#000000" font-family="sans-serif" font-size="14" lengthAdjust="spacing" textLength="47" x="49.2" y="472.7285">statistic</text><line style="stroke:#181818;stroke-width:0.5;" x1="8" x2="109" y1="483" y2="483"/><text fill="#000000" font-family="sans-serif" font-size="14" lengthAdjust="spacing" text-decoration="underline" textLength="11" x="13" y="501.5332">id</text><text fill="#000000" font-family="sans-serif" font-size="14" lengthAdjust="spacing" textLength="30" x="13" y="519.1426">label</text><text fill="#000000" font-family="sans-serif" font-size="14" lengthAdjust="spacing" textLength="34" x="13" y="536.752">value</text><text fill="#000000" font-family="sans-serif" font-size="14" font-style="italic" lengthAdjust="spacing" text-decoration="underline" textLength="91" x="13" y="554.3613">#daily_wise_id</text><text fill="#000000" font-family="sans-serif" font-size="14" font-style="italic" lengthAdjust="spacing" text-decoration="underline" textLength="83" x="13" y="571.9707">#epidemic_id</text><text fill="#000000" font-family="sans-serif" font-size="14" font-style="italic" lengthAdjust="spacing" text-decoration="underline" textLength="74" x="13" y="589.5801">#country_id</text><text fill="#000000" font-family="sans-serif" font-size="14" font-style="italic" lengthAdjust="spacing" text-decoration="underline" textLength="74" x="13" y="607.1895">#vaccine_id</text><text fill="#000000" font-family="sans-serif" font-size="14" lengthAdjust="spacing" textLength="81" x="13" y="624.7988">published_at</text><text fill="#000000" font-family="sans-serif" font-size="14" lengthAdjust="spacing" textLength="84" x="13" y="642.4082">published_by</text><text fill="#000000" font-family="sans-serif" font-size="14" lengthAdjust="spacing" textLength="68" x="13" y="660.0176">created_at</text><text fill="#000000" font-family="sans-serif" font-size="14" lengthAdjust="spacing" textLength="71" x="13" y="677.627">created_by</text><text fill="#000000" font-family="sans-serif" font-size="14" lengthAdjust="spacing" textLength="72" x="13" y="695.2363">updated_at</text><text fill="#000000" font-family="sans-serif" font-size="14" lengthAdjust="spacing" textLength="75" x="13" y="712.8457">updated_by</text><text fill="#000000" font-family="sans-serif" font-size="14" lengthAdjust="spacing" textLength="67" x="13" y="730.4551">deleted_at</text><text fill="#000000" font-family="sans-serif" font-size="14" lengthAdjust="spacing" textLength="70" x="13" y="748.0645">deleted_by</text><text fill="#000000" font-family="sans-serif" font-size="14" lengthAdjust="spacing" textLength="65" x="13" y="765.6738">is_deleted</text><line style="stroke:#181818;stroke-width:0.5;" x1="8" x2="109" y1="772.75" y2="772.75"/></g><!--link country to continent--><g id="link_country_continent"><path codeLine="141" d="M490.81,429 C515.26,429 538.83,429 562.75,429 " fill="none" id="country-to-continent" style="stroke:#181818;stroke-width:1.0;"/><polygon fill="#181818" points="568.75,429,559.75,425,563.75,429,559.75,433,568.75,429" style="stroke:#181818;stroke-width:1.0;"/></g><!--link daily_wise to country--><g id="link_daily_wise_country"><path codeLine="142" d="M290.56,498.32 C321.59,484.02 356.6605,467.8606 387.8305,453.5006 " fill="none" id="daily_wise-to-country" style="stroke:#181818;stroke-width:1.0;"/><polygon fill="#181818" points="393.28,450.99,383.432,451.1229,388.7388,453.0821,386.7795,458.3889,393.28,450.99" style="stroke:#181818;stroke-width:1.0;"/></g><!--link statistic to daily_wise--><g id="link_statistic_daily_wise"><path codeLine="143" d="M110.2,589.26 C136.49,575.39 163.1027,561.3487 188.8927,547.7487 " fill="none" id="statistic-to-daily_wise" style="stroke:#181818;stroke-width:1.0;"/><polygon fill="#181818" points="194.2,544.95,184.3733,545.6099,189.7773,547.2823,188.1049,552.6863,194.2,544.95" style="stroke:#181818;stroke-width:1.0;"/></g><!--link statistic to country--><g id="link_statistic_country"><path codeLine="144" d="M99.62,450.79 C115.79,416.54 138.41,384.64 170,364 C238.96,318.94 330.9008,359.48 388.2108,393.76 " fill="none" id="statistic-to-country" style="stroke:#181818;stroke-width:1.0;"/><polygon fill="#181818" points="393.36,396.84,387.6896,388.7873,389.069,394.2734,383.583,395.6528,393.36,396.84" style="stroke:#181818;stroke-width:1.0;"/></g><!--link statistic to epidemic--><g id="link_statistic_epidemic"><path codeLine="145" d="M110.05,644.27 C128.76,654.51 150.22,666.01 170,676 C239.1,710.91 314.1072,745.7285 369.2972,770.7985 " fill="none" id="statistic-to-epidemic" style="stroke:#181818;stroke-width:1.0;"/><polygon fill="#181818" points="374.76,773.28,368.2201,765.9159,370.2077,771.2121,364.9115,773.1997,374.76,773.28" style="stroke:#181818;stroke-width:1.0;"/></g><!--link statistic to vaccine--><g id="link_statistic_vaccine"><path codeLine="146" d="M110.2,700.96 C128.71,731.98 146.9359,762.5273 166.9159,796.0173 " fill="none" id="statistic-to-vaccine" style="stroke:#181818;stroke-width:1.0;"/><polygon fill="#181818" points="169.99,801.17,168.814,791.3916,167.4283,796.8761,161.9438,795.4904,169.99,801.17" style="stroke:#181818;stroke-width:1.0;"/></g><!--link vaccine to epidemic--><g id="link_vaccine_epidemic"><path codeLine="147" d="M315.08,878.23 C334.62,866.56 350.5489,857.0367 369.7689,845.5567 " fill="none" id="vaccine-to-epidemic" style="stroke:#181818;stroke-width:1.0;"/><polygon fill="#181818" points="374.92,842.48,365.1422,843.661,370.6274,845.0439,369.2445,850.5291,374.92,842.48" style="stroke:#181818;stroke-width:1.0;"/></g><!--link user to role--><g id="link_user_role"><path codeLine="148" d="M102.17,163 C131.27,163 163.67,163 192.78,163 " fill="none" id="user-to-role" style="stroke:#181818;stroke-width:1.0;"/><polygon fill="#181818" points="198.78,163,189.78,159,193.78,163,189.78,167,198.78,163" style="stroke:#181818;stroke-width:1.0;"/></g><!--SRC=[lLLBRjim4Dtp52ooQ0mqCD1k0mC5YboWtGiKEPO7eKY273aHWXmevyZ5EgJrILH3kyeRpi_cUs-6uoy6ZkX0agejt3xlfBOg9Vaix-_bxPzlDmyFF_cpauU3i70aILv6R4ua3KRGXDw9z8WkgAXQ6PH-L0tyfjw2p6db6Wj2V9M_tj_u6iprqa2Iu0Zf_Is9oxtQi-yuk9ClGigNH8fGlqeqx3dL0X_Qctm47pghoiKSYw08JANeWrFtx7J1p9dHAHa35gRCw9GCfchmnQkOa7MEOh-22vF_VZb-BE5DzVlzpKInGhFVRuAzIn2l0JzYJ3IWvswFPYuVJ6WLsio6P-79n_ob1fo1o4QDaKuPqoOSehUm8ZxFaeuODXi726YWHRq2YMEHga4W5cqqgGzbVXMTF8jPNML0KRdKOahiLkrbubFV1l9jOZD2YDvqvTrLSQiUd9NMFBehdAsgFSFnCVy4WJuvRtrJRlAfw70yebQwB_fmQGCLGHk0lzH5M3oLKUJjNehXSU-h9qnNIGuDPEdFwFI5Bw-lhdJ7UjUCzkVtNXR7TXpAtOckpoOt2FA3FYlRBP7Ev4UmQyrOuVWnDSpCc0fTRJ6THZApM-ZyJt7-_U-9S5dGIGpuvTtTGKxxMSnw38bI92PzItGkMYIkbuygBiA3Ic8uFvVcVLmYUGV-1G00]--></g></svg>