<?xml version="1.0" encoding="us-ascii" standalone="no"?><svg xmlns="http://www.w3.org/2000/svg" xmlns:xlink="http://www.w3.org/1999/xlink" contentStyleType="text/css" height="1454px" preserveAspectRatio="none" style="width:715px;height:1454px;background:#FFFFFF;" version="1.1" viewBox="0 0 715 1454" width="715px" zoomAndPan="magnify"><defs/><g><!--class continent--><g id="elem_continent"><rect codeLine="6" fill="#F1F1F1" height="241.7031" id="continent" rx="2.5" ry="2.5" style="stroke:#181818;stroke-width:0.5;" width="90" x="618" y="1118"/><ellipse cx="633" cy="1134" fill="#FFAAAA" rx="11" ry="11" style="stroke:#181818;stroke-width:1.0;"/><path d="M633.9219,1131.3906 L633.9219,1138.0469 L635.0781,1138.0469 Q635.6875,1138.0469 635.9375,1138.2813 Q636.2031,1138.5156 636.2031,1138.9063 Q636.2031,1139.2813 635.9375,1139.5156 Q635.6875,1139.75 635.0781,1139.75 L631.0938,1139.75 Q630.4688,1139.75 630.2031,1139.5156 Q629.9531,1139.2813 629.9531,1138.8906 Q629.9531,1138.5156 630.2031,1138.2813 Q630.4688,1138.0469 631.0938,1138.0469 L632.2188,1138.0469 L632.2188,1131.3906 L630.375,1131.3906 L630.375,1133 Q630.375,1133.6094 630.1406,1133.875 Q629.9063,1134.1406 629.5313,1134.1406 Q629.1563,1134.1406 628.9219,1133.875 Q628.6875,1133.6094 628.6875,1133 L628.6875,1129.6875 L637.5,1129.6875 L637.5,1133 Q637.5,1133.6094 637.25,1133.875 Q637.0156,1134.1406 636.6406,1134.1406 Q636.2656,1134.1406 636.0313,1133.875 Q635.7969,1133.6094 635.7969,1133 L635.7969,1131.3906 L633.9219,1131.3906 Z " fill="#000000"/><text fill="#000000" font-family="sans-serif" font-size="14" lengthAdjust="spacing" textLength="58" x="647" y="1139.7285">continent</text><line style="stroke:#181818;stroke-width:0.5;" x1="619" x2="707" y1="1150" y2="1150"/><text fill="#000000" font-family="sans-serif" font-size="14" lengthAdjust="spacing" text-decoration="underline" textLength="11" x="624" y="1168.5332">id</text><text fill="#000000" font-family="sans-serif" font-size="14" lengthAdjust="spacing" textLength="35" x="624" y="1186.1426">name</text><text fill="#000000" font-family="sans-serif" font-size="14" lengthAdjust="spacing" textLength="31" x="624" y="1203.752">code</text><text fill="#000000" font-family="sans-serif" font-size="14" lengthAdjust="spacing" textLength="66" x="624" y="1221.3613">population</text><text fill="#000000" font-family="sans-serif" font-size="14" lengthAdjust="spacing" textLength="68" x="624" y="1238.9707">created_at</text><text fill="#000000" font-family="sans-serif" font-size="14" lengthAdjust="spacing" textLength="71" x="624" y="1256.5801">created_by</text><text fill="#000000" font-family="sans-serif" font-size="14" lengthAdjust="spacing" textLength="72" x="624" y="1274.1895">updated_at</text><text fill="#000000" font-family="sans-serif" font-size="14" lengthAdjust="spacing" textLength="75" x="624" y="1291.7988">updated_by</text><text fill="#000000" font-family="sans-serif" font-size="14" lengthAdjust="spacing" textLength="67" x="624" y="1309.4082">deleted_at</text><text fill="#000000" font-family="sans-serif" font-size="14" lengthAdjust="spacing" textLength="70" x="624" y="1327.0176">deleted_by</text><text fill="#000000" font-family="sans-serif" font-size="14" lengthAdjust="spacing" textLength="65" x="624" y="1344.627">is_deleted</text><line style="stroke:#181818;stroke-width:0.5;" x1="619" x2="707" y1="1351.7031" y2="1351.7031"/></g><!--class country--><g id="elem_country"><rect codeLine="20" fill="#F1F1F1" height="276.9219" id="country" rx="2.5" ry="2.5" style="stroke:#181818;stroke-width:0.5;" width="97" x="442.5" y="1100.5"/><ellipse cx="465.6" cy="1116.5" fill="#FFAAAA" rx="11" ry="11" style="stroke:#181818;stroke-width:1.0;"/><path d="M466.5219,1113.8906 L466.5219,1120.5469 L467.6781,1120.5469 Q468.2875,1120.5469 468.5375,1120.7813 Q468.8031,1121.0156 468.8031,1121.4063 Q468.8031,1121.7813 468.5375,1122.0156 Q468.2875,1122.25 467.6781,1122.25 L463.6938,1122.25 Q463.0688,1122.25 462.8031,1122.0156 Q462.5531,1121.7813 462.5531,1121.3906 Q462.5531,1121.0156 462.8031,1120.7813 Q463.0688,1120.5469 463.6938,1120.5469 L464.8188,1120.5469 L464.8188,1113.8906 L462.975,1113.8906 L462.975,1115.5 Q462.975,1116.1094 462.7406,1116.375 Q462.5063,1116.6406 462.1313,1116.6406 Q461.7563,1116.6406 461.5219,1116.375 Q461.2875,1116.1094 461.2875,1115.5 L461.2875,1112.1875 L470.1,1112.1875 L470.1,1115.5 Q470.1,1116.1094 469.85,1116.375 Q469.6156,1116.6406 469.2406,1116.6406 Q468.8656,1116.6406 468.6313,1116.375 Q468.3969,1116.1094 468.3969,1115.5 L468.3969,1113.8906 L466.5219,1113.8906 Z " fill="#000000"/><text fill="#000000" font-family="sans-serif" font-size="14" lengthAdjust="spacing" textLength="47" x="481.4" y="1122.2285">country</text><line style="stroke:#181818;stroke-width:0.5;" x1="443.5" x2="538.5" y1="1132.5" y2="1132.5"/><text fill="#000000" font-family="sans-serif" font-size="14" lengthAdjust="spacing" text-decoration="underline" textLength="11" x="448.5" y="1151.0332">id</text><text fill="#000000" font-family="sans-serif" font-size="14" lengthAdjust="spacing" textLength="35" x="448.5" y="1168.6426">name</text><text fill="#000000" font-family="sans-serif" font-size="14" lengthAdjust="spacing" textLength="26" x="448.5" y="1186.252">iso2</text><text fill="#000000" font-family="sans-serif" font-size="14" lengthAdjust="spacing" textLength="26" x="448.5" y="1203.8613">iso3</text><text fill="#000000" font-family="sans-serif" font-size="14" lengthAdjust="spacing" textLength="66" x="448.5" y="1221.4707">population</text><text fill="#000000" font-family="sans-serif" font-size="14" font-style="italic" lengthAdjust="spacing" text-decoration="underline" textLength="85" x="448.5" y="1239.0801">#continent_id</text><text fill="#000000" font-family="sans-serif" font-size="14" lengthAdjust="spacing" textLength="68" x="448.5" y="1256.6895">created_at</text><text fill="#000000" font-family="sans-serif" font-size="14" lengthAdjust="spacing" textLength="71" x="448.5" y="1274.2988">created_by</text><text fill="#000000" font-family="sans-serif" font-size="14" lengthAdjust="spacing" textLength="72" x="448.5" y="1291.9082">updated_at</text><text fill="#000000" font-family="sans-serif" font-size="14" lengthAdjust="spacing" textLength="75" x="448.5" y="1309.5176">updated_by</text><text fill="#000000" font-family="sans-serif" font-size="14" lengthAdjust="spacing" textLength="67" x="448.5" y="1327.127">deleted_at</text><text fill="#000000" font-family="sans-serif" font-size="14" lengthAdjust="spacing" textLength="70" x="448.5" y="1344.7363">deleted_by</text><text fill="#000000" font-family="sans-serif" font-size="14" lengthAdjust="spacing" textLength="65" x="448.5" y="1362.3457">is_deleted</text><line style="stroke:#181818;stroke-width:0.5;" x1="443.5" x2="538.5" y1="1369.4219" y2="1369.4219"/></g><!--class user--><g id="elem_user"><rect codeLine="36" fill="#F1F1F1" height="312.1406" id="user" rx="2.5" ry="2.5" style="stroke:#181818;stroke-width:0.5;" width="87" x="248" y="7"/><ellipse cx="275.15" cy="23" fill="#FFAAAA" rx="11" ry="11" style="stroke:#181818;stroke-width:1.0;"/><path d="M276.0719,20.3906 L276.0719,27.0469 L277.2281,27.0469 Q277.8375,27.0469 278.0875,27.2813 Q278.3531,27.5156 278.3531,27.9063 Q278.3531,28.2813 278.0875,28.5156 Q277.8375,28.75 277.2281,28.75 L273.2438,28.75 Q272.6188,28.75 272.3531,28.5156 Q272.1031,28.2813 272.1031,27.8906 Q272.1031,27.5156 272.3531,27.2813 Q272.6188,27.0469 273.2438,27.0469 L274.3688,27.0469 L274.3688,20.3906 L272.525,20.3906 L272.525,22 Q272.525,22.6094 272.2906,22.875 Q272.0563,23.1406 271.6813,23.1406 Q271.3063,23.1406 271.0719,22.875 Q270.8375,22.6094 270.8375,22 L270.8375,18.6875 L279.65,18.6875 L279.65,22 Q279.65,22.6094 279.4,22.875 Q279.1656,23.1406 278.7906,23.1406 Q278.4156,23.1406 278.1813,22.875 Q277.9469,22.6094 277.9469,22 L277.9469,20.3906 L276.0719,20.3906 Z " fill="#000000"/><text fill="#000000" font-family="sans-serif" font-size="14" lengthAdjust="spacing" textLength="28" x="291.85" y="28.7285">user</text><line style="stroke:#181818;stroke-width:0.5;" x1="249" x2="334" y1="39" y2="39"/><text fill="#000000" font-family="sans-serif" font-size="14" lengthAdjust="spacing" text-decoration="underline" textLength="11" x="254" y="57.5332">id</text><text fill="#000000" font-family="sans-serif" font-size="14" lengthAdjust="spacing" textLength="58" x="254" y="75.1426">firstname</text><text fill="#000000" font-family="sans-serif" font-size="14" lengthAdjust="spacing" textLength="57" x="254" y="92.752">lastname</text><text fill="#000000" font-family="sans-serif" font-size="14" lengthAdjust="spacing" textLength="63" x="254" y="110.3613">username</text><text fill="#000000" font-family="sans-serif" font-size="14" lengthAdjust="spacing" textLength="33" x="254" y="127.9707">email</text><text fill="#000000" font-family="sans-serif" font-size="14" lengthAdjust="spacing" textLength="60" x="254" y="145.5801">password</text><text fill="#000000" font-family="sans-serif" font-size="14" lengthAdjust="spacing" textLength="45" x="254" y="163.1895">gender</text><text fill="#000000" font-family="sans-serif" font-size="14" lengthAdjust="spacing" textLength="56" x="254" y="180.7988">birthdate</text><text fill="#000000" font-family="sans-serif" font-size="14" lengthAdjust="spacing" textLength="68" x="254" y="198.4082">created_at</text><text fill="#000000" font-family="sans-serif" font-size="14" lengthAdjust="spacing" textLength="71" x="254" y="216.0176">created_by</text><text fill="#000000" font-family="sans-serif" font-size="14" lengthAdjust="spacing" textLength="72" x="254" y="233.627">updated_at</text><text fill="#000000" font-family="sans-serif" font-size="14" lengthAdjust="spacing" textLength="75" x="254" y="251.2363">updated_by</text><text fill="#000000" font-family="sans-serif" font-size="14" lengthAdjust="spacing" textLength="67" x="254" y="268.8457">deleted_at</text><text fill="#000000" font-family="sans-serif" font-size="14" lengthAdjust="spacing" textLength="70" x="254" y="286.4551">deleted_by</text><text fill="#000000" font-family="sans-serif" font-size="14" lengthAdjust="spacing" textLength="65" x="254" y="304.0645">is_deleted</text><line style="stroke:#181818;stroke-width:0.5;" x1="249" x2="334" y1="311.1406" y2="311.1406"/></g><!--class role--><g id="elem_role"><rect codeLine="54" fill="#F1F1F1" height="224.0938" id="role" rx="2.5" ry="2.5" style="stroke:#181818;stroke-width:0.5;" width="87" x="248" y="354"/><ellipse cx="276.95" cy="370" fill="#FFAAAA" rx="11" ry="11" style="stroke:#181818;stroke-width:1.0;"/><path d="M277.8719,367.3906 L277.8719,374.0469 L279.0281,374.0469 Q279.6375,374.0469 279.8875,374.2813 Q280.1531,374.5156 280.1531,374.9063 Q280.1531,375.2813 279.8875,375.5156 Q279.6375,375.75 279.0281,375.75 L275.0438,375.75 Q274.4188,375.75 274.1531,375.5156 Q273.9031,375.2813 273.9031,374.8906 Q273.9031,374.5156 274.1531,374.2813 Q274.4188,374.0469 275.0438,374.0469 L276.1688,374.0469 L276.1688,367.3906 L274.325,367.3906 L274.325,369 Q274.325,369.6094 274.0906,369.875 Q273.8563,370.1406 273.4813,370.1406 Q273.1063,370.1406 272.8719,369.875 Q272.6375,369.6094 272.6375,369 L272.6375,365.6875 L281.45,365.6875 L281.45,369 Q281.45,369.6094 281.2,369.875 Q280.9656,370.1406 280.5906,370.1406 Q280.2156,370.1406 279.9813,369.875 Q279.7469,369.6094 279.7469,369 L279.7469,367.3906 L277.8719,367.3906 Z " fill="#000000"/><text fill="#000000" font-family="sans-serif" font-size="14" lengthAdjust="spacing" textLength="24" x="294.05" y="375.7285">role</text><line style="stroke:#181818;stroke-width:0.5;" x1="249" x2="334" y1="386" y2="386"/><text fill="#000000" font-family="sans-serif" font-size="14" lengthAdjust="spacing" text-decoration="underline" textLength="11" x="254" y="404.5332">id</text><text fill="#000000" font-family="sans-serif" font-size="14" lengthAdjust="spacing" textLength="35" x="254" y="422.1426">name</text><text fill="#000000" font-family="sans-serif" font-size="14" lengthAdjust="spacing" textLength="69" x="254" y="439.752">description</text><text fill="#000000" font-family="sans-serif" font-size="14" lengthAdjust="spacing" textLength="68" x="254" y="457.3613">created_at</text><text fill="#000000" font-family="sans-serif" font-size="14" lengthAdjust="spacing" textLength="71" x="254" y="474.9707">created_by</text><text fill="#000000" font-family="sans-serif" font-size="14" lengthAdjust="spacing" textLength="72" x="254" y="492.5801">updated_at</text><text fill="#000000" font-family="sans-serif" font-size="14" lengthAdjust="spacing" textLength="75" x="254" y="510.1895">updated_by</text><text fill="#000000" font-family="sans-serif" font-size="14" lengthAdjust="spacing" textLength="67" x="254" y="527.7988">deleted_at</text><text fill="#000000" font-family="sans-serif" font-size="14" lengthAdjust="spacing" textLength="70" x="254" y="545.4082">deleted_by</text><text fill="#000000" font-family="sans-serif" font-size="14" lengthAdjust="spacing" textLength="65" x="254" y="563.0176">is_deleted</text><line style="stroke:#181818;stroke-width:0.5;" x1="249" x2="334" y1="570.0938" y2="570.0938"/></g><!--class epidemic--><g id="elem_epidemic"><rect codeLine="67" fill="#F1F1F1" height="347.3594" id="epidemic" rx="2.5" ry="2.5" style="stroke:#181818;stroke-width:0.5;" width="134" x="424" y="657.5"/><ellipse cx="459.7" cy="673.5" fill="#FFAAAA" rx="11" ry="11" style="stroke:#181818;stroke-width:1.0;"/><path d="M460.6219,670.8906 L460.6219,677.5469 L461.7781,677.5469 Q462.3875,677.5469 462.6375,677.7813 Q462.9031,678.0156 462.9031,678.4063 Q462.9031,678.7813 462.6375,679.0156 Q462.3875,679.25 461.7781,679.25 L457.7938,679.25 Q457.1688,679.25 456.9031,679.0156 Q456.6531,678.7813 456.6531,678.3906 Q456.6531,678.0156 456.9031,677.7813 Q457.1688,677.5469 457.7938,677.5469 L458.9188,677.5469 L458.9188,670.8906 L457.075,670.8906 L457.075,672.5 Q457.075,673.1094 456.8406,673.375 Q456.6063,673.6406 456.2313,673.6406 Q455.8563,673.6406 455.6219,673.375 Q455.3875,673.1094 455.3875,672.5 L455.3875,669.1875 L464.2,669.1875 L464.2,672.5 Q464.2,673.1094 463.95,673.375 Q463.7156,673.6406 463.3406,673.6406 Q462.9656,673.6406 462.7313,673.375 Q462.4969,673.1094 462.4969,672.5 L462.4969,670.8906 L460.6219,670.8906 Z " fill="#000000"/><text fill="#000000" font-family="sans-serif" font-size="14" lengthAdjust="spacing" textLength="56" x="478.3" y="679.2285">epidemic</text><line style="stroke:#181818;stroke-width:0.5;" x1="425" x2="557" y1="689.5" y2="689.5"/><text fill="#000000" font-family="sans-serif" font-size="14" lengthAdjust="spacing" text-decoration="underline" textLength="11" x="430" y="708.0332">id</text><text fill="#000000" font-family="sans-serif" font-size="14" lengthAdjust="spacing" textLength="35" x="430" y="725.6426">name</text><text fill="#000000" font-family="sans-serif" font-size="14" lengthAdjust="spacing" textLength="64" x="430" y="743.252">start_date</text><text fill="#000000" font-family="sans-serif" font-size="14" lengthAdjust="spacing" textLength="60" x="430" y="760.8613">end_date</text><text fill="#000000" font-family="sans-serif" font-size="14" lengthAdjust="spacing" textLength="27" x="430" y="778.4707">type</text><text fill="#000000" font-family="sans-serif" font-size="14" lengthAdjust="spacing" textLength="103" x="430" y="796.0801">pathogen_name</text><text fill="#000000" font-family="sans-serif" font-size="14" lengthAdjust="spacing" textLength="69" x="430" y="813.6895">description</text><text fill="#000000" font-family="sans-serif" font-size="14" lengthAdjust="spacing" textLength="122" x="430" y="831.2988">transmission_mode</text><text fill="#000000" font-family="sans-serif" font-size="14" lengthAdjust="spacing" textLength="63" x="430" y="848.9082">symptoms</text><text fill="#000000" font-family="sans-serif" font-size="14" lengthAdjust="spacing" textLength="113" x="430" y="866.5176">reproduction_rate</text><text fill="#000000" font-family="sans-serif" font-size="14" lengthAdjust="spacing" textLength="68" x="430" y="884.127">created_at</text><text fill="#000000" font-family="sans-serif" font-size="14" lengthAdjust="spacing" textLength="71" x="430" y="901.7363">created_by</text><text fill="#000000" font-family="sans-serif" font-size="14" lengthAdjust="spacing" textLength="72" x="430" y="919.3457">updated_at</text><text fill="#000000" font-family="sans-serif" font-size="14" lengthAdjust="spacing" textLength="75" x="430" y="936.9551">updated_by</text><text fill="#000000" font-family="sans-serif" font-size="14" lengthAdjust="spacing" textLength="67" x="430" y="954.5645">deleted_at</text><text fill="#000000" font-family="sans-serif" font-size="14" lengthAdjust="spacing" textLength="70" x="430" y="972.1738">deleted_by</text><text fill="#000000" font-family="sans-serif" font-size="14" lengthAdjust="spacing" textLength="65" x="430" y="989.7832">is_deleted</text><line style="stroke:#181818;stroke-width:0.5;" x1="425" x2="557" y1="996.8594" y2="996.8594"/></g><!--class vaccine--><g id="elem_vaccine"><rect codeLine="87" fill="#F1F1F1" height="312.1406" id="vaccine" rx="2.5" ry="2.5" style="stroke:#181818;stroke-width:0.5;" width="145" x="219" y="613"/><ellipse cx="263.25" cy="629" fill="#FFAAAA" rx="11" ry="11" style="stroke:#181818;stroke-width:1.0;"/><path d="M264.1719,626.3906 L264.1719,633.0469 L265.3281,633.0469 Q265.9375,633.0469 266.1875,633.2813 Q266.4531,633.5156 266.4531,633.9063 Q266.4531,634.2813 266.1875,634.5156 Q265.9375,634.75 265.3281,634.75 L261.3438,634.75 Q260.7188,634.75 260.4531,634.5156 Q260.2031,634.2813 260.2031,633.8906 Q260.2031,633.5156 260.4531,633.2813 Q260.7188,633.0469 261.3438,633.0469 L262.4688,633.0469 L262.4688,626.3906 L260.625,626.3906 L260.625,628 Q260.625,628.6094 260.3906,628.875 Q260.1563,629.1406 259.7813,629.1406 Q259.4063,629.1406 259.1719,628.875 Q258.9375,628.6094 258.9375,628 L258.9375,624.6875 L267.75,624.6875 L267.75,628 Q267.75,628.6094 267.5,628.875 Q267.2656,629.1406 266.8906,629.1406 Q266.5156,629.1406 266.2813,628.875 Q266.0469,628.6094 266.0469,628 L266.0469,626.3906 L264.1719,626.3906 Z " fill="#000000"/><text fill="#000000" font-family="sans-serif" font-size="14" lengthAdjust="spacing" textLength="48" x="283.75" y="634.7285">vaccine</text><line style="stroke:#181818;stroke-width:0.5;" x1="220" x2="363" y1="645" y2="645"/><text fill="#000000" font-family="sans-serif" font-size="14" lengthAdjust="spacing" text-decoration="underline" textLength="11" x="225" y="663.5332">id</text><text fill="#000000" font-family="sans-serif" font-size="14" lengthAdjust="spacing" textLength="35" x="225" y="681.1426">name</text><text fill="#000000" font-family="sans-serif" font-size="14" lengthAdjust="spacing" textLength="64" x="225" y="698.752">laboratory</text><text fill="#000000" font-family="sans-serif" font-size="14" lengthAdjust="spacing" textLength="69" x="225" y="716.3613">technology</text><text fill="#000000" font-family="sans-serif" font-size="14" lengthAdjust="spacing" textLength="31" x="225" y="733.9707">dose</text><text fill="#000000" font-family="sans-serif" font-size="14" lengthAdjust="spacing" textLength="48" x="225" y="751.5801">efficacy</text><text fill="#000000" font-family="sans-serif" font-size="14" lengthAdjust="spacing" textLength="133" x="225" y="769.1895">storage_temperature</text><text fill="#000000" font-family="sans-serif" font-size="14" font-style="italic" lengthAdjust="spacing" text-decoration="underline" textLength="83" x="225" y="786.7988">#epidemic_id</text><text fill="#000000" font-family="sans-serif" font-size="14" lengthAdjust="spacing" textLength="68" x="225" y="804.4082">created_at</text><text fill="#000000" font-family="sans-serif" font-size="14" lengthAdjust="spacing" textLength="71" x="225" y="822.0176">created_by</text><text fill="#000000" font-family="sans-serif" font-size="14" lengthAdjust="spacing" textLength="72" x="225" y="839.627">updated_at</text><text fill="#000000" font-family="sans-serif" font-size="14" lengthAdjust="spacing" textLength="75" x="225" y="857.2363">updated_by</text><text fill="#000000" font-family="sans-serif" font-size="14" lengthAdjust="spacing" textLength="67" x="225" y="874.8457">deleted_at</text><text fill="#000000" font-family="sans-serif" font-size="14" lengthAdjust="spacing" textLength="70" x="225" y="892.4551">deleted_by</text><text fill="#000000" font-family="sans-serif" font-size="14" lengthAdjust="spacing" textLength="65" x="225" y="910.0645">is_deleted</text><line style="stroke:#181818;stroke-width:0.5;" x1="220" x2="363" y1="917.1406" y2="917.1406"/></g><!--class daily_wise--><g id="elem_daily_wise"><rect codeLine="105" fill="#F1F1F1" height="276.9219" id="daily_wise" rx="2.5" ry="2.5" style="stroke:#181818;stroke-width:0.5;" width="96" x="243.5" y="960.5"/><ellipse cx="258.5" cy="976.5" fill="#FFAAAA" rx="11" ry="11" style="stroke:#181818;stroke-width:1.0;"/><path d="M259.4219,973.8906 L259.4219,980.5469 L260.5781,980.5469 Q261.1875,980.5469 261.4375,980.7813 Q261.7031,981.0156 261.7031,981.4063 Q261.7031,981.7813 261.4375,982.0156 Q261.1875,982.25 260.5781,982.25 L256.5938,982.25 Q255.9688,982.25 255.7031,982.0156 Q255.4531,981.7813 255.4531,981.3906 Q255.4531,981.0156 255.7031,980.7813 Q255.9688,980.5469 256.5938,980.5469 L257.7188,980.5469 L257.7188,973.8906 L255.875,973.8906 L255.875,975.5 Q255.875,976.1094 255.6406,976.375 Q255.4063,976.6406 255.0313,976.6406 Q254.6563,976.6406 254.4219,976.375 Q254.1875,976.1094 254.1875,975.5 L254.1875,972.1875 L263,972.1875 L263,975.5 Q263,976.1094 262.75,976.375 Q262.5156,976.6406 262.1406,976.6406 Q261.7656,976.6406 261.5313,976.375 Q261.2969,976.1094 261.2969,975.5 L261.2969,973.8906 L259.4219,973.8906 Z " fill="#000000"/><text fill="#000000" font-family="sans-serif" font-size="14" lengthAdjust="spacing" textLength="64" x="272.5" y="982.2285">daily_wise</text><line style="stroke:#181818;stroke-width:0.5;" x1="244.5" x2="338.5" y1="992.5" y2="992.5"/><text fill="#000000" font-family="sans-serif" font-size="14" lengthAdjust="spacing" text-decoration="underline" textLength="11" x="249.5" y="1011.0332">id</text><text fill="#000000" font-family="sans-serif" font-size="14" lengthAdjust="spacing" textLength="28" x="249.5" y="1028.6426">date</text><text fill="#000000" font-family="sans-serif" font-size="14" lengthAdjust="spacing" textLength="54" x="249.5" y="1046.252">province</text><text fill="#000000" font-family="sans-serif" font-size="14" lengthAdjust="spacing" textLength="46" x="249.5" y="1063.8613">latitude</text><text fill="#000000" font-family="sans-serif" font-size="14" lengthAdjust="spacing" textLength="58" x="249.5" y="1081.4707">longitude</text><text fill="#000000" font-family="sans-serif" font-size="14" font-style="italic" lengthAdjust="spacing" text-decoration="underline" textLength="74" x="249.5" y="1099.0801">#country_id</text><text fill="#000000" font-family="sans-serif" font-size="14" lengthAdjust="spacing" textLength="68" x="249.5" y="1116.6895">created_at</text><text fill="#000000" font-family="sans-serif" font-size="14" lengthAdjust="spacing" textLength="71" x="249.5" y="1134.2988">created_by</text><text fill="#000000" font-family="sans-serif" font-size="14" lengthAdjust="spacing" textLength="72" x="249.5" y="1151.9082">updated_at</text><text fill="#000000" font-family="sans-serif" font-size="14" lengthAdjust="spacing" textLength="75" x="249.5" y="1169.5176">updated_by</text><text fill="#000000" font-family="sans-serif" font-size="14" lengthAdjust="spacing" textLength="67" x="249.5" y="1187.127">deleted_at</text><text fill="#000000" font-family="sans-serif" font-size="14" lengthAdjust="spacing" textLength="70" x="249.5" y="1204.7363">deleted_by</text><text fill="#000000" font-family="sans-serif" font-size="14" lengthAdjust="spacing" textLength="65" x="249.5" y="1222.3457">is_deleted</text><line style="stroke:#181818;stroke-width:0.5;" x1="244.5" x2="338.5" y1="1229.4219" y2="1229.4219"/></g><!--class statistic--><g id="elem_statistic"><rect codeLine="121" fill="#F1F1F1" height="312.1406" id="statistic" rx="2.5" ry="2.5" style="stroke:#181818;stroke-width:0.5;" width="103" x="31.5" y="1135"/><ellipse cx="57.3" cy="1151" fill="#FFAAAA" rx="11" ry="11" style="stroke:#181818;stroke-width:1.0;"/><path d="M58.2219,1148.3906 L58.2219,1155.0469 L59.3781,1155.0469 Q59.9875,1155.0469 60.2375,1155.2813 Q60.5031,1155.5156 60.5031,1155.9063 Q60.5031,1156.2813 60.2375,1156.5156 Q59.9875,1156.75 59.3781,1156.75 L55.3938,1156.75 Q54.7688,1156.75 54.5031,1156.5156 Q54.2531,1156.2813 54.2531,1155.8906 Q54.2531,1155.5156 54.5031,1155.2813 Q54.7688,1155.0469 55.3938,1155.0469 L56.5188,1155.0469 L56.5188,1148.3906 L54.675,1148.3906 L54.675,1150 Q54.675,1150.6094 54.4406,1150.875 Q54.2063,1151.1406 53.8313,1151.1406 Q53.4563,1151.1406 53.2219,1150.875 Q52.9875,1150.6094 52.9875,1150 L52.9875,1146.6875 L61.8,1146.6875 L61.8,1150 Q61.8,1150.6094 61.55,1150.875 Q61.3156,1151.1406 60.9406,1151.1406 Q60.5656,1151.1406 60.3313,1150.875 Q60.0969,1150.6094 60.0969,1150 L60.0969,1148.3906 L58.2219,1148.3906 Z " fill="#000000"/><text fill="#000000" font-family="sans-serif" font-size="14" lengthAdjust="spacing" textLength="47" x="73.7" y="1156.7285">statistic</text><line style="stroke:#181818;stroke-width:0.5;" x1="32.5" x2="133.5" y1="1167" y2="1167"/><text fill="#000000" font-family="sans-serif" font-size="14" lengthAdjust="spacing" text-decoration="underline" textLength="11" x="37.5" y="1185.5332">id</text><text fill="#000000" font-family="sans-serif" font-size="14" lengthAdjust="spacing" textLength="30" x="37.5" y="1203.1426">label</text><text fill="#000000" font-family="sans-serif" font-size="14" lengthAdjust="spacing" textLength="34" x="37.5" y="1220.752">value</text><text fill="#000000" font-family="sans-serif" font-size="14" font-style="italic" lengthAdjust="spacing" text-decoration="underline" textLength="91" x="37.5" y="1238.3613">#daily_wise_id</text><text fill="#000000" font-family="sans-serif" font-size="14" font-style="italic" lengthAdjust="spacing" text-decoration="underline" textLength="83" x="37.5" y="1255.9707">#epidemic_id</text><text fill="#000000" font-family="sans-serif" font-size="14" font-style="italic" lengthAdjust="spacing" text-decoration="underline" textLength="74" x="37.5" y="1273.5801">#country_id</text><text fill="#000000" font-family="sans-serif" font-size="14" lengthAdjust="spacing" textLength="81" x="37.5" y="1291.1895">published_at</text><text fill="#000000" font-family="sans-serif" font-size="14" lengthAdjust="spacing" textLength="84" x="37.5" y="1308.7988">published_by</text><text fill="#000000" font-family="sans-serif" font-size="14" lengthAdjust="spacing" textLength="68" x="37.5" y="1326.4082">created_at</text><text fill="#000000" font-family="sans-serif" font-size="14" lengthAdjust="spacing" textLength="71" x="37.5" y="1344.0176">created_by</text><text fill="#000000" font-family="sans-serif" font-size="14" lengthAdjust="spacing" textLength="72" x="37.5" y="1361.627">updated_at</text><text fill="#000000" font-family="sans-serif" font-size="14" lengthAdjust="spacing" textLength="75" x="37.5" y="1379.2363">updated_by</text><text fill="#000000" font-family="sans-serif" font-size="14" lengthAdjust="spacing" textLength="67" x="37.5" y="1396.8457">deleted_at</text><text fill="#000000" font-family="sans-serif" font-size="14" lengthAdjust="spacing" textLength="70" x="37.5" y="1414.4551">deleted_by</text><text fill="#000000" font-family="sans-serif" font-size="14" lengthAdjust="spacing" textLength="65" x="37.5" y="1432.0645">is_deleted</text><line style="stroke:#181818;stroke-width:0.5;" x1="32.5" x2="133.5" y1="1439.1406" y2="1439.1406"/></g><!--class user_role--><g id="elem_user_role"><rect codeLine="139" fill="#F1F1F1" height="224.0938" id="user_role" rx="2.5" ry="2.5" style="stroke:#181818;stroke-width:0.5;" width="92" x="37" y="203"/><ellipse cx="52" cy="219" fill="#FFAAAA" rx="11" ry="11" style="stroke:#181818;stroke-width:1.0;"/><path d="M52.9219,216.3906 L52.9219,223.0469 L54.0781,223.0469 Q54.6875,223.0469 54.9375,223.2813 Q55.2031,223.5156 55.2031,223.9063 Q55.2031,224.2813 54.9375,224.5156 Q54.6875,224.75 54.0781,224.75 L50.0938,224.75 Q49.4688,224.75 49.2031,224.5156 Q48.9531,224.2813 48.9531,223.8906 Q48.9531,223.5156 49.2031,223.2813 Q49.4688,223.0469 50.0938,223.0469 L51.2188,223.0469 L51.2188,216.3906 L49.375,216.3906 L49.375,218 Q49.375,218.6094 49.1406,218.875 Q48.9063,219.1406 48.5313,219.1406 Q48.1563,219.1406 47.9219,218.875 Q47.6875,218.6094 47.6875,218 L47.6875,214.6875 L56.5,214.6875 L56.5,218 Q56.5,218.6094 56.25,218.875 Q56.0156,219.1406 55.6406,219.1406 Q55.2656,219.1406 55.0313,218.875 Q54.7969,218.6094 54.7969,218 L54.7969,216.3906 L52.9219,216.3906 Z " fill="#000000"/><text fill="#000000" font-family="sans-serif" font-size="14" lengthAdjust="spacing" textLength="60" x="66" y="224.7285">user_role</text><line style="stroke:#181818;stroke-width:0.5;" x1="38" x2="128" y1="235" y2="235"/><text fill="#000000" font-family="sans-serif" font-size="14" lengthAdjust="spacing" text-decoration="underline" textLength="11" x="43" y="253.5332">id</text><text fill="#000000" font-family="sans-serif" font-size="14" font-style="italic" lengthAdjust="spacing" text-decoration="underline" textLength="55" x="43" y="271.1426">#user_id</text><text fill="#000000" font-family="sans-serif" font-size="14" font-style="italic" lengthAdjust="spacing" text-decoration="underline" textLength="51" x="43" y="288.752">#role_id</text><text fill="#000000" font-family="sans-serif" font-size="14" lengthAdjust="spacing" textLength="68" x="43" y="306.3613">created_at</text><text fill="#000000" font-family="sans-serif" font-size="14" lengthAdjust="spacing" textLength="71" x="43" y="323.9707">created_by</text><text fill="#000000" font-family="sans-serif" font-size="14" lengthAdjust="spacing" textLength="72" x="43" y="341.5801">updated_at</text><text fill="#000000" font-family="sans-serif" font-size="14" lengthAdjust="spacing" textLength="75" x="43" y="359.1895">updated_by</text><text fill="#000000" font-family="sans-serif" font-size="14" lengthAdjust="spacing" textLength="67" x="43" y="376.7988">deleted_at</text><text fill="#000000" font-family="sans-serif" font-size="14" lengthAdjust="spacing" textLength="70" x="43" y="394.4082">deleted_by</text><text fill="#000000" font-family="sans-serif" font-size="14" lengthAdjust="spacing" textLength="65" x="43" y="412.0176">is_deleted</text><line style="stroke:#181818;stroke-width:0.5;" x1="38" x2="128" y1="419.0938" y2="419.0938"/></g><!--class daily_wise_vaccine--><g id="elem_daily_wise_vaccine"><rect codeLine="152" fill="#F1F1F1" height="224.0938" id="daily_wise_vaccine" rx="2.5" ry="2.5" style="stroke:#181818;stroke-width:0.5;" width="152" x="7" y="766"/><ellipse cx="22" cy="782" fill="#FFAAAA" rx="11" ry="11" style="stroke:#181818;stroke-width:1.0;"/><path d="M22.9219,779.3906 L22.9219,786.0469 L24.0781,786.0469 Q24.6875,786.0469 24.9375,786.2813 Q25.2031,786.5156 25.2031,786.9063 Q25.2031,787.2813 24.9375,787.5156 Q24.6875,787.75 24.0781,787.75 L20.0938,787.75 Q19.4688,787.75 19.2031,787.5156 Q18.9531,787.2813 18.9531,786.8906 Q18.9531,786.5156 19.2031,786.2813 Q19.4688,786.0469 20.0938,786.0469 L21.2188,786.0469 L21.2188,779.3906 L19.375,779.3906 L19.375,781 Q19.375,781.6094 19.1406,781.875 Q18.9063,782.1406 18.5313,782.1406 Q18.1563,782.1406 17.9219,781.875 Q17.6875,781.6094 17.6875,781 L17.6875,777.6875 L26.5,777.6875 L26.5,781 Q26.5,781.6094 26.25,781.875 Q26.0156,782.1406 25.6406,782.1406 Q25.2656,782.1406 25.0313,781.875 Q24.7969,781.6094 24.7969,781 L24.7969,779.3906 L22.9219,779.3906 Z " fill="#000000"/><text fill="#000000" font-family="sans-serif" font-size="14" lengthAdjust="spacing" textLength="120" x="36" y="787.7285">daily_wise_vaccine</text><line style="stroke:#181818;stroke-width:0.5;" x1="8" x2="158" y1="798" y2="798"/><text fill="#000000" font-family="sans-serif" font-size="14" lengthAdjust="spacing" text-decoration="underline" textLength="11" x="13" y="816.5332">id</text><text fill="#000000" font-family="sans-serif" font-size="14" font-style="italic" lengthAdjust="spacing" text-decoration="underline" textLength="91" x="13" y="834.1426">#daily_wise_id</text><text fill="#000000" font-family="sans-serif" font-size="14" font-style="italic" lengthAdjust="spacing" text-decoration="underline" textLength="74" x="13" y="851.752">#vaccine_id</text><text fill="#000000" font-family="sans-serif" font-size="14" lengthAdjust="spacing" textLength="68" x="13" y="869.3613">created_at</text><text fill="#000000" font-family="sans-serif" font-size="14" lengthAdjust="spacing" textLength="71" x="13" y="886.9707">created_by</text><text fill="#000000" font-family="sans-serif" font-size="14" lengthAdjust="spacing" textLength="72" x="13" y="904.5801">updated_at</text><text fill="#000000" font-family="sans-serif" font-size="14" lengthAdjust="spacing" textLength="75" x="13" y="922.1895">updated_by</text><text fill="#000000" font-family="sans-serif" font-size="14" lengthAdjust="spacing" textLength="67" x="13" y="939.7988">deleted_at</text><text fill="#000000" font-family="sans-serif" font-size="14" lengthAdjust="spacing" textLength="70" x="13" y="957.4082">deleted_by</text><text fill="#000000" font-family="sans-serif" font-size="14" lengthAdjust="spacing" textLength="65" x="13" y="975.0176">is_deleted</text><line style="stroke:#181818;stroke-width:0.5;" x1="8" x2="158" y1="982.0938" y2="982.0938"/></g><!--link country to continent--><g id="link_country_continent"><path codeLine="166" d="M539.81,1239 C564.26,1239 587.83,1239 611.75,1239 " fill="none" id="country-to-continent" style="stroke:#181818;stroke-width:1.0;"/><polygon fill="#181818" points="617.75,1239,608.75,1235,612.75,1239,608.75,1243,617.75,1239" style="stroke:#181818;stroke-width:1.0;"/></g><!--link daily_wise to country--><g id="link_daily_wise_country"><path codeLine="167" d="M339.56,1132.36 C370.59,1154.35 406.2147,1179.6107 437.3847,1201.7007 " fill="none" id="daily_wise-to-country" style="stroke:#181818;stroke-width:1.0;"/><polygon fill="#181818" points="442.28,1205.17,437.2499,1196.7025,438.2006,1202.2789,432.6242,1203.2296,442.28,1205.17" style="stroke:#181818;stroke-width:1.0;"/></g><!--link statistic to daily_wise--><g id="link_statistic_daily_wise"><path codeLine="168" d="M134.52,1244.03 C167.71,1213.17 206.4454,1177.145 238.9454,1146.935 " fill="none" id="statistic-to-daily_wise" style="stroke:#181818;stroke-width:1.0;"/><polygon fill="#181818" points="243.34,1142.85,234.0247,1146.0477,239.6778,1146.2542,239.4714,1151.9072,243.34,1142.85" style="stroke:#181818;stroke-width:1.0;"/></g><!--link statistic to country--><g id="link_statistic_country"><path codeLine="169" d="M134.59,1306.6 C191.46,1321.66 286.05,1339.17 364,1317 C392.09,1309.01 415.1156,1296.1979 437.5256,1280.5979 " fill="none" id="statistic-to-country" style="stroke:#181818;stroke-width:1.0;"/><polygon fill="#181818" points="442.45,1277.17,432.7782,1279.029,438.3464,1280.0266,437.3488,1285.5948,442.45,1277.17" style="stroke:#181818;stroke-width:1.0;"/></g><!--link vaccine to epidemic--><g id="link_vaccine_epidemic"><path codeLine="170" d="M364.08,791.47 C383.62,797.61 398.976,802.4212 418.196,808.4612 " fill="none" id="vaccine-to-epidemic" style="stroke:#181818;stroke-width:1.0;"/><polygon fill="#181818" points="423.92,810.26,416.5332,803.7458,419.15,808.761,414.1348,811.3778,423.92,810.26" style="stroke:#181818;stroke-width:1.0;"/></g><!--link statistic to epidemic--><g id="link_statistic_epidemic"><path codeLine="171" d="M134.72,1299.66 C196.38,1307.12 300.07,1309.38 364,1255 C374.34,1246.21 410.0775,1123.602 441.4575,1010.382 " fill="none" id="statistic-to-epidemic" style="stroke:#181818;stroke-width:1.0;"/><polygon fill="#181818" points="443.06,1004.6,436.8015,1012.2047,441.7245,1009.4184,444.5109,1014.3414,443.06,1004.6" style="stroke:#181818;stroke-width:1.0;"/></g><!--link daily_wise_vaccine to daily_wise--><g id="link_daily_wise_vaccine_daily_wise"><path codeLine="172" d="M159.14,958.41 C187.27,988.52 214.3337,1017.4859 239.2337,1044.1359 " fill="none" id="daily_wise_vaccine-to-daily_wise" style="stroke:#181818;stroke-width:1.0;"/><polygon fill="#181818" points="243.33,1048.52,240.1084,1039.213,239.9165,1044.8665,234.2629,1044.6746,243.33,1048.52" style="stroke:#181818;stroke-width:1.0;"/></g><!--link daily_wise_vaccine to vaccine--><g id="link_daily_wise_vaccine_vaccine"><path codeLine="173" d="M159.14,838.34 C178.62,828.05 194.2541,819.8014 213.5541,809.6114 " fill="none" id="daily_wise_vaccine-to-vaccine" style="stroke:#181818;stroke-width:1.0;"/><polygon fill="#181818" points="218.86,806.81,209.0336,807.4748,214.4384,809.1445,212.7688,814.5493,218.86,806.81" style="stroke:#181818;stroke-width:1.0;"/></g><!--link user_role to user--><g id="link_user_role_user"><path codeLine="174" d="M129.06,281.83 C164.31,255.89 208.1584,223.6175 242.8184,198.0975 " fill="none" id="user_role-to-user" style="stroke:#181818;stroke-width:1.0;"/><polygon fill="#181818" points="247.65,194.54,238.031,196.6552,243.6237,197.5046,242.7743,203.0973,247.65,194.54" style="stroke:#181818;stroke-width:1.0;"/></g><!--link user_role to role--><g id="link_user_role_role"><path codeLine="175" d="M129.06,347.95 C164.31,373.72 208.1471,405.7779 242.8071,431.1279 " fill="none" id="user_role-to-role" style="stroke:#181818;stroke-width:1.0;"/><polygon fill="#181818" points="247.65,434.67,242.747,426.1283,243.6142,431.7183,238.0243,432.5855,247.65,434.67" style="stroke:#181818;stroke-width:1.0;"/></g><!--SRC=[nLLBRjim4Dtp52ooQ0mqCD1k0mC5YboWtGiqEPO7eKY273aHWXmevyZ5EgGbELKK8IjL6ysFudipZzGN0mTq84djBLm_RgIsAYNvA6zlvVMVRrTtTp_vsSZTJbWua2Gl8zP7aWOZQ4BlHBf75rHKZGnAtwiQVbDdGUQqShK58RxANwyll0tcUcaWIN24zFgIn7bVxTbt7Dp89o7bKo95g9yb6lQSQe1Vsfly2ZwqLfMDEHP14PXAqHjdtx7J1dF934x96B0mPWQdP31LlI-UnOYiTHIx1LoO_FVpwySKtbY_tLwD52iqs-qgsDi4SGxu0MEY7ZrFUp1pUMz2ez1cDgo51n_peXgSWSZ67YCTCwPLE4HlOQ7vh2KTCQmc1mXee46z08bZaQg-GToqmQGk5FqgEdfkPZNBWA9ogS6KsAsQi-9JrmJoJM8pGeZUjENSLN6j6PoKrYpT1SvMxJt3yJ5_Wa0VdRU-BZlvLFfmEA1MkYlzuT8QAe8c02zg8qoEoj3azKwAORbtrGEcMPBz0Bdr9tJwp9UlhxPCntfN3_Q_vxrS7EjnA7idcjSc3mZoWJufsqwHNiWFO9U6iS0nj7kBwJWWlhW5yphtNVNHXV4MTocSuPFN_W_HLGidxFEJwZ-o1e7tF_G8vxzU4hqevCtDJeu_FN61tYTAaHX5MwANeabYAEyfbjWWp4df67xVtkaU7rJqjXZbLABPcuIoyHS0]--></g></svg>