<?xml version="1.0" encoding="us-ascii" standalone="no"?><svg xmlns="http://www.w3.org/2000/svg" xmlns:xlink="http://www.w3.org/1999/xlink" contentStyleType="text/css" height="1387px" preserveAspectRatio="none" style="width:666px;height:1387px;background:#FFFFFF;" version="1.1" viewBox="0 0 666 1387" width="666px" zoomAndPan="magnify"><defs/><g><!--class continent--><g id="elem_continent"><rect codeLine="6" fill="#F1F1F1" height="241.7031" id="continent" rx="2.5" ry="2.5" style="stroke:#181818;stroke-width:0.5;" width="90" x="569" y="611"/><ellipse cx="584" cy="627" fill="#FFAAAA" rx="11" ry="11" style="stroke:#181818;stroke-width:1.0;"/><path d="M584.9219,624.3906 L584.9219,631.0469 L586.0781,631.0469 Q586.6875,631.0469 586.9375,631.2813 Q587.2031,631.5156 587.2031,631.9063 Q587.2031,632.2813 586.9375,632.5156 Q586.6875,632.75 586.0781,632.75 L582.0938,632.75 Q581.4688,632.75 581.2031,632.5156 Q580.9531,632.2813 580.9531,631.8906 Q580.9531,631.5156 581.2031,631.2813 Q581.4688,631.0469 582.0938,631.0469 L583.2188,631.0469 L583.2188,624.3906 L581.375,624.3906 L581.375,626 Q581.375,626.6094 581.1406,626.875 Q580.9063,627.1406 580.5313,627.1406 Q580.1563,627.1406 579.9219,626.875 Q579.6875,626.6094 579.6875,626 L579.6875,622.6875 L588.5,622.6875 L588.5,626 Q588.5,626.6094 588.25,626.875 Q588.0156,627.1406 587.6406,627.1406 Q587.2656,627.1406 587.0313,626.875 Q586.7969,626.6094 586.7969,626 L586.7969,624.3906 L584.9219,624.3906 Z " fill="#000000"/><text fill="#000000" font-family="sans-serif" font-size="14" lengthAdjust="spacing" textLength="58" x="598" y="632.7285">continent</text><line style="stroke:#181818;stroke-width:0.5;" x1="570" x2="658" y1="643" y2="643"/><text fill="#000000" font-family="sans-serif" font-size="14" lengthAdjust="spacing" text-decoration="underline" textLength="11" x="575" y="661.5332">id</text><text fill="#000000" font-family="sans-serif" font-size="14" lengthAdjust="spacing" textLength="35" x="575" y="679.1426">name</text><text fill="#000000" font-family="sans-serif" font-size="14" lengthAdjust="spacing" textLength="31" x="575" y="696.752">code</text><text fill="#000000" font-family="sans-serif" font-size="14" lengthAdjust="spacing" textLength="66" x="575" y="714.3613">population</text><text fill="#000000" font-family="sans-serif" font-size="14" lengthAdjust="spacing" textLength="68" x="575" y="731.9707">created_at</text><text fill="#000000" font-family="sans-serif" font-size="14" lengthAdjust="spacing" textLength="71" x="575" y="749.5801">created_by</text><text fill="#000000" font-family="sans-serif" font-size="14" lengthAdjust="spacing" textLength="72" x="575" y="767.1895">updated_at</text><text fill="#000000" font-family="sans-serif" font-size="14" lengthAdjust="spacing" textLength="75" x="575" y="784.7988">updated_by</text><text fill="#000000" font-family="sans-serif" font-size="14" lengthAdjust="spacing" textLength="67" x="575" y="802.4082">deleted_at</text><text fill="#000000" font-family="sans-serif" font-size="14" lengthAdjust="spacing" textLength="70" x="575" y="820.0176">deleted_by</text><text fill="#000000" font-family="sans-serif" font-size="14" lengthAdjust="spacing" textLength="65" x="575" y="837.627">is_deleted</text><line style="stroke:#181818;stroke-width:0.5;" x1="570" x2="658" y1="844.7031" y2="844.7031"/></g><!--class country--><g id="elem_country"><rect codeLine="20" fill="#F1F1F1" height="276.9219" id="country" rx="2.5" ry="2.5" style="stroke:#181818;stroke-width:0.5;" width="97" x="393.5" y="593.5"/><ellipse cx="416.6" cy="609.5" fill="#FFAAAA" rx="11" ry="11" style="stroke:#181818;stroke-width:1.0;"/><path d="M417.5219,606.8906 L417.5219,613.5469 L418.6781,613.5469 Q419.2875,613.5469 419.5375,613.7813 Q419.8031,614.0156 419.8031,614.4063 Q419.8031,614.7813 419.5375,615.0156 Q419.2875,615.25 418.6781,615.25 L414.6938,615.25 Q414.0688,615.25 413.8031,615.0156 Q413.5531,614.7813 413.5531,614.3906 Q413.5531,614.0156 413.8031,613.7813 Q414.0688,613.5469 414.6938,613.5469 L415.8188,613.5469 L415.8188,606.8906 L413.975,606.8906 L413.975,608.5 Q413.975,609.1094 413.7406,609.375 Q413.5063,609.6406 413.1313,609.6406 Q412.7563,609.6406 412.5219,609.375 Q412.2875,609.1094 412.2875,608.5 L412.2875,605.1875 L421.1,605.1875 L421.1,608.5 Q421.1,609.1094 420.85,609.375 Q420.6156,609.6406 420.2406,609.6406 Q419.8656,609.6406 419.6313,609.375 Q419.3969,609.1094 419.3969,608.5 L419.3969,606.8906 L417.5219,606.8906 Z " fill="#000000"/><text fill="#000000" font-family="sans-serif" font-size="14" lengthAdjust="spacing" textLength="47" x="432.4" y="615.2285">country</text><line style="stroke:#181818;stroke-width:0.5;" x1="394.5" x2="489.5" y1="625.5" y2="625.5"/><text fill="#000000" font-family="sans-serif" font-size="14" lengthAdjust="spacing" text-decoration="underline" textLength="11" x="399.5" y="644.0332">id</text><text fill="#000000" font-family="sans-serif" font-size="14" lengthAdjust="spacing" textLength="35" x="399.5" y="661.6426">name</text><text fill="#000000" font-family="sans-serif" font-size="14" lengthAdjust="spacing" textLength="26" x="399.5" y="679.252">iso2</text><text fill="#000000" font-family="sans-serif" font-size="14" lengthAdjust="spacing" textLength="26" x="399.5" y="696.8613">iso3</text><text fill="#000000" font-family="sans-serif" font-size="14" lengthAdjust="spacing" textLength="66" x="399.5" y="714.4707">population</text><text fill="#000000" font-family="sans-serif" font-size="14" font-style="italic" lengthAdjust="spacing" text-decoration="underline" textLength="85" x="399.5" y="732.0801">#continent_id</text><text fill="#000000" font-family="sans-serif" font-size="14" lengthAdjust="spacing" textLength="68" x="399.5" y="749.6895">created_at</text><text fill="#000000" font-family="sans-serif" font-size="14" lengthAdjust="spacing" textLength="71" x="399.5" y="767.2988">created_by</text><text fill="#000000" font-family="sans-serif" font-size="14" lengthAdjust="spacing" textLength="72" x="399.5" y="784.9082">updated_at</text><text fill="#000000" font-family="sans-serif" font-size="14" lengthAdjust="spacing" textLength="75" x="399.5" y="802.5176">updated_by</text><text fill="#000000" font-family="sans-serif" font-size="14" lengthAdjust="spacing" textLength="67" x="399.5" y="820.127">deleted_at</text><text fill="#000000" font-family="sans-serif" font-size="14" lengthAdjust="spacing" textLength="70" x="399.5" y="837.7363">deleted_by</text><text fill="#000000" font-family="sans-serif" font-size="14" lengthAdjust="spacing" textLength="65" x="399.5" y="855.3457">is_deleted</text><line style="stroke:#181818;stroke-width:0.5;" x1="394.5" x2="489.5" y1="862.4219" y2="862.4219"/></g><!--class user--><g id="elem_user"><rect codeLine="36" fill="#F1F1F1" height="312.1406" id="user" rx="2.5" ry="2.5" style="stroke:#181818;stroke-width:0.5;" width="87" x="199" y="7"/><ellipse cx="226.15" cy="23" fill="#FFAAAA" rx="11" ry="11" style="stroke:#181818;stroke-width:1.0;"/><path d="M227.0719,20.3906 L227.0719,27.0469 L228.2281,27.0469 Q228.8375,27.0469 229.0875,27.2813 Q229.3531,27.5156 229.3531,27.9063 Q229.3531,28.2813 229.0875,28.5156 Q228.8375,28.75 228.2281,28.75 L224.2438,28.75 Q223.6188,28.75 223.3531,28.5156 Q223.1031,28.2813 223.1031,27.8906 Q223.1031,27.5156 223.3531,27.2813 Q223.6188,27.0469 224.2438,27.0469 L225.3688,27.0469 L225.3688,20.3906 L223.525,20.3906 L223.525,22 Q223.525,22.6094 223.2906,22.875 Q223.0563,23.1406 222.6813,23.1406 Q222.3063,23.1406 222.0719,22.875 Q221.8375,22.6094 221.8375,22 L221.8375,18.6875 L230.65,18.6875 L230.65,22 Q230.65,22.6094 230.4,22.875 Q230.1656,23.1406 229.7906,23.1406 Q229.4156,23.1406 229.1813,22.875 Q228.9469,22.6094 228.9469,22 L228.9469,20.3906 L227.0719,20.3906 Z " fill="#000000"/><text fill="#000000" font-family="sans-serif" font-size="14" lengthAdjust="spacing" textLength="28" x="242.85" y="28.7285">user</text><line style="stroke:#181818;stroke-width:0.5;" x1="200" x2="285" y1="39" y2="39"/><text fill="#000000" font-family="sans-serif" font-size="14" lengthAdjust="spacing" text-decoration="underline" textLength="11" x="205" y="57.5332">id</text><text fill="#000000" font-family="sans-serif" font-size="14" lengthAdjust="spacing" textLength="58" x="205" y="75.1426">firstname</text><text fill="#000000" font-family="sans-serif" font-size="14" lengthAdjust="spacing" textLength="57" x="205" y="92.752">lastname</text><text fill="#000000" font-family="sans-serif" font-size="14" lengthAdjust="spacing" textLength="63" x="205" y="110.3613">username</text><text fill="#000000" font-family="sans-serif" font-size="14" lengthAdjust="spacing" textLength="33" x="205" y="127.9707">email</text><text fill="#000000" font-family="sans-serif" font-size="14" lengthAdjust="spacing" textLength="60" x="205" y="145.5801">password</text><text fill="#000000" font-family="sans-serif" font-size="14" lengthAdjust="spacing" textLength="45" x="205" y="163.1895">gender</text><text fill="#000000" font-family="sans-serif" font-size="14" lengthAdjust="spacing" textLength="56" x="205" y="180.7988">birthdate</text><text fill="#000000" font-family="sans-serif" font-size="14" lengthAdjust="spacing" textLength="68" x="205" y="198.4082">created_at</text><text fill="#000000" font-family="sans-serif" font-size="14" lengthAdjust="spacing" textLength="71" x="205" y="216.0176">created_by</text><text fill="#000000" font-family="sans-serif" font-size="14" lengthAdjust="spacing" textLength="72" x="205" y="233.627">updated_at</text><text fill="#000000" font-family="sans-serif" font-size="14" lengthAdjust="spacing" textLength="75" x="205" y="251.2363">updated_by</text><text fill="#000000" font-family="sans-serif" font-size="14" lengthAdjust="spacing" textLength="67" x="205" y="268.8457">deleted_at</text><text fill="#000000" font-family="sans-serif" font-size="14" lengthAdjust="spacing" textLength="70" x="205" y="286.4551">deleted_by</text><text fill="#000000" font-family="sans-serif" font-size="14" lengthAdjust="spacing" textLength="65" x="205" y="304.0645">is_deleted</text><line style="stroke:#181818;stroke-width:0.5;" x1="200" x2="285" y1="311.1406" y2="311.1406"/></g><!--class role--><g id="elem_role"><rect codeLine="54" fill="#F1F1F1" height="224.0938" id="role" rx="2.5" ry="2.5" style="stroke:#181818;stroke-width:0.5;" width="87" x="199" y="354"/><ellipse cx="227.95" cy="370" fill="#FFAAAA" rx="11" ry="11" style="stroke:#181818;stroke-width:1.0;"/><path d="M228.8719,367.3906 L228.8719,374.0469 L230.0281,374.0469 Q230.6375,374.0469 230.8875,374.2813 Q231.1531,374.5156 231.1531,374.9063 Q231.1531,375.2813 230.8875,375.5156 Q230.6375,375.75 230.0281,375.75 L226.0438,375.75 Q225.4188,375.75 225.1531,375.5156 Q224.9031,375.2813 224.9031,374.8906 Q224.9031,374.5156 225.1531,374.2813 Q225.4188,374.0469 226.0438,374.0469 L227.1688,374.0469 L227.1688,367.3906 L225.325,367.3906 L225.325,369 Q225.325,369.6094 225.0906,369.875 Q224.8563,370.1406 224.4813,370.1406 Q224.1063,370.1406 223.8719,369.875 Q223.6375,369.6094 223.6375,369 L223.6375,365.6875 L232.45,365.6875 L232.45,369 Q232.45,369.6094 232.2,369.875 Q231.9656,370.1406 231.5906,370.1406 Q231.2156,370.1406 230.9813,369.875 Q230.7469,369.6094 230.7469,369 L230.7469,367.3906 L228.8719,367.3906 Z " fill="#000000"/><text fill="#000000" font-family="sans-serif" font-size="14" lengthAdjust="spacing" textLength="24" x="245.05" y="375.7285">role</text><line style="stroke:#181818;stroke-width:0.5;" x1="200" x2="285" y1="386" y2="386"/><text fill="#000000" font-family="sans-serif" font-size="14" lengthAdjust="spacing" text-decoration="underline" textLength="11" x="205" y="404.5332">id</text><text fill="#000000" font-family="sans-serif" font-size="14" lengthAdjust="spacing" textLength="35" x="205" y="422.1426">name</text><text fill="#000000" font-family="sans-serif" font-size="14" lengthAdjust="spacing" textLength="69" x="205" y="439.752">description</text><text fill="#000000" font-family="sans-serif" font-size="14" lengthAdjust="spacing" textLength="68" x="205" y="457.3613">created_at</text><text fill="#000000" font-family="sans-serif" font-size="14" lengthAdjust="spacing" textLength="71" x="205" y="474.9707">created_by</text><text fill="#000000" font-family="sans-serif" font-size="14" lengthAdjust="spacing" textLength="72" x="205" y="492.5801">updated_at</text><text fill="#000000" font-family="sans-serif" font-size="14" lengthAdjust="spacing" textLength="75" x="205" y="510.1895">updated_by</text><text fill="#000000" font-family="sans-serif" font-size="14" lengthAdjust="spacing" textLength="67" x="205" y="527.7988">deleted_at</text><text fill="#000000" font-family="sans-serif" font-size="14" lengthAdjust="spacing" textLength="70" x="205" y="545.4082">deleted_by</text><text fill="#000000" font-family="sans-serif" font-size="14" lengthAdjust="spacing" textLength="65" x="205" y="563.0176">is_deleted</text><line style="stroke:#181818;stroke-width:0.5;" x1="200" x2="285" y1="570.0938" y2="570.0938"/></g><!--class epidemic--><g id="elem_epidemic"><rect codeLine="67" fill="#F1F1F1" height="347.3594" id="epidemic" rx="2.5" ry="2.5" style="stroke:#181818;stroke-width:0.5;" width="134" x="375" y="932.5"/><ellipse cx="410.7" cy="948.5" fill="#FFAAAA" rx="11" ry="11" style="stroke:#181818;stroke-width:1.0;"/><path d="M411.6219,945.8906 L411.6219,952.5469 L412.7781,952.5469 Q413.3875,952.5469 413.6375,952.7813 Q413.9031,953.0156 413.9031,953.4063 Q413.9031,953.7813 413.6375,954.0156 Q413.3875,954.25 412.7781,954.25 L408.7938,954.25 Q408.1688,954.25 407.9031,954.0156 Q407.6531,953.7813 407.6531,953.3906 Q407.6531,953.0156 407.9031,952.7813 Q408.1688,952.5469 408.7938,952.5469 L409.9188,952.5469 L409.9188,945.8906 L408.075,945.8906 L408.075,947.5 Q408.075,948.1094 407.8406,948.375 Q407.6063,948.6406 407.2313,948.6406 Q406.8563,948.6406 406.6219,948.375 Q406.3875,948.1094 406.3875,947.5 L406.3875,944.1875 L415.2,944.1875 L415.2,947.5 Q415.2,948.1094 414.95,948.375 Q414.7156,948.6406 414.3406,948.6406 Q413.9656,948.6406 413.7313,948.375 Q413.4969,948.1094 413.4969,947.5 L413.4969,945.8906 L411.6219,945.8906 Z " fill="#000000"/><text fill="#000000" font-family="sans-serif" font-size="14" lengthAdjust="spacing" textLength="56" x="429.3" y="954.2285">epidemic</text><line style="stroke:#181818;stroke-width:0.5;" x1="376" x2="508" y1="964.5" y2="964.5"/><text fill="#000000" font-family="sans-serif" font-size="14" lengthAdjust="spacing" text-decoration="underline" textLength="11" x="381" y="983.0332">id</text><text fill="#000000" font-family="sans-serif" font-size="14" lengthAdjust="spacing" textLength="35" x="381" y="1000.6426">name</text><text fill="#000000" font-family="sans-serif" font-size="14" lengthAdjust="spacing" textLength="64" x="381" y="1018.252">start_date</text><text fill="#000000" font-family="sans-serif" font-size="14" lengthAdjust="spacing" textLength="60" x="381" y="1035.8613">end_date</text><text fill="#000000" font-family="sans-serif" font-size="14" lengthAdjust="spacing" textLength="27" x="381" y="1053.4707">type</text><text fill="#000000" font-family="sans-serif" font-size="14" lengthAdjust="spacing" textLength="103" x="381" y="1071.0801">pathogen_name</text><text fill="#000000" font-family="sans-serif" font-size="14" lengthAdjust="spacing" textLength="69" x="381" y="1088.6895">description</text><text fill="#000000" font-family="sans-serif" font-size="14" lengthAdjust="spacing" textLength="122" x="381" y="1106.2988">transmission_mode</text><text fill="#000000" font-family="sans-serif" font-size="14" lengthAdjust="spacing" textLength="63" x="381" y="1123.9082">symptoms</text><text fill="#000000" font-family="sans-serif" font-size="14" lengthAdjust="spacing" textLength="113" x="381" y="1141.5176">reproduction_rate</text><text fill="#000000" font-family="sans-serif" font-size="14" lengthAdjust="spacing" textLength="68" x="381" y="1159.127">created_at</text><text fill="#000000" font-family="sans-serif" font-size="14" lengthAdjust="spacing" textLength="71" x="381" y="1176.7363">created_by</text><text fill="#000000" font-family="sans-serif" font-size="14" lengthAdjust="spacing" textLength="72" x="381" y="1194.3457">updated_at</text><text fill="#000000" font-family="sans-serif" font-size="14" lengthAdjust="spacing" textLength="75" x="381" y="1211.9551">updated_by</text><text fill="#000000" font-family="sans-serif" font-size="14" lengthAdjust="spacing" textLength="67" x="381" y="1229.5645">deleted_at</text><text fill="#000000" font-family="sans-serif" font-size="14" lengthAdjust="spacing" textLength="70" x="381" y="1247.1738">deleted_by</text><text fill="#000000" font-family="sans-serif" font-size="14" lengthAdjust="spacing" textLength="65" x="381" y="1264.7832">is_deleted</text><line style="stroke:#181818;stroke-width:0.5;" x1="376" x2="508" y1="1271.8594" y2="1271.8594"/></g><!--class vaccine--><g id="elem_vaccine"><rect codeLine="87" fill="#F1F1F1" height="312.1406" id="vaccine" rx="2.5" ry="2.5" style="stroke:#181818;stroke-width:0.5;" width="145" x="170" y="1068"/><ellipse cx="214.25" cy="1084" fill="#FFAAAA" rx="11" ry="11" style="stroke:#181818;stroke-width:1.0;"/><path d="M215.1719,1081.3906 L215.1719,1088.0469 L216.3281,1088.0469 Q216.9375,1088.0469 217.1875,1088.2813 Q217.4531,1088.5156 217.4531,1088.9063 Q217.4531,1089.2813 217.1875,1089.5156 Q216.9375,1089.75 216.3281,1089.75 L212.3438,1089.75 Q211.7188,1089.75 211.4531,1089.5156 Q211.2031,1089.2813 211.2031,1088.8906 Q211.2031,1088.5156 211.4531,1088.2813 Q211.7188,1088.0469 212.3438,1088.0469 L213.4688,1088.0469 L213.4688,1081.3906 L211.625,1081.3906 L211.625,1083 Q211.625,1083.6094 211.3906,1083.875 Q211.1563,1084.1406 210.7813,1084.1406 Q210.4063,1084.1406 210.1719,1083.875 Q209.9375,1083.6094 209.9375,1083 L209.9375,1079.6875 L218.75,1079.6875 L218.75,1083 Q218.75,1083.6094 218.5,1083.875 Q218.2656,1084.1406 217.8906,1084.1406 Q217.5156,1084.1406 217.2813,1083.875 Q217.0469,1083.6094 217.0469,1083 L217.0469,1081.3906 L215.1719,1081.3906 Z " fill="#000000"/><text fill="#000000" font-family="sans-serif" font-size="14" lengthAdjust="spacing" textLength="48" x="234.75" y="1089.7285">vaccine</text><line style="stroke:#181818;stroke-width:0.5;" x1="171" x2="314" y1="1100" y2="1100"/><text fill="#000000" font-family="sans-serif" font-size="14" lengthAdjust="spacing" text-decoration="underline" textLength="11" x="176" y="1118.5332">id</text><text fill="#000000" font-family="sans-serif" font-size="14" lengthAdjust="spacing" textLength="35" x="176" y="1136.1426">name</text><text fill="#000000" font-family="sans-serif" font-size="14" lengthAdjust="spacing" textLength="64" x="176" y="1153.752">laboratory</text><text fill="#000000" font-family="sans-serif" font-size="14" lengthAdjust="spacing" textLength="69" x="176" y="1171.3613">technology</text><text fill="#000000" font-family="sans-serif" font-size="14" lengthAdjust="spacing" textLength="31" x="176" y="1188.9707">dose</text><text fill="#000000" font-family="sans-serif" font-size="14" lengthAdjust="spacing" textLength="48" x="176" y="1206.5801">efficacy</text><text fill="#000000" font-family="sans-serif" font-size="14" lengthAdjust="spacing" textLength="133" x="176" y="1224.1895">storage_temperature</text><text fill="#000000" font-family="sans-serif" font-size="14" font-style="italic" lengthAdjust="spacing" text-decoration="underline" textLength="83" x="176" y="1241.7988">#epidemic_id</text><text fill="#000000" font-family="sans-serif" font-size="14" lengthAdjust="spacing" textLength="68" x="176" y="1259.4082">created_at</text><text fill="#000000" font-family="sans-serif" font-size="14" lengthAdjust="spacing" textLength="71" x="176" y="1277.0176">created_by</text><text fill="#000000" font-family="sans-serif" font-size="14" lengthAdjust="spacing" textLength="72" x="176" y="1294.627">updated_at</text><text fill="#000000" font-family="sans-serif" font-size="14" lengthAdjust="spacing" textLength="75" x="176" y="1312.2363">updated_by</text><text fill="#000000" font-family="sans-serif" font-size="14" lengthAdjust="spacing" textLength="67" x="176" y="1329.8457">deleted_at</text><text fill="#000000" font-family="sans-serif" font-size="14" lengthAdjust="spacing" textLength="70" x="176" y="1347.4551">deleted_by</text><text fill="#000000" font-family="sans-serif" font-size="14" lengthAdjust="spacing" textLength="65" x="176" y="1365.0645">is_deleted</text><line style="stroke:#181818;stroke-width:0.5;" x1="171" x2="314" y1="1372.1406" y2="1372.1406"/></g><!--class daily_wise--><g id="elem_daily_wise"><rect codeLine="105" fill="#F1F1F1" height="276.9219" id="daily_wise" rx="2.5" ry="2.5" style="stroke:#181818;stroke-width:0.5;" width="96" x="194.5" y="684.5"/><ellipse cx="209.5" cy="700.5" fill="#FFAAAA" rx="11" ry="11" style="stroke:#181818;stroke-width:1.0;"/><path d="M210.4219,697.8906 L210.4219,704.5469 L211.5781,704.5469 Q212.1875,704.5469 212.4375,704.7813 Q212.7031,705.0156 212.7031,705.4063 Q212.7031,705.7813 212.4375,706.0156 Q212.1875,706.25 211.5781,706.25 L207.5938,706.25 Q206.9688,706.25 206.7031,706.0156 Q206.4531,705.7813 206.4531,705.3906 Q206.4531,705.0156 206.7031,704.7813 Q206.9688,704.5469 207.5938,704.5469 L208.7188,704.5469 L208.7188,697.8906 L206.875,697.8906 L206.875,699.5 Q206.875,700.1094 206.6406,700.375 Q206.4063,700.6406 206.0313,700.6406 Q205.6563,700.6406 205.4219,700.375 Q205.1875,700.1094 205.1875,699.5 L205.1875,696.1875 L214,696.1875 L214,699.5 Q214,700.1094 213.75,700.375 Q213.5156,700.6406 213.1406,700.6406 Q212.7656,700.6406 212.5313,700.375 Q212.2969,700.1094 212.2969,699.5 L212.2969,697.8906 L210.4219,697.8906 Z " fill="#000000"/><text fill="#000000" font-family="sans-serif" font-size="14" lengthAdjust="spacing" textLength="64" x="223.5" y="706.2285">daily_wise</text><line style="stroke:#181818;stroke-width:0.5;" x1="195.5" x2="289.5" y1="716.5" y2="716.5"/><text fill="#000000" font-family="sans-serif" font-size="14" lengthAdjust="spacing" text-decoration="underline" textLength="11" x="200.5" y="735.0332">id</text><text fill="#000000" font-family="sans-serif" font-size="14" lengthAdjust="spacing" textLength="28" x="200.5" y="752.6426">date</text><text fill="#000000" font-family="sans-serif" font-size="14" lengthAdjust="spacing" textLength="54" x="200.5" y="770.252">province</text><text fill="#000000" font-family="sans-serif" font-size="14" lengthAdjust="spacing" textLength="46" x="200.5" y="787.8613">latitude</text><text fill="#000000" font-family="sans-serif" font-size="14" lengthAdjust="spacing" textLength="58" x="200.5" y="805.4707">longitude</text><text fill="#000000" font-family="sans-serif" font-size="14" font-style="italic" lengthAdjust="spacing" text-decoration="underline" textLength="74" x="200.5" y="823.0801">#country_id</text><text fill="#000000" font-family="sans-serif" font-size="14" lengthAdjust="spacing" textLength="68" x="200.5" y="840.6895">created_at</text><text fill="#000000" font-family="sans-serif" font-size="14" lengthAdjust="spacing" textLength="71" x="200.5" y="858.2988">created_by</text><text fill="#000000" font-family="sans-serif" font-size="14" lengthAdjust="spacing" textLength="72" x="200.5" y="875.9082">updated_at</text><text fill="#000000" font-family="sans-serif" font-size="14" lengthAdjust="spacing" textLength="75" x="200.5" y="893.5176">updated_by</text><text fill="#000000" font-family="sans-serif" font-size="14" lengthAdjust="spacing" textLength="67" x="200.5" y="911.127">deleted_at</text><text fill="#000000" font-family="sans-serif" font-size="14" lengthAdjust="spacing" textLength="70" x="200.5" y="928.7363">deleted_by</text><text fill="#000000" font-family="sans-serif" font-size="14" lengthAdjust="spacing" textLength="65" x="200.5" y="946.3457">is_deleted</text><line style="stroke:#181818;stroke-width:0.5;" x1="195.5" x2="289.5" y1="953.4219" y2="953.4219"/></g><!--class statistic--><g id="elem_statistic"><rect codeLine="121" fill="#F1F1F1" height="329.75" id="statistic" rx="2.5" ry="2.5" style="stroke:#181818;stroke-width:0.5;" width="103" x="7" y="754"/><ellipse cx="32.8" cy="770" fill="#FFAAAA" rx="11" ry="11" style="stroke:#181818;stroke-width:1.0;"/><path d="M33.7219,767.3906 L33.7219,774.0469 L34.8781,774.0469 Q35.4875,774.0469 35.7375,774.2813 Q36.0031,774.5156 36.0031,774.9063 Q36.0031,775.2813 35.7375,775.5156 Q35.4875,775.75 34.8781,775.75 L30.8937,775.75 Q30.2687,775.75 30.0031,775.5156 Q29.7531,775.2813 29.7531,774.8906 Q29.7531,774.5156 30.0031,774.2813 Q30.2687,774.0469 30.8937,774.0469 L32.0188,774.0469 L32.0188,767.3906 L30.175,767.3906 L30.175,769 Q30.175,769.6094 29.9406,769.875 Q29.7062,770.1406 29.3312,770.1406 Q28.9562,770.1406 28.7219,769.875 Q28.4875,769.6094 28.4875,769 L28.4875,765.6875 L37.3,765.6875 L37.3,769 Q37.3,769.6094 37.05,769.875 Q36.8156,770.1406 36.4406,770.1406 Q36.0656,770.1406 35.8313,769.875 Q35.5969,769.6094 35.5969,769 L35.5969,767.3906 L33.7219,767.3906 Z " fill="#000000"/><text fill="#000000" font-family="sans-serif" font-size="14" lengthAdjust="spacing" textLength="47" x="49.2" y="775.7285">statistic</text><line style="stroke:#181818;stroke-width:0.5;" x1="8" x2="109" y1="786" y2="786"/><text fill="#000000" font-family="sans-serif" font-size="14" lengthAdjust="spacing" text-decoration="underline" textLength="11" x="13" y="804.5332">id</text><text fill="#000000" font-family="sans-serif" font-size="14" lengthAdjust="spacing" textLength="30" x="13" y="822.1426">label</text><text fill="#000000" font-family="sans-serif" font-size="14" lengthAdjust="spacing" textLength="34" x="13" y="839.752">value</text><text fill="#000000" font-family="sans-serif" font-size="14" font-style="italic" lengthAdjust="spacing" text-decoration="underline" textLength="91" x="13" y="857.3613">#daily_wise_id</text><text fill="#000000" font-family="sans-serif" font-size="14" font-style="italic" lengthAdjust="spacing" text-decoration="underline" textLength="83" x="13" y="874.9707">#epidemic_id</text><text fill="#000000" font-family="sans-serif" font-size="14" font-style="italic" lengthAdjust="spacing" text-decoration="underline" textLength="74" x="13" y="892.5801">#country_id</text><text fill="#000000" font-family="sans-serif" font-size="14" font-style="italic" lengthAdjust="spacing" text-decoration="underline" textLength="74" x="13" y="910.1895">#vaccine_id</text><text fill="#000000" font-family="sans-serif" font-size="14" lengthAdjust="spacing" textLength="81" x="13" y="927.7988">published_at</text><text fill="#000000" font-family="sans-serif" font-size="14" lengthAdjust="spacing" textLength="84" x="13" y="945.4082">published_by</text><text fill="#000000" font-family="sans-serif" font-size="14" lengthAdjust="spacing" textLength="68" x="13" y="963.0176">created_at</text><text fill="#000000" font-family="sans-serif" font-size="14" lengthAdjust="spacing" textLength="71" x="13" y="980.627">created_by</text><text fill="#000000" font-family="sans-serif" font-size="14" lengthAdjust="spacing" textLength="72" x="13" y="998.2363">updated_at</text><text fill="#000000" font-family="sans-serif" font-size="14" lengthAdjust="spacing" textLength="75" x="13" y="1015.8457">updated_by</text><text fill="#000000" font-family="sans-serif" font-size="14" lengthAdjust="spacing" textLength="67" x="13" y="1033.4551">deleted_at</text><text fill="#000000" font-family="sans-serif" font-size="14" lengthAdjust="spacing" textLength="70" x="13" y="1051.0645">deleted_by</text><text fill="#000000" font-family="sans-serif" font-size="14" lengthAdjust="spacing" textLength="65" x="13" y="1068.6738">is_deleted</text><line style="stroke:#181818;stroke-width:0.5;" x1="8" x2="109" y1="1075.75" y2="1075.75"/></g><!--class user_role--><g id="elem_user_role"><rect codeLine="140" fill="#F1F1F1" height="224.0938" id="user_role" rx="2.5" ry="2.5" style="stroke:#181818;stroke-width:0.5;" width="92" x="12.5" y="203"/><ellipse cx="27.5" cy="219" fill="#FFAAAA" rx="11" ry="11" style="stroke:#181818;stroke-width:1.0;"/><path d="M28.4219,216.3906 L28.4219,223.0469 L29.5781,223.0469 Q30.1875,223.0469 30.4375,223.2813 Q30.7031,223.5156 30.7031,223.9063 Q30.7031,224.2813 30.4375,224.5156 Q30.1875,224.75 29.5781,224.75 L25.5938,224.75 Q24.9688,224.75 24.7031,224.5156 Q24.4531,224.2813 24.4531,223.8906 Q24.4531,223.5156 24.7031,223.2813 Q24.9688,223.0469 25.5938,223.0469 L26.7188,223.0469 L26.7188,216.3906 L24.875,216.3906 L24.875,218 Q24.875,218.6094 24.6406,218.875 Q24.4063,219.1406 24.0313,219.1406 Q23.6563,219.1406 23.4219,218.875 Q23.1875,218.6094 23.1875,218 L23.1875,214.6875 L32,214.6875 L32,218 Q32,218.6094 31.75,218.875 Q31.5156,219.1406 31.1406,219.1406 Q30.7656,219.1406 30.5313,218.875 Q30.2969,218.6094 30.2969,218 L30.2969,216.3906 L28.4219,216.3906 Z " fill="#000000"/><text fill="#000000" font-family="sans-serif" font-size="14" lengthAdjust="spacing" textLength="60" x="41.5" y="224.7285">user_role</text><line style="stroke:#181818;stroke-width:0.5;" x1="13.5" x2="103.5" y1="235" y2="235"/><text fill="#000000" font-family="sans-serif" font-size="14" lengthAdjust="spacing" text-decoration="underline" textLength="11" x="18.5" y="253.5332">id</text><text fill="#000000" font-family="sans-serif" font-size="14" font-style="italic" lengthAdjust="spacing" text-decoration="underline" textLength="55" x="18.5" y="271.1426">#user_id</text><text fill="#000000" font-family="sans-serif" font-size="14" font-style="italic" lengthAdjust="spacing" text-decoration="underline" textLength="51" x="18.5" y="288.752">#role_id</text><text fill="#000000" font-family="sans-serif" font-size="14" lengthAdjust="spacing" textLength="68" x="18.5" y="306.3613">created_at</text><text fill="#000000" font-family="sans-serif" font-size="14" lengthAdjust="spacing" textLength="71" x="18.5" y="323.9707">created_by</text><text fill="#000000" font-family="sans-serif" font-size="14" lengthAdjust="spacing" textLength="72" x="18.5" y="341.5801">updated_at</text><text fill="#000000" font-family="sans-serif" font-size="14" lengthAdjust="spacing" textLength="75" x="18.5" y="359.1895">updated_by</text><text fill="#000000" font-family="sans-serif" font-size="14" lengthAdjust="spacing" textLength="67" x="18.5" y="376.7988">deleted_at</text><text fill="#000000" font-family="sans-serif" font-size="14" lengthAdjust="spacing" textLength="70" x="18.5" y="394.4082">deleted_by</text><text fill="#000000" font-family="sans-serif" font-size="14" lengthAdjust="spacing" textLength="65" x="18.5" y="412.0176">is_deleted</text><line style="stroke:#181818;stroke-width:0.5;" x1="13.5" x2="103.5" y1="419.0938" y2="419.0938"/></g><!--link country to continent--><g id="link_country_continent"><path codeLine="154" d="M490.81,732 C515.26,732 538.83,732 562.75,732 " fill="none" id="country-to-continent" style="stroke:#181818;stroke-width:1.0;"/><polygon fill="#181818" points="568.75,732,559.75,728,563.75,732,559.75,736,568.75,732" style="stroke:#181818;stroke-width:1.0;"/></g><!--link daily_wise to country--><g id="link_daily_wise_country"><path codeLine="155" d="M290.56,801.32 C321.59,787.02 356.6605,770.8606 387.8305,756.5006 " fill="none" id="daily_wise-to-country" style="stroke:#181818;stroke-width:1.0;"/><polygon fill="#181818" points="393.28,753.99,383.432,754.1229,388.7388,756.0821,386.7795,761.3889,393.28,753.99" style="stroke:#181818;stroke-width:1.0;"/></g><!--link statistic to daily_wise--><g id="link_statistic_daily_wise"><path codeLine="156" d="M110.2,892.26 C136.49,878.39 163.1027,864.3487 188.8927,850.7487 " fill="none" id="statistic-to-daily_wise" style="stroke:#181818;stroke-width:1.0;"/><polygon fill="#181818" points="194.2,847.95,184.3733,848.6099,189.7773,850.2823,188.1049,855.6863,194.2,847.95" style="stroke:#181818;stroke-width:1.0;"/></g><!--link statistic to country--><g id="link_statistic_country"><path codeLine="157" d="M99.62,753.79 C115.79,719.54 138.41,687.64 170,667 C238.96,621.94 330.9008,662.48 388.2108,696.76 " fill="none" id="statistic-to-country" style="stroke:#181818;stroke-width:1.0;"/><polygon fill="#181818" points="393.36,699.84,387.6896,691.7873,389.069,697.2734,383.583,698.6528,393.36,699.84" style="stroke:#181818;stroke-width:1.0;"/></g><!--link statistic to epidemic--><g id="link_statistic_epidemic"><path codeLine="158" d="M110.05,947.27 C128.76,957.51 150.22,969.01 170,979 C239.1,1013.91 314.1072,1048.7285 369.2972,1073.7985 " fill="none" id="statistic-to-epidemic" style="stroke:#181818;stroke-width:1.0;"/><polygon fill="#181818" points="374.76,1076.28,368.2201,1068.9159,370.2077,1074.2121,364.9115,1076.1997,374.76,1076.28" style="stroke:#181818;stroke-width:1.0;"/></g><!--link statistic to vaccine--><g id="link_statistic_vaccine"><path codeLine="159" d="M110.2,1003.96 C128.71,1034.98 146.9359,1065.5273 166.9159,1099.0173 " fill="none" id="statistic-to-vaccine" style="stroke:#181818;stroke-width:1.0;"/><polygon fill="#181818" points="169.99,1104.17,168.814,1094.3916,167.4283,1099.8761,161.9438,1098.4904,169.99,1104.17" style="stroke:#181818;stroke-width:1.0;"/></g><!--link vaccine to epidemic--><g id="link_vaccine_epidemic"><path codeLine="160" d="M315.08,1181.23 C334.62,1169.56 350.5489,1160.0367 369.7689,1148.5567 " fill="none" id="vaccine-to-epidemic" style="stroke:#181818;stroke-width:1.0;"/><polygon fill="#181818" points="374.92,1145.48,365.1422,1146.661,370.6274,1148.0439,369.2445,1153.5291,374.92,1145.48" style="stroke:#181818;stroke-width:1.0;"/></g><!--link user_role to user--><g id="link_user_role_user"><path codeLine="161" d="M104.96,277.04 C133.7,253.03 166.0047,226.0459 194.2047,202.4959 " fill="none" id="user_role-to-user" style="stroke:#181818;stroke-width:1.0;"/><polygon fill="#181818" points="198.81,198.65,189.3381,201.3487,194.9722,201.8549,194.466,207.4891,198.81,198.65" style="stroke:#181818;stroke-width:1.0;"/></g><!--link user_role to role--><g id="link_user_role_role"><path codeLine="162" d="M104.96,352.71 C133.7,376.56 165.9918,403.3595 194.1918,426.7495 " fill="none" id="user_role-to-role" style="stroke:#181818;stroke-width:1.0;"/><polygon fill="#181818" points="198.81,430.58,194.4364,421.7555,194.9615,427.3879,189.3291,427.9131,198.81,430.58" style="stroke:#181818;stroke-width:1.0;"/></g><!--SRC=[lLLBRjim4Dtp52ooI0mqC91k0mC5YboWtGiqEPO7eKY273aHWXmevyZ5EgGbsL5LBQKDvqVnlVcGtmmSq84ajRTmzxgHsggKvAjyV9HtVxxVF3tzv6yZTpjXuK2Il8nO7qaQZA09lHFf6LrGKJKoAFsiQlXDdGMPtShL5eIubRy-F_WOpF7IG9BW2Edp8udpkTgpxjYuaMz2ohT4Yb2_IpIiETK0BzgRl0GVMglAmMoBe0XCfUXAsNUijC5SF8DIF0OiZ9v1AHvCLQ-BTp4YQnt5RW4N9lzmNdvCuOtns-tDIB52izskWhrD4EU07p0cwj5pjGSnX_SYD0fjPiEzyE9ZtbI3Cn1Ps6EaOyQq2eVeBImadtj9HmohjGC4DD2WNe34jaXLdo1EsY1I5qh_AZfwJcOrou2YSgd1b5YjcdF7fwu9v9l4OeGGlMdBt5LnhHgSbDRSkWkShTfxXkDZ_WM1FZflVLrEygdauN10hNHNyiEXDLG4JG3Ur4QOZCgGvFKcnN2xTzKBfbcIVG4vzITq-ioNhw-sLCTwLm_ortal5yTw7ChPYUPxami4UQ1FohPJf1Vo0zYbOYnml7RrFJEuGhktc8u3cOjQwAnp5LR_kqkkSPV06Jvvxngr_FUfZ71-JvBeqotlxtToV4x4fNozemI9iHsAzH8qSSo73qMVcFkYYdxz6Zgck9YpDZ5buIy0]--></g></svg>