<?xml version="1.0" encoding="us-ascii" standalone="no"?><svg xmlns="http://www.w3.org/2000/svg" xmlns:xlink="http://www.w3.org/1999/xlink" contentStyleType="text/css" height="917px" preserveAspectRatio="none" style="width:2737px;height:917px;background:#FFFFFF;" version="1.1" viewBox="0 0 2737 917" width="2737px" zoomAndPan="magnify"><defs/><g><!--cluster Interface Utilisateur--><g id="cluster_Interface Utilisateur"><path d="M8.5,6 L148.5,6 A3.75,3.75 0 0 1 151,8.5 L158,29.6094 L521.5,29.6094 A2.5,2.5 0 0 1 524,32.1094 L524,581.5 A2.5,2.5 0 0 1 521.5,584 L8.5,584 A2.5,2.5 0 0 1 6,581.5 L6,8.5 A2.5,2.5 0 0 1 8.5,6 " fill="none" style="stroke:#000000;stroke-width:1.5;"/><line style="stroke:#000000;stroke-width:1.5;" x1="6" x2="158" y1="29.6094" y2="29.6094"/><text fill="#000000" font-family="sans-serif" font-size="14" font-weight="bold" lengthAdjust="spacing" textLength="139" x="10" y="22.5332">Interface Utilisateur</text></g><!--cluster ETL Core--><g id="cluster_ETL Core"><path d="M1699.5,343 L1763.5,343 A3.75,3.75 0 0 1 1766,345.5 L1773,366.6094 L2451.5,366.6094 A2.5,2.5 0 0 1 2454,369.1094 L2454,846 A2.5,2.5 0 0 1 2451.5,848.5 L1699.5,848.5 A2.5,2.5 0 0 1 1697,846 L1697,345.5 A2.5,2.5 0 0 1 1699.5,343 " fill="none" style="stroke:#000000;stroke-width:1.5;"/><line style="stroke:#000000;stroke-width:1.5;" x1="1697" x2="1773" y1="366.6094" y2="366.6094"/><text fill="#000000" font-family="sans-serif" font-size="14" font-weight="bold" lengthAdjust="spacing" textLength="63" x="1701" y="359.5332">ETL Core</text></g><!--cluster Authentication--><g id="cluster_Authentication"><path d="M550.5,334.5 L653.5,334.5 A3.75,3.75 0 0 1 656,337 L663,358.1094 L1165.5,358.1094 A2.5,2.5 0 0 1 1168,360.6094 L1168,898.5 A2.5,2.5 0 0 1 1165.5,901 L550.5,901 A2.5,2.5 0 0 1 548,898.5 L548,337 A2.5,2.5 0 0 1 550.5,334.5 " fill="none" style="stroke:#000000;stroke-width:1.5;"/><line style="stroke:#000000;stroke-width:1.5;" x1="548" x2="663" y1="358.1094" y2="358.1094"/><text fill="#000000" font-family="sans-serif" font-size="14" font-weight="bold" lengthAdjust="spacing" textLength="102" x="552" y="351.0332">Authentication</text></g><!--cluster Internationalization--><g id="cluster_Internationalization"><path d="M2480.5,352 L2616.5,352 A3.75,3.75 0 0 1 2619,354.5 L2626,375.6094 L2727.5,375.6094 A2.5,2.5 0 0 1 2730,378.1094 L2730,537.5 A2.5,2.5 0 0 1 2727.5,540 L2480.5,540 A2.5,2.5 0 0 1 2478,537.5 L2478,354.5 A2.5,2.5 0 0 1 2480.5,352 " fill="none" style="stroke:#000000;stroke-width:1.5;"/><line style="stroke:#000000;stroke-width:1.5;" x1="2478" x2="2626" y1="375.6094" y2="375.6094"/><text fill="#000000" font-family="sans-serif" font-size="14" font-weight="bold" lengthAdjust="spacing" textLength="135" x="2482" y="368.5332">Internationalization</text></g><!--cluster Database--><g id="cluster_Database"><path d="M1194.5,634 L1260.5,634 A3.75,3.75 0 0 1 1263,636.5 L1270,657.6094 L1655.5,657.6094 A2.5,2.5 0 0 1 1658,660.1094 L1658,907.5 A2.5,2.5 0 0 1 1655.5,910 L1194.5,910 A2.5,2.5 0 0 1 1192,907.5 L1192,636.5 A2.5,2.5 0 0 1 1194.5,634 " fill="none" style="stroke:#000000;stroke-width:1.5;"/><line style="stroke:#000000;stroke-width:1.5;" x1="1192" x2="1270" y1="657.6094" y2="657.6094"/><text fill="#000000" font-family="sans-serif" font-size="14" font-weight="bold" lengthAdjust="spacing" textLength="65" x="1196" y="650.5332">Database</text></g><!--class MainWindow--><g id="elem_MainWindow"><rect codeLine="3" fill="#F1F1F1" height="224.0938" id="MainWindow" rx="2.5" ry="2.5" style="stroke:#181818;stroke-width:0.5;" width="173" x="22.5" y="42"/><ellipse cx="65.4" cy="58" fill="#ADD1B2" rx="11" ry="11" style="stroke:#181818;stroke-width:1.0;"/><path d="M68.1656,53.875 Q68.3219,53.6563 68.5094,53.5469 Q68.6969,53.4375 68.9156,53.4375 Q69.2906,53.4375 69.525,53.7031 Q69.7594,53.9531 69.7594,54.5625 L69.7594,56.0156 Q69.7594,56.625 69.525,56.8906 Q69.2906,57.1563 68.9156,57.1563 Q68.5719,57.1563 68.3688,56.9531 Q68.1656,56.7656 68.0563,56.25 Q68.0094,55.8906 67.8219,55.7031 Q67.4938,55.3281 66.8844,55.1094 Q66.275,54.8906 65.65,54.8906 Q64.8844,54.8906 64.2438,55.2188 Q63.6188,55.5469 63.1188,56.2969 Q62.6344,57.0469 62.6344,58.0781 L62.6344,59.1719 Q62.6344,60.4063 63.525,61.2344 Q64.4156,62.0469 66.0094,62.0469 Q66.9469,62.0469 67.6031,61.7969 Q67.9938,61.6406 68.4156,61.2031 Q68.6813,60.9375 68.8219,60.8594 Q68.9781,60.7813 69.1813,60.7813 Q69.5094,60.7813 69.7594,61.0469 Q70.025,61.2969 70.025,61.6406 Q70.025,61.9844 69.6813,62.3906 Q69.1813,62.9688 68.3844,63.2969 Q67.3063,63.75 66.0094,63.75 Q64.4938,63.75 63.2906,63.125 Q62.3063,62.625 61.6188,61.5625 Q60.9313,60.4844 60.9313,59.2031 L60.9313,58.0469 Q60.9313,56.7188 61.5406,55.5781 Q62.1656,54.4219 63.2594,53.8125 Q64.3531,53.1875 65.5875,53.1875 Q66.3219,53.1875 66.9625,53.3594 Q67.6188,53.5156 68.1656,53.875 Z " fill="#000000"/><text fill="#000000" font-family="sans-serif" font-size="14" lengthAdjust="spacing" textLength="79" x="85.6" y="63.7285">MainWindow</text><line style="stroke:#181818;stroke-width:0.5;" x1="23.5" x2="194.5" y1="74" y2="74"/><rect fill="none" height="6" style="stroke:#C82930;stroke-width:1.0;" width="6" x="30.5" y="85.3047"/><text fill="#000000" font-family="sans-serif" font-size="14" lengthAdjust="spacing" textLength="64" x="42.5" y="92.5332">root: tk.Tk</text><rect fill="none" height="6" style="stroke:#C82930;stroke-width:1.0;" width="6" x="30.5" y="102.9141"/><text fill="#000000" font-family="sans-serif" font-size="14" lengthAdjust="spacing" textLength="60" x="42.5" y="110.1426">user: Dict</text><rect fill="none" height="6" style="stroke:#C82930;stroke-width:1.0;" width="6" x="30.5" y="120.5234"/><text fill="#000000" font-family="sans-serif" font-size="14" lengthAdjust="spacing" textLength="88" x="42.5" y="127.752">output_dir: str</text><rect fill="none" height="6" style="stroke:#C82930;stroke-width:1.0;" width="6" x="30.5" y="138.1328"/><text fill="#000000" font-family="sans-serif" font-size="14" lengthAdjust="spacing" textLength="133" x="42.5" y="145.3613">pipeline: ETLPipeline</text><line style="stroke:#181818;stroke-width:0.5;" x1="23.5" x2="194.5" y1="152.4375" y2="152.4375"/><ellipse cx="33.5" cy="166.7422" fill="#84BE84" rx="3" ry="3" style="stroke:#038048;stroke-width:1.0;"/><text fill="#000000" font-family="sans-serif" font-size="14" lengthAdjust="spacing" textLength="105" x="42.5" y="170.9707">create_widgets()</text><ellipse cx="33.5" cy="184.3516" fill="#84BE84" rx="3" ry="3" style="stroke:#038048;stroke-width:1.0;"/><text fill="#000000" font-family="sans-serif" font-size="14" lengthAdjust="spacing" textLength="67" x="42.5" y="188.5801">add_files()</text><ellipse cx="33.5" cy="201.9609" fill="#84BE84" rx="3" ry="3" style="stroke:#038048;stroke-width:1.0;"/><text fill="#000000" font-family="sans-serif" font-size="14" lengthAdjust="spacing" textLength="98" x="42.5" y="206.1895">on_drop(event)</text><ellipse cx="33.5" cy="219.5703" fill="#84BE84" rx="3" ry="3" style="stroke:#038048;stroke-width:1.0;"/><text fill="#000000" font-family="sans-serif" font-size="14" lengthAdjust="spacing" textLength="88" x="42.5" y="223.7988">run_pipeline()</text><ellipse cx="33.5" cy="237.1797" fill="#84BE84" rx="3" ry="3" style="stroke:#038048;stroke-width:1.0;"/><text fill="#000000" font-family="sans-serif" font-size="14" lengthAdjust="spacing" textLength="147" x="42.5" y="241.4082">connect_to_database()</text><ellipse cx="33.5" cy="254.7891" fill="#84BE84" rx="3" ry="3" style="stroke:#038048;stroke-width:1.0;"/><text fill="#000000" font-family="sans-serif" font-size="14" lengthAdjust="spacing" textLength="49" x="42.5" y="259.0176">logout()</text></g><!--class LoginWindow--><g id="elem_LoginWindow"><rect codeLine="16" fill="#F1F1F1" height="136.0469" id="LoginWindow" rx="2.5" ry="2.5" style="stroke:#181818;stroke-width:0.5;" width="197" x="22.5" y="388"/><ellipse cx="74.75" cy="404" fill="#ADD1B2" rx="11" ry="11" style="stroke:#181818;stroke-width:1.0;"/><path d="M77.5156,399.875 Q77.6719,399.6563 77.8594,399.5469 Q78.0469,399.4375 78.2656,399.4375 Q78.6406,399.4375 78.875,399.7031 Q79.1094,399.9531 79.1094,400.5625 L79.1094,402.0156 Q79.1094,402.625 78.875,402.8906 Q78.6406,403.1563 78.2656,403.1563 Q77.9219,403.1563 77.7188,402.9531 Q77.5156,402.7656 77.4063,402.25 Q77.3594,401.8906 77.1719,401.7031 Q76.8438,401.3281 76.2344,401.1094 Q75.625,400.8906 75,400.8906 Q74.2344,400.8906 73.5938,401.2188 Q72.9688,401.5469 72.4688,402.2969 Q71.9844,403.0469 71.9844,404.0781 L71.9844,405.1719 Q71.9844,406.4063 72.875,407.2344 Q73.7656,408.0469 75.3594,408.0469 Q76.2969,408.0469 76.9531,407.7969 Q77.3438,407.6406 77.7656,407.2031 Q78.0313,406.9375 78.1719,406.8594 Q78.3281,406.7813 78.5313,406.7813 Q78.8594,406.7813 79.1094,407.0469 Q79.375,407.2969 79.375,407.6406 Q79.375,407.9844 79.0313,408.3906 Q78.5313,408.9688 77.7344,409.2969 Q76.6563,409.75 75.3594,409.75 Q73.8438,409.75 72.6406,409.125 Q71.6563,408.625 70.9688,407.5625 Q70.2813,406.4844 70.2813,405.2031 L70.2813,404.0469 Q70.2813,402.7188 70.8906,401.5781 Q71.5156,400.4219 72.6094,399.8125 Q73.7031,399.1875 74.9375,399.1875 Q75.6719,399.1875 76.3125,399.3594 Q76.9688,399.5156 77.5156,399.875 Z " fill="#000000"/><text fill="#000000" font-family="sans-serif" font-size="14" lengthAdjust="spacing" textLength="84" x="95.25" y="409.7285">LoginWindow</text><line style="stroke:#181818;stroke-width:0.5;" x1="23.5" x2="218.5" y1="420" y2="420"/><rect fill="none" height="6" style="stroke:#C82930;stroke-width:1.0;" width="6" x="30.5" y="431.3047"/><text fill="#000000" font-family="sans-serif" font-size="14" lengthAdjust="spacing" textLength="64" x="42.5" y="438.5332">root: tk.Tk</text><rect fill="none" height="6" style="stroke:#C82930;stroke-width:1.0;" width="6" x="30.5" y="448.9141"/><text fill="#000000" font-family="sans-serif" font-size="14" lengthAdjust="spacing" textLength="171" x="42.5" y="456.1426">on_login_success: function</text><rect fill="none" height="6" style="stroke:#C82930;stroke-width:1.0;" width="6" x="30.5" y="466.5234"/><text fill="#000000" font-family="sans-serif" font-size="14" lengthAdjust="spacing" textLength="95" x="42.5" y="473.752">api: APIService</text><line style="stroke:#181818;stroke-width:0.5;" x1="23.5" x2="218.5" y1="480.8281" y2="480.8281"/><ellipse cx="33.5" cy="495.1328" fill="#84BE84" rx="3" ry="3" style="stroke:#038048;stroke-width:1.0;"/><text fill="#000000" font-family="sans-serif" font-size="14" lengthAdjust="spacing" textLength="105" x="42.5" y="499.3613">create_widgets()</text><rect fill="#F24D5C" height="6" style="stroke:#C82930;stroke-width:1.0;" width="6" x="30.5" y="509.7422"/><text fill="#000000" font-family="sans-serif" font-size="14" lengthAdjust="spacing" textLength="48" x="42.5" y="516.9707">_login()</text></g><!--class AdminDashboardWindow--><g id="elem_AdminDashboardWindow"><rect codeLine="24" fill="#F1F1F1" height="224.0938" id="AdminDashboardWindow" rx="2.5" ry="2.5" style="stroke:#181818;stroke-width:0.5;" width="277" x="230.5" y="42"/><ellipse cx="285.75" cy="58" fill="#ADD1B2" rx="11" ry="11" style="stroke:#181818;stroke-width:1.0;"/><path d="M288.5156,53.875 Q288.6719,53.6563 288.8594,53.5469 Q289.0469,53.4375 289.2656,53.4375 Q289.6406,53.4375 289.875,53.7031 Q290.1094,53.9531 290.1094,54.5625 L290.1094,56.0156 Q290.1094,56.625 289.875,56.8906 Q289.6406,57.1563 289.2656,57.1563 Q288.9219,57.1563 288.7188,56.9531 Q288.5156,56.7656 288.4063,56.25 Q288.3594,55.8906 288.1719,55.7031 Q287.8438,55.3281 287.2344,55.1094 Q286.625,54.8906 286,54.8906 Q285.2344,54.8906 284.5938,55.2188 Q283.9688,55.5469 283.4688,56.2969 Q282.9844,57.0469 282.9844,58.0781 L282.9844,59.1719 Q282.9844,60.4063 283.875,61.2344 Q284.7656,62.0469 286.3594,62.0469 Q287.2969,62.0469 287.9531,61.7969 Q288.3438,61.6406 288.7656,61.2031 Q289.0313,60.9375 289.1719,60.8594 Q289.3281,60.7813 289.5313,60.7813 Q289.8594,60.7813 290.1094,61.0469 Q290.375,61.2969 290.375,61.6406 Q290.375,61.9844 290.0313,62.3906 Q289.5313,62.9688 288.7344,63.2969 Q287.6563,63.75 286.3594,63.75 Q284.8438,63.75 283.6406,63.125 Q282.6563,62.625 281.9688,61.5625 Q281.2813,60.4844 281.2813,59.2031 L281.2813,58.0469 Q281.2813,56.7188 281.8906,55.5781 Q282.5156,54.4219 283.6094,53.8125 Q284.7031,53.1875 285.9375,53.1875 Q286.6719,53.1875 287.3125,53.3594 Q287.9688,53.5156 288.5156,53.875 Z " fill="#000000"/><text fill="#000000" font-family="sans-serif" font-size="14" lengthAdjust="spacing" textLength="158" x="306.25" y="63.7285">AdminDashboardWindow</text><line style="stroke:#181818;stroke-width:0.5;" x1="231.5" x2="506.5" y1="74" y2="74"/><rect fill="none" height="6" style="stroke:#C82930;stroke-width:1.0;" width="6" x="238.5" y="85.3047"/><text fill="#000000" font-family="sans-serif" font-size="14" lengthAdjust="spacing" textLength="82" x="250.5" y="92.5332">master: tk.Tk</text><rect fill="none" height="6" style="stroke:#C82930;stroke-width:1.0;" width="6" x="238.5" y="102.9141"/><text fill="#000000" font-family="sans-serif" font-size="14" lengthAdjust="spacing" textLength="251" x="250.5" y="110.1426">language_manager: LanguageManager</text><rect fill="none" height="6" style="stroke:#C82930;stroke-width:1.0;" width="6" x="238.5" y="120.5234"/><text fill="#000000" font-family="sans-serif" font-size="14" lengthAdjust="spacing" textLength="125" x="250.5" y="127.752">available_roles: List</text><rect fill="none" height="6" style="stroke:#C82930;stroke-width:1.0;" width="6" x="238.5" y="138.1328"/><text fill="#000000" font-family="sans-serif" font-size="14" lengthAdjust="spacing" textLength="141" x="250.5" y="145.3613">available_regions: List</text><line style="stroke:#181818;stroke-width:0.5;" x1="231.5" x2="506.5" y1="152.4375" y2="152.4375"/><ellipse cx="241.5" cy="166.7422" fill="#84BE84" rx="3" ry="3" style="stroke:#038048;stroke-width:1.0;"/><text fill="#000000" font-family="sans-serif" font-size="14" lengthAdjust="spacing" textLength="175" x="250.5" y="170.9707">_language_changed(event)</text><ellipse cx="241.5" cy="184.3516" fill="#84BE84" rx="3" ry="3" style="stroke:#038048;stroke-width:1.0;"/><text fill="#000000" font-family="sans-serif" font-size="14" lengthAdjust="spacing" textLength="113" x="250.5" y="188.5801">_create_widgets()</text><ellipse cx="241.5" cy="201.9609" fill="#84BE84" rx="3" ry="3" style="stroke:#038048;stroke-width:1.0;"/><text fill="#000000" font-family="sans-serif" font-size="14" lengthAdjust="spacing" textLength="92" x="250.5" y="206.1895">_update_text()</text><ellipse cx="241.5" cy="219.5703" fill="#84BE84" rx="3" ry="3" style="stroke:#038048;stroke-width:1.0;"/><text fill="#000000" font-family="sans-serif" font-size="14" lengthAdjust="spacing" textLength="78" x="250.5" y="223.7988">_add_user()</text><ellipse cx="241.5" cy="237.1797" fill="#84BE84" rx="3" ry="3" style="stroke:#038048;stroke-width:1.0;"/><text fill="#000000" font-family="sans-serif" font-size="14" lengthAdjust="spacing" textLength="93" x="250.5" y="241.4082">_delete_user()</text><ellipse cx="241.5" cy="254.7891" fill="#84BE84" rx="3" ry="3" style="stroke:#038048;stroke-width:1.0;"/><text fill="#000000" font-family="sans-serif" font-size="14" lengthAdjust="spacing" textLength="124" x="250.5" y="259.0176">_refresh_user_list()</text></g><!--class FileListPanel--><g id="elem_FileListPanel"><rect codeLine="37" fill="#F1F1F1" height="224.0938" id="FileListPanel" rx="2.5" ry="2.5" style="stroke:#181818;stroke-width:0.5;" width="219" x="254.5" y="344"/><ellipse cx="319.25" cy="360" fill="#ADD1B2" rx="11" ry="11" style="stroke:#181818;stroke-width:1.0;"/><path d="M322.0156,355.875 Q322.1719,355.6563 322.3594,355.5469 Q322.5469,355.4375 322.7656,355.4375 Q323.1406,355.4375 323.375,355.7031 Q323.6094,355.9531 323.6094,356.5625 L323.6094,358.0156 Q323.6094,358.625 323.375,358.8906 Q323.1406,359.1563 322.7656,359.1563 Q322.4219,359.1563 322.2188,358.9531 Q322.0156,358.7656 321.9063,358.25 Q321.8594,357.8906 321.6719,357.7031 Q321.3438,357.3281 320.7344,357.1094 Q320.125,356.8906 319.5,356.8906 Q318.7344,356.8906 318.0938,357.2188 Q317.4688,357.5469 316.9688,358.2969 Q316.4844,359.0469 316.4844,360.0781 L316.4844,361.1719 Q316.4844,362.4063 317.375,363.2344 Q318.2656,364.0469 319.8594,364.0469 Q320.7969,364.0469 321.4531,363.7969 Q321.8438,363.6406 322.2656,363.2031 Q322.5313,362.9375 322.6719,362.8594 Q322.8281,362.7813 323.0313,362.7813 Q323.3594,362.7813 323.6094,363.0469 Q323.875,363.2969 323.875,363.6406 Q323.875,363.9844 323.5313,364.3906 Q323.0313,364.9688 322.2344,365.2969 Q321.1563,365.75 319.8594,365.75 Q318.3438,365.75 317.1406,365.125 Q316.1563,364.625 315.4688,363.5625 Q314.7813,362.4844 314.7813,361.2031 L314.7813,360.0469 Q314.7813,358.7188 315.3906,357.5781 Q316.0156,356.4219 317.1094,355.8125 Q318.2031,355.1875 319.4375,355.1875 Q320.1719,355.1875 320.8125,355.3594 Q321.4688,355.5156 322.0156,355.875 Z " fill="#000000"/><text fill="#000000" font-family="sans-serif" font-size="14" lengthAdjust="spacing" textLength="81" x="339.75" y="365.7285">FileListPanel</text><line style="stroke:#181818;stroke-width:0.5;" x1="255.5" x2="472.5" y1="376" y2="376"/><rect fill="none" height="6" style="stroke:#C82930;stroke-width:1.0;" width="6" x="262.5" y="387.3047"/><text fill="#000000" font-family="sans-serif" font-size="14" lengthAdjust="spacing" textLength="107" x="274.5" y="394.5332">master: tk.Frame</text><rect fill="none" height="6" style="stroke:#C82930;stroke-width:1.0;" width="6" x="262.5" y="404.9141"/><text fill="#000000" font-family="sans-serif" font-size="14" lengthAdjust="spacing" textLength="127" x="274.5" y="412.1426">file_list: List[FileInfo]</text><rect fill="none" height="6" style="stroke:#C82930;stroke-width:1.0;" width="6" x="262.5" y="422.5234"/><text fill="#000000" font-family="sans-serif" font-size="14" lengthAdjust="spacing" textLength="129" x="274.5" y="429.752">on_remove: function</text><rect fill="none" height="6" style="stroke:#C82930;stroke-width:1.0;" width="6" x="262.5" y="440.1328"/><text fill="#000000" font-family="sans-serif" font-size="14" lengthAdjust="spacing" textLength="193" x="274.5" y="447.3613">on_selection_change: function</text><line style="stroke:#181818;stroke-width:0.5;" x1="255.5" x2="472.5" y1="454.4375" y2="454.4375"/><ellipse cx="265.5" cy="468.7422" fill="#84BE84" rx="3" ry="3" style="stroke:#038048;stroke-width:1.0;"/><text fill="#000000" font-family="sans-serif" font-size="14" lengthAdjust="spacing" textLength="128" x="274.5" y="472.9707">add_files(file_paths)</text><ellipse cx="265.5" cy="486.3516" fill="#84BE84" rx="3" ry="3" style="stroke:#038048;stroke-width:1.0;"/><text fill="#000000" font-family="sans-serif" font-size="14" lengthAdjust="spacing" textLength="124" x="274.5" y="490.5801">get_selected_files()</text><rect fill="#F24D5C" height="6" style="stroke:#C82930;stroke-width:1.0;" width="6" x="262.5" y="500.9609"/><text fill="#000000" font-family="sans-serif" font-size="14" lengthAdjust="spacing" textLength="105" x="274.5" y="508.1895">create_widgets()</text><rect fill="#F24D5C" height="6" style="stroke:#C82930;stroke-width:1.0;" width="6" x="262.5" y="518.5703"/><text fill="#000000" font-family="sans-serif" font-size="14" lengthAdjust="spacing" textLength="79" x="274.5" y="525.7988">update_list()</text><rect fill="#F24D5C" height="6" style="stroke:#C82930;stroke-width:1.0;" width="6" x="262.5" y="536.1797"/><text fill="#000000" font-family="sans-serif" font-size="14" lengthAdjust="spacing" textLength="146" x="274.5" y="543.4082">toggle_selection(index)</text><rect fill="#F24D5C" height="6" style="stroke:#C82930;stroke-width:1.0;" width="6" x="262.5" y="553.7891"/><text fill="#000000" font-family="sans-serif" font-size="14" lengthAdjust="spacing" textLength="116" x="274.5" y="561.0176">remove_file(index)</text></g><!--class ETLPipeline--><g id="elem_ETLPipeline"><rect codeLine="52" fill="#F1F1F1" height="153.6563" id="ETLPipeline" rx="2.5" ry="2.5" style="stroke:#181818;stroke-width:0.5;" width="206" x="1747" y="379"/><ellipse cx="1807.75" cy="395" fill="#ADD1B2" rx="11" ry="11" style="stroke:#181818;stroke-width:1.0;"/><path d="M1810.5156,390.875 Q1810.6719,390.6563 1810.8594,390.5469 Q1811.0469,390.4375 1811.2656,390.4375 Q1811.6406,390.4375 1811.875,390.7031 Q1812.1094,390.9531 1812.1094,391.5625 L1812.1094,393.0156 Q1812.1094,393.625 1811.875,393.8906 Q1811.6406,394.1563 1811.2656,394.1563 Q1810.9219,394.1563 1810.7188,393.9531 Q1810.5156,393.7656 1810.4063,393.25 Q1810.3594,392.8906 1810.1719,392.7031 Q1809.8438,392.3281 1809.2344,392.1094 Q1808.625,391.8906 1808,391.8906 Q1807.2344,391.8906 1806.5938,392.2188 Q1805.9688,392.5469 1805.4688,393.2969 Q1804.9844,394.0469 1804.9844,395.0781 L1804.9844,396.1719 Q1804.9844,397.4063 1805.875,398.2344 Q1806.7656,399.0469 1808.3594,399.0469 Q1809.2969,399.0469 1809.9531,398.7969 Q1810.3438,398.6406 1810.7656,398.2031 Q1811.0313,397.9375 1811.1719,397.8594 Q1811.3281,397.7813 1811.5313,397.7813 Q1811.8594,397.7813 1812.1094,398.0469 Q1812.375,398.2969 1812.375,398.6406 Q1812.375,398.9844 1812.0313,399.3906 Q1811.5313,399.9688 1810.7344,400.2969 Q1809.6563,400.75 1808.3594,400.75 Q1806.8438,400.75 1805.6406,400.125 Q1804.6563,399.625 1803.9688,398.5625 Q1803.2813,397.4844 1803.2813,396.2031 L1803.2813,395.0469 Q1803.2813,393.7188 1803.8906,392.5781 Q1804.5156,391.4219 1805.6094,390.8125 Q1806.7031,390.1875 1807.9375,390.1875 Q1808.6719,390.1875 1809.3125,390.3594 Q1809.9688,390.5156 1810.5156,390.875 Z " fill="#000000"/><text fill="#000000" font-family="sans-serif" font-size="14" lengthAdjust="spacing" textLength="76" x="1828.25" y="400.7285">ETLPipeline</text><line style="stroke:#181818;stroke-width:0.5;" x1="1748" x2="1952" y1="411" y2="411"/><rect fill="none" height="6" style="stroke:#C82930;stroke-width:1.0;" width="6" x="1755" y="422.3047"/><text fill="#000000" font-family="sans-serif" font-size="14" lengthAdjust="spacing" textLength="88" x="1767" y="429.5332">output_dir: str</text><rect fill="none" height="6" style="stroke:#C82930;stroke-width:1.0;" width="6" x="1755" y="439.9141"/><text fill="#000000" font-family="sans-serif" font-size="14" lengthAdjust="spacing" textLength="170" x="1767" y="447.1426">transformed_datasets: Dict</text><line style="stroke:#181818;stroke-width:0.5;" x1="1748" x2="1952" y1="454.2188" y2="454.2188"/><ellipse cx="1758" cy="468.5234" fill="#84BE84" rx="3" ry="3" style="stroke:#038048;stroke-width:1.0;"/><text fill="#000000" font-family="sans-serif" font-size="14" lengthAdjust="spacing" textLength="180" x="1767" y="472.752">run(file_paths, on_progress)</text><rect fill="#F24D5C" height="6" style="stroke:#C82930;stroke-width:1.0;" width="6" x="1755" y="483.1328"/><text fill="#000000" font-family="sans-serif" font-size="14" lengthAdjust="spacing" textLength="113" x="1767" y="490.3613">extract(file_paths)</text><rect fill="#F24D5C" height="6" style="stroke:#C82930;stroke-width:1.0;" width="6" x="1755" y="500.7422"/><text fill="#000000" font-family="sans-serif" font-size="14" lengthAdjust="spacing" textLength="124" x="1767" y="507.9707">transform(datasets)</text><rect fill="#F24D5C" height="6" style="stroke:#C82930;stroke-width:1.0;" width="6" x="1755" y="518.3516"/><text fill="#000000" font-family="sans-serif" font-size="14" lengthAdjust="spacing" textLength="91" x="1767" y="525.5801">load(datasets)</text></g><!--class ExtractModule--><g id="elem_ExtractModule"><rect codeLine="61" fill="#F1F1F1" height="83.2188" id="ExtractModule" rx="2.5" ry="2.5" style="stroke:#181818;stroke-width:0.5;" width="149" x="2022.5" y="740.5"/><ellipse cx="2050.1" cy="756.5" fill="#ADD1B2" rx="11" ry="11" style="stroke:#181818;stroke-width:1.0;"/><path d="M2052.8656,752.375 Q2053.0219,752.1563 2053.2094,752.0469 Q2053.3969,751.9375 2053.6156,751.9375 Q2053.9906,751.9375 2054.225,752.2031 Q2054.4594,752.4531 2054.4594,753.0625 L2054.4594,754.5156 Q2054.4594,755.125 2054.225,755.3906 Q2053.9906,755.6563 2053.6156,755.6563 Q2053.2719,755.6563 2053.0688,755.4531 Q2052.8656,755.2656 2052.7563,754.75 Q2052.7094,754.3906 2052.5219,754.2031 Q2052.1938,753.8281 2051.5844,753.6094 Q2050.975,753.3906 2050.35,753.3906 Q2049.5844,753.3906 2048.9438,753.7188 Q2048.3188,754.0469 2047.8188,754.7969 Q2047.3344,755.5469 2047.3344,756.5781 L2047.3344,757.6719 Q2047.3344,758.9063 2048.225,759.7344 Q2049.1156,760.5469 2050.7094,760.5469 Q2051.6469,760.5469 2052.3031,760.2969 Q2052.6938,760.1406 2053.1156,759.7031 Q2053.3813,759.4375 2053.5219,759.3594 Q2053.6781,759.2813 2053.8813,759.2813 Q2054.2094,759.2813 2054.4594,759.5469 Q2054.725,759.7969 2054.725,760.1406 Q2054.725,760.4844 2054.3813,760.8906 Q2053.8813,761.4688 2053.0844,761.7969 Q2052.0063,762.25 2050.7094,762.25 Q2049.1938,762.25 2047.9906,761.625 Q2047.0063,761.125 2046.3188,760.0625 Q2045.6313,758.9844 2045.6313,757.7031 L2045.6313,756.5469 Q2045.6313,755.2188 2046.2406,754.0781 Q2046.8656,752.9219 2047.9594,752.3125 Q2049.0531,751.6875 2050.2875,751.6875 Q2051.0219,751.6875 2051.6625,751.8594 Q2052.3188,752.0156 2052.8656,752.375 Z " fill="#000000"/><text fill="#000000" font-family="sans-serif" font-size="14" lengthAdjust="spacing" textLength="89" x="2066.9" y="762.2285">ExtractModule</text><line style="stroke:#181818;stroke-width:0.5;" x1="2023.5" x2="2170.5" y1="772.5" y2="772.5"/><line style="stroke:#181818;stroke-width:0.5;" x1="2023.5" x2="2170.5" y1="780.5" y2="780.5"/><ellipse cx="2033.5" cy="794.8047" fill="#84BE84" rx="3" ry="3" style="stroke:#038048;stroke-width:1.0;"/><text fill="#000000" font-family="sans-serif" font-size="14" lengthAdjust="spacing" textLength="122" x="2042.5" y="799.0332">read_csv(file_path)</text><ellipse cx="2033.5" cy="812.4141" fill="#84BE84" rx="3" ry="3" style="stroke:#038048;stroke-width:1.0;"/><text fill="#000000" font-family="sans-serif" font-size="14" lengthAdjust="spacing" textLength="123" x="2042.5" y="816.6426">validate_data(data)</text></g><!--class TransformModule--><g id="elem_TransformModule"><rect codeLine="66" fill="#F1F1F1" height="100.8281" id="TransformModule" rx="2.5" ry="2.5" style="stroke:#181818;stroke-width:0.5;" width="231" x="2206.5" y="731.5"/><ellipse cx="2262.25" cy="747.5" fill="#ADD1B2" rx="11" ry="11" style="stroke:#181818;stroke-width:1.0;"/><path d="M2265.0156,743.375 Q2265.1719,743.1563 2265.3594,743.0469 Q2265.5469,742.9375 2265.7656,742.9375 Q2266.1406,742.9375 2266.375,743.2031 Q2266.6094,743.4531 2266.6094,744.0625 L2266.6094,745.5156 Q2266.6094,746.125 2266.375,746.3906 Q2266.1406,746.6563 2265.7656,746.6563 Q2265.4219,746.6563 2265.2188,746.4531 Q2265.0156,746.2656 2264.9063,745.75 Q2264.8594,745.3906 2264.6719,745.2031 Q2264.3438,744.8281 2263.7344,744.6094 Q2263.125,744.3906 2262.5,744.3906 Q2261.7344,744.3906 2261.0938,744.7188 Q2260.4688,745.0469 2259.9688,745.7969 Q2259.4844,746.5469 2259.4844,747.5781 L2259.4844,748.6719 Q2259.4844,749.9063 2260.375,750.7344 Q2261.2656,751.5469 2262.8594,751.5469 Q2263.7969,751.5469 2264.4531,751.2969 Q2264.8438,751.1406 2265.2656,750.7031 Q2265.5313,750.4375 2265.6719,750.3594 Q2265.8281,750.2813 2266.0313,750.2813 Q2266.3594,750.2813 2266.6094,750.5469 Q2266.875,750.7969 2266.875,751.1406 Q2266.875,751.4844 2266.5313,751.8906 Q2266.0313,752.4688 2265.2344,752.7969 Q2264.1563,753.25 2262.8594,753.25 Q2261.3438,753.25 2260.1406,752.625 Q2259.1563,752.125 2258.4688,751.0625 Q2257.7813,749.9844 2257.7813,748.7031 L2257.7813,747.5469 Q2257.7813,746.2188 2258.3906,745.0781 Q2259.0156,743.9219 2260.1094,743.3125 Q2261.2031,742.6875 2262.4375,742.6875 Q2263.1719,742.6875 2263.8125,742.8594 Q2264.4688,743.0156 2265.0156,743.375 Z " fill="#000000"/><text fill="#000000" font-family="sans-serif" font-size="14" lengthAdjust="spacing" textLength="111" x="2282.75" y="753.2285">TransformModule</text><line style="stroke:#181818;stroke-width:0.5;" x1="2207.5" x2="2436.5" y1="763.5" y2="763.5"/><line style="stroke:#181818;stroke-width:0.5;" x1="2207.5" x2="2436.5" y1="771.5" y2="771.5"/><ellipse cx="2217.5" cy="785.8047" fill="#84BE84" rx="3" ry="3" style="stroke:#038048;stroke-width:1.0;"/><text fill="#000000" font-family="sans-serif" font-size="14" lengthAdjust="spacing" textLength="127" x="2226.5" y="790.0332">clean_data(dataset)</text><ellipse cx="2217.5" cy="803.4141" fill="#84BE84" rx="3" ry="3" style="stroke:#038048;stroke-width:1.0;"/><text fill="#000000" font-family="sans-serif" font-size="14" lengthAdjust="spacing" textLength="153" x="2226.5" y="807.6426">normalize_data(dataset)</text><ellipse cx="2217.5" cy="821.0234" fill="#84BE84" rx="3" ry="3" style="stroke:#038048;stroke-width:1.0;"/><text fill="#000000" font-family="sans-serif" font-size="14" lengthAdjust="spacing" textLength="205" x="2226.5" y="825.252">validate_transformation(dataset)</text></g><!--class LoadModule--><g id="elem_LoadModule"><rect codeLine="72" fill="#F1F1F1" height="83.2188" id="LoadModule" rx="2.5" ry="2.5" style="stroke:#181818;stroke-width:0.5;" width="274" x="1713" y="740.5"/><ellipse cx="1806.75" cy="756.5" fill="#ADD1B2" rx="11" ry="11" style="stroke:#181818;stroke-width:1.0;"/><path d="M1809.5156,752.375 Q1809.6719,752.1563 1809.8594,752.0469 Q1810.0469,751.9375 1810.2656,751.9375 Q1810.6406,751.9375 1810.875,752.2031 Q1811.1094,752.4531 1811.1094,753.0625 L1811.1094,754.5156 Q1811.1094,755.125 1810.875,755.3906 Q1810.6406,755.6563 1810.2656,755.6563 Q1809.9219,755.6563 1809.7188,755.4531 Q1809.5156,755.2656 1809.4063,754.75 Q1809.3594,754.3906 1809.1719,754.2031 Q1808.8438,753.8281 1808.2344,753.6094 Q1807.625,753.3906 1807,753.3906 Q1806.2344,753.3906 1805.5938,753.7188 Q1804.9688,754.0469 1804.4688,754.7969 Q1803.9844,755.5469 1803.9844,756.5781 L1803.9844,757.6719 Q1803.9844,758.9063 1804.875,759.7344 Q1805.7656,760.5469 1807.3594,760.5469 Q1808.2969,760.5469 1808.9531,760.2969 Q1809.3438,760.1406 1809.7656,759.7031 Q1810.0313,759.4375 1810.1719,759.3594 Q1810.3281,759.2813 1810.5313,759.2813 Q1810.8594,759.2813 1811.1094,759.5469 Q1811.375,759.7969 1811.375,760.1406 Q1811.375,760.4844 1811.0313,760.8906 Q1810.5313,761.4688 1809.7344,761.7969 Q1808.6563,762.25 1807.3594,762.25 Q1805.8438,762.25 1804.6406,761.625 Q1803.6563,761.125 1802.9688,760.0625 Q1802.2813,758.9844 1802.2813,757.7031 L1802.2813,756.5469 Q1802.2813,755.2188 1802.8906,754.0781 Q1803.5156,752.9219 1804.6094,752.3125 Q1805.7031,751.6875 1806.9375,751.6875 Q1807.6719,751.6875 1808.3125,751.8594 Q1808.9688,752.0156 1809.5156,752.375 Z " fill="#000000"/><text fill="#000000" font-family="sans-serif" font-size="14" lengthAdjust="spacing" textLength="78" x="1827.25" y="762.2285">LoadModule</text><line style="stroke:#181818;stroke-width:0.5;" x1="1714" x2="1986" y1="772.5" y2="772.5"/><line style="stroke:#181818;stroke-width:0.5;" x1="1714" x2="1986" y1="780.5" y2="780.5"/><ellipse cx="1724" cy="794.8047" fill="#84BE84" rx="3" ry="3" style="stroke:#038048;stroke-width:1.0;"/><text fill="#000000" font-family="sans-serif" font-size="14" lengthAdjust="spacing" textLength="220" x="1733" y="799.0332">save_to_csv(dataset, output_path)</text><ellipse cx="1724" cy="812.4141" fill="#84BE84" rx="3" ry="3" style="stroke:#038048;stroke-width:1.0;"/><text fill="#000000" font-family="sans-serif" font-size="14" lengthAdjust="spacing" textLength="248" x="1733" y="816.6426">load_to_database(dataset, connection)</text></g><!--class APIService--><g id="elem_APIService"><rect codeLine="79" fill="#F1F1F1" height="206.4844" id="APIService" rx="2.5" ry="2.5" style="stroke:#181818;stroke-width:0.5;" width="345" x="763.5" y="679"/><ellipse cx="897.75" cy="695" fill="#ADD1B2" rx="11" ry="11" style="stroke:#181818;stroke-width:1.0;"/><path d="M900.5156,690.875 Q900.6719,690.6563 900.8594,690.5469 Q901.0469,690.4375 901.2656,690.4375 Q901.6406,690.4375 901.875,690.7031 Q902.1094,690.9531 902.1094,691.5625 L902.1094,693.0156 Q902.1094,693.625 901.875,693.8906 Q901.6406,694.1563 901.2656,694.1563 Q900.9219,694.1563 900.7188,693.9531 Q900.5156,693.7656 900.4063,693.25 Q900.3594,692.8906 900.1719,692.7031 Q899.8438,692.3281 899.2344,692.1094 Q898.625,691.8906 898,691.8906 Q897.2344,691.8906 896.5938,692.2188 Q895.9688,692.5469 895.4688,693.2969 Q894.9844,694.0469 894.9844,695.0781 L894.9844,696.1719 Q894.9844,697.4063 895.875,698.2344 Q896.7656,699.0469 898.3594,699.0469 Q899.2969,699.0469 899.9531,698.7969 Q900.3438,698.6406 900.7656,698.2031 Q901.0313,697.9375 901.1719,697.8594 Q901.3281,697.7813 901.5313,697.7813 Q901.8594,697.7813 902.1094,698.0469 Q902.375,698.2969 902.375,698.6406 Q902.375,698.9844 902.0313,699.3906 Q901.5313,699.9688 900.7344,700.2969 Q899.6563,700.75 898.3594,700.75 Q896.8438,700.75 895.6406,700.125 Q894.6563,699.625 893.9688,698.5625 Q893.2813,697.4844 893.2813,696.2031 L893.2813,695.0469 Q893.2813,693.7188 893.8906,692.5781 Q894.5156,691.4219 895.6094,690.8125 Q896.7031,690.1875 897.9375,690.1875 Q898.6719,690.1875 899.3125,690.3594 Q899.9688,690.5156 900.5156,690.875 Z " fill="#000000"/><text fill="#000000" font-family="sans-serif" font-size="14" lengthAdjust="spacing" textLength="68" x="918.25" y="700.7285">APIService</text><line style="stroke:#181818;stroke-width:0.5;" x1="764.5" x2="1107.5" y1="711" y2="711"/><rect fill="none" height="6" style="stroke:#C82930;stroke-width:1.0;" width="6" x="771.5" y="722.3047"/><text fill="#000000" font-family="sans-serif" font-size="14" lengthAdjust="spacing" textLength="79" x="783.5" y="729.5332">base_url: str</text><rect fill="none" height="6" style="stroke:#C82930;stroke-width:1.0;" width="6" x="771.5" y="739.9141"/><text fill="#000000" font-family="sans-serif" font-size="14" lengthAdjust="spacing" textLength="122" x="783.5" y="747.1426">users_endpoint: str</text><rect fill="none" height="6" style="stroke:#C82930;stroke-width:1.0;" width="6" x="771.5" y="757.5234"/><text fill="#000000" font-family="sans-serif" font-size="14" lengthAdjust="spacing" textLength="115" x="783.5" y="764.752">auth_endpoint: str</text><rect fill="none" height="6" style="stroke:#C82930;stroke-width:1.0;" width="6" x="771.5" y="775.1328"/><text fill="#000000" font-family="sans-serif" font-size="14" lengthAdjust="spacing" textLength="59" x="783.5" y="782.3613">token: str</text><line style="stroke:#181818;stroke-width:0.5;" x1="764.5" x2="1107.5" y1="789.4375" y2="789.4375"/><ellipse cx="774.5" cy="803.7422" fill="#84BE84" rx="3" ry="3" style="stroke:#038048;stroke-width:1.0;"/><text fill="#000000" font-family="sans-serif" font-size="14" lengthAdjust="spacing" textLength="219" x="783.5" y="807.9707">authenticate(username, password)</text><ellipse cx="774.5" cy="821.3516" fill="#84BE84" rx="3" ry="3" style="stroke:#038048;stroke-width:1.0;"/><text fill="#000000" font-family="sans-serif" font-size="14" lengthAdjust="spacing" textLength="122" x="783.5" y="825.5801">verify_token(token)</text><ellipse cx="774.5" cy="838.9609" fill="#84BE84" rx="3" ry="3" style="stroke:#038048;stroke-width:1.0;"/><text fill="#000000" font-family="sans-serif" font-size="14" lengthAdjust="spacing" textLength="73" x="783.5" y="843.1895">get_users()</text><ellipse cx="774.5" cy="856.5703" fill="#84BE84" rx="3" ry="3" style="stroke:#038048;stroke-width:1.0;"/><text fill="#000000" font-family="sans-serif" font-size="14" lengthAdjust="spacing" textLength="319" x="783.5" y="860.7988">add_user(username, password, role_id, region_id)</text><ellipse cx="774.5" cy="874.1797" fill="#84BE84" rx="3" ry="3" style="stroke:#038048;stroke-width:1.0;"/><text fill="#000000" font-family="sans-serif" font-size="14" lengthAdjust="spacing" textLength="132" x="783.5" y="878.4082">delete_user(user_id)</text></g><!--class AuthManager--><g id="elem_AuthManager"><rect codeLine="91" fill="#F1F1F1" height="171.2656" id="AuthManager" rx="2.5" ry="2.5" style="stroke:#181818;stroke-width:0.5;" width="245" x="906.5" y="370.5"/><ellipse cx="982.25" cy="386.5" fill="#ADD1B2" rx="11" ry="11" style="stroke:#181818;stroke-width:1.0;"/><path d="M985.0156,382.375 Q985.1719,382.1563 985.3594,382.0469 Q985.5469,381.9375 985.7656,381.9375 Q986.1406,381.9375 986.375,382.2031 Q986.6094,382.4531 986.6094,383.0625 L986.6094,384.5156 Q986.6094,385.125 986.375,385.3906 Q986.1406,385.6563 985.7656,385.6563 Q985.4219,385.6563 985.2188,385.4531 Q985.0156,385.2656 984.9063,384.75 Q984.8594,384.3906 984.6719,384.2031 Q984.3438,383.8281 983.7344,383.6094 Q983.125,383.3906 982.5,383.3906 Q981.7344,383.3906 981.0938,383.7188 Q980.4688,384.0469 979.9688,384.7969 Q979.4844,385.5469 979.4844,386.5781 L979.4844,387.6719 Q979.4844,388.9063 980.375,389.7344 Q981.2656,390.5469 982.8594,390.5469 Q983.7969,390.5469 984.4531,390.2969 Q984.8438,390.1406 985.2656,389.7031 Q985.5313,389.4375 985.6719,389.3594 Q985.8281,389.2813 986.0313,389.2813 Q986.3594,389.2813 986.6094,389.5469 Q986.875,389.7969 986.875,390.1406 Q986.875,390.4844 986.5313,390.8906 Q986.0313,391.4688 985.2344,391.7969 Q984.1563,392.25 982.8594,392.25 Q981.3438,392.25 980.1406,391.625 Q979.1563,391.125 978.4688,390.0625 Q977.7813,388.9844 977.7813,387.7031 L977.7813,386.5469 Q977.7813,385.2188 978.3906,384.0781 Q979.0156,382.9219 980.1094,382.3125 Q981.2031,381.6875 982.4375,381.6875 Q983.1719,381.6875 983.8125,381.8594 Q984.4688,382.0156 985.0156,382.375 Z " fill="#000000"/><text fill="#000000" font-family="sans-serif" font-size="14" lengthAdjust="spacing" textLength="85" x="1002.75" y="392.2285">AuthManager</text><line style="stroke:#181818;stroke-width:0.5;" x1="907.5" x2="1150.5" y1="402.5" y2="402.5"/><rect fill="none" height="6" style="stroke:#C82930;stroke-width:1.0;" width="6" x="914.5" y="413.8047"/><text fill="#000000" font-family="sans-serif" font-size="14" lengthAdjust="spacing" textLength="113" x="926.5" y="421.0332">current_user: Dict</text><rect fill="none" height="6" style="stroke:#C82930;stroke-width:1.0;" width="6" x="914.5" y="431.4141"/><text fill="#000000" font-family="sans-serif" font-size="14" lengthAdjust="spacing" textLength="148" x="926.5" y="438.6426">api_service: APIService</text><line style="stroke:#181818;stroke-width:0.5;" x1="907.5" x2="1150.5" y1="445.7188" y2="445.7188"/><ellipse cx="917.5" cy="460.0234" fill="#84BE84" rx="3" ry="3" style="stroke:#038048;stroke-width:1.0;"/><text fill="#000000" font-family="sans-serif" font-size="14" lengthAdjust="spacing" textLength="219" x="926.5" y="464.252">authenticate(username, password)</text><ellipse cx="917.5" cy="477.6328" fill="#84BE84" rx="3" ry="3" style="stroke:#038048;stroke-width:1.0;"/><text fill="#000000" font-family="sans-serif" font-size="14" lengthAdjust="spacing" textLength="119" x="926.5" y="481.8613">get_current_user()</text><ellipse cx="917.5" cy="495.2422" fill="#84BE84" rx="3" ry="3" style="stroke:#038048;stroke-width:1.0;"/><text fill="#000000" font-family="sans-serif" font-size="14" lengthAdjust="spacing" textLength="49" x="926.5" y="499.4707">logout()</text><ellipse cx="917.5" cy="512.8516" fill="#84BE84" rx="3" ry="3" style="stroke:#038048;stroke-width:1.0;"/><text fill="#000000" font-family="sans-serif" font-size="14" lengthAdjust="spacing" textLength="114" x="926.5" y="517.0801">is_authenticated()</text><ellipse cx="917.5" cy="530.4609" fill="#84BE84" rx="3" ry="3" style="stroke:#038048;stroke-width:1.0;"/><text fill="#000000" font-family="sans-serif" font-size="14" lengthAdjust="spacing" textLength="194" x="926.5" y="534.6895">has_permission(required_role)</text></g><!--class UserManager--><g id="elem_UserManager"><rect codeLine="101" fill="#F1F1F1" height="153.6563" id="UserManager" rx="2.5" ry="2.5" style="stroke:#181818;stroke-width:0.5;" width="307" x="564.5" y="379"/><ellipse cx="671.25" cy="395" fill="#ADD1B2" rx="11" ry="11" style="stroke:#181818;stroke-width:1.0;"/><path d="M674.0156,390.875 Q674.1719,390.6563 674.3594,390.5469 Q674.5469,390.4375 674.7656,390.4375 Q675.1406,390.4375 675.375,390.7031 Q675.6094,390.9531 675.6094,391.5625 L675.6094,393.0156 Q675.6094,393.625 675.375,393.8906 Q675.1406,394.1563 674.7656,394.1563 Q674.4219,394.1563 674.2188,393.9531 Q674.0156,393.7656 673.9063,393.25 Q673.8594,392.8906 673.6719,392.7031 Q673.3438,392.3281 672.7344,392.1094 Q672.125,391.8906 671.5,391.8906 Q670.7344,391.8906 670.0938,392.2188 Q669.4688,392.5469 668.9688,393.2969 Q668.4844,394.0469 668.4844,395.0781 L668.4844,396.1719 Q668.4844,397.4063 669.375,398.2344 Q670.2656,399.0469 671.8594,399.0469 Q672.7969,399.0469 673.4531,398.7969 Q673.8438,398.6406 674.2656,398.2031 Q674.5313,397.9375 674.6719,397.8594 Q674.8281,397.7813 675.0313,397.7813 Q675.3594,397.7813 675.6094,398.0469 Q675.875,398.2969 675.875,398.6406 Q675.875,398.9844 675.5313,399.3906 Q675.0313,399.9688 674.2344,400.2969 Q673.1563,400.75 671.8594,400.75 Q670.3438,400.75 669.1406,400.125 Q668.1563,399.625 667.4688,398.5625 Q666.7813,397.4844 666.7813,396.2031 L666.7813,395.0469 Q666.7813,393.7188 667.3906,392.5781 Q668.0156,391.4219 669.1094,390.8125 Q670.2031,390.1875 671.4375,390.1875 Q672.1719,390.1875 672.8125,390.3594 Q673.4688,390.5156 674.0156,390.875 Z " fill="#000000"/><text fill="#000000" font-family="sans-serif" font-size="14" lengthAdjust="spacing" textLength="85" x="691.75" y="400.7285">UserManager</text><line style="stroke:#181818;stroke-width:0.5;" x1="565.5" x2="870.5" y1="411" y2="411"/><rect fill="none" height="6" style="stroke:#C82930;stroke-width:1.0;" width="6" x="572.5" y="422.3047"/><text fill="#000000" font-family="sans-serif" font-size="14" lengthAdjust="spacing" textLength="95" x="584.5" y="429.5332">api: APIService</text><line style="stroke:#181818;stroke-width:0.5;" x1="565.5" x2="870.5" y1="436.6094" y2="436.6094"/><ellipse cx="575.5" cy="450.9141" fill="#84BE84" rx="3" ry="3" style="stroke:#038048;stroke-width:1.0;"/><text fill="#000000" font-family="sans-serif" font-size="14" lengthAdjust="spacing" textLength="219" x="584.5" y="455.1426">authenticate(username, password)</text><ellipse cx="575.5" cy="468.5234" fill="#84BE84" rx="3" ry="3" style="stroke:#038048;stroke-width:1.0;"/><text fill="#000000" font-family="sans-serif" font-size="14" lengthAdjust="spacing" textLength="160" x="584.5" y="472.752">get_user_info(username)</text><ellipse cx="575.5" cy="486.1328" fill="#84BE84" rx="3" ry="3" style="stroke:#038048;stroke-width:1.0;"/><text fill="#000000" font-family="sans-serif" font-size="14" lengthAdjust="spacing" textLength="281" x="584.5" y="490.3613">add_user(username, password, role, region)</text><ellipse cx="575.5" cy="503.7422" fill="#84BE84" rx="3" ry="3" style="stroke:#038048;stroke-width:1.0;"/><text fill="#000000" font-family="sans-serif" font-size="14" lengthAdjust="spacing" textLength="95" x="584.5" y="507.9707">get_all_users()</text><ellipse cx="575.5" cy="521.3516" fill="#84BE84" rx="3" ry="3" style="stroke:#038048;stroke-width:1.0;"/><text fill="#000000" font-family="sans-serif" font-size="14" lengthAdjust="spacing" textLength="132" x="584.5" y="525.5801">delete_user(user_id)</text></g><!--class User--><g id="elem_User"><rect codeLine="110" fill="#F1F1F1" height="136.0469" id="User" rx="2.5" ry="2.5" style="stroke:#181818;stroke-width:0.5;" width="155" x="573.5" y="714"/><ellipse cx="632.25" cy="730" fill="#ADD1B2" rx="11" ry="11" style="stroke:#181818;stroke-width:1.0;"/><path d="M635.0156,725.875 Q635.1719,725.6563 635.3594,725.5469 Q635.5469,725.4375 635.7656,725.4375 Q636.1406,725.4375 636.375,725.7031 Q636.6094,725.9531 636.6094,726.5625 L636.6094,728.0156 Q636.6094,728.625 636.375,728.8906 Q636.1406,729.1563 635.7656,729.1563 Q635.4219,729.1563 635.2188,728.9531 Q635.0156,728.7656 634.9063,728.25 Q634.8594,727.8906 634.6719,727.7031 Q634.3438,727.3281 633.7344,727.1094 Q633.125,726.8906 632.5,726.8906 Q631.7344,726.8906 631.0938,727.2188 Q630.4688,727.5469 629.9688,728.2969 Q629.4844,729.0469 629.4844,730.0781 L629.4844,731.1719 Q629.4844,732.4063 630.375,733.2344 Q631.2656,734.0469 632.8594,734.0469 Q633.7969,734.0469 634.4531,733.7969 Q634.8438,733.6406 635.2656,733.2031 Q635.5313,732.9375 635.6719,732.8594 Q635.8281,732.7813 636.0313,732.7813 Q636.3594,732.7813 636.6094,733.0469 Q636.875,733.2969 636.875,733.6406 Q636.875,733.9844 636.5313,734.3906 Q636.0313,734.9688 635.2344,735.2969 Q634.1563,735.75 632.8594,735.75 Q631.3438,735.75 630.1406,735.125 Q629.1563,734.625 628.4688,733.5625 Q627.7813,732.4844 627.7813,731.2031 L627.7813,730.0469 Q627.7813,728.7188 628.3906,727.5781 Q629.0156,726.4219 630.1094,725.8125 Q631.2031,725.1875 632.4375,725.1875 Q633.1719,725.1875 633.8125,725.3594 Q634.4688,725.5156 635.0156,725.875 Z " fill="#000000"/><text fill="#000000" font-family="sans-serif" font-size="14" lengthAdjust="spacing" textLength="29" x="652.75" y="735.7285">User</text><line style="stroke:#181818;stroke-width:0.5;" x1="574.5" x2="727.5" y1="746" y2="746"/><ellipse cx="584.5" cy="760.3047" fill="none" rx="3" ry="3" style="stroke:#038048;stroke-width:1.0;"/><text fill="#000000" font-family="sans-serif" font-size="14" lengthAdjust="spacing" textLength="34" x="593.5" y="764.5332">id: int</text><ellipse cx="584.5" cy="777.9141" fill="none" rx="3" ry="3" style="stroke:#038048;stroke-width:1.0;"/><text fill="#000000" font-family="sans-serif" font-size="14" lengthAdjust="spacing" textLength="87" x="593.5" y="782.1426">username: str</text><ellipse cx="584.5" cy="795.5234" fill="none" rx="3" ry="3" style="stroke:#038048;stroke-width:1.0;"/><text fill="#000000" font-family="sans-serif" font-size="14" lengthAdjust="spacing" textLength="48" x="593.5" y="799.752">role: str</text><ellipse cx="584.5" cy="813.1328" fill="none" rx="3" ry="3" style="stroke:#038048;stroke-width:1.0;"/><text fill="#000000" font-family="sans-serif" font-size="14" lengthAdjust="spacing" textLength="64" x="593.5" y="817.3613">region: str</text><line style="stroke:#181818;stroke-width:0.5;" x1="574.5" x2="727.5" y1="824.4375" y2="824.4375"/><ellipse cx="584.5" cy="838.7422" fill="#84BE84" rx="3" ry="3" style="stroke:#038048;stroke-width:1.0;"/><text fill="#000000" font-family="sans-serif" font-size="14" lengthAdjust="spacing" textLength="129" x="593.5" y="842.9707">from_api_data(data)</text></g><!--class LanguageManager--><g id="elem_LanguageManager"><rect codeLine="120" fill="#F1F1F1" height="136.0469" id="LanguageManager" rx="2.5" ry="2.5" style="stroke:#181818;stroke-width:0.5;" width="220" x="2494" y="388"/><ellipse cx="2539.75" cy="404" fill="#ADD1B2" rx="11" ry="11" style="stroke:#181818;stroke-width:1.0;"/><path d="M2542.5156,399.875 Q2542.6719,399.6563 2542.8594,399.5469 Q2543.0469,399.4375 2543.2656,399.4375 Q2543.6406,399.4375 2543.875,399.7031 Q2544.1094,399.9531 2544.1094,400.5625 L2544.1094,402.0156 Q2544.1094,402.625 2543.875,402.8906 Q2543.6406,403.1563 2543.2656,403.1563 Q2542.9219,403.1563 2542.7188,402.9531 Q2542.5156,402.7656 2542.4063,402.25 Q2542.3594,401.8906 2542.1719,401.7031 Q2541.8438,401.3281 2541.2344,401.1094 Q2540.625,400.8906 2540,400.8906 Q2539.2344,400.8906 2538.5938,401.2188 Q2537.9688,401.5469 2537.4688,402.2969 Q2536.9844,403.0469 2536.9844,404.0781 L2536.9844,405.1719 Q2536.9844,406.4063 2537.875,407.2344 Q2538.7656,408.0469 2540.3594,408.0469 Q2541.2969,408.0469 2541.9531,407.7969 Q2542.3438,407.6406 2542.7656,407.2031 Q2543.0313,406.9375 2543.1719,406.8594 Q2543.3281,406.7813 2543.5313,406.7813 Q2543.8594,406.7813 2544.1094,407.0469 Q2544.375,407.2969 2544.375,407.6406 Q2544.375,407.9844 2544.0313,408.3906 Q2543.5313,408.9688 2542.7344,409.2969 Q2541.6563,409.75 2540.3594,409.75 Q2538.8438,409.75 2537.6406,409.125 Q2536.6563,408.625 2535.9688,407.5625 Q2535.2813,406.4844 2535.2813,405.2031 L2535.2813,404.0469 Q2535.2813,402.7188 2535.8906,401.5781 Q2536.5156,400.4219 2537.6094,399.8125 Q2538.7031,399.1875 2539.9375,399.1875 Q2540.6719,399.1875 2541.3125,399.3594 Q2541.9688,399.5156 2542.5156,399.875 Z " fill="#000000"/><text fill="#000000" font-family="sans-serif" font-size="14" lengthAdjust="spacing" textLength="120" x="2560.25" y="409.7285">LanguageManager</text><line style="stroke:#181818;stroke-width:0.5;" x1="2495" x2="2713" y1="420" y2="420"/><rect fill="none" height="6" style="stroke:#C82930;stroke-width:1.0;" width="6" x="2502" y="431.3047"/><text fill="#000000" font-family="sans-serif" font-size="14" lengthAdjust="spacing" textLength="136" x="2514" y="438.5332">current_language: str</text><rect fill="none" height="6" style="stroke:#C82930;stroke-width:1.0;" width="6" x="2502" y="448.9141"/><text fill="#000000" font-family="sans-serif" font-size="14" lengthAdjust="spacing" textLength="105" x="2514" y="456.1426">translations: Dict</text><line style="stroke:#181818;stroke-width:0.5;" x1="2495" x2="2713" y1="463.2188" y2="463.2188"/><ellipse cx="2505" cy="477.5234" fill="#84BE84" rx="3" ry="3" style="stroke:#038048;stroke-width:1.0;"/><text fill="#000000" font-family="sans-serif" font-size="14" lengthAdjust="spacing" textLength="144" x="2514" y="481.752">get_text(key, **kwargs)</text><ellipse cx="2505" cy="495.1328" fill="#84BE84" rx="3" ry="3" style="stroke:#038048;stroke-width:1.0;"/><text fill="#000000" font-family="sans-serif" font-size="14" lengthAdjust="spacing" textLength="194" x="2514" y="499.3613">set_language(language_code)</text><ellipse cx="2505" cy="512.7422" fill="#84BE84" rx="3" ry="3" style="stroke:#038048;stroke-width:1.0;"/><text fill="#000000" font-family="sans-serif" font-size="14" lengthAdjust="spacing" textLength="168" x="2514" y="516.9707">get_available_languages()</text></g><!--class PostgresConnector--><g id="elem_PostgresConnector"><rect codeLine="130" fill="#F1F1F1" height="224.0938" id="PostgresConnector" rx="2.5" ry="2.5" style="stroke:#181818;stroke-width:0.5;" width="434" x="1208" y="670"/><ellipse cx="1359.75" cy="686" fill="#ADD1B2" rx="11" ry="11" style="stroke:#181818;stroke-width:1.0;"/><path d="M1362.5156,681.875 Q1362.6719,681.6563 1362.8594,681.5469 Q1363.0469,681.4375 1363.2656,681.4375 Q1363.6406,681.4375 1363.875,681.7031 Q1364.1094,681.9531 1364.1094,682.5625 L1364.1094,684.0156 Q1364.1094,684.625 1363.875,684.8906 Q1363.6406,685.1563 1363.2656,685.1563 Q1362.9219,685.1563 1362.7188,684.9531 Q1362.5156,684.7656 1362.4063,684.25 Q1362.3594,683.8906 1362.1719,683.7031 Q1361.8438,683.3281 1361.2344,683.1094 Q1360.625,682.8906 1360,682.8906 Q1359.2344,682.8906 1358.5938,683.2188 Q1357.9688,683.5469 1357.4688,684.2969 Q1356.9844,685.0469 1356.9844,686.0781 L1356.9844,687.1719 Q1356.9844,688.4063 1357.875,689.2344 Q1358.7656,690.0469 1360.3594,690.0469 Q1361.2969,690.0469 1361.9531,689.7969 Q1362.3438,689.6406 1362.7656,689.2031 Q1363.0313,688.9375 1363.1719,688.8594 Q1363.3281,688.7813 1363.5313,688.7813 Q1363.8594,688.7813 1364.1094,689.0469 Q1364.375,689.2969 1364.375,689.6406 Q1364.375,689.9844 1364.0313,690.3906 Q1363.5313,690.9688 1362.7344,691.2969 Q1361.6563,691.75 1360.3594,691.75 Q1358.8438,691.75 1357.6406,691.125 Q1356.6563,690.625 1355.9688,689.5625 Q1355.2813,688.4844 1355.2813,687.2031 L1355.2813,686.0469 Q1355.2813,684.7188 1355.8906,683.5781 Q1356.5156,682.4219 1357.6094,681.8125 Q1358.7031,681.1875 1359.9375,681.1875 Q1360.6719,681.1875 1361.3125,681.3594 Q1361.9688,681.5156 1362.5156,681.875 Z " fill="#000000"/><text fill="#000000" font-family="sans-serif" font-size="14" lengthAdjust="spacing" textLength="122" x="1380.25" y="691.7285">PostgresConnector</text><line style="stroke:#181818;stroke-width:0.5;" x1="1209" x2="1641" y1="702" y2="702"/><rect fill="none" height="6" style="stroke:#C82930;stroke-width:1.0;" width="6" x="1216" y="713.3047"/><text fill="#000000" font-family="sans-serif" font-size="14" lengthAdjust="spacing" textLength="156" x="1228" y="720.5332">connection_params: Dict</text><rect fill="none" height="6" style="stroke:#C82930;stroke-width:1.0;" width="6" x="1216" y="730.9141"/><text fill="#000000" font-family="sans-serif" font-size="14" lengthAdjust="spacing" textLength="149" x="1228" y="738.1426">connection: Connection</text><rect fill="none" height="6" style="stroke:#C82930;stroke-width:1.0;" width="6" x="1216" y="748.5234"/><text fill="#000000" font-family="sans-serif" font-size="14" lengthAdjust="spacing" textLength="91" x="1228" y="755.752">cursor: Cursor</text><line style="stroke:#181818;stroke-width:0.5;" x1="1209" x2="1641" y1="762.8281" y2="762.8281"/><ellipse cx="1219" cy="777.1328" fill="#84BE84" rx="3" ry="3" style="stroke:#038048;stroke-width:1.0;"/><text fill="#000000" font-family="sans-serif" font-size="14" lengthAdjust="spacing" textLength="60" x="1228" y="781.3613">connect()</text><ellipse cx="1219" cy="794.7422" fill="#84BE84" rx="3" ry="3" style="stroke:#038048;stroke-width:1.0;"/><text fill="#000000" font-family="sans-serif" font-size="14" lengthAdjust="spacing" textLength="78" x="1228" y="798.9707">disconnect()</text><ellipse cx="1219" cy="812.3516" fill="#84BE84" rx="3" ry="3" style="stroke:#038048;stroke-width:1.0;"/><text fill="#000000" font-family="sans-serif" font-size="14" lengthAdjust="spacing" textLength="194" x="1228" y="816.5801">execute_query(query, params)</text><ellipse cx="1219" cy="829.9609" fill="#84BE84" rx="3" ry="3" style="stroke:#038048;stroke-width:1.0;"/><text fill="#000000" font-family="sans-serif" font-size="14" lengthAdjust="spacing" textLength="164" x="1228" y="834.1895">fetch_one(query, params)</text><ellipse cx="1219" cy="847.5703" fill="#84BE84" rx="3" ry="3" style="stroke:#038048;stroke-width:1.0;"/><text fill="#000000" font-family="sans-serif" font-size="14" lengthAdjust="spacing" textLength="154" x="1228" y="851.7988">fetch_all(query, params)</text><ellipse cx="1219" cy="865.1797" fill="#84BE84" rx="3" ry="3" style="stroke:#038048;stroke-width:1.0;"/><text fill="#000000" font-family="sans-serif" font-size="14" lengthAdjust="spacing" textLength="141" x="1228" y="869.4082">initialize_users_table()</text><ellipse cx="1219" cy="882.7891" fill="#84BE84" rx="3" ry="3" style="stroke:#038048;stroke-width:1.0;"/><text fill="#000000" font-family="sans-serif" font-size="14" lengthAdjust="spacing" textLength="408" x="1228" y="887.0176">execute_etl_process(mappings_path, base_folder, specific_files)</text></g><!--link MainWindow to ETLPipeline--><g id="link_MainWindow_ETLPipeline"><path codeLine="145" d="M195.62,255.28 C201.24,259.25 207.04,262.86 213,266 C275.45,298.9 456.67,307.97 527,314 C810.9,338.36 884.56,297.24 1168,326.5 C1375.34,347.9 1608.0562,397.7 1740.9562,428.63 " fill="none" id="MainWindow-to-ETLPipeline" style="stroke:#181818;stroke-width:1.0;"/><polygon fill="#181818" points="1746.8,429.99,1738.941,424.0541,1741.9301,428.8566,1737.1276,431.8458,1746.8,429.99" style="stroke:#181818;stroke-width:1.0;"/><text fill="#000000" font-family="sans-serif" font-size="13" lengthAdjust="spacing" textLength="34" x="528" y="310.4951">utilise</text></g><!--link MainWindow to FileListPanel--><g id="link_MainWindow_FileListPanel"><path codeLine="146" d="M195.64,247.83 C209.98,263.73 224.55,280.21 238,296 C251.02,311.28 260.7225,322.9703 273.7925,339.1703 " fill="none" id="MainWindow-to-FileListPanel" style="stroke:#181818;stroke-width:1.0;"/><polygon fill="#181818" points="277.56,343.84,275.0219,334.3238,274.4204,339.9486,268.7957,339.3471,277.56,343.84" style="stroke:#181818;stroke-width:1.0;"/><text fill="#000000" font-family="sans-serif" font-size="13" lengthAdjust="spacing" textLength="46" x="254" y="310.4951">contient</text></g><!--link MainWindow to LoginWindow--><g id="link_MainWindow_LoginWindow"><path codeLine="147" d="M113.45,266.28 C115.09,307.14 116.6388,346.1049 118.0788,381.8949 " fill="none" id="MainWindow-to-LoginWindow" style="stroke:#181818;stroke-width:1.0;"/><polygon fill="#181818" points="118.32,387.89,121.9549,378.7365,118.119,382.894,113.9614,379.0581,118.32,387.89" style="stroke:#181818;stroke-width:1.0;"/><text fill="#000000" font-family="sans-serif" font-size="13" lengthAdjust="spacing" textLength="112" x="117" y="310.4951">se d&#233;connecte vers</text></g><!--link LoginWindow to APIService--><g id="link_LoginWindow_APIService"><path codeLine="148" d="M161.79,524.1 C181.18,549.91 206.77,576.8 237,592 C310.05,628.72 522.4,612.81 604,618 C635.54,620.01 716.54,614.56 746,626 C777.45,638.21 802.9349,653.9868 829.6249,675.1068 " fill="none" id="LoginWindow-to-APIService" style="stroke:#181818;stroke-width:1.0;"/><polygon fill="#181818" points="834.33,678.83,829.7545,670.1085,830.4091,675.7274,824.7902,676.382,834.33,678.83" style="stroke:#181818;stroke-width:1.0;"/><text fill="#000000" font-family="sans-serif" font-size="13" lengthAdjust="spacing" textLength="34" x="605" y="614.4951">utilise</text></g><!--link AdminDashboardWindow to LanguageManager--><g id="link_AdminDashboardWindow_LanguageManager"><path codeLine="149" d="M507.57,155.36 C914.66,158.15 2100.57,179.06 2454,326.5 C2487.07,340.3 2513.7536,360.1462 2538.9436,383.6562 " fill="none" id="AdminDashboardWindow-to-LanguageManager" style="stroke:#181818;stroke-width:1.0;"/><polygon fill="#181818" points="2543.33,387.75,2539.4796,378.685,2539.6747,384.3385,2534.0212,384.5335,2543.33,387.75" style="stroke:#181818;stroke-width:1.0;"/><text fill="#000000" font-family="sans-serif" font-size="13" lengthAdjust="spacing" textLength="34" x="2397" y="310.4951">utilise</text></g><!--link AdminDashboardWindow to UserManager--><g id="link_AdminDashboardWindow_UserManager"><path codeLine="150" d="M507.56,245.76 C529.39,261.74 551.25,278.79 571,296 C599.9,321.2 625.0952,347.1011 649.7752,374.5111 " fill="none" id="AdminDashboardWindow-to-UserManager" style="stroke:#181818;stroke-width:1.0;"/><polygon fill="#181818" points="653.79,378.97,650.7404,369.6052,650.4444,375.2543,644.7953,374.9582,653.79,378.97" style="stroke:#181818;stroke-width:1.0;"/><text fill="#000000" font-family="sans-serif" font-size="13" lengthAdjust="spacing" textLength="34" x="589" y="310.4951">utilise</text></g><!--link UserManager to APIService--><g id="link_UserManager_APIService"><path codeLine="151" d="M769.39,533.37 C798.59,576.78 832.1904,626.7121 863.8704,673.7921 " fill="none" id="UserManager-to-APIService" style="stroke:#181818;stroke-width:1.0;"/><polygon fill="#181818" points="867.22,678.77,865.5142,669.07,864.4286,674.6217,858.8769,673.5362,867.22,678.77" style="stroke:#181818;stroke-width:1.0;"/><text fill="#000000" font-family="sans-serif" font-size="13" lengthAdjust="spacing" textLength="34" x="821" y="614.4951">utilise</text></g><!--link UserManager to User--><g id="link_UserManager_User"><path codeLine="152" d="M702.21,533.37 C690.87,588.19 676.9549,655.4843 666.0849,708.0543 " fill="none" id="UserManager-to-User" style="stroke:#181818;stroke-width:1.0;"/><polygon fill="#181818" points="664.87,713.93,670.6095,705.9264,665.8824,709.0336,662.7753,704.3065,664.87,713.93" style="stroke:#181818;stroke-width:1.0;"/><text fill="#000000" font-family="sans-serif" font-size="13" lengthAdjust="spacing" textLength="25" x="687" y="614.4951">g&#232;re</text></g><!--link UserManager to User--><g id="link_UserManager_User"><path codeLine="153" d="M674.86,533.1 C665.05,554.12 656.03,577.39 651,600 C642.77,636.96 641.9781,673.2381 643.7681,707.6281 " fill="none" id="UserManager-to-User-1" style="stroke:#181818;stroke-width:1.0;stroke-dasharray:7.0,7.0;"/><polygon fill="#181818" points="644.08,713.62,647.6068,704.4242,643.8201,708.6268,639.6176,704.8401,644.08,713.62" style="stroke:#181818;stroke-width:1.0;"/><text fill="#000000" font-family="sans-serif" font-size="13" lengthAdjust="spacing" textLength="25" x="652" y="614.4951">cr&#233;e</text></g><!--link AuthManager to APIService--><g id="link_AuthManager_APIService"><path codeLine="154" d="M1004.69,541.7 C992.63,583.7 979.6354,628.9929 966.9654,673.1329 " fill="none" id="AuthManager-to-APIService" style="stroke:#181818;stroke-width:1.0;"/><polygon fill="#181818" points="965.31,678.9,971.6378,671.3529,966.6895,674.0941,963.9484,669.1457,965.31,678.9" style="stroke:#181818;stroke-width:1.0;"/><text fill="#000000" font-family="sans-serif" font-size="13" lengthAdjust="spacing" textLength="34" x="986" y="614.4951">utilise</text></g><!--link ETLPipeline to PostgresConnector--><g id="link_ETLPipeline_PostgresConnector"><path codeLine="155" d="M1750.09,533.17 C1696.72,573.85 1634.802,621.063 1575.732,666.083 " fill="none" id="ETLPipeline-to-PostgresConnector" style="stroke:#181818;stroke-width:1.0;"/><polygon fill="#181818" points="1570.96,669.72,1580.5427,667.4459,1574.9367,666.6892,1575.6934,661.0832,1570.96,669.72" style="stroke:#181818;stroke-width:1.0;"/><text fill="#000000" font-family="sans-serif" font-size="13" lengthAdjust="spacing" textLength="110" x="1651" y="614.4951">utilise pour charger</text></g><!--link ETLPipeline to ExtractModule--><g id="link_ETLPipeline_ExtractModule"><path codeLine="156" d="M1926.08,533.18 C1952.41,561.26 1981.26,594.04 2005,626 C2032.34,662.8 2055.6647,702.9629 2073.0547,735.1029 " fill="none" id="ETLPipeline-to-ExtractModule" style="stroke:#181818;stroke-width:1.0;"/><polygon fill="#181818" points="2075.91,740.38,2075.1451,730.5609,2073.5306,735.9824,2068.1091,734.3679,2075.91,740.38" style="stroke:#181818;stroke-width:1.0;"/><text fill="#000000" font-family="sans-serif" font-size="13" lengthAdjust="spacing" textLength="34" x="1998" y="614.4951">utilise</text></g><!--link ETLPipeline to TransformModule--><g id="link_ETLPipeline_TransformModule"><path codeLine="157" d="M1953.29,495.74 C2023.83,525.14 2117.16,570.01 2189,626 C2227.45,655.97 2259.3747,693.6565 2284.0147,726.5765 " fill="none" id="ETLPipeline-to-TransformModule" style="stroke:#181818;stroke-width:1.0;"/><polygon fill="#181818" points="2287.61,731.38,2285.4193,721.7779,2284.6139,727.3771,2279.0147,726.5716,2287.61,731.38" style="stroke:#181818;stroke-width:1.0;"/><text fill="#000000" font-family="sans-serif" font-size="13" lengthAdjust="spacing" textLength="34" x="2173" y="614.4951">utilise</text></g><!--link ETLPipeline to LoadModule--><g id="link_ETLPipeline_LoadModule"><path codeLine="158" d="M1850,533.37 C1850,598.11 1850,682.43 1850,734.2 " fill="none" id="ETLPipeline-to-LoadModule" style="stroke:#181818;stroke-width:1.0;"/><polygon fill="#181818" points="1850,740.2,1854,731.2,1850,735.2,1846,731.2,1850,740.2" style="stroke:#181818;stroke-width:1.0;"/><text fill="#000000" font-family="sans-serif" font-size="13" lengthAdjust="spacing" textLength="34" x="1851" y="614.4951">utilise</text></g><!--reverse link PostgresConnector to LoadModule--><g id="link_PostgresConnector_LoadModule"><path codeLine="159" d="M1648.17,782 C1672.19,782 1690.13,782 1712.77,782 " fill="none" id="PostgresConnector-backto-LoadModule" style="stroke:#181818;stroke-width:1.0;"/><polygon fill="#181818" points="1642.17,782,1651.17,786,1647.17,782,1651.17,778,1642.17,782" style="stroke:#181818;stroke-width:1.0;"/><text fill="#000000" font-family="sans-serif" font-size="13" lengthAdjust="spacing" textLength="34" x="1660.5" y="775.4951">utilise</text></g><!--link UserManager to PostgresConnector--><g id="link_UserManager_PostgresConnector"><path codeLine="160" d="M793.83,533.12 C821.5,556.22 854.52,578.92 889,592 C918.13,603.06 998.07,596.24 1029,600 C1091.39,607.59 1109.26,603.64 1168,626 C1198.92,637.77 1225.0721,650.3136 1254.8021,666.9236 " fill="none" id="UserManager-to-PostgresConnector" style="stroke:#181818;stroke-width:1.0;"/><polygon fill="#181818" points="1260.04,669.85,1254.134,661.9684,1255.675,667.4113,1250.2321,668.9523,1260.04,669.85" style="stroke:#181818;stroke-width:1.0;"/><text fill="#000000" font-family="sans-serif" font-size="13" lengthAdjust="spacing" textLength="126" x="1143" y="614.4951">utilise potentiellement</text></g><!--SRC=[ZLPTRYGd47wVKw1zoMGzumECeaYMlIjPiYLhrwiyH172KDs3Xe5UeCTs8jydUmvVB0LDq_IFDtxmkAagYgglgZve63-m6iY7Q-t1Lem3-UQbaevvQEq7yi-A4AwOS-IMIVs7rC8yHY4XMskCtn5_EBy_T8BMWTsHAybzjpQjRrfFXKIfyxOJDh819JNioAVxcxkqYAepRW6FfOzIrE3T-jTEoeIWbLIG1KPJOKspXXDedsIsrRJttDjnepLmJxsXWddsm5nMALDZS77rWdyvoHjJ_s-MUBmAPjIrd8DpErArcdjfTATdZToHYxlhhs1FalyijMtdQ1x6XJXAVSNS_i4mAyRn79dp0UOY8iLqtM8LwP5f_8VAcoIvxGGfi1EJYZqeeDOWd6WbdP-feCPCIkKPpVxv7hz0Z92dorMZRIE2sCEJpx9Goj0aMI100HgDP1Og2suVXHGxSQ5Cdx4TGdntJ8DQ0EQpPSSE-6tedEYbo-ZFiFLQL-QlN4mBHtE2QHLHuJ2uA4bvJqoAneo7DCplNKe2aKZROToys-L6I63bR57aJLsZrnp46hi0dfAoYpbw7kGlgvVLgka76gUBN1eBvGmN4zUZjZYZtZBjAcEF67qO7OUX5eCTfgt8UKCGeiQQ6ikM0DXYrItZVeRCu7hTEquAPPWOoKOL_zJvkpMYLNtiPmYbeDoTXbCI_2UcP0Gq-8jEPmxl-pZ6Bha2feTj64jogT4KlVuDIyfyNiwEnP8LLXEQOM9yhcDOJYIga4tQXR1sjIaI2o2D-2pR9hB3K-UjSD7wFGwiv36giY46ckhx8NYbhLL5DuH1T1IqQ8pKlb0mzBiaz-O0UbYViU5yM0Tl6iTpGngCuD5OqOC8LbRFD6vUnzzYc68CvOqGAMFkQqC2jr4PFYAJuMVQLN9Dv9PECoPUZ3HnPWy8Rwt5uEdqSaEQn-6CsCtf_dqPXyHAzmkt4wwaewKxqSltpD46x54w5thDmlTMMXpO0C0iiM_eVfBOuZtr_i0x2959izbxgzENfd36b1gN-3t52ZdryoF5Zc0JTel-uA85mxdbCWPG22fhZZIKTC8OvHZ59vAECnIOO3PCaqjtsa3zBJhbMHKTZVWrG18lpWCyRyZ7ZuT7Pkl-Ri5npxxMmzLi19I0vWkzjt3hUKPNYKRABEwCyu79Bpj2CKCUcM6GaV22BICkb3jocRyp0CxWx5p6_wEtMIwtT1C9F05liGE-js2Vr_4tz54uDrbKuFcU6dpllQt5lbhKIYszxEYyOpSVi9gU3Lw5UoqyyjP7rZHIrowoyOP4cgoC4c0tn3N0PILvTzDdc7yXNo0LTrMydhVRtqSNyOwqySKDKwFnAsSNADvBxAIfNVbenUO28bv_93I18AkwLMaHTXIqFvo- -EYC_YTz_Ouj9TqCvgNqpJ2cHd7ATwH-_TUEbUVdMSdjwm-CfY3lDzsNo0UZURjdMzAOrX9y-zdmX9vk7Bz8tZvW-j1usx9u5Gn6y_X-sswNJQV8_Jmr7sWUb89ZQAd_0000]--></g></svg>