<?xml version="1.0" encoding="us-ascii" standalone="no"?><svg xmlns="http://www.w3.org/2000/svg" xmlns:xlink="http://www.w3.org/1999/xlink" contentStyleType="text/css" height="1224px" preserveAspectRatio="none" style="width:870px;height:1224px;background:#FFFFFF;" version="1.1" viewBox="0 0 870 1224" width="870px" zoomAndPan="magnify"><defs/><g><text fill="#000000" font-family="Arial" font-size="14" font-weight="bold" lengthAdjust="spacing" textLength="287" x="284.5" y="23.1318">AnalyzeIT - Diagramme d'architecture ETL</text><!--cluster AnalyzeIT Application (Python/Tkinter)--><g id="cluster_AnalyzeIT Application (Python/Tkinter)"><path d="M8.5,66.0986 L271.5,66.0986 A3.75,3.75 0 0 1 274,68.5986 L281,88.1973 L438.5,88.1973 A2.5,2.5 0 0 1 441,90.6973 L441,924.5986 A2.5,2.5 0 0 1 438.5,927.0986 L8.5,927.0986 A2.5,2.5 0 0 1 6,924.5986 L6,68.5986 A2.5,2.5 0 0 1 8.5,66.0986 " fill="none" style="stroke:#000000;stroke-width:1.5;"/><line style="stroke:#000000;stroke-width:1.5;" x1="6" x2="281" y1="88.1973" y2="88.1973"/><text fill="#000000" font-family="Arial" font-size="14" font-weight="bold" lengthAdjust="spacing" textLength="262" x="10" y="81.2305">AnalyzeIT Application (Python/Tkinter)</text></g><!--cluster Pipeline ETL--><g id="cluster_Pipeline ETL"><path d="M32.5,344.0986 L119.5,344.0986 A3.75,3.75 0 0 1 122,346.5986 L129,366.1973 L414.5,366.1973 A2.5,2.5 0 0 1 417,368.6973 L417,900.5986 A2.5,2.5 0 0 1 414.5,903.0986 L32.5,903.0986 A2.5,2.5 0 0 1 30,900.5986 L30,346.5986 A2.5,2.5 0 0 1 32.5,344.0986 " fill="none" style="stroke:#000000;stroke-width:1.5;"/><line style="stroke:#000000;stroke-width:1.5;" x1="30" x2="129" y1="366.1973" y2="366.1973"/><text fill="#000000" font-family="Arial" font-size="14" font-weight="bold" lengthAdjust="spacing" textLength="86" x="34" y="359.2305">Pipeline ETL</text></g><!--cluster CSV--><g id="cluster_CSV"><path d="M473,53.0986 C473,43.0986 663,43.0986 663,43.0986 C663,43.0986 853,43.0986 853,53.0986 L853,151.0986 C853,161.0986 663,161.0986 663,161.0986 C663,161.0986 473,161.0986 473,151.0986 L473,53.0986 " fill="none" style="stroke:#181818;stroke-width:1.0;"/><path d="M473,53.0986 C473,63.0986 663,63.0986 663,63.0986 C663,63.0986 853,63.0986 853,53.0986 " fill="none" style="stroke:#181818;stroke-width:1.0;"/><text fill="#000000" font-family="Arial" font-size="14" font-weight="bold" lengthAdjust="spacing" textLength="89" x="618.5" y="78.2305">Fichiers CSV</text></g><!--cluster PG--><g id="cluster_PG"><path d="M465,794.0986 C465,784.0986 600,784.0986 600,784.0986 C600,784.0986 735,784.0986 735,794.0986 L735,1095.0986 C735,1105.0986 600,1105.0986 600,1105.0986 C600,1105.0986 465,1105.0986 465,1095.0986 L465,794.0986 " fill="none" style="stroke:#181818;stroke-width:1.0;"/><path d="M465,794.0986 C465,804.0986 600,804.0986 600,804.0986 C600,804.0986 735,804.0986 735,794.0986 " fill="none" style="stroke:#181818;stroke-width:1.0;"/><text fill="#000000" font-family="Arial" font-size="14" font-weight="bold" lengthAdjust="spacing" textLength="83" x="558.5" y="819.2305">PostgreSQL</text></g><!--entity UI--><g id="elem_UI"><rect fill="#F8F8F8" height="36.0986" rx="2.5" ry="2.5" style="stroke:#AAAAAA;stroke-width:0.5;" width="141" x="181.5" y="101.0986"/><text fill="#333333" font-family="Arial" font-size="14" lengthAdjust="spacing" textLength="121" x="191.5" y="124.2305">Interface Utilisateur</text></g><!--entity FM--><g id="elem_FM"><rect fill="#F8F8F8" height="36.0986" rx="2.5" ry="2.5" style="stroke:#AAAAAA;stroke-width:0.5;" width="175" x="232.5" y="246.0986"/><text fill="#333333" font-family="Arial" font-size="14" lengthAdjust="spacing" textLength="155" x="242.5" y="269.2305">Gestionnaire de Fichiers</text></g><!--entity EX--><g id="elem_EX"><rect fill="#ADD8E6" height="36.0986" rx="2.5" ry="2.5" style="stroke:#AAAAAA;stroke-width:0.5;" width="110" x="259" y="379.0986"/><text fill="#333333" font-family="Arial" font-size="14" lengthAdjust="spacing" textLength="90" x="269" y="402.2305">Export Module</text></g><!--entity TR--><g id="elem_TR"><rect fill="#90EE90" height="36.0986" rx="2.5" ry="2.5" style="stroke:#AAAAAA;stroke-width:0.5;" width="135" x="57.5" y="500.5986"/><text fill="#333333" font-family="Arial" font-size="14" lengthAdjust="spacing" textLength="115" x="67.5" y="523.7305">Transform Module</text></g><!--entity LD--><g id="elem_LD"><rect fill="#FFA07A" height="36.0986" rx="2.5" ry="2.5" style="stroke:#AAAAAA;stroke-width:0.5;" width="102" x="46" y="654.0986"/><text fill="#333333" font-family="Arial" font-size="14" lengthAdjust="spacing" textLength="82" x="56" y="677.2305">Load Module</text></g><g id="elem_GMN9"><path d="M227.5,491.0986 L227.5,545.9448 A0,0 0 0 0 227.5,545.9448 L400.5,545.9448 A0,0 0 0 0 400.5,545.9448 L400.5,501.0986 L390.5,491.0986 L318,491.0986 L314,415.2186 L310,491.0986 L227.5,491.0986 A0,0 0 0 0 227.5,491.0986 " fill="#FEFFDD" style="stroke:#181818;stroke-width:0.5;"/><path d="M390.5,491.0986 L390.5,501.0986 L400.5,501.0986 L390.5,491.0986 " fill="#FEFFDD" style="stroke:#181818;stroke-width:0.5;"/><text fill="#000000" font-family="Arial" font-size="13" lengthAdjust="spacing" textLength="54" x="233.5" y="508.2925">export.py</text><text fill="#000000" font-family="Arial" font-size="13" lengthAdjust="spacing" textLength="152" x="233.5" y="523.2412">- Lecture des fichiers CSV</text><text fill="#000000" font-family="Arial" font-size="13" lengthAdjust="spacing" textLength="149" x="233.5" y="538.1899">- Cr&#233;ation de DataFrames</text></g><g id="elem_GMN12"><path d="M183,637.0986 L183,706.8936 L401,706.8936 L401,647.0986 L391,637.0986 L183,637.0986 " fill="#FEFFDD" style="stroke:#181818;stroke-width:0.5;"/><path d="M391,637.0986 L391,647.0986 L401,647.0986 L391,637.0986 " fill="#FEFFDD" style="stroke:#181818;stroke-width:1.0;"/><text fill="#000000" font-family="Arial" font-size="13" lengthAdjust="spacing" textLength="72" x="189" y="654.2925">transform.py</text><text fill="#000000" font-family="Arial" font-size="13" lengthAdjust="spacing" textLength="168" x="189" y="669.2412">- Normalisation des colonnes</text><text fill="#000000" font-family="Arial" font-size="13" lengthAdjust="spacing" textLength="197" x="189" y="684.1899">- Gestion des valeurs manquantes</text><text fill="#000000" font-family="Arial" font-size="13" lengthAdjust="spacing" textLength="159" x="189" y="699.1387">- Standardisation des dates</text></g><g id="elem_GMN15"><path d="M46.5,817.0986 L46.5,886.8936 A0,0 0 0 0 46.5,886.8936 L257.5,886.8936 A0,0 0 0 0 257.5,886.8936 L257.5,827.0986 L247.5,817.0986 L145.4,817.0986 L102.27,690.1686 L137.4,817.0986 L46.5,817.0986 A0,0 0 0 0 46.5,817.0986 " fill="#FEFFDD" style="stroke:#181818;stroke-width:0.5;"/><path d="M247.5,817.0986 L247.5,827.0986 L257.5,827.0986 L247.5,817.0986 " fill="#FEFFDD" style="stroke:#181818;stroke-width:0.5;"/><text fill="#000000" font-family="Arial" font-size="13" lengthAdjust="spacing" textLength="42" x="52.5" y="834.2925">load.py</text><text fill="#000000" font-family="Arial" font-size="13" lengthAdjust="spacing" textLength="144" x="52.5" y="849.2412">- Connexion PostgreSQL</text><text fill="#000000" font-family="Arial" font-size="13" lengthAdjust="spacing" textLength="130" x="52.5" y="864.1899">- Staging des donn&#233;es</text><text fill="#000000" font-family="Arial" font-size="13" lengthAdjust="spacing" textLength="190" x="52.5" y="879.1387">- Chargement dans tables finales</text></g><!--entity COVID--><g id="elem_COVID"><rect fill="#D3D3D3" height="36.0986" rx="2.5" ry="2.5" style="stroke:#AAAAAA;stroke-width:0.5;" width="124" x="705" y="101.0986"/><text fill="#333333" font-family="Arial" font-size="14" lengthAdjust="spacing" textLength="104" x="715" y="124.2305">Donn&#233;es COVID</text></g><!--entity VAC--><g id="elem_VAC"><rect fill="#D3D3D3" height="36.0986" rx="2.5" ry="2.5" style="stroke:#AAAAAA;stroke-width:0.5;" width="154" x="516" y="101.0986"/><text fill="#333333" font-family="Arial" font-size="14" lengthAdjust="spacing" textLength="134" x="526" y="124.2305">Donn&#233;es Vaccination</text></g><!--entity STAG--><g id="elem_STAG"><rect fill="#FFA500" height="36.0986" rx="2.5" ry="2.5" style="stroke:#AAAAAA;stroke-width:0.5;" width="108" x="482" y="834.0986"/><text fill="#333333" font-family="Arial" font-size="14" lengthAdjust="spacing" textLength="88" x="492" y="857.2305">Table Staging</text></g><!--entity FIN--><g id="elem_FIN"><rect fill="#FFA500" height="36.0986" rx="2.5" ry="2.5" style="stroke:#AAAAAA;stroke-width:0.5;" width="113" x="481.5" y="1028.5986"/><text fill="#333333" font-family="Arial" font-size="14" lengthAdjust="spacing" textLength="93" x="491.5" y="1051.7305">Tables Finales</text></g><g id="elem_GMN24"><path d="M629.5,1004.0986 L629.5,1042.5986 L594.58,1046.5986 L629.5,1050.5986 L629.5,1088.8423 A0,0 0 0 0 629.5,1088.8423 L718.5,1088.8423 A0,0 0 0 0 718.5,1088.8423 L718.5,1014.0986 L708.5,1004.0986 L629.5,1004.0986 A0,0 0 0 0 629.5,1004.0986 " fill="#FEFFDD" style="stroke:#181818;stroke-width:0.5;"/><path d="M708.5,1004.0986 L708.5,1014.0986 L718.5,1014.0986 L708.5,1004.0986 " fill="#FEFFDD" style="stroke:#181818;stroke-width:0.5;"/><text fill="#000000" font-family="Arial" font-size="13" lengthAdjust="spacing" textLength="51" x="635.5" y="1021.2925">- country</text><text fill="#000000" font-family="Arial" font-size="13" lengthAdjust="spacing" textLength="51" x="635.5" y="1036.2412">- vaccine</text><text fill="#000000" font-family="Arial" font-size="13" lengthAdjust="spacing" textLength="68" x="635.5" y="1051.1899">- daily_wise</text><text fill="#000000" font-family="Arial" font-size="13" lengthAdjust="spacing" textLength="54" x="635.5" y="1066.1387">- statistic</text><text fill="#000000" font-family="Arial" font-size="13" lengthAdjust="spacing" textLength="30" x="635.5" y="1081.0874">- etc.</text></g><!--entity MB--><g id="elem_MB"><rect fill="#00BFFF" height="36.0986" rx="2.5" ry="2.5" style="stroke:#AAAAAA;stroke-width:0.5;" width="82" x="497" y="1182.0986"/><text fill="#333333" font-family="Arial" font-size="14" lengthAdjust="spacing" textLength="62" x="507" y="1205.2305">Metabase</text></g><!--entity Fichiers Transform?s--><g id="elem_Fichiers Transform&#233;s"><rect fill="#F8F8F8" height="36.0986" rx="2.5" ry="2.5" style="stroke:#AAAAAA;stroke-width:0.5;" width="154" x="457" y="654.0986"/><text fill="#333333" font-family="Arial" font-size="14" lengthAdjust="spacing" textLength="134" x="467" y="677.2305">Fichiers Transform&#233;s</text></g><!--link TR to GMN12--><g id="link_TR_GMN12"><path d="M147.2,536.6286 C161.19,547.5786 179.48,562.2886 195,576.0986 C216.84,595.5286 240.28,618.4186 258.65,636.8686 " fill="none" id="TR-GMN12" style="stroke:#666666;stroke-width:1.0;stroke-dasharray:7.0,7.0;"/></g><!--link CSV to FM--><g id="link_CSV_FM"><path d="M472.9733,132.4255 C472.877,132.5707 472.78,132.7168 472.6823,132.8639 C471.1195,135.2168 469.3809,137.8111 467.5063,140.5736 C460.0075,151.6236 450.33,165.3636 441,177.0986 C426.51,195.3286 424.26,201.6386 406,216.0986 C391.33,227.7186 378.7387,235.31 363.0387,243.29 " fill="none" id="CSV-to-FM" style="stroke:#666666;stroke-width:1.0;"/><polygon fill="#666666" points="357.69,246.0086,367.5255,245.4965,362.1473,243.7431,363.9007,238.3648,357.69,246.0086" style="stroke:#666666;stroke-width:1.0;"/><text fill="#000000" font-family="Arial" font-size="13" lengthAdjust="spacing" textLength="109" x="435.5" y="198.2925">Glisser-d&#233;poser ou</text><text fill="#000000" font-family="Arial" font-size="13" lengthAdjust="spacing" textLength="110" x="435" y="213.2412">S&#233;lection manuelle</text></g><!--link FM to UI--><g id="link_FM_UI"><path d="M312.26,245.9986 C305.05,230.1586 293.95,205.9686 284,185.0986 C276.2,168.7486 269.7234,155.6001 263.2134,142.5201 " fill="none" id="FM-to-UI" style="stroke:#666666;stroke-width:1.0;"/><polygon fill="#666666" points="260.54,137.1486,260.9691,146.9881,262.7679,141.6249,268.1311,143.4236,260.54,137.1486" style="stroke:#666666;stroke-width:1.0;"/><text fill="#000000" font-family="Arial" font-size="13" lengthAdjust="spacing" textLength="98" x="299" y="198.2925">Affichage fichiers</text><text fill="#000000" font-family="Arial" font-size="13" lengthAdjust="spacing" textLength="65" x="315.5" y="213.2412">disponibles</text></g><!--link UI to FM--><g id="link_UI_FM"><path d="M221.6,137.2286 C192.02,156.1386 154.33,187.6686 175,216.0986 C188.69,234.9386 204.3809,244.5862 226.5909,251.4962 " fill="none" id="UI-to-FM" style="stroke:#666666;stroke-width:1.0;"/><polygon fill="#666666" points="232.32,253.2786,224.9146,246.7855,227.5457,251.7933,222.538,254.4244,232.32,253.2786" style="stroke:#666666;stroke-width:1.0;"/><text fill="#000000" font-family="Arial" font-size="13" lengthAdjust="spacing" textLength="99" x="176" y="198.2925">S&#233;lection fichiers</text><text fill="#000000" font-family="Arial" font-size="13" lengthAdjust="spacing" textLength="44" x="203.5" y="213.2412">&#224; traiter</text></g><!--link FM to EX--><g id="link_FM_EX"><path d="M319.22,282.2286 C318.07,307.3286 316.2045,347.8649 315.0545,372.9749 " fill="none" id="FM-to-EX" style="stroke:#666666;stroke-width:1.0;"/><polygon fill="#666666" points="314.78,378.9686,319.1876,370.1611,315.0088,373.9739,311.1959,369.7951,314.78,378.9686" style="stroke:#666666;stroke-width:1.0;"/><text fill="#000000" font-family="Arial" font-size="13" lengthAdjust="spacing" textLength="91" x="318" y="325.2925">Donn&#233;es brutes</text></g><!--link EX to TR--><g id="link_EX_TR"><path d="M283.33,415.2686 C268.06,423.9686 249.41,434.8486 233,445.0986 C203.89,463.2886 176.2059,482.0274 154.5159,497.0174 " fill="none" id="EX-to-TR" style="stroke:#666666;stroke-width:1.0;"/><polygon fill="#666666" points="149.58,500.4286,159.2581,498.6024,153.6933,497.5859,154.7097,492.0212,149.58,500.4286" style="stroke:#666666;stroke-width:1.0;"/><text fill="#000000" font-family="Arial" font-size="13" lengthAdjust="spacing" textLength="71" x="234" y="458.2925">DataFrames</text></g><!--link TR to Fichiers Transform?s--><g id="link_TR_Fichiers Transform&#233;s"><path d="M171.12,536.6786 C249.88,565.8586 403.7735,622.8647 482.4235,651.9947 " fill="none" id="TR-to-Fichiers Transform&#233;s" style="stroke:#666666;stroke-width:1.0;"/><polygon fill="#666666" points="488.05,654.0786,480.9995,647.2018,483.3613,652.342,478.221,654.7038,488.05,654.0786" style="stroke:#666666;stroke-width:1.0;"/><text fill="#000000" font-family="Arial" font-size="13" lengthAdjust="spacing" textLength="67" x="361" y="589.2925">Sauvegarde</text><text fill="#000000" font-family="Arial" font-size="13" lengthAdjust="spacing" textLength="81" x="354" y="604.2412">fichiers trait&#233;s</text></g><!--link TR to LD--><g id="link_TR_LD"><path d="M121.84,536.6786 C116.46,565.7786 106.6804,618.7285 101.2804,647.9485 " fill="none" id="TR-to-LD" style="stroke:#666666;stroke-width:1.0;"/><polygon fill="#666666" points="100.19,653.8486,105.7589,645.7254,101.0986,648.9319,97.8922,644.2716,100.19,653.8486" style="stroke:#666666;stroke-width:1.0;"/><text fill="#000000" font-family="Arial" font-size="13" lengthAdjust="spacing" textLength="71" x="115" y="589.2925">DataFrames</text><text fill="#000000" font-family="Arial" font-size="13" lengthAdjust="spacing" textLength="63" x="119" y="604.2412">normalis&#233;s</text></g><!--link LD to STAG--><g id="link_LD_STAG"><path d="M128.39,690.1286 C139.99,696.0086 153.39,702.3086 166,707.0986 C274.15,748.1886 311.14,729.4186 417,776.0986 C452.75,791.8686 485.4454,813.6926 508.5754,830.4926 " fill="none" id="LD-to-STAG" style="stroke:#666666;stroke-width:1.0;"/><polygon fill="#666666" points="513.43,834.0186,508.4988,825.4932,509.3845,831.0803,503.7974,831.966,513.43,834.0186" style="stroke:#666666;stroke-width:1.0;"/><text fill="#000000" font-family="Arial" font-size="13" lengthAdjust="spacing" textLength="51" x="393" y="750.2925">Copie en</text><text fill="#000000" font-family="Arial" font-size="13" lengthAdjust="spacing" textLength="39" x="399" y="765.2412">masse</text></g><!--link STAG to FIN--><g id="link_STAG_FIN"><path d="M536.18,870.1786 C536.56,906.7086 537.3775,986.059 537.7575,1022.559 " fill="none" id="STAG-to-FIN" style="stroke:#666666;stroke-width:1.0;"/><polygon fill="#666666" points="537.82,1028.5586,541.7261,1019.5175,537.7679,1023.5589,533.7265,1019.6008,537.82,1028.5586" style="stroke:#666666;stroke-width:1.0;"/><text fill="#000000" font-family="Arial" font-size="13" lengthAdjust="spacing" textLength="58" x="538.5" y="956.2925">Ex&#233;cution</text><text fill="#000000" font-family="Arial" font-size="13" lengthAdjust="spacing" textLength="59" x="538" y="971.2412">script ETL</text></g><!--link FIN to MB--><g id="link_FIN_MB"><path d="M538,1064.6786 C538,1093.7786 538,1146.6286 538,1175.8486 " fill="none" id="FIN-to-MB" style="stroke:#666666;stroke-width:1.0;"/><polygon fill="#666666" points="538,1181.8486,542,1172.8486,538,1176.8486,534,1172.8486,538,1181.8486" style="stroke:#666666;stroke-width:1.0;"/><text fill="#000000" font-family="Arial" font-size="13" lengthAdjust="spacing" textLength="62" x="543" y="1134.2925">Analyse et</text><text fill="#000000" font-family="Arial" font-size="13" lengthAdjust="spacing" textLength="70" x="539" y="1149.2412">visualisation</text></g><!--SRC=[ZLNDZk964BxxALfmcEJ0xY5I5768nE018J6papM38YrHLDXbqvgcs-bk3yEkzbtsodFmOgbg6q_FR2AjGK1NVLtrrI_kKUeQBEp55lB7off65rEZZ1M7dVIOk5wVctrjD6gV-QD2OJ7te2iLGtQWYuELtgCM9IWNw_P6ctndpHw_KxaT5EOWTVMTfi0I6kLdHlixe9iJAq55-ecrvj3I7VuQdkI_68ilYH3NR-8RpdxZ5skCBT1sqabuICfEEzaluKc-9ecNdc8VJ3IeusTShCH8f18gyaRiYYkmEMSjzur5SRDQ3fBaIgJdKocrj4AXQpavqDw9sagTonfONA1GLr3NIkRWfT59JMoXUkLgyg8MFzqV_SxezoiArgFzUH12_BJWGmavYWSlbNJWiR5_2N3YOS7wEJg-ha4IF_8vayGNhGkGsIr1wDsxlfSrAgdRI883Cd7pN1lhnQqf6eNXtisVOhYKrSvVgmPRqCg2TgMn-nYt-jZXvXPHjy2bWIB6BDCEau6YZWcWyA6DHx4rtfkzC2Nv358XCD1vLn-xyqWik_GNbDQoYqzCitKFcDhpgSqYPI053pCg7xgWHrq4L__hUFMni-Cl8SQ-x-WC8U-jUQwtedntrXdIbI0edwZs3R7RW_wdePw8O1aDLm6sY6qLu7-KvZBjB2bASCnmocoUsUAzSRwocFsnZ9rMF8R16G7FfuZHT0UsmZsFKq6X2mzR5LAikOFVqlhAqt8bCjFOlEtltY250Ljmr62pg3m3BZzzjusSTc0n_R1UfA4rmg- -W-3u2hQ6F2SYdAe0Na-cCJHmIJdpBIRYy9A6mE1-tX9OSNINX0IJsMeo5yCFLFOAUmHDJHj_Eq6BkmYHT5MnJ8EBGkgapMLEQyZROtTw2kInEnKWrV7lWtGNWVF4cQZdtHbz_Yw9aXs2MqlNz9sNl6o-mIssaOReRg_5C4MiiyTZ6DQtswbKpVEhMd51HgFVQJU8iPYJVOTsL9nFjCFG2jDiT7O-APeuxYXgumOL_ICGcYyzBEZIfEGXv7ro6SQDfgucUfBpbn2eTn3PUW6Vl_6iqLQr5xkqSCQYB_tMDZmM96GTBPbnFDHqPl6dljNwrNG-KT789pHFMD6auKRtwo8u9C3bEgsbsEf6wsxG6KDAneJ-6DE0rHAfE1kz1yfM4iGXGcgEiRXvFf_oXaFSQ9TRMNlUhWah6KG5efJnogVUHB_HJw_g-Yy0]--></g></svg>